<svg width="68" height="42" viewBox="0 0 68 42" fill="none" xmlns="http://www.w3.org/2000/svg">
<rect x="0.5" y="0.5" width="67" height="41" rx="19.5" fill="white"/>
<rect x="0.5" y="0.5" width="67" height="41" rx="19.5" stroke="white"/>
<path d="M20.3693 27.09C19.4153 27.09 18.9113 26.658 18.7673 25.704H18.7493C18.1913 26.424 17.2373 27.18 15.6533 27.18C13.8893 27.18 12.5033 26.352 12.5033 24.588C12.5033 22.392 14.2313 21.942 16.5533 21.582C17.8673 21.384 18.7853 21.258 18.7853 20.25C18.7853 19.206 18.0293 18.612 16.6973 18.612C15.1853 18.612 14.4293 19.26 14.3753 20.664H12.9713C13.0253 18.864 14.2133 17.514 16.6793 17.514C18.6593 17.514 20.1173 18.252 20.1173 20.466V24.894C20.1173 25.65 20.2973 26.064 21.1073 25.884H21.1613V26.946C20.9813 27.018 20.7473 27.09 20.3693 27.09ZM15.9773 26.064C17.9213 26.064 18.8033 24.642 18.8033 23.562V21.978C18.3173 22.284 17.4713 22.518 16.6793 22.662C15.2213 22.932 14.0513 23.184 14.0513 24.552C14.0513 25.794 15.0233 26.064 15.9773 26.064ZM26.6651 27.27C25.4051 27.27 24.4871 26.82 23.7311 25.776H23.6951V27H22.2371V14.13H23.6951V19.026H23.7311C24.4331 18.072 25.3691 17.478 26.7191 17.478C29.0771 17.478 30.6791 19.278 30.6791 22.374C30.6791 25.362 29.1851 27.27 26.6651 27.27ZM26.5571 26.046C28.3391 26.046 29.1851 24.498 29.1851 22.392C29.1851 20.304 28.3391 18.72 26.5751 18.72C24.5411 18.72 23.6051 20.376 23.6051 22.392C23.6051 24.48 24.5771 26.046 26.5571 26.046ZM36.1116 27.252C33.3396 27.252 31.6116 25.056 31.6116 22.356C31.6116 19.656 33.3396 17.46 36.1116 17.46C38.9016 17.46 40.5936 19.656 40.5936 22.356C40.5936 25.056 38.9016 27.252 36.1116 27.252ZM36.1116 26.028C38.0916 26.028 39.0996 24.408 39.0996 22.356C39.0996 20.304 38.0916 18.666 36.1116 18.666C34.1316 18.666 33.1056 20.304 33.1056 22.356C33.1056 24.408 34.1316 26.028 36.1116 26.028ZM49.4276 27H47.9696V25.722H47.9336C47.2676 26.622 46.4756 27.216 45.1256 27.216C43.2176 27.216 41.9936 26.064 41.9936 24.138V17.694H43.4516V24.102C43.4516 25.308 44.2256 26.01 45.5396 26.01C47.0156 26.01 47.9696 24.894 47.9696 23.418V17.694H49.4276V27ZM50.8052 18.882V17.694H52.1552V14.76H53.6132V17.694H55.4132V18.882H53.6132V24.93C53.6132 25.578 53.9552 25.794 54.5492 25.794C54.8372 25.794 55.1612 25.722 55.3232 25.668H55.3772V26.928C55.0352 27 54.6392 27.054 54.2072 27.054C53.0192 27.054 52.1552 26.568 52.1552 25.254V18.882H50.8052Z" fill="black"/>
</svg>
