<svg width="159" height="48" viewBox="0 0 159 48" fill="none" xmlns="http://www.w3.org/2000/svg">
<rect x="0.5" y="0.5" width="158" height="47" rx="23.5" fill="#E3FF51"/>
<rect x="0.5" y="0.5" width="158" height="47" rx="23.5" stroke="black"/>
<path d="M41.375 32.375C39.6083 32.375 38.2083 31.7667 37.175 30.55C36.1583 29.3167 35.65 27.6583 35.65 25.575C35.65 23.475 36.1833 21.8167 37.25 20.6C38.3167 19.3833 39.675 18.775 41.325 18.775C43.075 18.775 44.425 19.4833 45.375 20.9H45.425V14.125H47.45V32H45.425V30.425H45.375C44.3583 31.725 43.025 32.375 41.375 32.375ZM41.45 30.675C42.8333 30.675 43.8583 30.2167 44.525 29.3C45.2083 28.3833 45.55 27.15 45.55 25.6C45.55 24.0667 45.1833 22.8333 44.45 21.9C43.7333 20.9667 42.725 20.5 41.425 20.5C40.2417 20.5 39.325 20.975 38.675 21.925C38.0417 22.8583 37.725 24.0833 37.725 25.6C37.725 27.1167 38.0417 28.3417 38.675 29.275C39.325 30.2083 40.25 30.675 41.45 30.675ZM49.9184 32V19.075H51.9434V32H49.9184ZM49.9184 16.625V14.125H51.9434V16.625H49.9184ZM59.3285 32.375C57.5619 32.375 56.1868 31.9833 55.2035 31.2C54.2368 30.4 53.7035 29.2667 53.6035 27.8H55.6785C55.9118 29.7167 57.1452 30.675 59.3785 30.675C60.3952 30.675 61.1452 30.4833 61.6285 30.1C62.1285 29.7 62.3785 29.1833 62.3785 28.55C62.3785 27.8667 62.1369 27.375 61.6535 27.075C61.1702 26.775 60.2869 26.4917 59.0035 26.225C58.4702 26.1083 58.0452 26.0167 57.7285 25.95C57.4285 25.8667 57.0619 25.7583 56.6285 25.625C56.1952 25.475 55.8535 25.3167 55.6035 25.15C55.3702 24.9667 55.1285 24.75 54.8785 24.5C54.6285 24.25 54.4452 23.9417 54.3285 23.575C54.2285 23.2083 54.1785 22.8 54.1785 22.35C54.1785 21.25 54.5785 20.3833 55.3785 19.75C56.1952 19.1167 57.3452 18.8 58.8285 18.8C61.8952 18.8 63.5869 20.15 63.9035 22.85H61.8285C61.7285 22 61.4369 21.3833 60.9535 21C60.4702 20.6 59.7452 20.4 58.7785 20.4C57.8952 20.4 57.2369 20.575 56.8035 20.925C56.3868 21.2583 56.1785 21.7 56.1785 22.25C56.1785 22.8833 56.4285 23.3333 56.9285 23.6C57.4285 23.85 58.3368 24.1083 59.6535 24.375C60.4535 24.5417 61.0785 24.7 61.5285 24.85C61.9952 24.9833 62.4785 25.2 62.9785 25.5C63.4785 25.7833 63.8452 26.1667 64.0785 26.65C64.3119 27.1333 64.4285 27.7333 64.4285 28.45C64.4285 29.7167 63.9619 30.6917 63.0285 31.375C62.0952 32.0417 60.8619 32.375 59.3285 32.375ZM71.8611 32.35C69.9778 32.35 68.4611 31.7 67.3111 30.4C66.1778 29.1 65.6111 27.4833 65.6111 25.55C65.6111 23.6167 66.1778 22 67.3111 20.7C68.4611 19.4 69.9778 18.75 71.8611 18.75C73.3778 18.75 74.6195 19.1583 75.5861 19.975C76.5528 20.775 77.1528 21.8667 77.3861 23.25H75.3361C75.1861 22.3667 74.8111 21.675 74.2111 21.175C73.6111 20.675 72.8278 20.425 71.8611 20.425C70.5278 20.425 69.4945 20.9083 68.7611 21.875C68.0445 22.8417 67.6861 24.0667 67.6861 25.55C67.6861 27.0333 68.0445 28.2583 68.7611 29.225C69.4945 30.175 70.5278 30.65 71.8611 30.65C72.8945 30.65 73.7195 30.375 74.3361 29.825C74.9528 29.2583 75.3028 28.4667 75.3861 27.45H77.3861C77.2528 29 76.7028 30.2083 75.7361 31.075C74.7695 31.925 73.4778 32.35 71.8611 32.35ZM89.075 30.4C87.9417 31.7 86.4333 32.35 84.55 32.35C82.6667 32.35 81.15 31.7 80 30.4C78.8667 29.1 78.3 27.4833 78.3 25.55C78.3 23.6167 78.8667 22 80 20.7C81.15 19.4 82.6667 18.75 84.55 18.75C86.4333 18.75 87.9417 19.4 89.075 20.7C90.2083 22 90.775 23.6167 90.775 25.55C90.775 27.4833 90.2083 29.1 89.075 30.4ZM81.45 29.225C82.1833 30.175 83.2167 30.65 84.55 30.65C85.8833 30.65 86.9083 30.175 87.625 29.225C88.3417 28.2583 88.7 27.0333 88.7 25.55C88.7 24.05 88.3333 22.825 87.6 21.875C86.8833 20.9083 85.8667 20.425 84.55 20.425C83.2167 20.425 82.1833 20.9083 81.45 21.875C80.7333 22.8417 80.375 24.0667 80.375 25.55C80.375 27.0333 80.7333 28.2583 81.45 29.225ZM95.4754 32L90.9504 19.075H93.1254L95.8004 27.275L96.6504 30H96.7004C97.0171 28.9333 97.3004 28.025 97.5504 27.275L100.275 19.075H102.375L97.7254 32H95.4754ZM108.805 32.35C106.888 32.35 105.363 31.7083 104.23 30.425C103.113 29.125 102.555 27.5 102.555 25.55C102.555 23.6333 103.121 22.025 104.255 20.725C105.405 19.4083 106.88 18.75 108.68 18.75C110.58 18.75 112.046 19.4167 113.08 20.75C114.113 22.0667 114.63 23.825 114.63 26.025H104.63C104.713 27.3917 105.113 28.5083 105.83 29.375C106.563 30.225 107.555 30.65 108.805 30.65C110.738 30.65 111.93 29.7667 112.38 28H114.355C114.055 29.3833 113.421 30.4583 112.455 31.225C111.488 31.975 110.271 32.35 108.805 32.35ZM111.38 21.45C110.73 20.7167 109.83 20.35 108.68 20.35C107.53 20.35 106.613 20.7333 105.93 21.5C105.263 22.2667 104.846 23.2667 104.68 24.5H112.455C112.388 23.2 112.03 22.1833 111.38 21.45ZM118.36 19.075V21.225H118.41C118.826 20.5417 119.368 19.9917 120.035 19.575C120.701 19.1417 121.443 18.925 122.26 18.925C122.56 18.925 122.835 18.975 123.085 19.075V21.025H123.01C122.76 20.9417 122.46 20.9 122.11 20.9C121.076 20.9 120.193 21.2667 119.46 22C118.726 22.7167 118.36 23.6583 118.36 24.825V32H116.335V19.075H118.36Z" fill="black"/>
</svg>
