<svg width="89" height="19" viewBox="0 0 89 19" fill="none" xmlns="http://www.w3.org/2000/svg">
<path d="M6.375 18.375C4.60833 18.375 3.20833 17.7667 2.175 16.55C1.15833 15.3167 0.65 13.6583 0.65 11.575C0.65 9.475 1.18333 7.81667 2.25 6.6C3.31667 5.38333 4.675 4.775 6.325 4.775C8.075 4.775 9.425 5.48333 10.375 6.9H10.425V0.124999H12.45V18H10.425V16.425H10.375C9.35833 17.725 8.025 18.375 6.375 18.375ZM6.45 16.675C7.83333 16.675 8.85833 16.2167 9.525 15.3C10.2083 14.3833 10.55 13.15 10.55 11.6C10.55 10.0667 10.1833 8.83333 9.45 7.9C8.73333 6.96667 7.725 6.5 6.425 6.5C5.24167 6.5 4.325 6.975 3.675 7.925C3.04167 8.85833 2.725 10.0833 2.725 11.6C2.725 13.1167 3.04167 14.3417 3.675 15.275C4.325 16.2083 5.25 16.675 6.45 16.675ZM14.9184 18V5.075H16.9434V18H14.9184ZM14.9184 2.625V0.124999H16.9434V2.625H14.9184ZM24.3285 18.375C22.5619 18.375 21.1868 17.9833 20.2035 17.2C19.2368 16.4 18.7035 15.2667 18.6035 13.8H20.6785C20.9118 15.7167 22.1452 16.675 24.3785 16.675C25.3952 16.675 26.1452 16.4833 26.6285 16.1C27.1285 15.7 27.3785 15.1833 27.3785 14.55C27.3785 13.8667 27.1369 13.375 26.6535 13.075C26.1702 12.775 25.2869 12.4917 24.0035 12.225C23.4702 12.1083 23.0452 12.0167 22.7285 11.95C22.4285 11.8667 22.0619 11.7583 21.6285 11.625C21.1952 11.475 20.8535 11.3167 20.6035 11.15C20.3702 10.9667 20.1285 10.75 19.8785 10.5C19.6285 10.25 19.4452 9.94167 19.3285 9.575C19.2285 9.20833 19.1785 8.8 19.1785 8.35C19.1785 7.25 19.5785 6.38333 20.3785 5.75C21.1952 5.11667 22.3452 4.8 23.8285 4.8C26.8952 4.8 28.5869 6.15 28.9035 8.85H26.8285C26.7285 8 26.4369 7.38333 25.9535 7C25.4702 6.6 24.7452 6.4 23.7785 6.4C22.8952 6.4 22.2369 6.575 21.8035 6.925C21.3868 7.25833 21.1785 7.7 21.1785 8.25C21.1785 8.88333 21.4285 9.33333 21.9285 9.6C22.4285 9.85 23.3368 10.1083 24.6535 10.375C25.4535 10.5417 26.0785 10.7 26.5285 10.85C26.9952 10.9833 27.4785 11.2 27.9785 11.5C28.4785 11.7833 28.8452 12.1667 29.0785 12.65C29.3119 13.1333 29.4285 13.7333 29.4285 14.45C29.4285 15.7167 28.9619 16.6917 28.0285 17.375C27.0952 18.0417 25.8619 18.375 24.3285 18.375ZM36.8611 18.35C34.9778 18.35 33.4611 17.7 32.3111 16.4C31.1778 15.1 30.6111 13.4833 30.6111 11.55C30.6111 9.61667 31.1778 8 32.3111 6.7C33.4611 5.4 34.9778 4.75 36.8611 4.75C38.3778 4.75 39.6195 5.15833 40.5861 5.975C41.5528 6.775 42.1528 7.86667 42.3861 9.25H40.3361C40.1861 8.36667 39.8111 7.675 39.2111 7.175C38.6111 6.675 37.8278 6.425 36.8611 6.425C35.5278 6.425 34.4945 6.90833 33.7611 7.875C33.0445 8.84167 32.6861 10.0667 32.6861 11.55C32.6861 13.0333 33.0445 14.2583 33.7611 15.225C34.4945 16.175 35.5278 16.65 36.8611 16.65C37.8945 16.65 38.7195 16.375 39.3361 15.825C39.9528 15.2583 40.3028 14.4667 40.3861 13.45H42.3861C42.2528 15 41.7028 16.2083 40.7361 17.075C39.7695 17.925 38.4778 18.35 36.8611 18.35ZM54.075 16.4C52.9417 17.7 51.4333 18.35 49.55 18.35C47.6667 18.35 46.15 17.7 45 16.4C43.8667 15.1 43.3 13.4833 43.3 11.55C43.3 9.61667 43.8667 8 45 6.7C46.15 5.4 47.6667 4.75 49.55 4.75C51.4333 4.75 52.9417 5.4 54.075 6.7C55.2083 8 55.775 9.61667 55.775 11.55C55.775 13.4833 55.2083 15.1 54.075 16.4ZM46.45 15.225C47.1833 16.175 48.2167 16.65 49.55 16.65C50.8833 16.65 51.9083 16.175 52.625 15.225C53.3417 14.2583 53.7 13.0333 53.7 11.55C53.7 10.05 53.3333 8.825 52.6 7.875C51.8833 6.90833 50.8667 6.425 49.55 6.425C48.2167 6.425 47.1833 6.90833 46.45 7.875C45.7333 8.84167 45.375 10.0667 45.375 11.55C45.375 13.0333 45.7333 14.2583 46.45 15.225ZM60.4754 18L55.9504 5.075H58.1254L60.8004 13.275L61.6504 16H61.7004C62.0171 14.9333 62.3004 14.025 62.5504 13.275L65.2754 5.075H67.3754L62.7254 18H60.4754ZM73.8047 18.35C71.888 18.35 70.363 17.7083 69.2297 16.425C68.113 15.125 67.5547 13.5 67.5547 11.55C67.5547 9.63333 68.1214 8.025 69.2547 6.725C70.4047 5.40833 71.8797 4.75 73.6797 4.75C75.5797 4.75 77.0464 5.41667 78.0797 6.75C79.113 8.06667 79.6297 9.825 79.6297 12.025H69.6297C69.713 13.3917 70.113 14.5083 70.8297 15.375C71.563 16.225 72.5547 16.65 73.8047 16.65C75.738 16.65 76.9297 15.7667 77.3797 14H79.3547C79.0547 15.3833 78.4214 16.4583 77.4547 17.225C76.488 17.975 75.2714 18.35 73.8047 18.35ZM76.3797 7.45C75.7297 6.71667 74.8297 6.35 73.6797 6.35C72.5297 6.35 71.613 6.73333 70.9297 7.5C70.263 8.26667 69.8464 9.26667 69.6797 10.5H77.4547C77.388 9.2 77.0297 8.18333 76.3797 7.45ZM83.3598 5.075V7.225H83.4098C83.8264 6.54167 84.3681 5.99167 85.0348 5.575C85.7014 5.14167 86.4431 4.925 87.2598 4.925C87.5598 4.925 87.8348 4.975 88.0848 5.075V7.025H88.0098C87.7598 6.94167 87.4598 6.9 87.1098 6.9C86.0764 6.9 85.1931 7.26667 84.4598 8C83.7264 8.71667 83.3598 9.65833 83.3598 10.825V18H81.3348V5.075H83.3598Z" fill="black"/>
</svg>
