<svg width="252" height="48" viewBox="0 0 252 48" fill="none" xmlns="http://www.w3.org/2000/svg">
<rect x="0.5" y="0.5" width="251" height="47" rx="23.5" fill="#E3FF51"/>
<rect x="0.5" y="0.5" width="251" height="47" rx="23.5" stroke="black"/>
<path d="M87.875 32.375C86.1083 32.375 84.7083 31.7667 83.675 30.55C82.6583 29.3167 82.15 27.6583 82.15 25.575C82.15 23.475 82.6833 21.8167 83.75 20.6C84.8167 19.3833 86.175 18.775 87.825 18.775C89.575 18.775 90.925 19.4833 91.875 20.9H91.925V14.125H93.95V32H91.925V30.425H91.875C90.8583 31.725 89.525 32.375 87.875 32.375ZM87.95 30.675C89.3333 30.675 90.3583 30.2167 91.025 29.3C91.7083 28.3833 92.05 27.15 92.05 25.6C92.05 24.0667 91.6833 22.8333 90.95 21.9C90.2333 20.9667 89.225 20.5 87.925 20.5C86.7417 20.5 85.825 20.975 85.175 21.925C84.5417 22.8583 84.225 24.0833 84.225 25.6C84.225 27.1167 84.5417 28.3417 85.175 29.275C85.825 30.2083 86.75 30.675 87.95 30.675ZM96.4184 32V19.075H98.4434V32H96.4184ZM96.4184 16.625V14.125H98.4434V16.625H96.4184ZM105.829 32.375C104.062 32.375 102.687 31.9833 101.704 31.2C100.737 30.4 100.204 29.2667 100.104 27.8H102.179C102.412 29.7167 103.645 30.675 105.879 30.675C106.895 30.675 107.645 30.4833 108.129 30.1C108.629 29.7 108.879 29.1833 108.879 28.55C108.879 27.8667 108.637 27.375 108.154 27.075C107.67 26.775 106.787 26.4917 105.504 26.225C104.97 26.1083 104.545 26.0167 104.229 25.95C103.929 25.8667 103.562 25.7583 103.129 25.625C102.695 25.475 102.354 25.3167 102.104 25.15C101.87 24.9667 101.629 24.75 101.379 24.5C101.129 24.25 100.945 23.9417 100.829 23.575C100.729 23.2083 100.679 22.8 100.679 22.35C100.679 21.25 101.079 20.3833 101.879 19.75C102.695 19.1167 103.845 18.8 105.329 18.8C108.395 18.8 110.087 20.15 110.404 22.85H108.329C108.229 22 107.937 21.3833 107.454 21C106.97 20.6 106.245 20.4 105.279 20.4C104.395 20.4 103.737 20.575 103.304 20.925C102.887 21.2583 102.679 21.7 102.679 22.25C102.679 22.8833 102.929 23.3333 103.429 23.6C103.929 23.85 104.837 24.1083 106.154 24.375C106.954 24.5417 107.579 24.7 108.029 24.85C108.495 24.9833 108.979 25.2 109.479 25.5C109.979 25.7833 110.345 26.1667 110.579 26.65C110.812 27.1333 110.929 27.7333 110.929 28.45C110.929 29.7167 110.462 30.6917 109.529 31.375C108.595 32.0417 107.362 32.375 105.829 32.375ZM118.361 32.35C116.478 32.35 114.961 31.7 113.811 30.4C112.678 29.1 112.111 27.4833 112.111 25.55C112.111 23.6167 112.678 22 113.811 20.7C114.961 19.4 116.478 18.75 118.361 18.75C119.878 18.75 121.119 19.1583 122.086 19.975C123.053 20.775 123.653 21.8667 123.886 23.25H121.836C121.686 22.3667 121.311 21.675 120.711 21.175C120.111 20.675 119.328 20.425 118.361 20.425C117.028 20.425 115.994 20.9083 115.261 21.875C114.544 22.8417 114.186 24.0667 114.186 25.55C114.186 27.0333 114.544 28.2583 115.261 29.225C115.994 30.175 117.028 30.65 118.361 30.65C119.394 30.65 120.219 30.375 120.836 29.825C121.453 29.2583 121.803 28.4667 121.886 27.45H123.886C123.753 29 123.203 30.2083 122.236 31.075C121.269 31.925 119.978 32.35 118.361 32.35ZM135.575 30.4C134.442 31.7 132.933 32.35 131.05 32.35C129.167 32.35 127.65 31.7 126.5 30.4C125.367 29.1 124.8 27.4833 124.8 25.55C124.8 23.6167 125.367 22 126.5 20.7C127.65 19.4 129.167 18.75 131.05 18.75C132.933 18.75 134.442 19.4 135.575 20.7C136.708 22 137.275 23.6167 137.275 25.55C137.275 27.4833 136.708 29.1 135.575 30.4ZM127.95 29.225C128.683 30.175 129.717 30.65 131.05 30.65C132.383 30.65 133.408 30.175 134.125 29.225C134.842 28.2583 135.2 27.0333 135.2 25.55C135.2 24.05 134.833 22.825 134.1 21.875C133.383 20.9083 132.367 20.425 131.05 20.425C129.717 20.425 128.683 20.9083 127.95 21.875C127.233 22.8417 126.875 24.0667 126.875 25.55C126.875 27.0333 127.233 28.2583 127.95 29.225ZM141.975 32L137.45 19.075H139.625L142.3 27.275L143.15 30H143.2C143.517 28.9333 143.8 28.025 144.05 27.275L146.775 19.075H148.875L144.225 32H141.975ZM155.305 32.35C153.388 32.35 151.863 31.7083 150.73 30.425C149.613 29.125 149.055 27.5 149.055 25.55C149.055 23.6333 149.621 22.025 150.755 20.725C151.905 19.4083 153.38 18.75 155.18 18.75C157.08 18.75 158.546 19.4167 159.58 20.75C160.613 22.0667 161.13 23.825 161.13 26.025H151.13C151.213 27.3917 151.613 28.5083 152.33 29.375C153.063 30.225 154.055 30.65 155.305 30.65C157.238 30.65 158.43 29.7667 158.88 28H160.855C160.555 29.3833 159.921 30.4583 158.955 31.225C157.988 31.975 156.771 32.35 155.305 32.35ZM157.88 21.45C157.23 20.7167 156.33 20.35 155.18 20.35C154.03 20.35 153.113 20.7333 152.43 21.5C151.763 22.2667 151.346 23.2667 151.18 24.5H158.955C158.888 23.2 158.53 22.1833 157.88 21.45ZM164.86 19.075V21.225H164.91C165.326 20.5417 165.868 19.9917 166.535 19.575C167.201 19.1417 167.943 18.925 168.76 18.925C169.06 18.925 169.335 18.975 169.585 19.075V21.025H169.51C169.26 20.9417 168.96 20.9 168.61 20.9C167.576 20.9 166.693 21.2667 165.96 22C165.226 22.7167 164.86 23.6583 164.86 24.825V32H162.835V19.075H164.86Z" fill="black"/>
</svg>
