<svg width="1512" height="198" viewBox="0 0 1512 198" fill="none" xmlns="http://www.w3.org/2000/svg">
<mask id="path-1-inside-1_5362_1724" fill="white">
<path d="M0 0H1512V198H0V0Z"/>
</mask>
<path d="M0 0H1512V198H0V0Z" fill="white"/>
<path d="M0 1H1512V-1H0V1Z" fill="black" mask="url(#path-1-inside-1_5362_1724)"/>
<path d="M38.888 54.74C37.2773 54.74 35.9547 54.1853 34.92 53.076C33.896 51.956 33.384 50.5373 33.384 48.82C33.384 47.092 33.8853 45.6627 34.888 44.532C35.8907 43.4013 37.2187 42.836 38.872 42.836C40.2373 42.836 41.3307 43.1987 42.152 43.924C42.984 44.6387 43.464 45.5613 43.592 46.692H41.288C41.1813 46.1053 40.9147 45.6413 40.488 45.3C40.072 44.9587 39.5333 44.788 38.872 44.788C37.8587 44.788 37.0853 45.1613 36.552 45.908C36.0187 46.6547 35.752 47.6253 35.752 48.82C35.752 50.004 36.0347 50.9693 36.6 51.716C37.176 52.4627 37.9387 52.836 38.888 52.836C39.56 52.836 40.12 52.6547 40.568 52.292C41.016 51.9187 41.2773 51.428 41.352 50.82H43.624C43.56 51.8973 43.1387 52.7987 42.36 53.524C41.496 54.3347 40.3387 54.74 38.888 54.74ZM51.5196 53.508C50.7196 54.3293 49.6903 54.74 48.4316 54.74C47.173 54.74 46.1436 54.3293 45.3436 53.508C44.5436 52.676 44.1436 51.6413 44.1436 50.404C44.1436 49.1667 44.5436 48.1373 45.3436 47.316C46.1436 46.484 47.173 46.068 48.4316 46.068C49.6903 46.068 50.7196 46.484 51.5196 47.316C52.3196 48.1373 52.7196 49.1667 52.7196 50.404C52.7196 51.6413 52.3196 52.676 51.5196 53.508ZM48.4316 53.076C49.0823 53.076 49.589 52.836 49.9516 52.356C50.325 51.8653 50.5116 51.2147 50.5116 50.404C50.5116 49.5933 50.325 48.9427 49.9516 48.452C49.589 47.9613 49.0823 47.716 48.4316 47.716C47.7703 47.716 47.2583 47.9613 46.8956 48.452C46.533 48.932 46.3516 49.5827 46.3516 50.404C46.3516 51.2147 46.533 51.8653 46.8956 52.356C47.2583 52.836 47.7703 53.076 48.4316 53.076ZM55.6831 46.292V47.412H55.7311C56.2965 46.516 57.1071 46.068 58.1631 46.068C59.0058 46.068 59.6885 46.356 60.2111 46.932C60.7338 47.4973 60.9951 48.2333 60.9951 49.14V54.5H58.8191V49.46C58.8191 49.012 58.6911 48.6493 58.4351 48.372C58.1898 48.0947 57.8431 47.956 57.3951 47.956C56.9151 47.956 56.5151 48.132 56.1951 48.484C55.8858 48.836 55.7311 49.2893 55.7311 49.844V54.5H53.5551V46.292H55.6831ZM61.5241 47.732V46.292H62.6601V43.732H64.7881V46.292H66.1961V47.732H64.7881V52.084C64.7881 52.628 65.0601 52.9 65.6041 52.9L66.2441 52.884V54.484C65.9135 54.5053 65.4601 54.516 64.8841 54.516C64.2548 54.516 63.7268 54.3667 63.3001 54.068C62.8735 53.7587 62.6601 53.252 62.6601 52.548V47.732H61.5241ZM72.3868 54.5C72.2801 54.3613 72.1948 54.0573 72.1308 53.588H72.0988C71.8641 53.94 71.5654 54.212 71.2028 54.404C70.8401 54.596 70.3334 54.692 69.6828 54.692C68.8188 54.692 68.1254 54.4733 67.6028 54.036C67.0801 53.5987 66.8188 52.98 66.8188 52.18C66.8188 51.348 67.1068 50.74 67.6828 50.356C68.2588 49.9613 69.0694 49.6893 70.1148 49.54C70.8828 49.4333 71.4054 49.3267 71.6828 49.22C71.9601 49.1027 72.0988 48.9 72.0988 48.612C72.0988 48.3133 71.9814 48.0787 71.7468 47.908C71.5121 47.7267 71.1708 47.636 70.7228 47.636C69.7308 47.636 69.2028 48.02 69.1388 48.788H67.2028C67.2348 48.0093 67.5494 47.364 68.1468 46.852C68.7441 46.34 69.6081 46.084 70.7388 46.084C73.0428 46.084 74.1948 47.092 74.1948 49.108V53.284C74.1948 53.9027 74.2908 54.2813 74.4828 54.42V54.5H72.3868ZM70.2108 53.172C70.8081 53.172 71.2774 53.0173 71.6188 52.708C71.9708 52.3987 72.1468 52.0307 72.1468 51.604V50.372C71.9121 50.5107 71.4054 50.6707 70.6268 50.852C70.0081 50.9907 69.5708 51.1507 69.3148 51.332C69.0588 51.5027 68.9308 51.7693 68.9308 52.132C68.9308 52.8253 69.3574 53.172 70.2108 53.172ZM79.2101 54.74C77.9408 54.74 76.9221 54.3293 76.1541 53.508C75.3861 52.6867 75.0021 51.652 75.0021 50.404C75.0021 49.156 75.3755 48.1213 76.1221 47.3C76.8795 46.4787 77.8715 46.068 79.0981 46.068C80.1328 46.068 80.9755 46.34 81.6261 46.884C82.2768 47.428 82.6768 48.1587 82.8261 49.076H80.6981C80.6235 48.7027 80.4528 48.3987 80.1861 48.164C79.9195 47.9293 79.5888 47.812 79.1941 47.812C78.5541 47.812 78.0635 48.0413 77.7221 48.5C77.3808 48.9587 77.2101 49.5933 77.2101 50.404C77.2101 51.204 77.3755 51.8387 77.7061 52.308C78.0368 52.7667 78.5221 52.996 79.1621 52.996C80.1115 52.996 80.6608 52.532 80.8101 51.604H82.9061C82.8315 52.5107 82.4635 53.2627 81.8021 53.86C81.1408 54.4467 80.2768 54.74 79.2101 54.74ZM83.1993 47.732V46.292H84.3353V43.732H86.4633V46.292H87.8713V47.732H86.4633V52.084C86.4633 52.628 86.7353 52.9 87.2793 52.9L87.9193 52.884V54.484C87.5886 54.5053 87.1353 54.516 86.5593 54.516C85.9299 54.516 85.4019 54.3667 84.9753 54.068C84.5486 53.7587 84.3353 53.252 84.3353 52.548V47.732H83.1993ZM92.2219 54.74C91.0485 54.74 90.1312 54.484 89.4699 53.972C88.8085 53.4493 88.4459 52.74 88.3819 51.844H90.3979C90.5365 52.7507 91.1339 53.204 92.1899 53.204C92.6699 53.204 93.0379 53.1187 93.2939 52.948C93.5605 52.7773 93.6939 52.548 93.6939 52.26C93.6939 52.1533 93.6725 52.0573 93.6299 51.972C93.5979 51.8867 93.5339 51.812 93.4379 51.748C93.3525 51.6733 93.2725 51.6147 93.1979 51.572C93.1339 51.5293 93.0165 51.4867 92.8459 51.444C92.6752 51.4013 92.5419 51.3693 92.4459 51.348C92.3605 51.3267 92.2059 51.3 91.9819 51.268C91.7685 51.2253 91.6192 51.1933 91.5339 51.172C91.0859 51.0867 90.7179 51.0013 90.4299 50.916C90.1525 50.82 89.8592 50.6867 89.5499 50.516C89.2405 50.3347 89.0059 50.0947 88.8459 49.796C88.6965 49.4867 88.6219 49.1187 88.6219 48.692C88.6219 47.8387 88.9312 47.188 89.5499 46.74C90.1792 46.292 90.9845 46.068 91.9659 46.068C93.0219 46.068 93.8485 46.3133 94.4459 46.804C95.0539 47.284 95.4005 47.9453 95.4859 48.788H93.5179C93.4325 47.988 92.9045 47.588 91.9339 47.588C91.4965 47.588 91.1499 47.668 90.8939 47.828C90.6485 47.988 90.5259 48.212 90.5259 48.5C90.5259 48.596 90.5419 48.6867 90.5739 48.772C90.6165 48.8467 90.6805 48.916 90.7659 48.98C90.8619 49.0333 90.9525 49.0813 91.0379 49.124C91.1232 49.156 91.2459 49.1933 91.4059 49.236C91.5659 49.268 91.7045 49.3 91.8219 49.332C91.9392 49.3533 92.0992 49.3853 92.3019 49.428C92.5045 49.46 92.6645 49.4867 92.7819 49.508C93.1232 49.5827 93.4005 49.652 93.6139 49.716C93.8379 49.7693 94.0939 49.8653 94.3819 50.004C94.6699 50.132 94.8939 50.2813 95.0539 50.452C95.2245 50.612 95.3685 50.836 95.4859 51.124C95.6139 51.4013 95.6779 51.7267 95.6779 52.1C95.6779 52.9107 95.3579 53.556 94.7179 54.036C94.0885 54.5053 93.2565 54.74 92.2219 54.74Z" fill="black"/>
<path d="M35.3949 76.796V75.772H38.4989V72.572H39.5549V75.772H42.6589V76.796H39.5549V79.996H38.4989V76.796H35.3949ZM45.9596 81.5V73.516H43.5596V72.62C44.9036 72.588 46.0556 72.092 46.2636 70.476H47.3036V81.5H45.9596ZM54.5658 83.388C53.2538 81.388 52.2298 79.148 52.2298 76.14C52.2298 73.356 53.3498 71.132 54.5658 69.436H55.6218C54.5658 71.228 53.7498 73.516 53.7498 76.14C53.7498 78.972 54.4218 81.18 55.6218 83.388H54.5658ZM61.1309 81.5V78.812H55.9629V77.612L61.3869 70.428H62.4429V77.74H64.2509V78.812H62.4429V81.5H61.1309ZM57.2589 77.692V77.74H61.1309V72.604H61.0989L57.2589 77.692ZM67.069 81.5V73.516H64.669V72.62C66.013 72.588 67.165 72.092 67.373 70.476H68.413V81.5H67.069ZM74.0563 81.74C71.7843 81.74 70.1203 80.364 70.0243 78.332H71.3523C71.5283 79.692 72.4883 80.556 74.0403 80.556C75.6083 80.556 76.6163 79.5 76.6163 77.9C76.6163 76.252 75.4803 75.292 74.0403 75.292C72.8563 75.292 72.0403 75.772 71.5763 76.428H70.2803L71.4963 70.54H77.3363V71.74H72.4403L71.7203 75.036H71.7523C72.3763 74.444 73.2083 74.108 74.2643 74.108C76.2163 74.108 77.9923 75.5 77.9923 77.932C77.9923 80.268 76.3283 81.74 74.0563 81.74ZM78.852 83.388C80.052 81.18 80.724 78.972 80.724 76.14C80.724 73.516 79.908 71.228 78.852 69.436H79.908C81.124 71.132 82.244 73.356 82.244 76.14C82.244 79.148 81.22 81.388 79.908 83.388H78.852ZM90.3063 81.74C88.0343 81.74 86.3703 80.364 86.2743 78.332H87.6023C87.7783 79.692 88.7383 80.556 90.2903 80.556C91.8583 80.556 92.8663 79.5 92.8663 77.9C92.8663 76.252 91.7303 75.292 90.2903 75.292C89.1063 75.292 88.2903 75.772 87.8263 76.428H86.5303L87.7463 70.54H93.5863V71.74H88.6903L87.9703 75.036H88.0023C88.6263 74.444 89.4583 74.108 90.5143 74.108C92.4663 74.108 94.2423 75.5 94.2423 77.932C94.2423 80.268 92.5783 81.74 90.3063 81.74ZM99.15 81.74C96.878 81.74 95.214 80.364 95.118 78.332H96.446C96.622 79.692 97.582 80.556 99.134 80.556C100.702 80.556 101.71 79.5 101.71 77.9C101.71 76.252 100.574 75.292 99.134 75.292C97.95 75.292 97.134 75.772 96.67 76.428H95.374L96.59 70.54H102.43V71.74H97.534L96.814 75.036H96.846C97.47 74.444 98.302 74.108 99.358 74.108C101.31 74.108 103.086 75.5 103.086 77.932C103.086 80.268 101.422 81.74 99.15 81.74ZM107.994 81.74C105.722 81.74 104.058 80.364 103.962 78.332H105.29C105.466 79.692 106.426 80.556 107.978 80.556C109.546 80.556 110.554 79.5 110.554 77.9C110.554 76.252 109.418 75.292 107.978 75.292C106.794 75.292 105.978 75.772 105.514 76.428H104.218L105.434 70.54H111.274V71.74H106.378L105.658 75.036H105.69C106.314 74.444 107.146 74.108 108.202 74.108C110.154 74.108 111.93 75.5 111.93 77.932C111.93 80.268 110.266 81.74 107.994 81.74ZM113.046 77.676V76.492H117.334V77.676H113.046ZM122.594 81.74C120.178 81.74 118.274 80.38 118.226 77.884H119.554C119.602 79.644 120.738 80.62 122.546 80.62C124.066 80.62 125.138 79.868 125.138 78.316C125.138 76.924 124.098 76.188 122.258 76.188H121.57V75.148H122.242C123.954 75.148 124.818 74.428 124.818 73.26C124.818 72.06 123.746 71.34 122.434 71.34C120.85 71.34 119.906 72.364 119.906 73.884H118.594C118.61 71.724 120.066 70.284 122.482 70.284C124.514 70.284 126.13 71.388 126.13 73.292C126.13 74.524 125.378 75.244 124.322 75.596V75.644C125.858 76.044 126.53 77.02 126.53 78.444C126.53 80.54 124.818 81.74 122.594 81.74ZM132.631 81.5V78.812H127.463V77.612L132.887 70.428H133.943V77.74H135.751V78.812H133.943V81.5H132.631ZM128.759 77.692V77.74H132.631V72.604H132.599L128.759 77.692ZM136.605 81.5C136.733 78.572 138.797 77.5 140.717 76.396C142.157 75.564 143.037 75.004 143.037 73.676C143.037 72.332 142.109 71.42 140.653 71.42C139.885 71.42 139.309 71.676 138.909 72.108C138.477 72.572 138.285 73.18 138.285 74.3H136.877C136.877 72.892 137.245 71.996 137.917 71.324C138.621 70.636 139.645 70.3 140.765 70.3C142.989 70.3 144.429 71.708 144.429 73.66C144.429 75.772 142.989 76.476 141.229 77.452C140.045 78.108 138.525 79.004 138.221 80.22H144.205V81.5H136.605ZM145.496 81.5C145.624 78.572 147.688 77.5 149.608 76.396C151.048 75.564 151.928 75.004 151.928 73.676C151.928 72.332 151 71.42 149.544 71.42C148.776 71.42 148.2 71.676 147.8 72.108C147.368 72.572 147.176 73.18 147.176 74.3H145.768C145.768 72.892 146.136 71.996 146.808 71.324C147.512 70.636 148.536 70.3 149.656 70.3C151.88 70.3 153.32 71.708 153.32 73.66C153.32 75.772 151.88 76.476 150.12 77.452C148.936 78.108 147.416 79.004 147.112 80.22H153.096V81.5H145.496ZM36.08 99.74C33.824 99.74 32.416 98.044 32.416 95.388C32.416 92.636 34 91.036 36.048 91.036C37.216 91.036 38.112 91.612 38.64 92.396H38.672V88.06H39.968V99.5H38.672V98.492H38.64C38.016 99.292 37.248 99.74 36.08 99.74ZM36.128 98.652C37.968 98.652 38.752 97.276 38.752 95.404C38.752 93.484 37.824 92.14 36.112 92.14C34.544 92.14 33.744 93.548 33.744 95.404C33.744 97.276 34.544 98.652 36.128 98.652ZM43.0198 91.228V92.604H43.0518C43.5478 91.804 44.4118 91.132 45.5158 91.132C45.7558 91.132 45.8838 91.164 46.0438 91.228V92.476H45.9958C45.8038 92.412 45.6758 92.396 45.4198 92.396C44.1398 92.396 43.0198 93.356 43.0198 94.908V99.5H41.7238V91.228H43.0198ZM47.2081 99.5V91.228H48.5041V99.5H47.2081ZM47.2081 89.66V88.06H48.5041V89.66H47.2081ZM51.5666 91.228V92.316H51.5986C52.1906 91.532 53.0226 91.036 54.2226 91.036C55.9506 91.036 57.0066 91.98 57.0066 93.692V99.5H55.7106V93.804C55.7106 92.732 55.0066 92.124 53.8386 92.124C52.5266 92.124 51.5666 93.052 51.5666 94.412V99.5H50.2706V91.228H51.5666ZM64.1638 99.5L61.2358 95.036L60.0198 96.188V99.5H58.7238V88.06H60.0198V94.764L63.6518 91.228H65.2998L62.1318 94.204L65.6838 99.5H64.1638ZM66.5321 99.5V97.916H68.0841V99.5H66.5321ZM70.5161 99.5L67.8921 91.228H69.2841L70.7401 96.332C70.9321 97.02 71.1881 98.108 71.1881 98.108H71.2201C71.2201 98.108 71.4601 97.02 71.6361 96.364L73.0281 91.228H74.3881L75.7321 96.364C75.9081 97.036 76.1321 98.108 76.1321 98.108H76.1641C76.1641 98.108 76.4201 97.02 76.6281 96.332L78.1641 91.228H79.5081L76.8041 99.5H75.4761L74.1001 94.492C73.9081 93.804 73.7001 92.764 73.7001 92.764H73.6681C73.6681 92.764 73.4441 93.804 73.2521 94.492L71.8601 99.5H70.5161ZM86.7198 99.58C85.8718 99.58 85.4238 99.196 85.2958 98.348H85.2798C84.7838 98.988 83.9358 99.66 82.5278 99.66C80.9598 99.66 79.7278 98.924 79.7278 97.356C79.7278 95.404 81.2638 95.004 83.3278 94.684C84.4958 94.508 85.3118 94.396 85.3118 93.5C85.3118 92.572 84.6398 92.044 83.4557 92.044C82.1118 92.044 81.4398 92.62 81.3918 93.868H80.1438C80.1918 92.268 81.2478 91.068 83.4398 91.068C85.1998 91.068 86.4958 91.724 86.4958 93.692V97.628C86.4958 98.3 86.6558 98.668 87.3758 98.508H87.4237V99.452C87.2638 99.516 87.0558 99.58 86.7198 99.58ZM82.8158 98.668C84.5438 98.668 85.3278 97.404 85.3278 96.444V95.036C84.8958 95.308 84.1438 95.516 83.4398 95.644C82.1438 95.884 81.1038 96.108 81.1038 97.324C81.1038 98.428 81.9678 98.668 82.8158 98.668ZM87.6958 92.284V91.228H88.8958V88.62H90.1918V91.228H91.7918V92.284H90.1918V97.66C90.1918 98.236 90.4958 98.428 91.0238 98.428C91.2798 98.428 91.5677 98.364 91.7118 98.316H91.7598V99.436C91.4557 99.5 91.1038 99.548 90.7198 99.548C89.6638 99.548 88.8958 99.116 88.8958 97.948V92.284H87.6958ZM96.5879 99.724C94.0599 99.724 92.5879 97.772 92.5879 95.372C92.5879 92.972 94.1559 91.02 96.5079 91.02C98.9879 91.02 100.316 92.94 100.316 95.676H93.9159C94.0119 97.356 94.9239 98.636 96.5879 98.636C97.7879 98.636 98.5879 98.06 98.8759 96.94H100.14C99.7559 98.716 98.4599 99.724 96.5879 99.724ZM96.5079 92.044C94.9719 92.044 94.1399 93.196 93.9479 94.7H98.9239C98.8439 93.052 97.9959 92.044 96.5079 92.044ZM103.475 99.5L100.579 91.228H101.971L103.683 96.476C103.923 97.212 104.227 98.22 104.227 98.22H104.259C104.259 98.22 104.563 97.196 104.803 96.476L106.547 91.228H107.891L104.915 99.5H103.475ZM112.182 99.724C109.654 99.724 108.182 97.772 108.182 95.372C108.182 92.972 109.75 91.02 112.102 91.02C114.582 91.02 115.91 92.94 115.91 95.676H109.51C109.606 97.356 110.518 98.636 112.182 98.636C113.382 98.636 114.182 98.06 114.47 96.94H115.734C115.35 98.716 114.054 99.724 112.182 99.724ZM112.102 92.044C110.566 92.044 109.734 93.196 109.542 94.7H114.518C114.438 93.052 113.59 92.044 112.102 92.044ZM118.473 91.228V92.604H118.505C119.001 91.804 119.865 91.132 120.969 91.132C121.209 91.132 121.337 91.164 121.497 91.228V92.476H121.449C121.257 92.412 121.129 92.396 120.873 92.396C119.593 92.396 118.473 93.356 118.473 94.908V99.5H117.177V91.228H118.473ZM128.245 98.236C126.549 98.236 125.509 96.988 125.509 95.196C125.509 92.732 126.933 91.164 128.789 91.164C129.765 91.164 130.421 91.66 130.757 92.3H130.789L130.917 91.324H132.165L131.621 95.772C131.509 96.652 131.781 97.1 132.501 97.1C133.349 97.1 134.229 96.172 134.229 93.948C134.229 90.668 131.957 89.1 129.077 89.1C126.085 89.1 123.445 91.276 123.445 94.956C123.445 97.98 125.349 100.204 128.789 100.204C129.893 100.204 130.853 99.996 131.765 99.644L132.133 100.524C131.157 100.956 130.037 101.18 128.869 101.18C124.997 101.18 122.309 98.7 122.309 94.94C122.309 90.556 125.701 88.092 129.125 88.092C132.261 88.092 135.333 90.076 135.333 93.884C135.333 96.332 134.373 98.124 132.421 98.124C131.429 98.124 130.821 97.644 130.581 96.972H130.549C130.053 97.724 129.205 98.236 128.245 98.236ZM128.373 97.244C129.861 97.244 130.549 95.9 130.549 94.188C130.549 92.972 130.005 92.172 128.821 92.172C127.413 92.172 126.805 93.532 126.805 95.18C126.805 96.332 127.269 97.244 128.373 97.244ZM138.704 99.5L136.08 91.228H137.472L138.928 96.332C139.12 97.02 139.376 98.108 139.376 98.108H139.408C139.408 98.108 139.648 97.02 139.824 96.364L141.216 91.228H142.576L143.92 96.364C144.096 97.036 144.32 98.108 144.32 98.108H144.352C144.352 98.108 144.608 97.02 144.816 96.332L146.352 91.228H147.696L144.992 99.5H143.664L142.288 94.492C142.096 93.804 141.888 92.764 141.888 92.764H141.856C141.856 92.764 141.632 93.804 141.44 94.492L140.048 99.5H138.704ZM152.025 99.724C149.497 99.724 148.025 97.772 148.025 95.372C148.025 92.972 149.593 91.02 151.945 91.02C154.425 91.02 155.753 92.94 155.753 95.676H149.353C149.449 97.356 150.361 98.636 152.025 98.636C153.225 98.636 154.025 98.06 154.313 96.94H155.577C155.193 98.716 153.897 99.724 152.025 99.724ZM151.945 92.044C150.409 92.044 149.577 93.196 149.385 94.7H154.361C154.281 93.052 153.433 92.044 151.945 92.044ZM156.336 92.284V91.228H157.536V88.62H158.832V91.228H160.432V92.284H158.832V97.66C158.832 98.236 159.136 98.428 159.664 98.428C159.92 98.428 160.208 98.364 160.352 98.316H160.4V99.436C160.096 99.5 159.744 99.548 159.36 99.548C158.304 99.548 157.536 99.116 157.536 97.948V92.284H156.336ZM161.771 99.5V91.228H163.067V92.412H163.099C163.611 91.612 164.491 91.036 165.531 91.036C166.539 91.036 167.339 91.548 167.691 92.508H167.723C168.251 91.564 169.243 91.036 170.251 91.036C171.723 91.036 172.763 91.98 172.763 93.692V99.5H171.467V93.756C171.467 92.732 170.779 92.124 169.947 92.124C168.875 92.124 167.915 93.052 167.915 94.348V99.5H166.619V93.756C166.619 92.732 166.043 92.124 165.195 92.124C164.187 92.124 163.067 93.052 163.067 94.348V99.5H161.771ZM180.97 99.58C180.122 99.58 179.674 99.196 179.546 98.348H179.53C179.034 98.988 178.186 99.66 176.778 99.66C175.21 99.66 173.978 98.924 173.978 97.356C173.978 95.404 175.514 95.004 177.578 94.684C178.746 94.508 179.562 94.396 179.562 93.5C179.562 92.572 178.89 92.044 177.706 92.044C176.362 92.044 175.69 92.62 175.642 93.868H174.394C174.442 92.268 175.498 91.068 177.69 91.068C179.45 91.068 180.746 91.724 180.746 93.692V97.628C180.746 98.3 180.906 98.668 181.626 98.508H181.674V99.452C181.514 99.516 181.306 99.58 180.97 99.58ZM177.066 98.668C178.794 98.668 179.578 97.404 179.578 96.444V95.036C179.146 95.308 178.394 95.516 177.69 95.644C176.394 95.884 175.354 96.108 175.354 97.324C175.354 98.428 176.218 98.668 177.066 98.668ZM182.63 99.5V91.228H183.926V99.5H182.63ZM182.63 89.66V88.06H183.926V89.66H182.63ZM185.741 99.5V88.06H187.037V99.5H185.741ZM188.673 99.5V97.916H190.225V99.5H188.673ZM194.932 99.724C192.468 99.724 190.932 97.772 190.932 95.372C190.932 92.972 192.468 91.02 194.932 91.02C196.884 91.02 198.18 92.14 198.468 93.9H197.156C196.964 92.78 196.18 92.092 194.932 92.092C193.172 92.092 192.26 93.548 192.26 95.372C192.26 97.196 193.172 98.636 194.932 98.636C196.276 98.636 197.076 97.868 197.188 96.588H198.468C198.292 98.572 196.996 99.724 194.932 99.724ZM203.229 99.724C200.765 99.724 199.229 97.772 199.229 95.372C199.229 92.972 200.765 91.02 203.229 91.02C205.709 91.02 207.213 92.972 207.213 95.372C207.213 97.772 205.709 99.724 203.229 99.724ZM203.229 98.636C204.989 98.636 205.885 97.196 205.885 95.372C205.885 93.548 204.989 92.092 203.229 92.092C201.469 92.092 200.557 93.548 200.557 95.372C200.557 97.196 201.469 98.636 203.229 98.636ZM208.505 99.5V91.228H209.801V92.412H209.833C210.345 91.612 211.225 91.036 212.265 91.036C213.273 91.036 214.073 91.548 214.425 92.508H214.457C214.985 91.564 215.977 91.036 216.985 91.036C218.457 91.036 219.497 91.98 219.497 93.692V99.5H218.201V93.756C218.201 92.732 217.513 92.124 216.681 92.124C215.609 92.124 214.649 93.052 214.649 94.348V99.5H213.353V93.756C213.353 92.732 212.777 92.124 211.929 92.124C210.921 92.124 209.801 93.052 209.801 94.348V99.5H208.505ZM32.88 117.5V109.228H34.176V117.5H32.88ZM32.88 107.66V106.06H34.176V107.66H32.88ZM37.2385 109.228V110.316H37.2705C37.8625 109.532 38.6945 109.036 39.8945 109.036C41.6225 109.036 42.6785 109.98 42.6785 111.692V117.5H41.3825V111.804C41.3825 110.732 40.6785 110.124 39.5105 110.124C38.1985 110.124 37.2385 111.052 37.2385 112.412V117.5H35.9425V109.228H37.2385ZM47.5316 117.74C45.2596 117.74 43.9956 116.668 43.8676 114.812H45.1956C45.3716 116.252 46.3316 116.652 47.5636 116.652C48.9236 116.652 49.4836 116.06 49.4836 115.292C49.4836 114.364 48.8436 114.124 47.3236 113.804C45.6916 113.468 44.2356 113.132 44.2356 111.324C44.2356 109.948 45.2916 109.052 47.2116 109.052C49.2596 109.052 50.2676 110.028 50.4596 111.644H49.1316C49.0036 110.556 48.4116 110.076 47.1796 110.076C45.9956 110.076 45.5156 110.604 45.5156 111.26C45.5156 112.156 46.3156 112.332 47.7396 112.62C49.4036 112.956 50.7956 113.324 50.7956 115.228C50.7956 116.892 49.4356 117.74 47.5316 117.74ZM51.352 110.284V109.228H52.552V106.62H53.848V109.228H55.448V110.284H53.848V115.66C53.848 116.236 54.152 116.428 54.68 116.428C54.936 116.428 55.224 116.364 55.368 116.316H55.416V117.436C55.112 117.5 54.76 117.548 54.376 117.548C53.32 117.548 52.552 117.116 52.552 115.948V110.284H51.352ZM63.2823 117.58C62.4343 117.58 61.9863 117.196 61.8583 116.348H61.8423C61.3463 116.988 60.4983 117.66 59.0903 117.66C57.5223 117.66 56.2903 116.924 56.2903 115.356C56.2903 113.404 57.8263 113.004 59.8903 112.684C61.0583 112.508 61.8743 112.396 61.8743 111.5C61.8743 110.572 61.2023 110.044 60.0182 110.044C58.6743 110.044 58.0023 110.62 57.9543 111.868H56.7063C56.7543 110.268 57.8103 109.068 60.0023 109.068C61.7623 109.068 63.0583 109.724 63.0583 111.692V115.628C63.0583 116.3 63.2183 116.668 63.9383 116.508H63.9862V117.452C63.8263 117.516 63.6183 117.58 63.2823 117.58ZM59.3783 116.668C61.1063 116.668 61.8903 115.404 61.8903 114.444V113.036C61.4583 113.308 60.7063 113.516 60.0023 113.644C58.7063 113.884 57.6663 114.108 57.6663 115.324C57.6663 116.428 58.5303 116.668 59.3783 116.668ZM68.2385 120.252C66.0945 120.252 64.8785 119.388 64.7345 117.964H65.9345C66.0625 118.876 66.9265 119.228 68.2065 119.228C69.7265 119.228 70.5745 118.54 70.5745 117.1V115.932H70.5425C69.9345 116.716 69.2785 117.212 68.0945 117.212C65.9505 117.212 64.4785 115.5 64.4785 113.116C64.4785 110.54 66.0945 109.036 68.0145 109.036C69.2145 109.036 69.9825 109.5 70.5425 110.284H70.5745V109.228H71.8705V117.052C71.8705 119.228 70.4305 120.252 68.2385 120.252ZM68.1585 116.124C70.0625 116.124 70.6705 114.796 70.6705 113.052C70.6705 111.244 69.9025 110.124 68.1425 110.124C66.5905 110.124 65.8065 111.34 65.8065 113.132C65.8065 114.94 66.6225 116.124 68.1585 116.124ZM74.926 109.228V110.604H74.958C75.454 109.804 76.318 109.132 77.422 109.132C77.662 109.132 77.79 109.164 77.95 109.228V110.476H77.902C77.71 110.412 77.582 110.396 77.326 110.396C76.046 110.396 74.926 111.356 74.926 112.908V117.5H73.63V109.228H74.926ZM85.2979 117.58C84.4499 117.58 84.0019 117.196 83.8739 116.348H83.8579C83.3619 116.988 82.5139 117.66 81.1059 117.66C79.5379 117.66 78.3059 116.924 78.3059 115.356C78.3059 113.404 79.8419 113.004 81.9059 112.684C83.0739 112.508 83.8899 112.396 83.8899 111.5C83.8899 110.572 83.2179 110.044 82.0339 110.044C80.6899 110.044 80.0179 110.62 79.9699 111.868H78.7219C78.7699 110.268 79.8259 109.068 82.0179 109.068C83.7779 109.068 85.0739 109.724 85.0739 111.692V115.628C85.0739 116.3 85.2339 116.668 85.9539 116.508H86.0019V117.452C85.8419 117.516 85.6339 117.58 85.2979 117.58ZM81.3939 116.668C83.1219 116.668 83.9059 115.404 83.9059 114.444V113.036C83.4739 113.308 82.7219 113.516 82.0179 113.644C80.7219 113.884 79.6819 114.108 79.6819 115.324C79.6819 116.428 80.5459 116.668 81.3939 116.668ZM86.9581 117.5V109.228H88.2541V110.412H88.2861C88.7981 109.612 89.6781 109.036 90.7181 109.036C91.7261 109.036 92.5261 109.548 92.8781 110.508H92.9101C93.4381 109.564 94.4301 109.036 95.4381 109.036C96.9101 109.036 97.9501 109.98 97.9501 111.692V117.5H96.6541V111.756C96.6541 110.732 95.9661 110.124 95.1341 110.124C94.0621 110.124 93.1021 111.052 93.1021 112.348V117.5H91.8061V111.756C91.8061 110.732 91.2301 110.124 90.3821 110.124C89.3741 110.124 88.2541 111.052 88.2541 112.348V117.5H86.9581Z" fill="black"/>
<path d="M909.364 64.8925V72.2222H909.535C910.955 69.8926 912.802 68.0175 915.075 66.5971C917.348 65.1198 919.876 64.3811 922.66 64.3811C923.683 64.3811 924.62 64.5516 925.473 64.8925V71.5403H925.217C924.365 71.2562 923.342 71.1142 922.149 71.1142C918.626 71.1142 915.615 72.3642 913.115 74.8643C910.615 77.3075 909.364 80.5178 909.364 84.4951V108.956H902.461V64.8925H909.364Z" fill="black"/>
<path d="M877.557 110.149C871.023 110.149 865.824 107.961 861.96 103.586C858.153 99.1542 856.25 93.6143 856.25 86.9664C856.25 80.4322 858.182 74.9492 862.046 70.5173C865.966 66.0285 870.995 63.7842 877.131 63.7842C883.608 63.7842 888.609 66.057 892.131 70.6025C895.654 75.0912 897.416 81.0856 897.416 88.5858H863.324C863.608 93.245 864.972 97.0519 867.415 100.006C869.915 102.904 873.296 104.353 877.557 104.353C884.148 104.353 888.211 101.342 889.745 95.3189H896.478C895.455 100.035 893.296 103.7 890.001 106.313C886.705 108.87 882.557 110.149 877.557 110.149ZM886.336 72.9889C884.12 70.4889 881.052 69.2388 877.131 69.2388C873.211 69.2388 870.085 70.5457 867.756 73.1594C865.483 75.773 864.063 79.1822 863.494 83.3868H890.001C889.773 78.9549 888.552 75.4889 886.336 72.9889Z" fill="black"/>
<path d="M832.883 108.956L817.457 64.8926H824.872L833.991 92.8477L836.889 102.138H837.06C838.139 98.5012 839.105 95.4045 839.957 92.8477L849.247 64.8926H856.407L840.554 108.956H832.883Z" fill="black"/>
<path d="M797.905 110.149C791.371 110.149 786.172 107.961 782.308 103.586C778.501 99.1542 776.598 93.6143 776.598 86.9664C776.598 80.4322 778.53 74.9492 782.393 70.5173C786.314 66.0285 791.342 63.7842 797.479 63.7842C803.956 63.7842 808.956 66.057 812.479 70.6025C816.002 75.0912 817.763 81.0856 817.763 88.5858H783.672C783.956 93.245 785.319 97.0519 787.763 100.006C790.263 102.904 793.643 104.353 797.905 104.353C804.496 104.353 808.558 101.342 810.093 95.3189H816.826C815.803 100.035 813.644 103.7 810.348 106.313C807.053 108.87 802.905 110.149 797.905 110.149ZM806.683 72.9889C804.467 70.4889 801.399 69.2388 797.479 69.2388C793.558 69.2388 790.433 70.5457 788.104 73.1594C785.831 75.773 784.41 79.1822 783.842 83.3868H810.348C810.121 78.9549 808.899 75.4889 806.683 72.9889Z" fill="black"/>
<path d="M752.238 70.5174V64.8923H758.63V51H765.534V64.8923H774.057V70.5174H765.534V99.1543C765.534 101.882 767.011 103.245 769.966 103.245C771.216 103.245 772.438 103.046 773.631 102.649H773.886V108.615C772.011 109.012 770.165 109.211 768.347 109.211C761.869 109.211 758.63 106.37 758.63 100.688V70.5174H752.238Z" fill="black"/>
<path d="M748.745 109.382C744.37 109.382 741.841 107.194 741.16 102.819H741.074C737.438 107.478 732.552 109.808 726.415 109.808C722.04 109.808 718.46 108.757 715.676 106.654C712.892 104.552 711.5 101.512 711.5 97.535C711.5 95.4895 711.813 93.7281 712.438 92.2508C713.119 90.7167 713.972 89.4951 714.994 88.586C716.017 87.62 717.409 86.7961 719.171 86.1143C720.989 85.3757 722.722 84.8359 724.37 84.495C726.017 84.0972 728.12 83.6995 730.676 83.3018C732.324 83.0745 733.489 82.904 734.171 82.7904C734.91 82.6199 735.847 82.3927 736.983 82.1086C738.12 81.7676 738.915 81.3983 739.37 81.0006C739.824 80.6029 740.251 80.0631 740.648 79.3812C741.046 78.6994 741.245 77.9039 741.245 76.9948C741.245 74.4948 740.364 72.5913 738.603 71.2845C736.898 69.9208 734.483 69.239 731.358 69.239C724.256 69.239 720.591 72.4777 720.364 78.9551H713.716C713.83 74.4664 715.364 70.8583 718.318 68.131C721.33 65.4037 725.648 64.04 731.273 64.04C742.126 64.04 747.552 68.6992 747.552 78.0176V98.9839C747.552 100.916 747.864 102.279 748.489 103.075C749.171 103.87 750.421 104.069 752.239 103.671H752.495V108.7C751.359 109.155 750.109 109.382 748.745 109.382ZM727.949 104.524C732.211 104.524 735.506 103.302 737.836 100.859C740.165 98.3589 741.33 95.6315 741.33 92.6769V85.1768C739.228 86.4836 735.875 87.5632 731.273 88.4155C729.569 88.7564 728.233 89.0405 727.267 89.2678C726.301 89.4382 725.193 89.7792 723.943 90.2905C722.693 90.7451 721.756 91.2565 721.131 91.8247C720.506 92.3928 719.966 93.1599 719.512 94.1258C719.057 95.0349 718.83 96.1145 718.83 97.3645C718.83 102.137 721.87 104.524 727.949 104.524Z" fill="black"/>
<path d="M664.138 108.956L650.16 64.8926H657.575L665.331 92.0806L667.717 101.541H667.888C668.74 97.6773 669.479 94.5806 670.104 92.2511L677.519 64.8926H684.763L691.922 92.2511L694.053 101.541H694.223C695.133 97.6773 695.956 94.5238 696.695 92.0806L704.877 64.8926H712.036L697.633 108.956H690.559L683.229 82.2793L681.098 73.0745H680.928C680.132 76.7678 679.394 79.836 678.712 82.2793L671.297 108.956H664.138Z" fill="black"/>
<path d="M643.623 86.573C643.623 102.209 630.948 114.885 615.312 114.885C599.676 114.885 587 102.209 587 86.573C587 70.9368 599.676 58.2612 615.312 58.2612C630.948 58.2612 643.623 70.9368 643.623 86.573Z" fill="#E3FF50"/>
<path fill-rule="evenodd" clip-rule="evenodd" d="M615.312 111.215C628.921 111.215 639.953 100.182 639.953 86.573C639.953 72.9637 628.921 61.9313 615.312 61.9313C601.703 61.9313 590.67 72.9637 590.67 86.573C590.67 100.182 601.703 111.215 615.312 111.215ZM615.312 114.885C630.948 114.885 643.623 102.209 643.623 86.573C643.623 70.9368 630.948 58.2612 615.312 58.2612C599.676 58.2612 587 70.9368 587 86.573C587 102.209 599.676 114.885 615.312 114.885Z" fill="black"/>
<path fill-rule="evenodd" clip-rule="evenodd" d="M624.817 95.1342C627.491 91.0135 629.205 85.2113 629.205 78.7085L632.875 78.7085C632.875 85.8152 631.009 92.3341 627.896 97.1321C624.793 101.912 620.292 105.186 615.049 105.186C609.805 105.186 605.304 101.912 602.202 97.1321C599.088 92.3341 597.223 85.8152 597.223 78.7085L600.893 78.7085C600.893 85.2113 602.607 91.0135 605.281 95.1342C607.966 99.2726 611.461 101.516 615.049 101.516C618.637 101.516 622.131 99.2726 624.817 95.1342Z" fill="black"/>
<path d="M612.763 77.2492C612.763 78.7348 611.558 79.9391 610.073 79.9391C608.587 79.9391 607.383 78.7348 607.383 77.2492C607.383 75.7636 608.587 74.5593 610.073 74.5593C611.558 74.5593 612.763 75.7636 612.763 77.2492Z" fill="black"/>
<path d="M623.239 77.2492C623.239 78.7348 622.035 79.9391 620.549 79.9391C619.064 79.9391 617.859 78.7348 617.859 77.2492C617.859 75.7636 619.064 74.5593 620.549 74.5593C622.035 74.5593 623.239 75.7636 623.239 77.2492Z" fill="black"/>
<path d="M1427.88 55V43.56H1432.9C1434.23 43.56 1435.22 43.944 1435.9 44.632C1436.54 45.288 1436.92 46.184 1436.92 47.24C1436.92 49.4 1435.5 50.856 1433.1 50.856H1430.28V55H1427.88ZM1430.28 45.576V48.968H1432.68C1433.9 48.968 1434.54 48.296 1434.54 47.256C1434.54 46.184 1433.86 45.576 1432.71 45.576H1430.28ZM1439.81 46.792V48.104H1439.86C1440.36 47.176 1440.92 46.696 1441.88 46.696C1442.12 46.696 1442.26 46.712 1442.39 46.76V48.664H1442.34C1440.92 48.52 1439.89 49.272 1439.89 51V55H1437.72V46.792H1439.81ZM1443.15 55V46.792H1445.32V55H1443.15ZM1443.15 45.512V43.56H1445.32V45.512H1443.15ZM1448.73 55L1445.88 46.792H1448.09L1449.4 51.048C1449.64 51.832 1449.77 52.36 1449.77 52.36H1449.8C1449.8 52.36 1449.91 51.832 1450.15 51.048L1451.5 46.792H1453.67L1450.81 55H1448.73ZM1459.17 55C1459.04 54.84 1458.96 54.456 1458.91 54.088H1458.88C1458.46 54.712 1457.87 55.192 1456.46 55.192C1454.78 55.192 1453.6 54.312 1453.6 52.68C1453.6 50.872 1455.07 50.296 1456.9 50.04C1458.26 49.848 1458.88 49.736 1458.88 49.112C1458.88 48.52 1458.42 48.136 1457.5 48.136C1456.48 48.136 1455.98 48.504 1455.92 49.288H1453.98C1454.05 47.848 1455.12 46.584 1457.52 46.584C1459.98 46.584 1460.98 47.688 1460.98 49.608V53.784C1460.98 54.408 1461.07 54.776 1461.26 54.92V55H1459.17ZM1456.99 53.672C1458.24 53.672 1458.93 52.904 1458.93 52.104V50.872C1458.54 51.096 1457.95 51.224 1457.41 51.352C1456.27 51.608 1455.71 51.864 1455.71 52.632C1455.71 53.4 1456.22 53.672 1456.99 53.672ZM1465.99 55.24C1463.4 55.24 1461.78 53.352 1461.78 50.904C1461.78 48.456 1463.38 46.568 1465.88 46.568C1468.01 46.568 1469.32 47.8 1469.61 49.576H1467.48C1467.34 48.856 1466.78 48.312 1465.98 48.312C1464.66 48.312 1463.99 49.32 1463.99 50.904C1463.99 52.456 1464.62 53.496 1465.94 53.496C1466.82 53.496 1467.45 53.032 1467.59 52.104H1469.69C1469.54 53.848 1468.18 55.24 1465.99 55.24ZM1470.56 57.688V55.976H1471.33C1472.19 55.976 1472.54 55.528 1472.54 54.856C1472.54 54.408 1472.38 53.88 1471.92 52.632L1469.71 46.792H1472L1473.21 50.488C1473.47 51.24 1473.74 52.28 1473.74 52.28H1473.77C1473.77 52.28 1474 51.24 1474.25 50.488L1475.41 46.792H1477.6L1474.73 55.208C1474.11 57.032 1473.5 57.688 1471.84 57.688H1470.56Z" fill="black"/>
<path d="M1348.12 70.824V69.56H1357.17V70.824H1353.37V81H1351.93V70.824H1348.12ZM1360.18 81.224C1357.65 81.224 1356.18 79.272 1356.18 76.872C1356.18 74.472 1357.75 72.52 1360.1 72.52C1362.58 72.52 1363.91 74.44 1363.91 77.176H1357.51C1357.61 78.856 1358.52 80.136 1360.18 80.136C1361.38 80.136 1362.18 79.56 1362.47 78.44H1363.73C1363.35 80.216 1362.05 81.224 1360.18 81.224ZM1360.1 73.544C1358.57 73.544 1357.73 74.696 1357.54 76.2H1362.52C1362.44 74.552 1361.59 73.544 1360.1 73.544ZM1366.47 72.728V74.104H1366.5C1367 73.304 1367.86 72.632 1368.97 72.632C1369.21 72.632 1369.34 72.664 1369.5 72.728V73.976H1369.45C1369.26 73.912 1369.13 73.896 1368.87 73.896C1367.59 73.896 1366.47 74.856 1366.47 76.408V81H1365.18V72.728H1366.47ZM1370.66 81V72.728H1371.96V73.912H1371.99C1372.5 73.112 1373.38 72.536 1374.42 72.536C1375.43 72.536 1376.23 73.048 1376.58 74.008H1376.61C1377.14 73.064 1378.13 72.536 1379.14 72.536C1380.61 72.536 1381.65 73.48 1381.65 75.192V81H1380.36V75.256C1380.36 74.232 1379.67 73.624 1378.84 73.624C1377.77 73.624 1376.81 74.552 1376.81 75.848V81H1375.51V75.256C1375.51 74.232 1374.93 73.624 1374.09 73.624C1373.08 73.624 1371.96 74.552 1371.96 75.848V81H1370.66ZM1386.5 81.24C1384.23 81.24 1382.96 80.168 1382.84 78.312H1384.16C1384.34 79.752 1385.3 80.152 1386.53 80.152C1387.89 80.152 1388.45 79.56 1388.45 78.792C1388.45 77.864 1387.81 77.624 1386.29 77.304C1384.66 76.968 1383.2 76.632 1383.2 74.824C1383.2 73.448 1384.26 72.552 1386.18 72.552C1388.23 72.552 1389.24 73.528 1389.43 75.144H1388.1C1387.97 74.056 1387.38 73.576 1386.15 73.576C1384.96 73.576 1384.48 74.104 1384.48 74.76C1384.48 75.656 1385.28 75.832 1386.71 76.12C1388.37 76.456 1389.76 76.824 1389.76 78.728C1389.76 80.392 1388.4 81.24 1386.5 81.24ZM1396.58 81.224C1394.91 81.224 1393.3 80.04 1393.3 78.168C1393.3 76.472 1394.34 75.608 1395.78 74.728L1395.46 74.312C1394.8 73.464 1394.58 72.792 1394.58 71.96C1394.58 70.664 1395.65 69.672 1397.04 69.672C1398.3 69.672 1399.52 70.456 1399.52 72.056C1399.52 73.448 1398.51 74.216 1397.42 74.92L1399.7 77.816C1399.94 77.192 1400.08 76.488 1400.08 75.704H1401.2C1401.2 76.792 1400.94 77.88 1400.46 78.792L1402.19 81H1400.64L1399.74 79.848C1398.98 80.68 1397.92 81.224 1396.58 81.224ZM1396.66 80.088C1397.62 80.088 1398.43 79.656 1399.04 78.936L1396.42 75.56C1395.38 76.248 1394.59 76.904 1394.59 78.168C1394.59 79.304 1395.52 80.088 1396.66 80.088ZM1395.79 71.976C1395.79 72.616 1396 73.08 1396.5 73.72L1396.8 74.12C1397.79 73.48 1398.27 72.904 1398.27 72.024C1398.27 71.24 1397.79 70.744 1397.04 70.744C1396.3 70.744 1395.79 71.24 1395.79 71.976ZM1410.61 81.224C1407.36 81.224 1405.25 78.744 1405.25 75.272C1405.25 71.912 1407.27 69.304 1410.67 69.304C1413.35 69.304 1414.96 70.84 1415.27 72.952H1413.86C1413.59 71.528 1412.45 70.552 1410.64 70.552C1408.13 70.552 1406.72 72.584 1406.72 75.272C1406.72 78.072 1408.27 79.96 1410.66 79.96C1412.82 79.96 1413.84 78.488 1413.99 76.808H1415.41C1415.39 77.944 1414.85 79.224 1414.03 80.024C1413.23 80.808 1412.07 81.224 1410.61 81.224ZM1420.37 81.224C1417.91 81.224 1416.37 79.272 1416.37 76.872C1416.37 74.472 1417.91 72.52 1420.37 72.52C1422.85 72.52 1424.35 74.472 1424.35 76.872C1424.35 79.272 1422.85 81.224 1420.37 81.224ZM1420.37 80.136C1422.13 80.136 1423.03 78.696 1423.03 76.872C1423.03 75.048 1422.13 73.592 1420.37 73.592C1418.61 73.592 1417.7 75.048 1417.7 76.872C1417.7 78.696 1418.61 80.136 1420.37 80.136ZM1426.94 72.728V73.816H1426.97C1427.57 73.032 1428.4 72.536 1429.6 72.536C1431.33 72.536 1432.38 73.48 1432.38 75.192V81H1431.09V75.304C1431.09 74.232 1430.38 73.624 1429.21 73.624C1427.9 73.624 1426.94 74.552 1426.94 75.912V81H1425.65V72.728H1426.94ZM1437.3 81.24C1435.04 81.24 1433.63 79.544 1433.63 76.888C1433.63 74.136 1435.22 72.536 1437.27 72.536C1438.43 72.536 1439.33 73.112 1439.86 73.896H1439.89V69.56H1441.19V81H1439.89V79.992H1439.86C1439.23 80.792 1438.47 81.24 1437.3 81.24ZM1437.35 80.152C1439.19 80.152 1439.97 78.776 1439.97 76.904C1439.97 74.984 1439.04 73.64 1437.33 73.64C1435.76 73.64 1434.96 75.048 1434.96 76.904C1434.96 78.776 1435.76 80.152 1437.35 80.152ZM1442.94 81V72.728H1444.24V81H1442.94ZM1442.94 71.16V69.56H1444.24V71.16H1442.94ZM1445.48 73.784V72.728H1446.68V70.12H1447.97V72.728H1449.57V73.784H1447.97V79.16C1447.97 79.736 1448.28 79.928 1448.81 79.928C1449.06 79.928 1449.35 79.864 1449.49 79.816H1449.54V80.936C1449.24 81 1448.89 81.048 1448.5 81.048C1447.45 81.048 1446.68 80.616 1446.68 79.448V73.784H1445.48ZM1450.91 81V72.728H1452.21V81H1450.91ZM1450.91 71.16V69.56H1452.21V71.16H1450.91ZM1457.51 81.224C1455.05 81.224 1453.51 79.272 1453.51 76.872C1453.51 74.472 1455.05 72.52 1457.51 72.52C1459.99 72.52 1461.49 74.472 1461.49 76.872C1461.49 79.272 1459.99 81.224 1457.51 81.224ZM1457.51 80.136C1459.27 80.136 1460.17 78.696 1460.17 76.872C1460.17 75.048 1459.27 73.592 1457.51 73.592C1455.75 73.592 1454.84 75.048 1454.84 76.872C1454.84 78.696 1455.75 80.136 1457.51 80.136ZM1464.08 72.728V73.816H1464.11C1464.71 73.032 1465.54 72.536 1466.74 72.536C1468.47 72.536 1469.52 73.48 1469.52 75.192V81H1468.23V75.304C1468.23 74.232 1467.52 73.624 1466.35 73.624C1465.04 73.624 1464.08 74.552 1464.08 75.912V81H1462.79V72.728H1464.08ZM1474.38 81.24C1472.1 81.24 1470.84 80.168 1470.71 78.312H1472.04C1472.22 79.752 1473.18 80.152 1474.41 80.152C1475.77 80.152 1476.33 79.56 1476.33 78.792C1476.33 77.864 1475.69 77.624 1474.17 77.304C1472.54 76.968 1471.08 76.632 1471.08 74.824C1471.08 73.448 1472.14 72.552 1474.06 72.552C1476.1 72.552 1477.11 73.528 1477.3 75.144H1475.98C1475.85 74.056 1475.26 73.576 1474.02 73.576C1472.84 73.576 1472.36 74.104 1472.36 74.76C1472.36 75.656 1473.16 75.832 1474.58 76.12C1476.25 76.456 1477.64 76.824 1477.64 78.728C1477.64 80.392 1476.28 81.24 1474.38 81.24ZM1392.5 99.224C1389.25 99.224 1387.14 96.744 1387.14 93.272C1387.14 89.912 1389.16 87.304 1392.56 87.304C1395.24 87.304 1396.85 88.84 1397.16 90.952H1395.75C1395.48 89.528 1394.34 88.552 1392.53 88.552C1390.02 88.552 1388.61 90.584 1388.61 93.272C1388.61 96.072 1390.16 97.96 1392.55 97.96C1394.71 97.96 1395.73 96.488 1395.88 94.808H1397.3C1397.28 95.944 1396.74 97.224 1395.92 98.024C1395.12 98.808 1393.96 99.224 1392.5 99.224ZM1402.26 99.224C1399.8 99.224 1398.26 97.272 1398.26 94.872C1398.26 92.472 1399.8 90.52 1402.26 90.52C1404.74 90.52 1406.24 92.472 1406.24 94.872C1406.24 97.272 1404.74 99.224 1402.26 99.224ZM1402.26 98.136C1404.02 98.136 1404.92 96.696 1404.92 94.872C1404.92 93.048 1404.02 91.592 1402.26 91.592C1400.5 91.592 1399.59 93.048 1399.59 94.872C1399.59 96.696 1400.5 98.136 1402.26 98.136ZM1411.07 99.224C1408.61 99.224 1407.07 97.272 1407.07 94.872C1407.07 92.472 1408.61 90.52 1411.07 90.52C1413.55 90.52 1415.06 92.472 1415.06 94.872C1415.06 97.272 1413.55 99.224 1411.07 99.224ZM1411.07 98.136C1412.83 98.136 1413.73 96.696 1413.73 94.872C1413.73 93.048 1412.83 91.592 1411.07 91.592C1409.31 91.592 1408.4 93.048 1408.4 94.872C1408.4 96.696 1409.31 98.136 1411.07 98.136ZM1421.79 99L1418.86 94.536L1417.64 95.688V99H1416.35V87.56H1417.64V94.264L1421.28 90.728H1422.92L1419.76 93.704L1423.31 99H1421.79ZM1424.18 99V90.728H1425.47V99H1424.18ZM1424.18 89.16V87.56H1425.47V89.16H1424.18ZM1430.78 99.224C1428.25 99.224 1426.78 97.272 1426.78 94.872C1426.78 92.472 1428.34 90.52 1430.7 90.52C1433.18 90.52 1434.5 92.44 1434.5 95.176H1428.1C1428.2 96.856 1429.11 98.136 1430.78 98.136C1431.98 98.136 1432.78 97.56 1433.06 96.44H1434.33C1433.94 98.216 1432.65 99.224 1430.78 99.224ZM1430.7 91.544C1429.16 91.544 1428.33 92.696 1428.14 94.2H1433.11C1433.03 92.552 1432.18 91.544 1430.7 91.544ZM1438.51 99V87.56H1443.28C1444.48 87.56 1445.41 87.96 1446 88.664C1446.48 89.224 1446.77 89.976 1446.77 90.84C1446.77 92.936 1445.57 94.2 1443.07 94.2H1439.95V99H1438.51ZM1439.95 88.808V93.032H1442.96C1444.57 93.032 1445.34 92.216 1445.34 90.904C1445.34 89.528 1444.49 88.808 1443.04 88.808H1439.95ZM1451.26 99.224C1448.8 99.224 1447.26 97.272 1447.26 94.872C1447.26 92.472 1448.8 90.52 1451.26 90.52C1453.74 90.52 1455.24 92.472 1455.24 94.872C1455.24 97.272 1453.74 99.224 1451.26 99.224ZM1451.26 98.136C1453.02 98.136 1453.92 96.696 1453.92 94.872C1453.92 93.048 1453.02 91.592 1451.26 91.592C1449.5 91.592 1448.59 93.048 1448.59 94.872C1448.59 96.696 1449.5 98.136 1451.26 98.136ZM1456.58 99V87.56H1457.88V99H1456.58ZM1459.69 99V90.728H1460.99V99H1459.69ZM1459.69 89.16V87.56H1460.99V89.16H1459.69ZM1466.29 99.224C1463.83 99.224 1462.29 97.272 1462.29 94.872C1462.29 92.472 1463.83 90.52 1466.29 90.52C1468.24 90.52 1469.54 91.64 1469.83 93.4H1468.52C1468.32 92.28 1467.54 91.592 1466.29 91.592C1464.53 91.592 1463.62 93.048 1463.62 94.872C1463.62 96.696 1464.53 98.136 1466.29 98.136C1467.64 98.136 1468.44 97.368 1468.55 96.088H1469.83C1469.65 98.072 1468.36 99.224 1466.29 99.224ZM1472.11 101.736C1471.61 101.736 1471.29 101.704 1470.94 101.56V100.408H1471C1471.18 100.504 1471.45 100.584 1471.88 100.584C1472.43 100.584 1472.8 100.376 1473.12 99.576L1473.44 98.76L1470.2 90.728H1471.61L1473.56 95.88C1473.82 96.568 1474.12 97.496 1474.12 97.496H1474.16C1474.16 97.496 1474.44 96.568 1474.7 95.88L1476.59 90.728H1477.96L1474.43 99.672C1473.76 101.384 1473.12 101.736 1472.11 101.736ZM1395.07 117V105.56H1399.23C1402.67 105.56 1404.3 107.896 1404.3 111.32C1404.3 114.744 1402.56 117 1399.12 117H1395.07ZM1396.51 115.736H1399.07C1401.76 115.736 1402.83 114.008 1402.83 111.32C1402.83 108.632 1401.87 106.808 1399.18 106.808H1396.51V115.736ZM1412.16 117.08C1411.31 117.08 1410.86 116.696 1410.73 115.848H1410.72C1410.22 116.488 1409.37 117.16 1407.97 117.16C1406.4 117.16 1405.17 116.424 1405.17 114.856C1405.17 112.904 1406.7 112.504 1408.77 112.184C1409.93 112.008 1410.75 111.896 1410.75 111C1410.75 110.072 1410.08 109.544 1408.89 109.544C1407.55 109.544 1406.88 110.12 1406.83 111.368H1405.58C1405.63 109.768 1406.69 108.568 1408.88 108.568C1410.64 108.568 1411.93 109.224 1411.93 111.192V115.128C1411.93 115.8 1412.09 116.168 1412.81 116.008H1412.86V116.952C1412.7 117.016 1412.49 117.08 1412.16 117.08ZM1408.25 116.168C1409.98 116.168 1410.77 114.904 1410.77 113.944V112.536C1410.33 112.808 1409.58 113.016 1408.88 113.144C1407.58 113.384 1406.54 113.608 1406.54 114.824C1406.54 115.928 1407.41 116.168 1408.25 116.168ZM1413.13 109.784V108.728H1414.33V106.12H1415.63V108.728H1417.23V109.784H1415.63V115.16C1415.63 115.736 1415.93 115.928 1416.46 115.928C1416.72 115.928 1417.01 115.864 1417.15 115.816H1417.2V116.936C1416.89 117 1416.54 117.048 1416.16 117.048C1415.1 117.048 1414.33 116.616 1414.33 115.448V109.784H1413.13ZM1425.06 117.08C1424.22 117.08 1423.77 116.696 1423.64 115.848H1423.62C1423.13 116.488 1422.28 117.16 1420.87 117.16C1419.3 117.16 1418.07 116.424 1418.07 114.856C1418.07 112.904 1419.61 112.504 1421.67 112.184C1422.84 112.008 1423.66 111.896 1423.66 111C1423.66 110.072 1422.98 109.544 1421.8 109.544C1420.46 109.544 1419.78 110.12 1419.74 111.368H1418.49C1418.54 109.768 1419.59 108.568 1421.78 108.568C1423.54 108.568 1424.84 109.224 1424.84 111.192V115.128C1424.84 115.8 1425 116.168 1425.72 116.008H1425.77V116.952C1425.61 117.016 1425.4 117.08 1425.06 117.08ZM1421.16 116.168C1422.89 116.168 1423.67 114.904 1423.67 113.944V112.536C1423.24 112.808 1422.49 113.016 1421.78 113.144C1420.49 113.384 1419.45 113.608 1419.45 114.824C1419.45 115.928 1420.31 116.168 1421.16 116.168ZM1429.46 117V105.56H1434.23C1435.43 105.56 1436.36 105.96 1436.95 106.664C1437.43 107.224 1437.72 107.976 1437.72 108.84C1437.72 110.936 1436.52 112.2 1434.02 112.2H1430.9V117H1429.46ZM1430.9 106.808V111.032H1433.91C1435.53 111.032 1436.29 110.216 1436.29 108.904C1436.29 107.528 1435.45 106.808 1433.99 106.808H1430.9ZM1440.21 108.728V110.104H1440.24C1440.74 109.304 1441.6 108.632 1442.7 108.632C1442.94 108.632 1443.07 108.664 1443.23 108.728V109.976H1443.18C1442.99 109.912 1442.86 109.896 1442.61 109.896C1441.33 109.896 1440.21 110.856 1440.21 112.408V117H1438.91V108.728H1440.21ZM1444.4 117V108.728H1445.69V117H1444.4ZM1444.4 107.16V105.56H1445.69V107.16H1444.4ZM1449.51 117L1446.61 108.728H1448L1449.71 113.976C1449.95 114.712 1450.26 115.72 1450.26 115.72H1450.29C1450.29 115.72 1450.59 114.696 1450.83 113.976L1452.58 108.728H1453.92L1450.95 117H1449.51ZM1461.09 117.08C1460.25 117.08 1459.8 116.696 1459.67 115.848H1459.65C1459.16 116.488 1458.31 117.16 1456.9 117.16C1455.33 117.16 1454.1 116.424 1454.1 114.856C1454.1 112.904 1455.64 112.504 1457.7 112.184C1458.87 112.008 1459.69 111.896 1459.69 111C1459.69 110.072 1459.01 109.544 1457.83 109.544C1456.49 109.544 1455.81 110.12 1455.77 111.368H1454.52C1454.57 109.768 1455.62 108.568 1457.81 108.568C1459.57 108.568 1460.87 109.224 1460.87 111.192V115.128C1460.87 115.8 1461.03 116.168 1461.75 116.008H1461.8V116.952C1461.64 117.016 1461.43 117.08 1461.09 117.08ZM1457.19 116.168C1458.92 116.168 1459.7 114.904 1459.7 113.944V112.536C1459.27 112.808 1458.52 113.016 1457.81 113.144C1456.52 113.384 1455.48 113.608 1455.48 114.824C1455.48 115.928 1456.34 116.168 1457.19 116.168ZM1466.29 117.224C1463.83 117.224 1462.29 115.272 1462.29 112.872C1462.29 110.472 1463.83 108.52 1466.29 108.52C1468.24 108.52 1469.54 109.64 1469.83 111.4H1468.52C1468.32 110.28 1467.54 109.592 1466.29 109.592C1464.53 109.592 1463.62 111.048 1463.62 112.872C1463.62 114.696 1464.53 116.136 1466.29 116.136C1467.64 116.136 1468.44 115.368 1468.55 114.088H1469.83C1469.65 116.072 1468.36 117.224 1466.29 117.224ZM1472.11 119.736C1471.61 119.736 1471.29 119.704 1470.94 119.56V118.408H1471C1471.18 118.504 1471.45 118.584 1471.88 118.584C1472.43 118.584 1472.8 118.376 1473.12 117.576L1473.44 116.76L1470.2 108.728H1471.61L1473.56 113.88C1473.82 114.568 1474.12 115.496 1474.12 115.496H1474.16C1474.16 115.496 1474.44 114.568 1474.7 113.88L1476.59 108.728H1477.96L1474.43 117.672C1473.76 119.384 1473.12 119.736 1472.11 119.736ZM1411.84 135V123.56H1416.61C1417.81 123.56 1418.73 123.96 1419.33 124.664C1419.81 125.224 1420.09 125.976 1420.09 126.84C1420.09 128.936 1418.89 130.2 1416.4 130.2H1413.28V135H1411.84ZM1413.28 124.808V129.032H1416.29C1417.9 129.032 1418.67 128.216 1418.67 126.904C1418.67 125.528 1417.82 124.808 1416.37 124.808H1413.28ZM1427.47 135.08C1426.62 135.08 1426.17 134.696 1426.05 133.848H1426.03C1425.53 134.488 1424.69 135.16 1423.28 135.16C1421.71 135.16 1420.48 134.424 1420.48 132.856C1420.48 130.904 1422.01 130.504 1424.08 130.184C1425.25 130.008 1426.06 129.896 1426.06 129C1426.06 128.072 1425.39 127.544 1424.21 127.544C1422.86 127.544 1422.19 128.12 1422.14 129.368H1420.89C1420.94 127.768 1422 126.568 1424.19 126.568C1425.95 126.568 1427.25 127.224 1427.25 129.192V133.128C1427.25 133.8 1427.41 134.168 1428.13 134.008H1428.17V134.952C1428.01 135.016 1427.81 135.08 1427.47 135.08ZM1423.57 134.168C1425.29 134.168 1426.08 132.904 1426.08 131.944V130.536C1425.65 130.808 1424.89 131.016 1424.19 131.144C1422.89 131.384 1421.85 131.608 1421.85 132.824C1421.85 133.928 1422.72 134.168 1423.57 134.168ZM1430.03 137.736C1429.53 137.736 1429.21 137.704 1428.86 137.56V136.408H1428.93C1429.1 136.504 1429.37 136.584 1429.81 136.584C1430.35 136.584 1430.72 136.376 1431.04 135.576L1431.36 134.76L1428.13 126.728H1429.53L1431.49 131.88C1431.74 132.568 1432.05 133.496 1432.05 133.496H1432.08C1432.08 133.496 1432.37 132.568 1432.62 131.88L1434.51 126.728H1435.89L1432.35 135.672C1431.68 137.384 1431.04 137.736 1430.03 137.736ZM1436.8 135V126.728H1438.1V127.912H1438.13C1438.64 127.112 1439.52 126.536 1440.56 126.536C1441.57 126.536 1442.37 127.048 1442.72 128.008H1442.75C1443.28 127.064 1444.27 126.536 1445.28 126.536C1446.75 126.536 1447.79 127.48 1447.79 129.192V135H1446.5V129.256C1446.5 128.232 1445.81 127.624 1444.98 127.624C1443.91 127.624 1442.95 128.552 1442.95 129.848V135H1441.65V129.256C1441.65 128.232 1441.07 127.624 1440.23 127.624C1439.22 127.624 1438.1 128.552 1438.1 129.848V135H1436.8ZM1453.04 135.224C1450.51 135.224 1449.04 133.272 1449.04 130.872C1449.04 128.472 1450.61 126.52 1452.96 126.52C1455.44 126.52 1456.77 128.44 1456.77 131.176H1450.37C1450.47 132.856 1451.38 134.136 1453.04 134.136C1454.24 134.136 1455.04 133.56 1455.33 132.44H1456.59C1456.21 134.216 1454.91 135.224 1453.04 135.224ZM1452.96 127.544C1451.43 127.544 1450.59 128.696 1450.4 130.2H1455.38C1455.3 128.552 1454.45 127.544 1452.96 127.544ZM1459.33 126.728V127.816H1459.36C1459.96 127.032 1460.79 126.536 1461.99 126.536C1463.72 126.536 1464.77 127.48 1464.77 129.192V135H1463.48V129.304C1463.48 128.232 1462.77 127.624 1461.6 127.624C1460.29 127.624 1459.33 128.552 1459.33 129.912V135H1458.04V126.728H1459.33ZM1465.81 127.784V126.728H1467.01V124.12H1468.3V126.728H1469.9V127.784H1468.3V133.16C1468.3 133.736 1468.61 133.928 1469.13 133.928C1469.39 133.928 1469.68 133.864 1469.82 133.816H1469.87V134.936C1469.57 135 1469.21 135.048 1468.83 135.048C1467.77 135.048 1467.01 134.616 1467.01 133.448V127.784H1465.81ZM1474.38 135.24C1472.1 135.24 1470.84 134.168 1470.71 132.312H1472.04C1472.22 133.752 1473.18 134.152 1474.41 134.152C1475.77 134.152 1476.33 133.56 1476.33 132.792C1476.33 131.864 1475.69 131.624 1474.17 131.304C1472.54 130.968 1471.08 130.632 1471.08 128.824C1471.08 127.448 1472.14 126.552 1474.06 126.552C1476.1 126.552 1477.11 127.528 1477.3 129.144H1475.98C1475.85 128.056 1475.26 127.576 1474.02 127.576C1472.84 127.576 1472.36 128.104 1472.36 128.76C1472.36 129.656 1473.16 129.832 1474.58 130.12C1476.25 130.456 1477.64 130.824 1477.64 132.728C1477.64 134.392 1476.28 135.24 1474.38 135.24Z" fill="black"/>
<path d="M46.8891 173.445C46.8891 177.556 43.5561 180.889 39.4446 180.889C35.333 180.889 32 177.556 32 173.445C32 169.333 35.333 166 39.4446 166C43.5561 166 46.8891 169.333 46.8891 173.445Z" fill="#E3FF50"/>
<path fill-rule="evenodd" clip-rule="evenodd" d="M39.4446 179.924C43.0231 179.924 45.9241 177.023 45.9241 173.445C45.9241 169.866 43.0231 166.965 39.4446 166.965C35.866 166.965 32.965 169.866 32.965 173.445C32.965 177.023 35.866 179.924 39.4446 179.924ZM39.4446 180.889C43.5561 180.889 46.8891 177.556 46.8891 173.445C46.8891 169.333 43.5561 166 39.4446 166C35.333 166 32 169.333 32 173.445C32 177.556 35.333 180.889 39.4446 180.889Z" fill="black"/>
<path fill-rule="evenodd" clip-rule="evenodd" d="M41.9437 175.696C42.6468 174.612 43.0975 173.086 43.0975 171.376L44.0625 171.376C44.0625 173.245 43.5719 174.959 42.7532 176.221C41.9375 177.478 40.754 178.339 39.3752 178.339C37.9964 178.339 36.8129 177.478 35.9972 176.221C35.1785 174.959 34.6879 173.245 34.6879 171.376L35.6529 171.376C35.6529 173.086 36.1036 174.612 36.8067 175.696C37.5129 176.784 38.4317 177.373 39.3752 177.373C40.3186 177.373 41.2375 176.784 41.9437 175.696Z" fill="black"/>
<path d="M38.7738 170.802C38.7738 171.192 38.4572 171.509 38.0666 171.509C37.676 171.509 37.3594 171.192 37.3594 170.802C37.3594 170.411 37.676 170.095 38.0666 170.095C38.4572 170.095 38.7738 170.411 38.7738 170.802Z" fill="black"/>
<path d="M41.5277 170.802C41.5277 171.192 41.2111 171.509 40.8205 171.509C40.4299 171.509 40.1133 171.192 40.1133 170.802C40.1133 170.411 40.4299 170.095 40.8205 170.095C41.2111 170.095 41.5277 170.411 41.5277 170.802Z" fill="black"/>
<path d="M50.8906 180.597C51.04 177.274 53.4483 176.058 55.6887 174.805C57.3689 173.861 58.3957 173.225 58.3957 171.718C58.3957 170.193 57.3129 169.158 55.614 169.158C54.7179 169.158 54.0458 169.449 53.579 169.939C53.0749 170.466 52.8509 171.155 52.8509 172.426H51.208C51.208 170.829 51.6374 169.812 52.4215 169.049C53.243 168.269 54.4378 167.887 55.7447 167.887C58.3397 167.887 60.02 169.485 60.02 171.7C60.02 174.097 58.3397 174.896 56.2861 176.003C54.9045 176.748 53.131 177.764 52.7762 179.144H59.7586V180.597H50.8906Z" fill="black"/>
<path d="M66.268 180.869C63.1128 180.869 61.3019 178.327 61.3019 174.369C61.3019 170.338 63.2622 167.869 66.2866 167.869C69.3111 167.869 71.234 170.302 71.234 174.369C71.234 178.327 69.4604 180.869 66.268 180.869ZM66.2866 179.544C68.5643 179.544 69.6098 177.583 69.6098 174.369C69.6098 171.21 68.5083 169.176 66.2866 169.176C64.0276 169.176 62.9261 171.155 62.9261 174.369C62.9261 177.528 64.0276 179.544 66.2866 179.544Z" fill="black"/>
<path d="M72.3399 180.597C72.4892 177.274 74.8976 176.058 77.1379 174.805C78.8182 173.861 79.845 173.225 79.845 171.718C79.845 170.193 78.7622 169.158 77.0632 169.158C76.1671 169.158 75.495 169.449 75.0283 169.939C74.5242 170.466 74.3002 171.155 74.3002 172.426H72.6573C72.6573 170.829 73.0867 169.812 73.8708 169.049C74.6922 168.269 75.8871 167.887 77.1939 167.887C79.789 167.887 81.4692 169.485 81.4692 171.7C81.4692 174.097 79.789 174.896 77.7353 176.003C76.3538 176.748 74.5802 177.764 74.2255 179.144H81.2079V180.597H72.3399Z" fill="black"/>
<path d="M87.8801 180.597V177.547H81.8499V176.185L88.1788 168.033H89.411V176.33H91.5207V177.547H89.411V180.597H87.8801ZM83.3621 176.276V176.33H87.8801V170.502H87.8428L83.3621 176.276Z" fill="black"/>
<path d="M97.6365 180.597L94.5747 171.21H96.199L97.8979 177.002C98.1219 177.783 98.4206 179.017 98.4206 179.017H98.458C98.458 179.017 98.738 177.783 98.9434 177.038L100.568 171.21H102.154L103.723 177.038C103.928 177.801 104.189 179.017 104.189 179.017H104.227C104.227 179.017 104.526 177.783 104.768 177.002L106.56 171.21H108.129L104.974 180.597H103.424L101.818 174.914C101.594 174.133 101.352 172.953 101.352 172.953H101.314C101.314 172.953 101.053 174.133 100.829 174.914L99.2047 180.597H97.6365Z" fill="black"/>
<path d="M116.338 180.688C115.349 180.688 114.826 180.252 114.677 179.29H114.658C114.079 180.016 113.09 180.778 111.447 180.778C109.617 180.778 108.18 179.943 108.18 178.164C108.18 175.949 109.972 175.495 112.38 175.132C113.743 174.932 114.695 174.805 114.695 173.788C114.695 172.735 113.911 172.136 112.53 172.136C110.961 172.136 110.177 172.79 110.121 174.206H108.665C108.721 172.39 109.953 171.028 112.511 171.028C114.565 171.028 116.077 171.773 116.077 174.006V178.472C116.077 179.235 116.263 179.653 117.104 179.471H117.16V180.542C116.973 180.615 116.73 180.688 116.338 180.688ZM111.783 179.653C113.799 179.653 114.714 178.218 114.714 177.129V175.531C114.21 175.84 113.332 176.076 112.511 176.221C110.999 176.493 109.785 176.748 109.785 178.128C109.785 179.38 110.793 179.653 111.783 179.653Z" fill="black"/>
<path d="M117.272 172.408V171.21H118.672V168.25H120.184V171.21H122.051V172.408H120.184V178.509C120.184 179.162 120.539 179.38 121.155 179.38C121.454 179.38 121.79 179.308 121.958 179.253H122.014V180.524C121.659 180.597 121.248 180.651 120.8 180.651C119.568 180.651 118.672 180.161 118.672 178.836V172.408H117.272Z" fill="black"/>
<path d="M127.442 180.851C124.492 180.851 122.775 178.636 122.775 175.912C122.775 173.189 124.604 170.974 127.349 170.974C130.242 170.974 131.792 173.153 131.792 176.257H124.324C124.436 178.164 125.5 179.616 127.442 179.616C128.842 179.616 129.776 178.963 130.112 177.692H131.587C131.138 179.707 129.626 180.851 127.442 180.851ZM127.349 172.136C125.556 172.136 124.586 173.443 124.361 175.15H130.168C130.074 173.28 129.085 172.136 127.349 172.136Z" fill="black"/>
<path d="M135.273 180.597L131.893 171.21H133.518L135.515 177.165C135.795 178 136.15 179.144 136.15 179.144H136.187C136.187 179.144 136.542 177.982 136.822 177.165L138.857 171.21H140.425L136.953 180.597H135.273Z" fill="black"/>
<path d="M145.227 180.851C142.277 180.851 140.559 178.636 140.559 175.912C140.559 173.189 142.389 170.974 145.133 170.974C148.027 170.974 149.577 173.153 149.577 176.257H142.109C142.221 178.164 143.285 179.616 145.227 179.616C146.627 179.616 147.56 178.963 147.896 177.692H149.371C148.923 179.707 147.411 180.851 145.227 180.851ZM145.133 172.136C143.341 172.136 142.37 173.443 142.146 175.15H147.952C147.859 173.28 146.869 172.136 145.133 172.136Z" fill="black"/>
<path d="M152.362 171.21V172.771H152.399C152.978 171.864 153.986 171.101 155.275 171.101C155.555 171.101 155.704 171.137 155.891 171.21V172.626H155.835C155.611 172.553 155.461 172.535 155.163 172.535C153.669 172.535 152.362 173.625 152.362 175.386V180.597H150.85V171.21H152.362Z" fill="black"/>
</svg>
