<svg width="1513" height="198" viewBox="0 0 1513 198" fill="none" xmlns="http://www.w3.org/2000/svg">
<rect width="1513" height="198" fill="black"/>
<path d="M39.888 54.74C36.672 54.74 34.384 52.26 34.384 48.82C34.384 45.428 36.496 42.836 39.872 42.836C42.688 42.836 44.352 44.516 44.592 46.692H42.288C42.08 45.54 41.216 44.788 39.872 44.788C37.76 44.788 36.752 46.548 36.752 48.82C36.752 51.156 37.968 52.836 39.888 52.836C41.248 52.836 42.208 52.02 42.352 50.82H44.624C44.56 51.828 44.128 52.804 43.36 53.524C42.576 54.26 41.472 54.74 39.888 54.74ZM49.4316 54.74C46.8876 54.74 45.1436 52.852 45.1436 50.404C45.1436 47.956 46.8876 46.068 49.4316 46.068C51.9756 46.068 53.7196 47.956 53.7196 50.404C53.7196 52.852 51.9756 54.74 49.4316 54.74ZM49.4316 53.076C50.7596 53.076 51.5116 52.004 51.5116 50.404C51.5116 48.804 50.7596 47.716 49.4316 47.716C48.0876 47.716 47.3516 48.804 47.3516 50.404C47.3516 52.004 48.0876 53.076 49.4316 53.076ZM56.6831 46.292V47.412H56.7311C57.2911 46.532 58.0431 46.068 59.1631 46.068C60.8591 46.068 61.9951 47.348 61.9951 49.14V54.5H59.8191V49.46C59.8191 48.58 59.3071 47.956 58.3951 47.956C57.4351 47.956 56.7311 48.724 56.7311 49.844V54.5H54.5551V46.292H56.6831ZM62.5241 47.732V46.292H63.6601V43.732H65.7881V46.292H67.1961V47.732H65.7881V52.084C65.7881 52.692 66.1241 52.9 66.6041 52.9C66.8761 52.9 67.2441 52.884 67.2441 52.884V54.484C67.2441 54.484 66.7481 54.516 65.8841 54.516C64.8281 54.516 63.6601 54.1 63.6601 52.548V47.732H62.5241ZM73.3868 54.5C73.2588 54.34 73.1788 53.956 73.1308 53.588H73.0988C72.6828 54.212 72.0908 54.692 70.6828 54.692C69.0028 54.692 67.8188 53.812 67.8188 52.18C67.8188 50.372 69.2908 49.796 71.1148 49.54C72.4748 49.348 73.0988 49.236 73.0988 48.612C73.0988 48.02 72.6348 47.636 71.7228 47.636C70.6988 47.636 70.2028 48.004 70.1388 48.788H68.2028C68.2668 47.348 69.3388 46.084 71.7388 46.084C74.2028 46.084 75.1948 47.188 75.1948 49.108V53.284C75.1948 53.908 75.2908 54.276 75.4828 54.42V54.5H73.3868ZM71.2108 53.172C72.4588 53.172 73.1468 52.404 73.1468 51.604V50.372C72.7628 50.596 72.1708 50.724 71.6268 50.852C70.4908 51.108 69.9308 51.364 69.9308 52.132C69.9308 52.9 70.4428 53.172 71.2108 53.172ZM80.2101 54.74C77.6181 54.74 76.0021 52.852 76.0021 50.404C76.0021 47.956 77.6021 46.068 80.0981 46.068C82.2261 46.068 83.5381 47.3 83.8261 49.076H81.6981C81.5541 48.356 80.9941 47.812 80.1941 47.812C78.8821 47.812 78.2101 48.82 78.2101 50.404C78.2101 51.956 78.8341 52.996 80.1621 52.996C81.0421 52.996 81.6661 52.532 81.8101 51.604H83.9061C83.7621 53.348 82.4021 54.74 80.2101 54.74ZM84.1993 47.732V46.292H85.3353V43.732H87.4633V46.292H88.8713V47.732H87.4633V52.084C87.4633 52.692 87.7993 52.9 88.2793 52.9C88.5513 52.9 88.9193 52.884 88.9193 52.884V54.484C88.9193 54.484 88.4233 54.516 87.5593 54.516C86.5033 54.516 85.3353 54.1 85.3353 52.548V47.732H84.1993ZM93.2219 54.74C90.8379 54.74 89.5099 53.588 89.3819 51.844H91.3979C91.5419 52.788 92.2139 53.204 93.1899 53.204C94.1499 53.204 94.6939 52.836 94.6939 52.26C94.6939 51.476 93.6539 51.396 92.5339 51.172C91.0619 50.884 89.6219 50.484 89.6219 48.692C89.6219 46.916 91.0939 46.068 92.9659 46.068C95.1259 46.068 96.3259 47.14 96.4859 48.788H94.5179C94.4219 47.908 93.8619 47.588 92.9339 47.588C92.0859 47.588 91.5259 47.908 91.5259 48.5C91.5259 49.204 92.6139 49.268 93.7819 49.508C95.1579 49.796 96.6779 50.18 96.6779 52.1C96.6779 53.748 95.2699 54.74 93.2219 54.74Z" fill="white"/>
<path d="M36.3949 76.796V75.772H39.4989V72.572H40.5549V75.772H43.6589V76.796H40.5549V79.996H39.4989V76.796H36.3949ZM46.9596 81.5V73.516H44.5596V72.62C45.9036 72.588 47.0556 72.092 47.2636 70.476H48.3036V81.5H46.9596ZM55.5658 83.388C54.2538 81.388 53.2298 79.148 53.2298 76.14C53.2298 73.356 54.3498 71.132 55.5658 69.436H56.6218C55.5658 71.228 54.7498 73.516 54.7498 76.14C54.7498 78.972 55.4218 81.18 56.6218 83.388H55.5658ZM62.1309 81.5V78.812H56.9629V77.612L62.3869 70.428H63.4429V77.74H65.2509V78.812H63.4429V81.5H62.1309ZM58.2589 77.692V77.74H62.1309V72.604H62.0989L58.2589 77.692ZM68.069 81.5V73.516H65.669V72.62C67.013 72.588 68.165 72.092 68.373 70.476H69.413V81.5H68.069ZM75.0563 81.74C72.7843 81.74 71.1203 80.364 71.0243 78.332H72.3523C72.5283 79.692 73.4883 80.556 75.0403 80.556C76.6083 80.556 77.6163 79.5 77.6163 77.9C77.6163 76.252 76.4803 75.292 75.0403 75.292C73.8563 75.292 73.0403 75.772 72.5763 76.428H71.2803L72.4963 70.54H78.3363V71.74H73.4403L72.7203 75.036H72.7523C73.3763 74.444 74.2083 74.108 75.2643 74.108C77.2163 74.108 78.9923 75.5 78.9923 77.932C78.9923 80.268 77.3283 81.74 75.0563 81.74ZM79.852 83.388C81.052 81.18 81.724 78.972 81.724 76.14C81.724 73.516 80.908 71.228 79.852 69.436H80.908C82.124 71.132 83.244 73.356 83.244 76.14C83.244 79.148 82.22 81.388 80.908 83.388H79.852ZM91.3063 81.74C89.0343 81.74 87.3703 80.364 87.2743 78.332H88.6023C88.7783 79.692 89.7383 80.556 91.2903 80.556C92.8583 80.556 93.8663 79.5 93.8663 77.9C93.8663 76.252 92.7303 75.292 91.2903 75.292C90.1063 75.292 89.2903 75.772 88.8263 76.428H87.5303L88.7463 70.54H94.5863V71.74H89.6903L88.9703 75.036H89.0023C89.6263 74.444 90.4583 74.108 91.5143 74.108C93.4663 74.108 95.2423 75.5 95.2423 77.932C95.2423 80.268 93.5783 81.74 91.3063 81.74ZM100.15 81.74C97.878 81.74 96.214 80.364 96.118 78.332H97.446C97.622 79.692 98.582 80.556 100.134 80.556C101.702 80.556 102.71 79.5 102.71 77.9C102.71 76.252 101.574 75.292 100.134 75.292C98.95 75.292 98.134 75.772 97.67 76.428H96.374L97.59 70.54H103.43V71.74H98.534L97.814 75.036H97.846C98.47 74.444 99.302 74.108 100.358 74.108C102.31 74.108 104.086 75.5 104.086 77.932C104.086 80.268 102.422 81.74 100.15 81.74ZM108.994 81.74C106.722 81.74 105.058 80.364 104.962 78.332H106.29C106.466 79.692 107.426 80.556 108.978 80.556C110.546 80.556 111.554 79.5 111.554 77.9C111.554 76.252 110.418 75.292 108.978 75.292C107.794 75.292 106.978 75.772 106.514 76.428H105.218L106.434 70.54H112.274V71.74H107.378L106.658 75.036H106.69C107.314 74.444 108.146 74.108 109.202 74.108C111.154 74.108 112.93 75.5 112.93 77.932C112.93 80.268 111.266 81.74 108.994 81.74ZM114.046 77.676V76.492H118.334V77.676H114.046ZM123.594 81.74C121.178 81.74 119.274 80.38 119.226 77.884H120.554C120.602 79.644 121.738 80.62 123.546 80.62C125.066 80.62 126.138 79.868 126.138 78.316C126.138 76.924 125.098 76.188 123.258 76.188H122.57V75.148H123.242C124.954 75.148 125.818 74.428 125.818 73.26C125.818 72.06 124.746 71.34 123.434 71.34C121.85 71.34 120.906 72.364 120.906 73.884H119.594C119.61 71.724 121.066 70.284 123.482 70.284C125.514 70.284 127.13 71.388 127.13 73.292C127.13 74.524 126.378 75.244 125.322 75.596V75.644C126.858 76.044 127.53 77.02 127.53 78.444C127.53 80.54 125.818 81.74 123.594 81.74ZM133.631 81.5V78.812H128.463V77.612L133.887 70.428H134.943V77.74H136.751V78.812H134.943V81.5H133.631ZM129.759 77.692V77.74H133.631V72.604H133.599L129.759 77.692ZM137.605 81.5C137.733 78.572 139.797 77.5 141.717 76.396C143.157 75.564 144.037 75.004 144.037 73.676C144.037 72.332 143.109 71.42 141.653 71.42C140.885 71.42 140.309 71.676 139.909 72.108C139.477 72.572 139.285 73.18 139.285 74.3H137.877C137.877 72.892 138.245 71.996 138.917 71.324C139.621 70.636 140.645 70.3 141.765 70.3C143.989 70.3 145.429 71.708 145.429 73.66C145.429 75.772 143.989 76.476 142.229 77.452C141.045 78.108 139.525 79.004 139.221 80.22H145.205V81.5H137.605ZM146.496 81.5C146.624 78.572 148.688 77.5 150.608 76.396C152.048 75.564 152.928 75.004 152.928 73.676C152.928 72.332 152 71.42 150.544 71.42C149.776 71.42 149.2 71.676 148.8 72.108C148.368 72.572 148.176 73.18 148.176 74.3H146.768C146.768 72.892 147.136 71.996 147.808 71.324C148.512 70.636 149.536 70.3 150.656 70.3C152.88 70.3 154.32 71.708 154.32 73.66C154.32 75.772 152.88 76.476 151.12 77.452C149.936 78.108 148.416 79.004 148.112 80.22H154.096V81.5H146.496ZM35.176 88.06V92.316H35.208C35.8 91.532 36.632 91.036 37.832 91.036C39.56 91.036 40.616 91.98 40.616 93.692V99.5H39.32V93.804C39.32 92.732 38.616 92.124 37.448 92.124C36.136 92.124 35.176 93.052 35.176 94.412V99.5H33.88V88.06H35.176ZM45.8691 99.724C43.3411 99.724 41.8691 97.772 41.8691 95.372C41.8691 92.972 43.4371 91.02 45.7891 91.02C48.2691 91.02 49.5971 92.94 49.5971 95.676H43.1971C43.2931 97.356 44.2051 98.636 45.8691 98.636C47.0691 98.636 47.8691 98.06 48.1571 96.94H49.4211C49.0371 98.716 47.7411 99.724 45.8691 99.724ZM45.7891 92.044C44.2531 92.044 43.4211 93.196 43.2291 94.7H48.2051C48.1251 93.052 47.2771 92.044 45.7891 92.044ZM50.9124 99.5V88.06H52.2084V99.5H50.9124ZM54.0686 99.5V88.06H55.3646V99.5H54.0686ZM60.7129 99.724C58.2489 99.724 56.7129 97.772 56.7129 95.372C56.7129 92.972 58.2489 91.02 60.7129 91.02C63.1929 91.02 64.6969 92.972 64.6969 95.372C64.6969 97.772 63.1929 99.724 60.7129 99.724ZM60.7129 98.636C62.4729 98.636 63.3689 97.196 63.3689 95.372C63.3689 93.548 62.4729 92.092 60.7129 92.092C58.9529 92.092 58.0409 93.548 58.0409 95.372C58.0409 97.196 58.9529 98.636 60.7129 98.636ZM71.7296 98.236C70.0336 98.236 68.9936 96.988 68.9936 95.196C68.9936 92.732 70.4176 91.164 72.2736 91.164C73.2496 91.164 73.9056 91.66 74.2416 92.3H74.2736L74.4016 91.324H75.6496L75.1056 95.772C74.9936 96.652 75.2656 97.1 75.9856 97.1C76.8336 97.1 77.7136 96.172 77.7136 93.948C77.7136 90.668 75.4416 89.1 72.5616 89.1C69.5696 89.1 66.9296 91.276 66.9296 94.956C66.9296 97.98 68.8336 100.204 72.2736 100.204C73.3776 100.204 74.3376 99.996 75.2496 99.644L75.6176 100.524C74.6416 100.956 73.5216 101.18 72.3536 101.18C68.4816 101.18 65.7936 98.7 65.7936 94.94C65.7936 90.556 69.1856 88.092 72.6096 88.092C75.7456 88.092 78.8176 90.076 78.8176 93.884C78.8176 96.332 77.8576 98.124 75.9056 98.124C74.9136 98.124 74.3056 97.644 74.0656 96.972H74.0336C73.5376 97.724 72.6896 98.236 71.7296 98.236ZM71.8576 97.244C73.3456 97.244 74.0336 95.9 74.0336 94.188C74.0336 92.972 73.4896 92.172 72.3056 92.172C70.8976 92.172 70.2896 93.532 70.2896 95.18C70.2896 96.332 70.7536 97.244 71.8576 97.244ZM82.188 99.5L79.564 91.228H80.956L82.412 96.332C82.604 97.02 82.86 98.108 82.86 98.108H82.892C82.892 98.108 83.132 97.02 83.308 96.364L84.7 91.228H86.06L87.404 96.364C87.58 97.036 87.804 98.108 87.804 98.108H87.836C87.836 98.108 88.092 97.02 88.3 96.332L89.836 91.228H91.18L88.476 99.5H87.148L85.772 94.492C85.58 93.804 85.372 92.764 85.372 92.764H85.34C85.34 92.764 85.116 93.804 84.924 94.492L83.532 99.5H82.188ZM98.3916 99.58C97.5436 99.58 97.0956 99.196 96.9676 98.348H96.9516C96.4556 98.988 95.6076 99.66 94.1996 99.66C92.6316 99.66 91.3996 98.924 91.3996 97.356C91.3996 95.404 92.9356 95.004 94.9996 94.684C96.1676 94.508 96.9836 94.396 96.9836 93.5C96.9836 92.572 96.3116 92.044 95.1276 92.044C93.7836 92.044 93.1116 92.62 93.0636 93.868H91.8156C91.8636 92.268 92.9196 91.068 95.1116 91.068C96.8716 91.068 98.1676 91.724 98.1676 93.692V97.628C98.1676 98.3 98.3276 98.668 99.0476 98.508H99.0956V99.452C98.9356 99.516 98.7276 99.58 98.3916 99.58ZM94.4876 98.668C96.2156 98.668 96.9996 97.404 96.9996 96.444V95.036C96.5676 95.308 95.8156 95.516 95.1116 95.644C93.8156 95.884 92.7756 96.108 92.7756 97.324C92.7756 98.428 93.6396 98.668 94.4876 98.668ZM99.3676 92.284V91.228H100.568V88.62H101.864V91.228H103.464V92.284H101.864V97.66C101.864 98.236 102.168 98.428 102.696 98.428C102.952 98.428 103.24 98.364 103.384 98.316H103.432V99.436C103.128 99.5 102.776 99.548 102.392 99.548C101.336 99.548 100.568 99.116 100.568 97.948V92.284H99.3676ZM108.26 99.724C105.732 99.724 104.26 97.772 104.26 95.372C104.26 92.972 105.828 91.02 108.18 91.02C110.66 91.02 111.988 92.94 111.988 95.676H105.588C105.684 97.356 106.596 98.636 108.26 98.636C109.46 98.636 110.26 98.06 110.548 96.94H111.812C111.428 98.716 110.132 99.724 108.26 99.724ZM108.18 92.044C106.644 92.044 105.812 93.196 105.62 94.7H110.596C110.516 93.052 109.668 92.044 108.18 92.044ZM115.147 99.5L112.251 91.228H113.643L115.355 96.476C115.595 97.212 115.899 98.22 115.899 98.22H115.931C115.931 98.22 116.235 97.196 116.475 96.476L118.219 91.228H119.563L116.587 99.5H115.147ZM123.854 99.724C121.326 99.724 119.854 97.772 119.854 95.372C119.854 92.972 121.422 91.02 123.774 91.02C126.254 91.02 127.582 92.94 127.582 95.676H121.182C121.278 97.356 122.19 98.636 123.854 98.636C125.054 98.636 125.854 98.06 126.142 96.94H127.406C127.022 98.716 125.726 99.724 123.854 99.724ZM123.774 92.044C122.238 92.044 121.406 93.196 121.214 94.7H126.19C126.11 93.052 125.262 92.044 123.774 92.044ZM130.145 91.228V92.604H130.177C130.673 91.804 131.537 91.132 132.641 91.132C132.881 91.132 133.009 91.164 133.169 91.228V92.476H133.121C132.929 92.412 132.801 92.396 132.545 92.396C131.265 92.396 130.145 93.356 130.145 94.908V99.5H128.849V91.228H130.145ZM133.204 99.5V97.916H134.756V99.5H133.204ZM139.463 99.724C136.999 99.724 135.463 97.772 135.463 95.372C135.463 92.972 136.999 91.02 139.463 91.02C141.415 91.02 142.711 92.14 142.999 93.9H141.687C141.495 92.78 140.711 92.092 139.463 92.092C137.703 92.092 136.791 93.548 136.791 95.372C136.791 97.196 137.703 98.636 139.463 98.636C140.807 98.636 141.607 97.868 141.719 96.588H142.999C142.823 98.572 141.527 99.724 139.463 99.724ZM147.76 99.724C145.296 99.724 143.76 97.772 143.76 95.372C143.76 92.972 145.296 91.02 147.76 91.02C150.24 91.02 151.744 92.972 151.744 95.372C151.744 97.772 150.24 99.724 147.76 99.724ZM147.76 98.636C149.52 98.636 150.416 97.196 150.416 95.372C150.416 93.548 149.52 92.092 147.76 92.092C146 92.092 145.088 93.548 145.088 95.372C145.088 97.196 146 98.636 147.76 98.636ZM153.036 99.5V91.228H154.332V92.412H154.364C154.876 91.612 155.756 91.036 156.796 91.036C157.804 91.036 158.604 91.548 158.956 92.508H158.988C159.516 91.564 160.508 91.036 161.516 91.036C162.988 91.036 164.028 91.98 164.028 93.692V99.5H162.732V93.756C162.732 92.732 162.044 92.124 161.212 92.124C160.14 92.124 159.18 93.052 159.18 94.348V99.5H157.884V93.756C157.884 92.732 157.308 92.124 156.46 92.124C155.452 92.124 154.332 93.052 154.332 94.348V99.5H153.036ZM33.88 117.5V109.228H35.176V117.5H33.88ZM33.88 107.66V106.06H35.176V107.66H33.88ZM38.2385 109.228V110.316H38.2705C38.8625 109.532 39.6945 109.036 40.8945 109.036C42.6225 109.036 43.6785 109.98 43.6785 111.692V117.5H42.3825V111.804C42.3825 110.732 41.6785 110.124 40.5105 110.124C39.1985 110.124 38.2385 111.052 38.2385 112.412V117.5H36.9425V109.228H38.2385ZM48.5316 117.74C46.2596 117.74 44.9956 116.668 44.8676 114.812H46.1956C46.3716 116.252 47.3316 116.652 48.5636 116.652C49.9236 116.652 50.4836 116.06 50.4836 115.292C50.4836 114.364 49.8436 114.124 48.3236 113.804C46.6916 113.468 45.2356 113.132 45.2356 111.324C45.2356 109.948 46.2916 109.052 48.2116 109.052C50.2596 109.052 51.2676 110.028 51.4596 111.644H50.1316C50.0036 110.556 49.4116 110.076 48.1796 110.076C46.9956 110.076 46.5156 110.604 46.5156 111.26C46.5156 112.156 47.3156 112.332 48.7396 112.62C50.4036 112.956 51.7956 113.324 51.7956 115.228C51.7956 116.892 50.4356 117.74 48.5316 117.74ZM52.352 110.284V109.228H53.552V106.62H54.848V109.228H56.448V110.284H54.848V115.66C54.848 116.236 55.152 116.428 55.68 116.428C55.936 116.428 56.224 116.364 56.368 116.316H56.416V117.436C56.112 117.5 55.76 117.548 55.376 117.548C54.32 117.548 53.552 117.116 53.552 115.948V110.284H52.352ZM64.2823 117.58C63.4343 117.58 62.9863 117.196 62.8583 116.348H62.8423C62.3463 116.988 61.4983 117.66 60.0903 117.66C58.5223 117.66 57.2903 116.924 57.2903 115.356C57.2903 113.404 58.8263 113.004 60.8903 112.684C62.0583 112.508 62.8743 112.396 62.8743 111.5C62.8743 110.572 62.2023 110.044 61.0182 110.044C59.6743 110.044 59.0023 110.62 58.9543 111.868H57.7063C57.7543 110.268 58.8103 109.068 61.0023 109.068C62.7623 109.068 64.0583 109.724 64.0583 111.692V115.628C64.0583 116.3 64.2183 116.668 64.9383 116.508H64.9862V117.452C64.8263 117.516 64.6183 117.58 64.2823 117.58ZM60.3783 116.668C62.1063 116.668 62.8903 115.404 62.8903 114.444V113.036C62.4583 113.308 61.7063 113.516 61.0023 113.644C59.7063 113.884 58.6663 114.108 58.6663 115.324C58.6663 116.428 59.5303 116.668 60.3783 116.668ZM69.2385 120.252C67.0945 120.252 65.8785 119.388 65.7345 117.964H66.9345C67.0625 118.876 67.9265 119.228 69.2065 119.228C70.7265 119.228 71.5745 118.54 71.5745 117.1V115.932H71.5425C70.9345 116.716 70.2785 117.212 69.0945 117.212C66.9505 117.212 65.4785 115.5 65.4785 113.116C65.4785 110.54 67.0945 109.036 69.0145 109.036C70.2145 109.036 70.9825 109.5 71.5425 110.284H71.5745V109.228H72.8705V117.052C72.8705 119.228 71.4305 120.252 69.2385 120.252ZM69.1585 116.124C71.0625 116.124 71.6705 114.796 71.6705 113.052C71.6705 111.244 70.9025 110.124 69.1425 110.124C67.5905 110.124 66.8065 111.34 66.8065 113.132C66.8065 114.94 67.6225 116.124 69.1585 116.124ZM75.926 109.228V110.604H75.958C76.454 109.804 77.318 109.132 78.422 109.132C78.662 109.132 78.79 109.164 78.95 109.228V110.476H78.902C78.71 110.412 78.582 110.396 78.326 110.396C77.046 110.396 75.926 111.356 75.926 112.908V117.5H74.63V109.228H75.926ZM86.2979 117.58C85.4499 117.58 85.0019 117.196 84.8739 116.348H84.8579C84.3619 116.988 83.5139 117.66 82.1059 117.66C80.5379 117.66 79.3059 116.924 79.3059 115.356C79.3059 113.404 80.8419 113.004 82.9059 112.684C84.0739 112.508 84.8899 112.396 84.8899 111.5C84.8899 110.572 84.2179 110.044 83.0339 110.044C81.6899 110.044 81.0179 110.62 80.9699 111.868H79.7219C79.7699 110.268 80.8259 109.068 83.0179 109.068C84.7779 109.068 86.0739 109.724 86.0739 111.692V115.628C86.0739 116.3 86.2339 116.668 86.9539 116.508H87.0019V117.452C86.8419 117.516 86.6339 117.58 86.2979 117.58ZM82.3939 116.668C84.1219 116.668 84.9059 115.404 84.9059 114.444V113.036C84.4739 113.308 83.7219 113.516 83.0179 113.644C81.7219 113.884 80.6819 114.108 80.6819 115.324C80.6819 116.428 81.5459 116.668 82.3939 116.668ZM87.9581 117.5V109.228H89.2541V110.412H89.2861C89.7981 109.612 90.6781 109.036 91.7181 109.036C92.7261 109.036 93.5261 109.548 93.8781 110.508H93.9101C94.4381 109.564 95.4301 109.036 96.4381 109.036C97.9101 109.036 98.9501 109.98 98.9501 111.692V117.5H97.6541V111.756C97.6541 110.732 96.9661 110.124 96.1341 110.124C95.0621 110.124 94.1021 111.052 94.1021 112.348V117.5H92.8061V111.756C92.8061 110.732 92.2301 110.124 91.3821 110.124C90.3741 110.124 89.2541 111.052 89.2541 112.348V117.5H87.9581Z" fill="white"/>
<path d="M910.364 64.8922V72.2219H910.535C911.955 69.8923 913.802 68.0173 916.075 66.5968C918.348 65.1195 920.876 64.3809 923.66 64.3809C924.683 64.3809 925.62 64.5513 926.473 64.8922V71.5401H926.217C925.365 71.256 924.342 71.1139 923.149 71.1139C919.626 71.1139 916.615 72.364 914.115 74.864C911.615 77.3072 910.364 80.5175 910.364 84.4949V108.956H903.461V64.8922H910.364Z" fill="white"/>
<path d="M878.557 110.149C872.023 110.149 866.824 107.961 862.96 103.586C859.153 99.1542 857.25 93.6143 857.25 86.9664C857.25 80.4322 859.182 74.9492 863.046 70.5173C866.966 66.0285 871.995 63.7842 878.131 63.7842C884.608 63.7842 889.609 66.057 893.131 70.6025C896.654 75.0912 898.416 81.0856 898.416 88.5858H864.324C864.608 93.245 865.972 97.0519 868.415 100.006C870.915 102.904 874.296 104.353 878.557 104.353C885.148 104.353 889.211 101.342 890.745 95.3189H897.478C896.455 100.035 894.296 103.7 891.001 106.313C887.705 108.87 883.557 110.149 878.557 110.149ZM887.336 72.9889C885.12 70.4889 882.052 69.2388 878.131 69.2388C874.211 69.2388 871.085 70.5457 868.756 73.1594C866.483 75.773 865.063 79.1822 864.494 83.3868H891.001C890.773 78.9549 889.552 75.4889 887.336 72.9889Z" fill="white"/>
<path d="M833.883 108.956L818.457 64.8926H825.872L834.991 92.8477L837.889 102.138H838.06C839.139 98.5012 840.105 95.4045 840.957 92.8477L850.247 64.8926H857.407L841.554 108.956H833.883Z" fill="white"/>
<path d="M798.905 110.149C792.371 110.149 787.172 107.961 783.308 103.586C779.501 99.1542 777.598 93.6143 777.598 86.9664C777.598 80.4322 779.53 74.9492 783.393 70.5173C787.314 66.0285 792.342 63.7842 798.479 63.7842C804.956 63.7842 809.956 66.057 813.479 70.6025C817.002 75.0912 818.763 81.0856 818.763 88.5858H784.672C784.956 93.245 786.319 97.0519 788.763 100.006C791.263 102.904 794.643 104.353 798.905 104.353C805.496 104.353 809.558 101.342 811.093 95.3189H817.826C816.803 100.035 814.644 103.7 811.348 106.313C808.053 108.87 803.905 110.149 798.905 110.149ZM807.683 72.9889C805.467 70.4889 802.399 69.2388 798.479 69.2388C794.558 69.2388 791.433 70.5457 789.104 73.1594C786.831 75.773 785.41 79.1822 784.842 83.3868H811.348C811.121 78.9549 809.899 75.4889 807.683 72.9889Z" fill="white"/>
<path d="M753.238 70.5174V64.8923H759.63V51H766.534V64.8923H775.057V70.5174H766.534V99.1543C766.534 101.882 768.011 103.245 770.966 103.245C772.216 103.245 773.438 103.046 774.631 102.649H774.886V108.615C773.011 109.012 771.165 109.211 769.347 109.211C762.869 109.211 759.63 106.37 759.63 100.688V70.5174H753.238Z" fill="white"/>
<path d="M749.745 109.382C745.37 109.382 742.841 107.194 742.16 102.819H742.074C738.438 107.478 733.552 109.808 727.415 109.808C723.04 109.808 719.46 108.757 716.676 106.654C713.892 104.552 712.5 101.512 712.5 97.535C712.5 95.4895 712.813 93.7281 713.438 92.2508C714.119 90.7167 714.972 89.4951 715.994 88.586C717.017 87.62 718.409 86.7961 720.171 86.1143C721.989 85.3757 723.722 84.8359 725.37 84.495C727.017 84.0972 729.12 83.6995 731.676 83.3018C733.324 83.0745 734.489 82.904 735.171 82.7904C735.91 82.6199 736.847 82.3927 737.983 82.1086C739.12 81.7676 739.915 81.3983 740.37 81.0006C740.824 80.6029 741.251 80.0631 741.648 79.3812C742.046 78.6994 742.245 77.9039 742.245 76.9948C742.245 74.4948 741.364 72.5913 739.603 71.2845C737.898 69.9208 735.483 69.239 732.358 69.239C725.256 69.239 721.591 72.4777 721.364 78.9551H714.716C714.83 74.4664 716.364 70.8583 719.318 68.131C722.33 65.4037 726.648 64.04 732.273 64.04C743.126 64.04 748.552 68.6992 748.552 78.0176V98.9839C748.552 100.916 748.864 102.279 749.489 103.075C750.171 103.87 751.421 104.069 753.239 103.671H753.495V108.7C752.359 109.155 751.109 109.382 749.745 109.382ZM728.949 104.524C733.211 104.524 736.506 103.302 738.836 100.859C741.165 98.3589 742.33 95.6315 742.33 92.6769V85.1768C740.228 86.4836 736.875 87.5632 732.273 88.4155C730.569 88.7564 729.233 89.0405 728.267 89.2678C727.301 89.4382 726.193 89.7792 724.943 90.2905C723.693 90.7451 722.756 91.2565 722.131 91.8247C721.506 92.3928 720.966 93.1599 720.512 94.1258C720.057 95.0349 719.83 96.1145 719.83 97.3645C719.83 102.137 722.87 104.524 728.949 104.524Z" fill="white"/>
<path d="M665.138 108.956L651.16 64.8926H658.575L666.331 92.0806L668.717 101.541H668.888C669.74 97.6773 670.479 94.5806 671.104 92.2511L678.519 64.8926H685.763L692.922 92.2511L695.053 101.541H695.223C696.133 97.6773 696.956 94.5238 697.695 92.0806L705.877 64.8926H713.036L698.633 108.956H691.559L684.229 82.2793L682.098 73.0745H681.928C681.132 76.7678 680.394 79.836 679.712 82.2793L672.297 108.956H665.138Z" fill="white"/>
<path d="M644.623 86.5735C644.623 102.21 631.948 114.885 616.312 114.885C600.676 114.885 588 102.21 588 86.5735C588 70.9373 600.676 58.2617 616.312 58.2617C631.948 58.2617 644.623 70.9373 644.623 86.5735Z" fill="#E3FF51"/>
<path fill-rule="evenodd" clip-rule="evenodd" d="M616.312 111.215C629.921 111.215 640.953 100.183 640.953 86.5735C640.953 72.9642 629.921 61.9318 616.312 61.9318C602.703 61.9318 591.67 72.9642 591.67 86.5735C591.67 100.183 602.703 111.215 616.312 111.215ZM616.312 114.885C631.948 114.885 644.623 102.21 644.623 86.5735C644.623 70.9373 631.948 58.2617 616.312 58.2617C600.676 58.2617 588 70.9373 588 86.5735C588 102.21 600.676 114.885 616.312 114.885Z" fill="black"/>
<path fill-rule="evenodd" clip-rule="evenodd" d="M625.817 95.1347C628.491 91.014 630.205 85.2118 630.205 78.709L633.875 78.709C633.875 85.8157 632.009 92.3346 628.896 97.1326C625.793 101.913 621.292 105.186 616.049 105.186C610.805 105.186 606.304 101.913 603.202 97.1326C600.088 92.3346 598.223 85.8157 598.223 78.709L601.893 78.709C601.893 85.2117 603.607 91.014 606.281 95.1347C608.966 99.2731 612.461 101.516 616.049 101.516C619.637 101.516 623.131 99.2731 625.817 95.1347Z" fill="black"/>
<path d="M613.763 77.2495C613.763 78.735 612.558 79.9393 611.073 79.9393C609.587 79.9393 608.383 78.735 608.383 77.2495C608.383 75.7639 609.587 74.5596 611.073 74.5596C612.558 74.5596 613.763 75.7639 613.763 77.2495Z" fill="black"/>
<path d="M624.239 77.2495C624.239 78.735 623.035 79.9393 621.549 79.9393C620.064 79.9393 618.859 78.735 618.859 77.2495C618.859 75.7639 620.064 74.5596 621.549 74.5596C623.035 74.5596 624.239 75.7639 624.239 77.2495Z" fill="black"/>
<path d="M1428.88 55V43.56H1433.9C1435.23 43.56 1436.22 43.944 1436.9 44.632C1437.54 45.288 1437.92 46.184 1437.92 47.24C1437.92 49.4 1436.5 50.856 1434.1 50.856H1431.28V55H1428.88ZM1431.28 45.576V48.968H1433.68C1434.9 48.968 1435.54 48.296 1435.54 47.256C1435.54 46.184 1434.86 45.576 1433.71 45.576H1431.28ZM1440.81 46.792V48.104H1440.86C1441.36 47.176 1441.92 46.696 1442.88 46.696C1443.12 46.696 1443.26 46.712 1443.39 46.76V48.664H1443.34C1441.92 48.52 1440.89 49.272 1440.89 51V55H1438.72V46.792H1440.81ZM1444.15 55V46.792H1446.32V55H1444.15ZM1444.15 45.512V43.56H1446.32V45.512H1444.15ZM1449.73 55L1446.88 46.792H1449.09L1450.4 51.048C1450.64 51.832 1450.77 52.36 1450.77 52.36H1450.8C1450.8 52.36 1450.91 51.832 1451.15 51.048L1452.5 46.792H1454.67L1451.81 55H1449.73ZM1460.17 55C1460.04 54.84 1459.96 54.456 1459.91 54.088H1459.88C1459.46 54.712 1458.87 55.192 1457.46 55.192C1455.78 55.192 1454.6 54.312 1454.6 52.68C1454.6 50.872 1456.07 50.296 1457.9 50.04C1459.26 49.848 1459.88 49.736 1459.88 49.112C1459.88 48.52 1459.42 48.136 1458.5 48.136C1457.48 48.136 1456.98 48.504 1456.92 49.288H1454.98C1455.05 47.848 1456.12 46.584 1458.52 46.584C1460.98 46.584 1461.98 47.688 1461.98 49.608V53.784C1461.98 54.408 1462.07 54.776 1462.26 54.92V55H1460.17ZM1457.99 53.672C1459.24 53.672 1459.93 52.904 1459.93 52.104V50.872C1459.54 51.096 1458.95 51.224 1458.41 51.352C1457.27 51.608 1456.71 51.864 1456.71 52.632C1456.71 53.4 1457.22 53.672 1457.99 53.672ZM1466.99 55.24C1464.4 55.24 1462.78 53.352 1462.78 50.904C1462.78 48.456 1464.38 46.568 1466.88 46.568C1469.01 46.568 1470.32 47.8 1470.61 49.576H1468.48C1468.34 48.856 1467.78 48.312 1466.98 48.312C1465.66 48.312 1464.99 49.32 1464.99 50.904C1464.99 52.456 1465.62 53.496 1466.94 53.496C1467.82 53.496 1468.45 53.032 1468.59 52.104H1470.69C1470.54 53.848 1469.18 55.24 1466.99 55.24ZM1471.56 57.688V55.976H1472.33C1473.19 55.976 1473.54 55.528 1473.54 54.856C1473.54 54.408 1473.38 53.88 1472.92 52.632L1470.71 46.792H1473L1474.21 50.488C1474.47 51.24 1474.74 52.28 1474.74 52.28H1474.77C1474.77 52.28 1475 51.24 1475.25 50.488L1476.41 46.792H1478.6L1475.73 55.208C1475.11 57.032 1474.5 57.688 1472.84 57.688H1471.56Z" fill="white"/>
<path d="M1349.12 70.824V69.56H1358.17V70.824H1354.37V81H1352.93V70.824H1349.12ZM1361.18 81.224C1358.65 81.224 1357.18 79.272 1357.18 76.872C1357.18 74.472 1358.75 72.52 1361.1 72.52C1363.58 72.52 1364.91 74.44 1364.91 77.176H1358.51C1358.61 78.856 1359.52 80.136 1361.18 80.136C1362.38 80.136 1363.18 79.56 1363.47 78.44H1364.73C1364.35 80.216 1363.05 81.224 1361.18 81.224ZM1361.1 73.544C1359.57 73.544 1358.73 74.696 1358.54 76.2H1363.52C1363.44 74.552 1362.59 73.544 1361.1 73.544ZM1367.47 72.728V74.104H1367.5C1368 73.304 1368.86 72.632 1369.97 72.632C1370.21 72.632 1370.34 72.664 1370.5 72.728V73.976H1370.45C1370.26 73.912 1370.13 73.896 1369.87 73.896C1368.59 73.896 1367.47 74.856 1367.47 76.408V81H1366.18V72.728H1367.47ZM1371.66 81V72.728H1372.96V73.912H1372.99C1373.5 73.112 1374.38 72.536 1375.42 72.536C1376.43 72.536 1377.23 73.048 1377.58 74.008H1377.61C1378.14 73.064 1379.13 72.536 1380.14 72.536C1381.61 72.536 1382.65 73.48 1382.65 75.192V81H1381.36V75.256C1381.36 74.232 1380.67 73.624 1379.84 73.624C1378.77 73.624 1377.81 74.552 1377.81 75.848V81H1376.51V75.256C1376.51 74.232 1375.93 73.624 1375.09 73.624C1374.08 73.624 1372.96 74.552 1372.96 75.848V81H1371.66ZM1387.5 81.24C1385.23 81.24 1383.96 80.168 1383.84 78.312H1385.16C1385.34 79.752 1386.3 80.152 1387.53 80.152C1388.89 80.152 1389.45 79.56 1389.45 78.792C1389.45 77.864 1388.81 77.624 1387.29 77.304C1385.66 76.968 1384.2 76.632 1384.2 74.824C1384.2 73.448 1385.26 72.552 1387.18 72.552C1389.23 72.552 1390.24 73.528 1390.43 75.144H1389.1C1388.97 74.056 1388.38 73.576 1387.15 73.576C1385.96 73.576 1385.48 74.104 1385.48 74.76C1385.48 75.656 1386.28 75.832 1387.71 76.12C1389.37 76.456 1390.76 76.824 1390.76 78.728C1390.76 80.392 1389.4 81.24 1387.5 81.24ZM1397.58 81.224C1395.91 81.224 1394.3 80.04 1394.3 78.168C1394.3 76.472 1395.34 75.608 1396.78 74.728L1396.46 74.312C1395.8 73.464 1395.58 72.792 1395.58 71.96C1395.58 70.664 1396.65 69.672 1398.04 69.672C1399.3 69.672 1400.52 70.456 1400.52 72.056C1400.52 73.448 1399.51 74.216 1398.42 74.92L1400.7 77.816C1400.94 77.192 1401.08 76.488 1401.08 75.704H1402.2C1402.2 76.792 1401.94 77.88 1401.46 78.792L1403.19 81H1401.64L1400.74 79.848C1399.98 80.68 1398.92 81.224 1397.58 81.224ZM1397.66 80.088C1398.62 80.088 1399.43 79.656 1400.04 78.936L1397.42 75.56C1396.38 76.248 1395.59 76.904 1395.59 78.168C1395.59 79.304 1396.52 80.088 1397.66 80.088ZM1396.79 71.976C1396.79 72.616 1397 73.08 1397.5 73.72L1397.8 74.12C1398.79 73.48 1399.27 72.904 1399.27 72.024C1399.27 71.24 1398.79 70.744 1398.04 70.744C1397.3 70.744 1396.79 71.24 1396.79 71.976ZM1411.61 81.224C1408.36 81.224 1406.25 78.744 1406.25 75.272C1406.25 71.912 1408.27 69.304 1411.67 69.304C1414.35 69.304 1415.96 70.84 1416.27 72.952H1414.86C1414.59 71.528 1413.45 70.552 1411.64 70.552C1409.13 70.552 1407.72 72.584 1407.72 75.272C1407.72 78.072 1409.27 79.96 1411.66 79.96C1413.82 79.96 1414.84 78.488 1414.99 76.808H1416.41C1416.39 77.944 1415.85 79.224 1415.03 80.024C1414.23 80.808 1413.07 81.224 1411.61 81.224ZM1421.37 81.224C1418.91 81.224 1417.37 79.272 1417.37 76.872C1417.37 74.472 1418.91 72.52 1421.37 72.52C1423.85 72.52 1425.35 74.472 1425.35 76.872C1425.35 79.272 1423.85 81.224 1421.37 81.224ZM1421.37 80.136C1423.13 80.136 1424.03 78.696 1424.03 76.872C1424.03 75.048 1423.13 73.592 1421.37 73.592C1419.61 73.592 1418.7 75.048 1418.7 76.872C1418.7 78.696 1419.61 80.136 1421.37 80.136ZM1427.94 72.728V73.816H1427.97C1428.57 73.032 1429.4 72.536 1430.6 72.536C1432.33 72.536 1433.38 73.48 1433.38 75.192V81H1432.09V75.304C1432.09 74.232 1431.38 73.624 1430.21 73.624C1428.9 73.624 1427.94 74.552 1427.94 75.912V81H1426.65V72.728H1427.94ZM1438.3 81.24C1436.04 81.24 1434.63 79.544 1434.63 76.888C1434.63 74.136 1436.22 72.536 1438.27 72.536C1439.43 72.536 1440.33 73.112 1440.86 73.896H1440.89V69.56H1442.19V81H1440.89V79.992H1440.86C1440.23 80.792 1439.47 81.24 1438.3 81.24ZM1438.35 80.152C1440.19 80.152 1440.97 78.776 1440.97 76.904C1440.97 74.984 1440.04 73.64 1438.33 73.64C1436.76 73.64 1435.96 75.048 1435.96 76.904C1435.96 78.776 1436.76 80.152 1438.35 80.152ZM1443.94 81V72.728H1445.24V81H1443.94ZM1443.94 71.16V69.56H1445.24V71.16H1443.94ZM1446.48 73.784V72.728H1447.68V70.12H1448.97V72.728H1450.57V73.784H1448.97V79.16C1448.97 79.736 1449.28 79.928 1449.81 79.928C1450.06 79.928 1450.35 79.864 1450.49 79.816H1450.54V80.936C1450.24 81 1449.89 81.048 1449.5 81.048C1448.45 81.048 1447.68 80.616 1447.68 79.448V73.784H1446.48ZM1451.91 81V72.728H1453.21V81H1451.91ZM1451.91 71.16V69.56H1453.21V71.16H1451.91ZM1458.51 81.224C1456.05 81.224 1454.51 79.272 1454.51 76.872C1454.51 74.472 1456.05 72.52 1458.51 72.52C1460.99 72.52 1462.49 74.472 1462.49 76.872C1462.49 79.272 1460.99 81.224 1458.51 81.224ZM1458.51 80.136C1460.27 80.136 1461.17 78.696 1461.17 76.872C1461.17 75.048 1460.27 73.592 1458.51 73.592C1456.75 73.592 1455.84 75.048 1455.84 76.872C1455.84 78.696 1456.75 80.136 1458.51 80.136ZM1465.08 72.728V73.816H1465.11C1465.71 73.032 1466.54 72.536 1467.74 72.536C1469.47 72.536 1470.52 73.48 1470.52 75.192V81H1469.23V75.304C1469.23 74.232 1468.52 73.624 1467.35 73.624C1466.04 73.624 1465.08 74.552 1465.08 75.912V81H1463.79V72.728H1465.08ZM1475.38 81.24C1473.1 81.24 1471.84 80.168 1471.71 78.312H1473.04C1473.22 79.752 1474.18 80.152 1475.41 80.152C1476.77 80.152 1477.33 79.56 1477.33 78.792C1477.33 77.864 1476.69 77.624 1475.17 77.304C1473.54 76.968 1472.08 76.632 1472.08 74.824C1472.08 73.448 1473.14 72.552 1475.06 72.552C1477.1 72.552 1478.11 73.528 1478.3 75.144H1476.98C1476.85 74.056 1476.26 73.576 1475.02 73.576C1473.84 73.576 1473.36 74.104 1473.36 74.76C1473.36 75.656 1474.16 75.832 1475.58 76.12C1477.25 76.456 1478.64 76.824 1478.64 78.728C1478.64 80.392 1477.28 81.24 1475.38 81.24ZM1393.5 99.224C1390.25 99.224 1388.14 96.744 1388.14 93.272C1388.14 89.912 1390.16 87.304 1393.56 87.304C1396.24 87.304 1397.85 88.84 1398.16 90.952H1396.75C1396.48 89.528 1395.34 88.552 1393.53 88.552C1391.02 88.552 1389.61 90.584 1389.61 93.272C1389.61 96.072 1391.16 97.96 1393.55 97.96C1395.71 97.96 1396.73 96.488 1396.88 94.808H1398.3C1398.28 95.944 1397.74 97.224 1396.92 98.024C1396.12 98.808 1394.96 99.224 1393.5 99.224ZM1403.26 99.224C1400.8 99.224 1399.26 97.272 1399.26 94.872C1399.26 92.472 1400.8 90.52 1403.26 90.52C1405.74 90.52 1407.24 92.472 1407.24 94.872C1407.24 97.272 1405.74 99.224 1403.26 99.224ZM1403.26 98.136C1405.02 98.136 1405.92 96.696 1405.92 94.872C1405.92 93.048 1405.02 91.592 1403.26 91.592C1401.5 91.592 1400.59 93.048 1400.59 94.872C1400.59 96.696 1401.5 98.136 1403.26 98.136ZM1412.07 99.224C1409.61 99.224 1408.07 97.272 1408.07 94.872C1408.07 92.472 1409.61 90.52 1412.07 90.52C1414.55 90.52 1416.06 92.472 1416.06 94.872C1416.06 97.272 1414.55 99.224 1412.07 99.224ZM1412.07 98.136C1413.83 98.136 1414.73 96.696 1414.73 94.872C1414.73 93.048 1413.83 91.592 1412.07 91.592C1410.31 91.592 1409.4 93.048 1409.4 94.872C1409.4 96.696 1410.31 98.136 1412.07 98.136ZM1422.79 99L1419.86 94.536L1418.64 95.688V99H1417.35V87.56H1418.64V94.264L1422.28 90.728H1423.92L1420.76 93.704L1424.31 99H1422.79ZM1425.18 99V90.728H1426.47V99H1425.18ZM1425.18 89.16V87.56H1426.47V89.16H1425.18ZM1431.78 99.224C1429.25 99.224 1427.78 97.272 1427.78 94.872C1427.78 92.472 1429.34 90.52 1431.7 90.52C1434.18 90.52 1435.5 92.44 1435.5 95.176H1429.1C1429.2 96.856 1430.11 98.136 1431.78 98.136C1432.98 98.136 1433.78 97.56 1434.06 96.44H1435.33C1434.94 98.216 1433.65 99.224 1431.78 99.224ZM1431.7 91.544C1430.16 91.544 1429.33 92.696 1429.14 94.2H1434.11C1434.03 92.552 1433.18 91.544 1431.7 91.544ZM1439.51 99V87.56H1444.28C1445.48 87.56 1446.41 87.96 1447 88.664C1447.48 89.224 1447.77 89.976 1447.77 90.84C1447.77 92.936 1446.57 94.2 1444.07 94.2H1440.95V99H1439.51ZM1440.95 88.808V93.032H1443.96C1445.57 93.032 1446.34 92.216 1446.34 90.904C1446.34 89.528 1445.49 88.808 1444.04 88.808H1440.95ZM1452.26 99.224C1449.8 99.224 1448.26 97.272 1448.26 94.872C1448.26 92.472 1449.8 90.52 1452.26 90.52C1454.74 90.52 1456.24 92.472 1456.24 94.872C1456.24 97.272 1454.74 99.224 1452.26 99.224ZM1452.26 98.136C1454.02 98.136 1454.92 96.696 1454.92 94.872C1454.92 93.048 1454.02 91.592 1452.26 91.592C1450.5 91.592 1449.59 93.048 1449.59 94.872C1449.59 96.696 1450.5 98.136 1452.26 98.136ZM1457.58 99V87.56H1458.88V99H1457.58ZM1460.69 99V90.728H1461.99V99H1460.69ZM1460.69 89.16V87.56H1461.99V89.16H1460.69ZM1467.29 99.224C1464.83 99.224 1463.29 97.272 1463.29 94.872C1463.29 92.472 1464.83 90.52 1467.29 90.52C1469.24 90.52 1470.54 91.64 1470.83 93.4H1469.52C1469.32 92.28 1468.54 91.592 1467.29 91.592C1465.53 91.592 1464.62 93.048 1464.62 94.872C1464.62 96.696 1465.53 98.136 1467.29 98.136C1468.64 98.136 1469.44 97.368 1469.55 96.088H1470.83C1470.65 98.072 1469.36 99.224 1467.29 99.224ZM1473.11 101.736C1472.61 101.736 1472.29 101.704 1471.94 101.56V100.408H1472C1472.18 100.504 1472.45 100.584 1472.88 100.584C1473.43 100.584 1473.8 100.376 1474.12 99.576L1474.44 98.76L1471.2 90.728H1472.61L1474.56 95.88C1474.82 96.568 1475.12 97.496 1475.12 97.496H1475.16C1475.16 97.496 1475.44 96.568 1475.7 95.88L1477.59 90.728H1478.96L1475.43 99.672C1474.76 101.384 1474.12 101.736 1473.11 101.736ZM1396.07 117V105.56H1400.23C1403.67 105.56 1405.3 107.896 1405.3 111.32C1405.3 114.744 1403.56 117 1400.12 117H1396.07ZM1397.51 115.736H1400.07C1402.76 115.736 1403.83 114.008 1403.83 111.32C1403.83 108.632 1402.87 106.808 1400.18 106.808H1397.51V115.736ZM1413.16 117.08C1412.31 117.08 1411.86 116.696 1411.73 115.848H1411.72C1411.22 116.488 1410.37 117.16 1408.97 117.16C1407.4 117.16 1406.17 116.424 1406.17 114.856C1406.17 112.904 1407.7 112.504 1409.77 112.184C1410.93 112.008 1411.75 111.896 1411.75 111C1411.75 110.072 1411.08 109.544 1409.89 109.544C1408.55 109.544 1407.88 110.12 1407.83 111.368H1406.58C1406.63 109.768 1407.69 108.568 1409.88 108.568C1411.64 108.568 1412.93 109.224 1412.93 111.192V115.128C1412.93 115.8 1413.09 116.168 1413.81 116.008H1413.86V116.952C1413.7 117.016 1413.49 117.08 1413.16 117.08ZM1409.25 116.168C1410.98 116.168 1411.77 114.904 1411.77 113.944V112.536C1411.33 112.808 1410.58 113.016 1409.88 113.144C1408.58 113.384 1407.54 113.608 1407.54 114.824C1407.54 115.928 1408.41 116.168 1409.25 116.168ZM1414.13 109.784V108.728H1415.33V106.12H1416.63V108.728H1418.23V109.784H1416.63V115.16C1416.63 115.736 1416.93 115.928 1417.46 115.928C1417.72 115.928 1418.01 115.864 1418.15 115.816H1418.2V116.936C1417.89 117 1417.54 117.048 1417.16 117.048C1416.1 117.048 1415.33 116.616 1415.33 115.448V109.784H1414.13ZM1426.06 117.08C1425.22 117.08 1424.77 116.696 1424.64 115.848H1424.62C1424.13 116.488 1423.28 117.16 1421.87 117.16C1420.3 117.16 1419.07 116.424 1419.07 114.856C1419.07 112.904 1420.61 112.504 1422.67 112.184C1423.84 112.008 1424.66 111.896 1424.66 111C1424.66 110.072 1423.98 109.544 1422.8 109.544C1421.46 109.544 1420.78 110.12 1420.74 111.368H1419.49C1419.54 109.768 1420.59 108.568 1422.78 108.568C1424.54 108.568 1425.84 109.224 1425.84 111.192V115.128C1425.84 115.8 1426 116.168 1426.72 116.008H1426.77V116.952C1426.61 117.016 1426.4 117.08 1426.06 117.08ZM1422.16 116.168C1423.89 116.168 1424.67 114.904 1424.67 113.944V112.536C1424.24 112.808 1423.49 113.016 1422.78 113.144C1421.49 113.384 1420.45 113.608 1420.45 114.824C1420.45 115.928 1421.31 116.168 1422.16 116.168ZM1430.46 117V105.56H1435.23C1436.43 105.56 1437.36 105.96 1437.95 106.664C1438.43 107.224 1438.72 107.976 1438.72 108.84C1438.72 110.936 1437.52 112.2 1435.02 112.2H1431.9V117H1430.46ZM1431.9 106.808V111.032H1434.91C1436.53 111.032 1437.29 110.216 1437.29 108.904C1437.29 107.528 1436.45 106.808 1434.99 106.808H1431.9ZM1441.21 108.728V110.104H1441.24C1441.74 109.304 1442.6 108.632 1443.7 108.632C1443.94 108.632 1444.07 108.664 1444.23 108.728V109.976H1444.18C1443.99 109.912 1443.86 109.896 1443.61 109.896C1442.33 109.896 1441.21 110.856 1441.21 112.408V117H1439.91V108.728H1441.21ZM1445.4 117V108.728H1446.69V117H1445.4ZM1445.4 107.16V105.56H1446.69V107.16H1445.4ZM1450.51 117L1447.61 108.728H1449L1450.71 113.976C1450.95 114.712 1451.26 115.72 1451.26 115.72H1451.29C1451.29 115.72 1451.59 114.696 1451.83 113.976L1453.58 108.728H1454.92L1451.95 117H1450.51ZM1462.09 117.08C1461.25 117.08 1460.8 116.696 1460.67 115.848H1460.65C1460.16 116.488 1459.31 117.16 1457.9 117.16C1456.33 117.16 1455.1 116.424 1455.1 114.856C1455.1 112.904 1456.64 112.504 1458.7 112.184C1459.87 112.008 1460.69 111.896 1460.69 111C1460.69 110.072 1460.01 109.544 1458.83 109.544C1457.49 109.544 1456.81 110.12 1456.77 111.368H1455.52C1455.57 109.768 1456.62 108.568 1458.81 108.568C1460.57 108.568 1461.87 109.224 1461.87 111.192V115.128C1461.87 115.8 1462.03 116.168 1462.75 116.008H1462.8V116.952C1462.64 117.016 1462.43 117.08 1462.09 117.08ZM1458.19 116.168C1459.92 116.168 1460.7 114.904 1460.7 113.944V112.536C1460.27 112.808 1459.52 113.016 1458.81 113.144C1457.52 113.384 1456.48 113.608 1456.48 114.824C1456.48 115.928 1457.34 116.168 1458.19 116.168ZM1467.29 117.224C1464.83 117.224 1463.29 115.272 1463.29 112.872C1463.29 110.472 1464.83 108.52 1467.29 108.52C1469.24 108.52 1470.54 109.64 1470.83 111.4H1469.52C1469.32 110.28 1468.54 109.592 1467.29 109.592C1465.53 109.592 1464.62 111.048 1464.62 112.872C1464.62 114.696 1465.53 116.136 1467.29 116.136C1468.64 116.136 1469.44 115.368 1469.55 114.088H1470.83C1470.65 116.072 1469.36 117.224 1467.29 117.224ZM1473.11 119.736C1472.61 119.736 1472.29 119.704 1471.94 119.56V118.408H1472C1472.18 118.504 1472.45 118.584 1472.88 118.584C1473.43 118.584 1473.8 118.376 1474.12 117.576L1474.44 116.76L1471.2 108.728H1472.61L1474.56 113.88C1474.82 114.568 1475.12 115.496 1475.12 115.496H1475.16C1475.16 115.496 1475.44 114.568 1475.7 113.88L1477.59 108.728H1478.96L1475.43 117.672C1474.76 119.384 1474.12 119.736 1473.11 119.736ZM1412.84 135V123.56H1417.61C1418.81 123.56 1419.73 123.96 1420.33 124.664C1420.81 125.224 1421.09 125.976 1421.09 126.84C1421.09 128.936 1419.89 130.2 1417.4 130.2H1414.28V135H1412.84ZM1414.28 124.808V129.032H1417.29C1418.9 129.032 1419.67 128.216 1419.67 126.904C1419.67 125.528 1418.82 124.808 1417.37 124.808H1414.28ZM1428.47 135.08C1427.62 135.08 1427.17 134.696 1427.05 133.848H1427.03C1426.53 134.488 1425.69 135.16 1424.28 135.16C1422.71 135.16 1421.48 134.424 1421.48 132.856C1421.48 130.904 1423.01 130.504 1425.08 130.184C1426.25 130.008 1427.06 129.896 1427.06 129C1427.06 128.072 1426.39 127.544 1425.21 127.544C1423.86 127.544 1423.19 128.12 1423.14 129.368H1421.89C1421.94 127.768 1423 126.568 1425.19 126.568C1426.95 126.568 1428.25 127.224 1428.25 129.192V133.128C1428.25 133.8 1428.41 134.168 1429.13 134.008H1429.17V134.952C1429.01 135.016 1428.81 135.08 1428.47 135.08ZM1424.57 134.168C1426.29 134.168 1427.08 132.904 1427.08 131.944V130.536C1426.65 130.808 1425.89 131.016 1425.19 131.144C1423.89 131.384 1422.85 131.608 1422.85 132.824C1422.85 133.928 1423.72 134.168 1424.57 134.168ZM1431.03 137.736C1430.53 137.736 1430.21 137.704 1429.86 137.56V136.408H1429.93C1430.1 136.504 1430.37 136.584 1430.81 136.584C1431.35 136.584 1431.72 136.376 1432.04 135.576L1432.36 134.76L1429.13 126.728H1430.53L1432.49 131.88C1432.74 132.568 1433.05 133.496 1433.05 133.496H1433.08C1433.08 133.496 1433.37 132.568 1433.62 131.88L1435.51 126.728H1436.89L1433.35 135.672C1432.68 137.384 1432.04 137.736 1431.03 137.736ZM1437.8 135V126.728H1439.1V127.912H1439.13C1439.64 127.112 1440.52 126.536 1441.56 126.536C1442.57 126.536 1443.37 127.048 1443.72 128.008H1443.75C1444.28 127.064 1445.27 126.536 1446.28 126.536C1447.75 126.536 1448.79 127.48 1448.79 129.192V135H1447.5V129.256C1447.5 128.232 1446.81 127.624 1445.98 127.624C1444.91 127.624 1443.95 128.552 1443.95 129.848V135H1442.65V129.256C1442.65 128.232 1442.07 127.624 1441.23 127.624C1440.22 127.624 1439.1 128.552 1439.1 129.848V135H1437.8ZM1454.04 135.224C1451.51 135.224 1450.04 133.272 1450.04 130.872C1450.04 128.472 1451.61 126.52 1453.96 126.52C1456.44 126.52 1457.77 128.44 1457.77 131.176H1451.37C1451.47 132.856 1452.38 134.136 1454.04 134.136C1455.24 134.136 1456.04 133.56 1456.33 132.44H1457.59C1457.21 134.216 1455.91 135.224 1454.04 135.224ZM1453.96 127.544C1452.43 127.544 1451.59 128.696 1451.4 130.2H1456.38C1456.3 128.552 1455.45 127.544 1453.96 127.544ZM1460.33 126.728V127.816H1460.36C1460.96 127.032 1461.79 126.536 1462.99 126.536C1464.72 126.536 1465.77 127.48 1465.77 129.192V135H1464.48V129.304C1464.48 128.232 1463.77 127.624 1462.6 127.624C1461.29 127.624 1460.33 128.552 1460.33 129.912V135H1459.04V126.728H1460.33ZM1466.81 127.784V126.728H1468.01V124.12H1469.3V126.728H1470.9V127.784H1469.3V133.16C1469.3 133.736 1469.61 133.928 1470.13 133.928C1470.39 133.928 1470.68 133.864 1470.82 133.816H1470.87V134.936C1470.57 135 1470.21 135.048 1469.83 135.048C1468.77 135.048 1468.01 134.616 1468.01 133.448V127.784H1466.81ZM1475.38 135.24C1473.1 135.24 1471.84 134.168 1471.71 132.312H1473.04C1473.22 133.752 1474.18 134.152 1475.41 134.152C1476.77 134.152 1477.33 133.56 1477.33 132.792C1477.33 131.864 1476.69 131.624 1475.17 131.304C1473.54 130.968 1472.08 130.632 1472.08 128.824C1472.08 127.448 1473.14 126.552 1475.06 126.552C1477.1 126.552 1478.11 127.528 1478.3 129.144H1476.98C1476.85 128.056 1476.26 127.576 1475.02 127.576C1473.84 127.576 1473.36 128.104 1473.36 128.76C1473.36 129.656 1474.16 129.832 1475.58 130.12C1477.25 130.456 1478.64 130.824 1478.64 132.728C1478.64 134.392 1477.28 135.24 1475.38 135.24Z" fill="white"/>
<path d="M46.9185 173.445C46.9185 177.556 43.5832 180.889 39.469 180.889C35.3548 180.889 32.0195 177.556 32.0195 173.445C32.0195 169.333 35.3548 166 39.469 166C43.5832 166 46.9185 169.333 46.9185 173.445Z" fill="#E3FF51"/>
<path fill-rule="evenodd" clip-rule="evenodd" d="M39.469 179.924C43.0499 179.924 45.9528 177.023 45.9528 173.445C45.9528 169.866 43.0499 166.965 39.469 166.965C35.8881 166.965 32.9852 169.866 32.9852 173.445C32.9852 177.023 35.8881 179.924 39.469 179.924ZM39.469 180.889C43.5832 180.889 46.9185 177.556 46.9185 173.445C46.9185 169.333 43.5832 166 39.469 166C35.3548 166 32.0195 169.333 32.0195 173.445C32.0195 177.556 35.3548 180.889 39.469 180.889Z" fill="black"/>
<path fill-rule="evenodd" clip-rule="evenodd" d="M41.9696 175.696C42.6732 174.612 43.1242 173.087 43.1242 171.377L44.0898 171.377C44.0898 173.246 43.5989 174.96 42.7797 176.221C41.9634 177.478 40.7791 178.339 39.3994 178.339C38.0197 178.339 36.8354 177.478 36.0192 176.221C35.2 174.96 34.709 173.246 34.709 171.377L35.6747 171.377C35.6747 173.087 36.1257 174.612 36.8293 175.696C37.5359 176.784 38.4554 177.374 39.3994 177.374C40.3435 177.374 41.263 176.784 41.9696 175.696Z" fill="black"/>
<path d="M38.7982 170.802C38.7982 171.193 38.4814 171.509 38.0905 171.509C37.6997 171.509 37.3828 171.193 37.3828 170.802C37.3828 170.411 37.6997 170.095 38.0905 170.095C38.4814 170.095 38.7982 170.411 38.7982 170.802Z" fill="black"/>
<path d="M41.556 170.802C41.556 171.193 41.2392 171.509 40.8483 171.509C40.4575 171.509 40.1406 171.193 40.1406 170.802C40.1406 170.411 40.4575 170.095 40.8483 170.095C41.2392 170.095 41.556 170.411 41.556 170.802Z" fill="black"/>
<path d="M50.9219 180.597C51.0713 177.274 53.4813 176.058 55.7231 174.805C57.4044 173.861 58.4319 173.225 58.4319 171.718C58.4319 170.193 57.3484 169.158 55.6484 169.158C54.7516 169.158 54.0791 169.449 53.612 169.939C53.1076 170.466 52.8835 171.155 52.8835 172.426H51.2395C51.2395 170.829 51.6691 169.812 52.4538 169.049C53.2758 168.269 54.4714 167.887 55.7791 167.887C58.3759 167.887 60.0573 169.485 60.0573 171.7C60.0573 174.097 58.3759 174.896 56.3209 176.003C54.9385 176.748 53.1637 177.764 52.8087 179.144H59.7957V180.597H50.9219Z" fill="white"/>
<path d="M66.3094 180.869C63.1522 180.869 61.34 178.327 61.34 174.369C61.34 170.338 63.3016 167.869 66.3281 167.869C69.3545 167.869 71.2787 170.302 71.2787 174.369C71.2787 178.327 69.504 180.869 66.3094 180.869ZM66.3281 179.544C68.6072 179.544 69.6534 177.583 69.6534 174.369C69.6534 171.21 68.5512 169.176 66.3281 169.176C64.0676 169.176 62.9653 171.155 62.9653 174.369C62.9653 177.528 64.0676 179.544 66.3281 179.544Z" fill="white"/>
<path d="M72.3853 180.597C72.5348 177.274 74.9447 176.058 77.1865 174.805C78.8679 173.861 79.8954 173.225 79.8954 171.718C79.8954 170.193 78.8118 169.158 77.1118 169.158C76.2151 169.158 75.5425 169.449 75.0755 169.939C74.5711 170.466 74.3469 171.155 74.3469 172.426H72.7029C72.7029 170.829 73.1326 169.812 73.9172 169.049C74.7392 168.269 75.9349 167.887 77.2426 167.887C79.8393 167.887 81.5207 169.485 81.5207 171.7C81.5207 174.097 79.8393 174.896 77.7844 176.003C76.4019 176.748 74.6271 177.764 74.2722 179.144H81.2592V180.597H72.3853Z" fill="white"/>
<path d="M87.9358 180.597V177.547H81.9016V176.185L88.2347 168.033H89.4677V176.33H91.5788V177.547H89.4677V180.597H87.9358ZM83.4149 176.276V176.33H87.9358V170.502H87.8985L83.4149 176.276Z" fill="white"/>
<path d="M97.6987 180.597L94.6349 171.21H96.2602L97.9602 177.002C98.1844 177.783 98.4833 179.017 98.4833 179.017H98.5207C98.5207 179.017 98.8009 177.783 99.0064 177.038L100.632 171.21H102.22L103.789 177.038C103.994 177.801 104.256 179.017 104.256 179.017H104.293C104.293 179.017 104.592 177.783 104.835 177.002L106.629 171.21H108.198L105.041 180.597H103.49L101.883 174.914C101.659 174.133 101.416 172.953 101.416 172.953H101.379C101.379 172.953 101.117 174.133 100.893 174.914L99.2679 180.597H97.6987Z" fill="white"/>
<path d="M116.413 180.688C115.423 180.688 114.899 180.252 114.75 179.29H114.731C114.152 180.016 113.162 180.778 111.518 180.778C109.687 180.778 108.249 179.943 108.249 178.164C108.249 175.949 110.042 175.495 112.452 175.132C113.816 174.932 114.769 174.805 114.769 173.788C114.769 172.735 113.984 172.136 112.602 172.136C111.032 172.136 110.248 172.79 110.192 174.206H108.734C108.791 172.39 110.024 171.028 112.583 171.028C114.638 171.028 116.151 171.773 116.151 174.006V178.472C116.151 179.235 116.338 179.653 117.179 179.471H117.235V180.542C117.048 180.615 116.805 180.688 116.413 180.688ZM111.854 179.653C113.872 179.653 114.787 178.218 114.787 177.129V175.531C114.283 175.84 113.405 176.076 112.583 176.221C111.07 176.493 109.855 176.748 109.855 178.128C109.855 179.38 110.864 179.653 111.854 179.653Z" fill="white"/>
<path d="M117.347 172.408V171.21H118.748V168.25H120.261V171.21H122.129V172.408H120.261V178.509C120.261 179.162 120.616 179.38 121.233 179.38C121.531 179.38 121.868 179.308 122.036 179.253H122.092V180.524C121.737 180.597 121.326 180.651 120.878 180.651C119.645 180.651 118.748 180.161 118.748 178.836V172.408H117.347Z" fill="white"/>
<path d="M127.524 180.851C124.572 180.851 122.853 178.636 122.853 175.912C122.853 173.189 124.684 170.974 127.43 170.974C130.326 170.974 131.877 173.153 131.877 176.257H124.404C124.516 178.164 125.581 179.616 127.524 179.616C128.925 179.616 129.859 178.963 130.195 177.692H131.671C131.223 179.707 129.71 180.851 127.524 180.851ZM127.43 172.136C125.637 172.136 124.665 173.443 124.441 175.15H130.251C130.158 173.28 129.168 172.136 127.43 172.136Z" fill="white"/>
<path d="M135.36 180.597L131.978 171.21H133.604L135.603 177.165C135.883 178 136.238 179.144 136.238 179.144H136.275C136.275 179.144 136.63 177.982 136.91 177.165L138.947 171.21H140.516L137.041 180.597H135.36Z" fill="white"/>
<path d="M145.32 180.851C142.369 180.851 140.65 178.636 140.65 175.912C140.65 173.189 142.481 170.974 145.227 170.974C148.122 170.974 149.673 173.153 149.673 176.257H142.2C142.312 178.164 143.377 179.616 145.32 179.616C146.721 179.616 147.655 178.963 147.992 177.692H149.468C149.019 179.707 147.506 180.851 145.32 180.851ZM145.227 172.136C143.433 172.136 142.462 173.443 142.238 175.15H148.048C147.954 173.28 146.964 172.136 145.227 172.136Z" fill="white"/>
<path d="M152.46 171.21V172.771H152.498C153.077 171.864 154.086 171.101 155.375 171.101C155.655 171.101 155.805 171.137 155.991 171.21V172.626H155.935C155.711 172.553 155.562 172.535 155.263 172.535C153.768 172.535 152.46 173.625 152.46 175.386V180.597H150.947V171.21H152.46Z" fill="white"/>
</svg>
