<svg width="1512" height="198" viewBox="0 0 1512 198" fill="none" xmlns="http://www.w3.org/2000/svg">
<mask id="path-1-inside-1_5362_1724" fill="white">
<path d="M0 0H1512V198H0V0Z"/>
</mask>
<path d="M0 0H1512V198H0V0Z" fill="white"/>
<path d="M0 1H1512V-1H0V1Z" fill="black" mask="url(#path-1-inside-1_5362_1724)"/>
<path d="M38.888 54.74C37.2773 54.74 35.9547 54.1853 34.92 53.076C33.896 51.956 33.384 50.5373 33.384 48.82C33.384 47.092 33.8853 45.6627 34.888 44.532C35.8907 43.4013 37.2187 42.836 38.872 42.836C40.2373 42.836 41.3307 43.1987 42.152 43.924C42.984 44.6387 43.464 45.5613 43.592 46.692H41.288C41.1813 46.1053 40.9147 45.6413 40.488 45.3C40.072 44.9587 39.5333 44.788 38.872 44.788C37.8587 44.788 37.0853 45.1613 36.552 45.908C36.0187 46.6547 35.752 47.6253 35.752 48.82C35.752 50.004 36.0347 50.9693 36.6 51.716C37.176 52.4627 37.9387 52.836 38.888 52.836C39.56 52.836 40.12 52.6547 40.568 52.292C41.016 51.9187 41.2773 51.428 41.352 50.82H43.624C43.56 51.8973 43.1387 52.7987 42.36 53.524C41.496 54.3347 40.3387 54.74 38.888 54.74ZM51.5196 53.508C50.7196 54.3293 49.6903 54.74 48.4316 54.74C47.173 54.74 46.1436 54.3293 45.3436 53.508C44.5436 52.676 44.1436 51.6413 44.1436 50.404C44.1436 49.1667 44.5436 48.1373 45.3436 47.316C46.1436 46.484 47.173 46.068 48.4316 46.068C49.6903 46.068 50.7196 46.484 51.5196 47.316C52.3196 48.1373 52.7196 49.1667 52.7196 50.404C52.7196 51.6413 52.3196 52.676 51.5196 53.508ZM48.4316 53.076C49.0823 53.076 49.589 52.836 49.9516 52.356C50.325 51.8653 50.5116 51.2147 50.5116 50.404C50.5116 49.5933 50.325 48.9427 49.9516 48.452C49.589 47.9613 49.0823 47.716 48.4316 47.716C47.7703 47.716 47.2583 47.9613 46.8956 48.452C46.533 48.932 46.3516 49.5827 46.3516 50.404C46.3516 51.2147 46.533 51.8653 46.8956 52.356C47.2583 52.836 47.7703 53.076 48.4316 53.076ZM55.6831 46.292V47.412H55.7311C56.2965 46.516 57.1071 46.068 58.1631 46.068C59.0058 46.068 59.6885 46.356 60.2111 46.932C60.7338 47.4973 60.9951 48.2333 60.9951 49.14V54.5H58.8191V49.46C58.8191 49.012 58.6911 48.6493 58.4351 48.372C58.1898 48.0947 57.8431 47.956 57.3951 47.956C56.9151 47.956 56.5151 48.132 56.1951 48.484C55.8858 48.836 55.7311 49.2893 55.7311 49.844V54.5H53.5551V46.292H55.6831ZM61.5241 47.732V46.292H62.6601V43.732H64.7881V46.292H66.1961V47.732H64.7881V52.084C64.7881 52.628 65.0601 52.9 65.6041 52.9L66.2441 52.884V54.484C65.9135 54.5053 65.4601 54.516 64.8841 54.516C64.2548 54.516 63.7268 54.3667 63.3001 54.068C62.8735 53.7587 62.6601 53.252 62.6601 52.548V47.732H61.5241ZM72.3868 54.5C72.2801 54.3613 72.1948 54.0573 72.1308 53.588H72.0988C71.8641 53.94 71.5654 54.212 71.2028 54.404C70.8401 54.596 70.3334 54.692 69.6828 54.692C68.8188 54.692 68.1254 54.4733 67.6028 54.036C67.0801 53.5987 66.8188 52.98 66.8188 52.18C66.8188 51.348 67.1068 50.74 67.6828 50.356C68.2588 49.9613 69.0694 49.6893 70.1148 49.54C70.8828 49.4333 71.4054 49.3267 71.6828 49.22C71.9601 49.1027 72.0988 48.9 72.0988 48.612C72.0988 48.3133 71.9814 48.0787 71.7468 47.908C71.5121 47.7267 71.1708 47.636 70.7228 47.636C69.7308 47.636 69.2028 48.02 69.1388 48.788H67.2028C67.2348 48.0093 67.5494 47.364 68.1468 46.852C68.7441 46.34 69.6081 46.084 70.7388 46.084C73.0428 46.084 74.1948 47.092 74.1948 49.108V53.284C74.1948 53.9027 74.2908 54.2813 74.4828 54.42V54.5H72.3868ZM70.2108 53.172C70.8081 53.172 71.2774 53.0173 71.6188 52.708C71.9708 52.3987 72.1468 52.0307 72.1468 51.604V50.372C71.9121 50.5107 71.4054 50.6707 70.6268 50.852C70.0081 50.9907 69.5708 51.1507 69.3148 51.332C69.0588 51.5027 68.9308 51.7693 68.9308 52.132C68.9308 52.8253 69.3574 53.172 70.2108 53.172ZM79.2101 54.74C77.9408 54.74 76.9221 54.3293 76.1541 53.508C75.3861 52.6867 75.0021 51.652 75.0021 50.404C75.0021 49.156 75.3755 48.1213 76.1221 47.3C76.8795 46.4787 77.8715 46.068 79.0981 46.068C80.1328 46.068 80.9755 46.34 81.6261 46.884C82.2768 47.428 82.6768 48.1587 82.8261 49.076H80.6981C80.6235 48.7027 80.4528 48.3987 80.1861 48.164C79.9195 47.9293 79.5888 47.812 79.1941 47.812C78.5541 47.812 78.0635 48.0413 77.7221 48.5C77.3808 48.9587 77.2101 49.5933 77.2101 50.404C77.2101 51.204 77.3755 51.8387 77.7061 52.308C78.0368 52.7667 78.5221 52.996 79.1621 52.996C80.1115 52.996 80.6608 52.532 80.8101 51.604H82.9061C82.8315 52.5107 82.4635 53.2627 81.8021 53.86C81.1408 54.4467 80.2768 54.74 79.2101 54.74ZM83.1993 47.732V46.292H84.3353V43.732H86.4633V46.292H87.8713V47.732H86.4633V52.084C86.4633 52.628 86.7353 52.9 87.2793 52.9L87.9193 52.884V54.484C87.5886 54.5053 87.1353 54.516 86.5593 54.516C85.9299 54.516 85.4019 54.3667 84.9753 54.068C84.5486 53.7587 84.3353 53.252 84.3353 52.548V47.732H83.1993ZM92.2219 54.74C91.0485 54.74 90.1312 54.484 89.4699 53.972C88.8085 53.4493 88.4459 52.74 88.3819 51.844H90.3979C90.5365 52.7507 91.1339 53.204 92.1899 53.204C92.6699 53.204 93.0379 53.1187 93.2939 52.948C93.5605 52.7773 93.6939 52.548 93.6939 52.26C93.6939 52.1533 93.6725 52.0573 93.6299 51.972C93.5979 51.8867 93.5339 51.812 93.4379 51.748C93.3525 51.6733 93.2725 51.6147 93.1979 51.572C93.1339 51.5293 93.0165 51.4867 92.8459 51.444C92.6752 51.4013 92.5419 51.3693 92.4459 51.348C92.3605 51.3267 92.2059 51.3 91.9819 51.268C91.7685 51.2253 91.6192 51.1933 91.5339 51.172C91.0859 51.0867 90.7179 51.0013 90.4299 50.916C90.1525 50.82 89.8592 50.6867 89.5499 50.516C89.2405 50.3347 89.0059 50.0947 88.8459 49.796C88.6965 49.4867 88.6219 49.1187 88.6219 48.692C88.6219 47.8387 88.9312 47.188 89.5499 46.74C90.1792 46.292 90.9845 46.068 91.9659 46.068C93.0219 46.068 93.8485 46.3133 94.4459 46.804C95.0539 47.284 95.4005 47.9453 95.4859 48.788H93.5179C93.4325 47.988 92.9045 47.588 91.9339 47.588C91.4965 47.588 91.1499 47.668 90.8939 47.828C90.6485 47.988 90.5259 48.212 90.5259 48.5C90.5259 48.596 90.5419 48.6867 90.5739 48.772C90.6165 48.8467 90.6805 48.916 90.7659 48.98C90.8619 49.0333 90.9525 49.0813 91.0379 49.124C91.1232 49.156 91.2459 49.1933 91.4059 49.236C91.5659 49.268 91.7045 49.3 91.8219 49.332C91.9392 49.3533 92.0992 49.3853 92.3019 49.428C92.5045 49.46 92.6645 49.4867 92.7819 49.508C93.1232 49.5827 93.4005 49.652 93.6139 49.716C93.8379 49.7693 94.0939 49.8653 94.3819 50.004C94.6699 50.132 94.8939 50.2813 95.0539 50.452C95.2245 50.612 95.3685 50.836 95.4859 51.124C95.6139 51.4013 95.6779 51.7267 95.6779 52.1C95.6779 52.9107 95.3579 53.556 94.7179 54.036C94.0885 54.5053 93.2565 54.74 92.2219 54.74Z" fill="black"/>
<path d="M35.3949 75.796V74.772H38.4989V71.572H39.5549V74.772H42.6589V75.796H39.5549V78.996H38.4989V75.796H35.3949ZM45.9596 80.5V72.516H43.5596V71.62C45.181 71.5773 46.0823 70.8627 46.2636 69.476H47.3036V80.5H45.9596ZM54.5658 82.388C53.8298 81.2573 53.2538 80.116 52.8378 78.964C52.4324 77.812 52.2298 76.5373 52.2298 75.14C52.2298 72.8467 53.0084 70.612 54.5658 68.436H55.6218C54.3738 70.5587 53.7498 72.7933 53.7498 75.14C53.7498 77.6787 54.3738 80.0947 55.6218 82.388H54.5658ZM61.1309 80.5V77.812H55.9629V76.612L61.3869 69.428H62.4429V76.74H64.2509V77.812H62.4429V80.5H61.1309ZM57.2589 76.692V76.74H61.1309V71.604H61.0989L57.2589 76.692ZM67.069 80.5V72.516H64.669V71.62C66.2903 71.5773 67.1917 70.8627 67.373 69.476H68.413V80.5H67.069ZM74.0563 80.74C72.9149 80.74 71.9656 80.4253 71.2083 79.796C70.4616 79.1667 70.0669 78.3453 70.0243 77.332H71.3523C71.4376 78.0253 71.7149 78.5693 72.1843 78.964C72.6536 79.3587 73.2723 79.556 74.0403 79.556C74.8189 79.556 75.4429 79.316 75.9123 78.836C76.3816 78.3453 76.6163 77.7 76.6163 76.9C76.6163 76.1 76.3709 75.4653 75.8803 74.996C75.4003 74.5267 74.7869 74.292 74.0403 74.292C72.9309 74.292 72.1096 74.6707 71.5763 75.428H70.2803L71.4963 69.54H77.3363V70.74H72.4403L71.7203 74.036H71.7523C72.4029 73.4173 73.2403 73.108 74.2643 73.108C75.2883 73.108 76.1629 73.4547 76.8883 74.148C77.6243 74.8413 77.9923 75.7693 77.9923 76.932C77.9923 78.084 77.6243 79.0067 76.8883 79.7C76.1523 80.3933 75.2083 80.74 74.0563 80.74ZM78.852 82.388C80.1 80.0947 80.724 77.6787 80.724 75.14C80.724 72.7933 80.1 70.5587 78.852 68.436H79.908C81.4653 70.612 82.244 72.8467 82.244 75.14C82.244 76.5373 82.036 77.812 81.62 78.964C81.2147 80.116 80.644 81.2573 79.908 82.388H78.852ZM90.3063 80.74C89.1649 80.74 88.2156 80.4253 87.4583 79.796C86.7116 79.1667 86.3169 78.3453 86.2743 77.332H87.6023C87.6876 78.0253 87.9649 78.5693 88.4343 78.964C88.9036 79.3587 89.5223 79.556 90.2903 79.556C91.0689 79.556 91.6929 79.316 92.1623 78.836C92.6316 78.3453 92.8663 77.7 92.8663 76.9C92.8663 76.1 92.6209 75.4653 92.1303 74.996C91.6503 74.5267 91.0369 74.292 90.2903 74.292C89.1809 74.292 88.3596 74.6707 87.8263 75.428H86.5303L87.7463 69.54H93.5863V70.74H88.6903L87.9703 74.036H88.0023C88.6529 73.4173 89.4903 73.108 90.5143 73.108C91.5383 73.108 92.4129 73.4547 93.1383 74.148C93.8743 74.8413 94.2423 75.7693 94.2423 76.932C94.2423 78.084 93.8743 79.0067 93.1383 79.7C92.4023 80.3933 91.4583 80.74 90.3063 80.74ZM99.15 80.74C98.0087 80.74 97.0593 80.4253 96.302 79.796C95.5553 79.1667 95.1607 78.3453 95.118 77.332H96.446C96.5313 78.0253 96.8087 78.5693 97.278 78.964C97.7473 79.3587 98.366 79.556 99.134 79.556C99.9127 79.556 100.537 79.316 101.006 78.836C101.475 78.3453 101.71 77.7 101.71 76.9C101.71 76.1 101.465 75.4653 100.974 74.996C100.494 74.5267 99.8807 74.292 99.134 74.292C98.0247 74.292 97.2033 74.6707 96.67 75.428H95.374L96.59 69.54H102.43V70.74H97.534L96.814 74.036H96.846C97.4967 73.4173 98.334 73.108 99.358 73.108C100.382 73.108 101.257 73.4547 101.982 74.148C102.718 74.8413 103.086 75.7693 103.086 76.932C103.086 78.084 102.718 79.0067 101.982 79.7C101.246 80.3933 100.302 80.74 99.15 80.74ZM107.994 80.74C106.852 80.74 105.903 80.4253 105.146 79.796C104.399 79.1667 104.004 78.3453 103.962 77.332H105.29C105.375 78.0253 105.652 78.5693 106.122 78.964C106.591 79.3587 107.21 79.556 107.978 79.556C108.756 79.556 109.38 79.316 109.85 78.836C110.319 78.3453 110.554 77.7 110.554 76.9C110.554 76.1 110.308 75.4653 109.818 74.996C109.338 74.5267 108.724 74.292 107.978 74.292C106.868 74.292 106.047 74.6707 105.514 75.428H104.218L105.434 69.54H111.274V70.74H106.378L105.658 74.036H105.69C106.34 73.4173 107.178 73.108 108.202 73.108C109.226 73.108 110.1 73.4547 110.826 74.148C111.562 74.8413 111.93 75.7693 111.93 76.932C111.93 78.084 111.562 79.0067 110.826 79.7C110.09 80.3933 109.146 80.74 107.994 80.74ZM113.046 76.676V75.492H117.334V76.676H113.046ZM122.594 80.74C121.346 80.74 120.311 80.3987 119.49 79.716C118.668 79.0333 118.247 78.0893 118.226 76.884H119.554C119.575 77.7587 119.847 78.436 120.37 78.916C120.903 79.3853 121.628 79.62 122.546 79.62C123.335 79.62 123.964 79.428 124.434 79.044C124.903 78.6493 125.138 78.0733 125.138 77.316C125.138 76.6227 124.887 76.0947 124.386 75.732C123.895 75.3693 123.186 75.188 122.258 75.188H121.57V74.148H122.242C123.084 74.148 123.724 73.9827 124.162 73.652C124.599 73.3213 124.818 72.8573 124.818 72.26C124.818 71.6733 124.588 71.2093 124.13 70.868C123.682 70.516 123.116 70.34 122.434 70.34C121.655 70.34 121.036 70.5747 120.578 71.044C120.13 71.5027 119.906 72.116 119.906 72.884H118.594C118.604 71.796 118.956 70.9267 119.65 70.276C120.343 69.6147 121.287 69.284 122.482 69.284C123.527 69.284 124.396 69.556 125.09 70.1C125.783 70.6333 126.13 71.364 126.13 72.292C126.13 73.4227 125.527 74.1907 124.322 74.596V74.644C125.794 75.028 126.53 75.9613 126.53 77.444C126.53 78.468 126.156 79.2733 125.41 79.86C124.674 80.4467 123.735 80.74 122.594 80.74ZM132.631 80.5V77.812H127.463V76.612L132.887 69.428H133.943V76.74H135.751V77.812H133.943V80.5H132.631ZM128.759 76.692V76.74H132.631V71.604H132.599L128.759 76.692ZM136.605 80.5C136.637 79.828 136.749 79.236 136.941 78.724C137.144 78.212 137.48 77.7427 137.949 77.316C138.429 76.8893 138.803 76.5853 139.069 76.404C139.347 76.212 139.827 75.9187 140.509 75.524C140.531 75.5027 140.547 75.492 140.557 75.492C140.568 75.4813 140.584 75.4707 140.605 75.46C140.627 75.4493 140.643 75.4387 140.653 75.428C140.675 75.4173 140.696 75.4067 140.717 75.396C141.56 74.9053 142.157 74.484 142.509 74.132C142.861 73.7693 143.037 73.284 143.037 72.676C143.037 72.004 142.819 71.46 142.381 71.044C141.955 70.628 141.379 70.42 140.653 70.42C139.917 70.42 139.336 70.6493 138.909 71.108C138.493 71.556 138.285 72.2867 138.285 73.3H136.877C136.877 72.0093 137.224 71.0173 137.917 70.324C138.611 69.6413 139.56 69.3 140.765 69.3C141.864 69.3 142.749 69.6147 143.421 70.244C144.093 70.8733 144.429 71.6787 144.429 72.66C144.429 73.0547 144.371 73.4173 144.253 73.748C144.136 74.0787 144.013 74.3453 143.885 74.548C143.757 74.7507 143.523 74.9853 143.181 75.252C142.84 75.508 142.584 75.684 142.413 75.78C142.253 75.876 141.933 76.0573 141.453 76.324C141.357 76.3773 141.283 76.42 141.229 76.452C140.717 76.74 140.291 76.9907 139.949 77.204C139.619 77.4173 139.272 77.716 138.909 78.1C138.547 78.4733 138.317 78.8467 138.221 79.22H144.205V80.5H136.605ZM145.496 80.5C145.528 79.828 145.64 79.236 145.832 78.724C146.035 78.212 146.371 77.7427 146.84 77.316C147.32 76.8893 147.693 76.5853 147.96 76.404C148.237 76.212 148.717 75.9187 149.4 75.524C149.421 75.5027 149.437 75.492 149.448 75.492C149.459 75.4813 149.475 75.4707 149.496 75.46C149.517 75.4493 149.533 75.4387 149.544 75.428C149.565 75.4173 149.587 75.4067 149.608 75.396C150.451 74.9053 151.048 74.484 151.4 74.132C151.752 73.7693 151.928 73.284 151.928 72.676C151.928 72.004 151.709 71.46 151.272 71.044C150.845 70.628 150.269 70.42 149.544 70.42C148.808 70.42 148.227 70.6493 147.8 71.108C147.384 71.556 147.176 72.2867 147.176 73.3H145.768C145.768 72.0093 146.115 71.0173 146.808 70.324C147.501 69.6413 148.451 69.3 149.656 69.3C150.755 69.3 151.64 69.6147 152.312 70.244C152.984 70.8733 153.32 71.6787 153.32 72.66C153.32 73.0547 153.261 73.4173 153.144 73.748C153.027 74.0787 152.904 74.3453 152.776 74.548C152.648 74.7507 152.413 74.9853 152.072 75.252C151.731 75.508 151.475 75.684 151.304 75.78C151.144 75.876 150.824 76.0573 150.344 76.324C150.248 76.3773 150.173 76.42 150.12 76.452C149.608 76.74 149.181 76.9907 148.84 77.204C148.509 77.4173 148.163 77.716 147.8 78.1C147.437 78.4733 147.208 78.8467 147.112 79.22H153.096V80.5H145.496ZM36.08 99.74C34.9493 99.74 34.0533 99.3507 33.392 98.572C32.7413 97.7827 32.416 96.7213 32.416 95.388C32.416 94.044 32.7573 92.9827 33.44 92.204C34.1227 91.4253 34.992 91.036 36.048 91.036C37.168 91.036 38.032 91.4893 38.64 92.396H38.672V88.06H39.968V99.5H38.672V98.492H38.64C37.9893 99.324 37.136 99.74 36.08 99.74ZM36.128 98.652C37.0133 98.652 37.6693 98.3587 38.096 97.772C38.5333 97.1853 38.752 96.396 38.752 95.404C38.752 94.4227 38.5173 93.6333 38.048 93.036C37.5893 92.4387 36.944 92.14 36.112 92.14C35.3547 92.14 34.768 92.444 34.352 93.052C33.9467 93.6493 33.744 94.4333 33.744 95.404C33.744 96.3747 33.9467 97.1587 34.352 97.756C34.768 98.3533 35.36 98.652 36.128 98.652ZM43.0198 91.228V92.604H43.0518C43.3184 92.1667 43.6651 91.8147 44.0918 91.548C44.5184 91.2707 44.9931 91.132 45.5158 91.132C45.7078 91.132 45.8838 91.164 46.0438 91.228V92.476H45.9958C45.8358 92.4227 45.6438 92.396 45.4198 92.396C44.7584 92.396 44.1931 92.6307 43.7238 93.1C43.2544 93.5587 43.0198 94.1613 43.0198 94.908V99.5H41.7238V91.228H43.0198ZM47.2081 99.5V91.228H48.5041V99.5H47.2081ZM47.2081 89.66V88.06H48.5041V89.66H47.2081ZM51.5666 91.228V92.316H51.5986C52.2386 91.4627 53.1133 91.036 54.2226 91.036C55.0973 91.036 55.78 91.2653 56.2706 91.724C56.7613 92.1827 57.0066 92.8387 57.0066 93.692V99.5H55.7106V93.804C55.7106 93.2707 55.5453 92.86 55.2146 92.572C54.884 92.2733 54.4253 92.124 53.8386 92.124C53.1773 92.124 52.6333 92.3373 52.2066 92.764C51.78 93.1907 51.5666 93.74 51.5666 94.412V99.5H50.2706V91.228H51.5666ZM64.1638 99.5L61.2358 95.036L60.0198 96.188V99.5H58.7238V88.06H60.0198V94.764L63.6518 91.228H65.2998L62.1318 94.204L65.6838 99.5H64.1638ZM66.5321 99.5V97.916H68.0841V99.5H66.5321ZM70.5161 99.5L67.8921 91.228H69.2841L70.7401 96.332L71.1881 98.108H71.2201C71.3801 97.3827 71.5188 96.8013 71.6361 96.364L73.0281 91.228H74.3881L75.7321 96.364L76.1321 98.108H76.1641C76.3348 97.3827 76.4895 96.7907 76.6281 96.332L78.1641 91.228H79.5081L76.8041 99.5H75.4761L74.1001 94.492L73.7001 92.764H73.6681C73.5188 93.4573 73.3801 94.0333 73.2521 94.492L71.8601 99.5H70.5161ZM86.7198 99.58C85.8984 99.58 85.4238 99.1693 85.2958 98.348H85.2798C84.5971 99.2227 83.6798 99.66 82.5278 99.66C81.7064 99.66 81.0344 99.4627 80.5118 99.068C79.9891 98.6733 79.7278 98.1027 79.7278 97.356C79.7278 96.972 79.7864 96.6413 79.9038 96.364C80.0318 96.076 80.1918 95.8467 80.3838 95.676C80.5758 95.4947 80.8371 95.34 81.1678 95.212C81.5091 95.0733 81.8344 94.972 82.1438 94.908C82.4531 94.8333 82.8478 94.7587 83.3278 94.684C83.6371 94.6413 83.8558 94.6093 83.9838 94.588C84.1224 94.556 84.2984 94.5133 84.5118 94.46C84.7251 94.396 84.8744 94.3267 84.9598 94.252C85.0451 94.1773 85.1251 94.076 85.1998 93.948C85.2744 93.82 85.3118 93.6707 85.3118 93.5C85.3118 93.0307 85.1464 92.6733 84.8158 92.428C84.4958 92.172 84.0424 92.044 83.4557 92.044C82.1224 92.044 81.4344 92.652 81.3918 93.868H80.1438C80.1651 93.0253 80.4531 92.348 81.0078 91.836C81.5731 91.324 82.3838 91.068 83.4398 91.068C85.4771 91.068 86.4958 91.9427 86.4958 93.692V97.628C86.4958 97.9907 86.5544 98.2467 86.6718 98.396C86.7998 98.5453 87.0344 98.5827 87.3758 98.508H87.4237V99.452C87.2104 99.5373 86.9758 99.58 86.7198 99.58ZM82.8158 98.668C83.6158 98.668 84.2344 98.4387 84.6718 97.98C85.1091 97.5107 85.3278 96.9987 85.3278 96.444V95.036C84.9331 95.2813 84.3038 95.484 83.4398 95.644C83.1198 95.708 82.8691 95.7613 82.6878 95.804C82.5064 95.836 82.2984 95.9 82.0638 95.996C81.8291 96.0813 81.6531 96.1773 81.5358 96.284C81.4184 96.3907 81.3171 96.5347 81.2318 96.716C81.1464 96.8867 81.1038 97.0893 81.1038 97.324C81.1038 98.22 81.6744 98.668 82.8158 98.668ZM87.6958 92.284V91.228H88.8958V88.62H90.1918V91.228H91.7918V92.284H90.1918V97.66C90.1918 98.172 90.4691 98.428 91.0238 98.428C91.2584 98.428 91.4878 98.3907 91.7118 98.316H91.7598V99.436C91.4078 99.5107 91.0611 99.548 90.7198 99.548C89.5038 99.548 88.8958 99.0147 88.8958 97.948V92.284H87.6958ZM96.5879 99.724C95.3612 99.724 94.3852 99.3133 93.6599 98.492C92.9452 97.66 92.5879 96.62 92.5879 95.372C92.5879 94.1453 92.9505 93.116 93.6759 92.284C94.4119 91.4413 95.3559 91.02 96.5079 91.02C97.7239 91.02 98.6625 91.4467 99.3239 92.3C99.9852 93.1427 100.316 94.268 100.316 95.676H93.9159C93.9692 96.5507 94.2252 97.2653 94.6839 97.82C95.1532 98.364 95.7879 98.636 96.5879 98.636C97.8252 98.636 98.5879 98.0707 98.8759 96.94H100.14C99.9479 97.8253 99.5425 98.5133 98.9239 99.004C98.3052 99.484 97.5265 99.724 96.5879 99.724ZM98.2359 92.748C97.8199 92.2787 97.2439 92.044 96.5079 92.044C95.7719 92.044 95.1852 92.2893 94.7479 92.78C94.3212 93.2707 94.0545 93.9107 93.9479 94.7H98.9239C98.8812 93.868 98.6519 93.2173 98.2359 92.748ZM103.475 99.5L100.579 91.228H101.971L103.683 96.476L104.227 98.22H104.259C104.462 97.5373 104.643 96.956 104.803 96.476L106.547 91.228H107.891L104.915 99.5H103.475ZM112.182 99.724C110.955 99.724 109.979 99.3133 109.254 98.492C108.539 97.66 108.182 96.62 108.182 95.372C108.182 94.1453 108.544 93.116 109.27 92.284C110.006 91.4413 110.95 91.02 112.102 91.02C113.318 91.02 114.256 91.4467 114.918 92.3C115.579 93.1427 115.91 94.268 115.91 95.676H109.51C109.563 96.5507 109.819 97.2653 110.278 97.82C110.747 98.364 111.382 98.636 112.182 98.636C113.419 98.636 114.182 98.0707 114.47 96.94H115.734C115.542 97.8253 115.136 98.5133 114.518 99.004C113.899 99.484 113.12 99.724 112.182 99.724ZM113.83 92.748C113.414 92.2787 112.838 92.044 112.102 92.044C111.366 92.044 110.779 92.2893 110.342 92.78C109.915 93.2707 109.648 93.9107 109.542 94.7H114.518C114.475 93.868 114.246 93.2173 113.83 92.748ZM118.473 91.228V92.604H118.505C118.772 92.1667 119.118 91.8147 119.545 91.548C119.972 91.2707 120.446 91.132 120.969 91.132C121.161 91.132 121.337 91.164 121.497 91.228V92.476H121.449C121.289 92.4227 121.097 92.396 120.873 92.396C120.212 92.396 119.646 92.6307 119.177 93.1C118.708 93.5587 118.473 94.1613 118.473 94.908V99.5H117.177V91.228H118.473ZM128.245 98.236C127.403 98.236 126.736 97.9587 126.245 97.404C125.755 96.8387 125.509 96.1027 125.509 95.196C125.509 93.98 125.819 93.004 126.437 92.268C127.056 91.532 127.84 91.164 128.789 91.164C129.707 91.164 130.363 91.5427 130.757 92.3H130.789L130.917 91.324H132.165L131.621 95.772C131.504 96.6573 131.797 97.1 132.501 97.1C132.971 97.1 133.376 96.8333 133.717 96.3C134.059 95.7667 134.229 94.9827 134.229 93.948C134.229 92.3693 133.749 91.1693 132.789 90.348C131.829 89.516 130.592 89.1 129.077 89.1C127.52 89.1 126.192 89.6333 125.093 90.7C123.995 91.7667 123.445 93.1853 123.445 94.956C123.445 96.5133 123.915 97.7773 124.853 98.748C125.803 99.7187 127.115 100.204 128.789 100.204C129.803 100.204 130.795 100.017 131.765 99.644L132.133 100.524C131.141 100.961 130.053 101.18 128.869 101.18C126.928 101.18 125.349 100.609 124.133 99.468C122.917 98.316 122.309 96.8067 122.309 94.94C122.309 93.884 122.501 92.9133 122.885 92.028C123.28 91.1427 123.797 90.4227 124.437 89.868C125.077 89.3027 125.803 88.8653 126.613 88.556C127.424 88.2467 128.261 88.092 129.125 88.092C129.925 88.092 130.688 88.22 131.413 88.476C132.149 88.7213 132.811 89.0787 133.397 89.548C133.984 90.0173 134.453 90.6307 134.805 91.388C135.157 92.1347 135.333 92.9667 135.333 93.884C135.333 95.1533 135.083 96.1773 134.581 96.956C134.091 97.7347 133.371 98.124 132.421 98.124C131.472 98.124 130.859 97.74 130.581 96.972H130.549C130.293 97.356 129.963 97.6653 129.557 97.9C129.152 98.124 128.715 98.236 128.245 98.236ZM128.373 97.244C129.088 97.244 129.627 96.9613 129.989 96.396C130.363 95.8307 130.549 95.0947 130.549 94.188C130.549 93.5587 130.405 93.068 130.117 92.716C129.829 92.3533 129.397 92.172 128.821 92.172C128.149 92.172 127.643 92.4547 127.301 93.02C126.971 93.5747 126.805 94.2947 126.805 95.18C126.805 95.7987 126.933 96.3 127.189 96.684C127.456 97.0573 127.851 97.244 128.373 97.244ZM138.704 99.5L136.08 91.228H137.472L138.928 96.332L139.376 98.108H139.408C139.568 97.3827 139.706 96.8013 139.824 96.364L141.216 91.228H142.576L143.92 96.364L144.32 98.108H144.352C144.522 97.3827 144.677 96.7907 144.816 96.332L146.352 91.228H147.696L144.992 99.5H143.664L142.288 94.492L141.888 92.764H141.856C141.706 93.4573 141.568 94.0333 141.44 94.492L140.048 99.5H138.704ZM152.025 99.724C150.799 99.724 149.823 99.3133 149.097 98.492C148.383 97.66 148.025 96.62 148.025 95.372C148.025 94.1453 148.388 93.116 149.113 92.284C149.849 91.4413 150.793 91.02 151.945 91.02C153.161 91.02 154.1 91.4467 154.761 92.3C155.423 93.1427 155.753 94.268 155.753 95.676H149.353C149.407 96.5507 149.663 97.2653 150.121 97.82C150.591 98.364 151.225 98.636 152.025 98.636C153.263 98.636 154.025 98.0707 154.313 96.94H155.577C155.385 97.8253 154.98 98.5133 154.361 99.004C153.743 99.484 152.964 99.724 152.025 99.724ZM153.673 92.748C153.257 92.2787 152.681 92.044 151.945 92.044C151.209 92.044 150.623 92.2893 150.185 92.78C149.759 93.2707 149.492 93.9107 149.385 94.7H154.361C154.319 93.868 154.089 93.2173 153.673 92.748ZM156.336 92.284V91.228H157.536V88.62H158.832V91.228H160.432V92.284H158.832V97.66C158.832 98.172 159.11 98.428 159.664 98.428C159.899 98.428 160.128 98.3907 160.352 98.316H160.4V99.436C160.048 99.5107 159.702 99.548 159.36 99.548C158.144 99.548 157.536 99.0147 157.536 97.948V92.284H156.336ZM161.771 99.5V91.228H163.067V92.412H163.099C163.365 91.996 163.712 91.6653 164.139 91.42C164.565 91.164 165.029 91.036 165.531 91.036C166.608 91.036 167.328 91.5267 167.691 92.508H167.723C167.979 92.0493 168.336 91.692 168.795 91.436C169.253 91.1693 169.739 91.036 170.251 91.036C171.008 91.036 171.616 91.2707 172.075 91.74C172.533 92.1987 172.763 92.8493 172.763 93.692V99.5H171.467V93.756C171.467 93.2547 171.317 92.86 171.019 92.572C170.731 92.2733 170.373 92.124 169.947 92.124C169.403 92.124 168.928 92.3373 168.523 92.764C168.117 93.1907 167.915 93.7187 167.915 94.348V99.5H166.619V93.756C166.619 93.2547 166.485 92.86 166.219 92.572C165.963 92.2733 165.621 92.124 165.195 92.124C164.661 92.124 164.171 92.3427 163.723 92.78C163.285 93.2067 163.067 93.7293 163.067 94.348V99.5H161.771ZM180.97 99.58C180.148 99.58 179.674 99.1693 179.546 98.348H179.53C178.847 99.2227 177.93 99.66 176.778 99.66C175.956 99.66 175.284 99.4627 174.762 99.068C174.239 98.6733 173.978 98.1027 173.978 97.356C173.978 96.972 174.036 96.6413 174.154 96.364C174.282 96.076 174.442 95.8467 174.634 95.676C174.826 95.4947 175.087 95.34 175.418 95.212C175.759 95.0733 176.084 94.972 176.394 94.908C176.703 94.8333 177.098 94.7587 177.578 94.684C177.887 94.6413 178.106 94.6093 178.234 94.588C178.372 94.556 178.548 94.5133 178.762 94.46C178.975 94.396 179.124 94.3267 179.21 94.252C179.295 94.1773 179.375 94.076 179.45 93.948C179.524 93.82 179.562 93.6707 179.562 93.5C179.562 93.0307 179.396 92.6733 179.066 92.428C178.746 92.172 178.292 92.044 177.706 92.044C176.372 92.044 175.684 92.652 175.642 93.868H174.394C174.415 93.0253 174.703 92.348 175.258 91.836C175.823 91.324 176.634 91.068 177.69 91.068C179.727 91.068 180.746 91.9427 180.746 93.692V97.628C180.746 97.9907 180.804 98.2467 180.922 98.396C181.05 98.5453 181.284 98.5827 181.626 98.508H181.674V99.452C181.46 99.5373 181.226 99.58 180.97 99.58ZM177.066 98.668C177.866 98.668 178.484 98.4387 178.922 97.98C179.359 97.5107 179.578 96.9987 179.578 96.444V95.036C179.183 95.2813 178.554 95.484 177.69 95.644C177.37 95.708 177.119 95.7613 176.938 95.804C176.756 95.836 176.548 95.9 176.314 95.996C176.079 96.0813 175.903 96.1773 175.786 96.284C175.668 96.3907 175.567 96.5347 175.482 96.716C175.396 96.8867 175.354 97.0893 175.354 97.324C175.354 98.22 175.924 98.668 177.066 98.668ZM182.63 99.5V91.228H183.926V99.5H182.63ZM182.63 89.66V88.06H183.926V89.66H182.63ZM185.741 99.5V88.06H187.037V99.5H185.741ZM188.673 99.5V97.916H190.225V99.5H188.673ZM194.932 99.724C193.726 99.724 192.756 99.308 192.02 98.476C191.294 97.644 190.932 96.6093 190.932 95.372C190.932 94.1347 191.294 93.1 192.02 92.268C192.756 91.436 193.726 91.02 194.932 91.02C195.902 91.02 196.697 91.2813 197.316 91.804C197.934 92.316 198.318 93.0147 198.468 93.9H197.156C197.06 93.3347 196.82 92.892 196.436 92.572C196.052 92.252 195.55 92.092 194.932 92.092C194.078 92.092 193.417 92.4013 192.948 93.02C192.489 93.6387 192.26 94.4227 192.26 95.372C192.26 96.3213 192.489 97.1053 192.948 97.724C193.417 98.332 194.078 98.636 194.932 98.636C195.593 98.636 196.121 98.46 196.516 98.108C196.91 97.7453 197.134 97.2387 197.188 96.588H198.468C198.382 97.58 198.03 98.3533 197.412 98.908C196.793 99.452 195.966 99.724 194.932 99.724ZM206.125 98.476C205.399 99.308 204.434 99.724 203.229 99.724C202.023 99.724 201.053 99.308 200.317 98.476C199.591 97.644 199.229 96.6093 199.229 95.372C199.229 94.1347 199.591 93.1 200.317 92.268C201.053 91.436 202.023 91.02 203.229 91.02C204.434 91.02 205.399 91.436 206.125 92.268C206.85 93.1 207.213 94.1347 207.213 95.372C207.213 96.6093 206.85 97.644 206.125 98.476ZM201.245 97.724C201.714 98.332 202.375 98.636 203.229 98.636C204.082 98.636 204.738 98.332 205.197 97.724C205.655 97.1053 205.885 96.3213 205.885 95.372C205.885 94.412 205.65 93.628 205.181 93.02C204.722 92.4013 204.071 92.092 203.229 92.092C202.375 92.092 201.714 92.4013 201.245 93.02C200.786 93.6387 200.557 94.4227 200.557 95.372C200.557 96.3213 200.786 97.1053 201.245 97.724ZM208.505 99.5V91.228H209.801V92.412H209.833C210.1 91.996 210.446 91.6653 210.873 91.42C211.3 91.164 211.764 91.036 212.265 91.036C213.342 91.036 214.062 91.5267 214.425 92.508H214.457C214.713 92.0493 215.07 91.692 215.529 91.436C215.988 91.1693 216.473 91.036 216.985 91.036C217.742 91.036 218.35 91.2707 218.809 91.74C219.268 92.1987 219.497 92.8493 219.497 93.692V99.5H218.201V93.756C218.201 93.2547 218.052 92.86 217.753 92.572C217.465 92.2733 217.108 92.124 216.681 92.124C216.137 92.124 215.662 92.3373 215.257 92.764C214.852 93.1907 214.649 93.7187 214.649 94.348V99.5H213.353V93.756C213.353 93.2547 213.22 92.86 212.953 92.572C212.697 92.2733 212.356 92.124 211.929 92.124C211.396 92.124 210.905 92.3427 210.457 92.78C210.02 93.2067 209.801 93.7293 209.801 94.348V99.5H208.505ZM38.464 117.236C37.6213 117.236 36.9547 116.959 36.464 116.404C35.9733 115.839 35.728 115.103 35.728 114.196C35.728 112.98 36.0373 112.004 36.656 111.268C37.2747 110.532 38.0587 110.164 39.008 110.164C39.9253 110.164 40.5813 110.543 40.976 111.3H41.008L41.136 110.324H42.384L41.84 114.772C41.7227 115.657 42.016 116.1 42.72 116.1C43.1893 116.1 43.5947 115.833 43.936 115.3C44.2773 114.767 44.448 113.983 44.448 112.948C44.448 111.369 43.968 110.169 43.008 109.348C42.048 108.516 40.8107 108.1 39.296 108.1C37.7387 108.1 36.4107 108.633 35.312 109.7C34.2133 110.767 33.664 112.185 33.664 113.956C33.664 115.513 34.1333 116.777 35.072 117.748C36.0213 118.719 37.3333 119.204 39.008 119.204C40.0213 119.204 41.0133 119.017 41.984 118.644L42.352 119.524C41.36 119.961 40.272 120.18 39.088 120.18C37.1467 120.18 35.568 119.609 34.352 118.468C33.136 117.316 32.528 115.807 32.528 113.94C32.528 112.884 32.72 111.913 33.104 111.028C33.4987 110.143 34.016 109.423 34.656 108.868C35.296 108.303 36.0213 107.865 36.832 107.556C37.6427 107.247 38.48 107.092 39.344 107.092C40.144 107.092 40.9067 107.22 41.632 107.476C42.368 107.721 43.0293 108.079 43.616 108.548C44.2027 109.017 44.672 109.631 45.024 110.388C45.376 111.135 45.552 111.967 45.552 112.884C45.552 114.153 45.3013 115.177 44.8 115.956C44.3093 116.735 43.5893 117.124 42.64 117.124C41.6907 117.124 41.0773 116.74 40.8 115.972H40.768C40.512 116.356 40.1813 116.665 39.776 116.9C39.3707 117.124 38.9333 117.236 38.464 117.236ZM38.592 116.244C39.3067 116.244 39.8453 115.961 40.208 115.396C40.5813 114.831 40.768 114.095 40.768 113.188C40.768 112.559 40.624 112.068 40.336 111.716C40.048 111.353 39.616 111.172 39.04 111.172C38.368 111.172 37.8613 111.455 37.52 112.02C37.1893 112.575 37.024 113.295 37.024 114.18C37.024 114.799 37.152 115.3 37.408 115.684C37.6747 116.057 38.0693 116.244 38.592 116.244ZM50.3144 118.74C49.1837 118.74 48.2877 118.351 47.6264 117.572C46.9757 116.783 46.6504 115.721 46.6504 114.388C46.6504 113.044 46.9917 111.983 47.6744 111.204C48.357 110.425 49.2264 110.036 50.2824 110.036C51.4024 110.036 52.2664 110.489 52.8744 111.396H52.9064V107.06H54.2024V118.5H52.9064V117.492H52.8744C52.2237 118.324 51.3704 118.74 50.3144 118.74ZM50.3624 117.652C51.2477 117.652 51.9037 117.359 52.3304 116.772C52.7677 116.185 52.9864 115.396 52.9864 114.404C52.9864 113.423 52.7517 112.633 52.2824 112.036C51.8237 111.439 51.1784 111.14 50.3464 111.14C49.589 111.14 49.0024 111.444 48.5864 112.052C48.181 112.649 47.9784 113.433 47.9784 114.404C47.9784 115.375 48.181 116.159 48.5864 116.756C49.0024 117.353 49.5944 117.652 50.3624 117.652ZM57.2541 110.228V111.604H57.2861C57.5528 111.167 57.8995 110.815 58.3261 110.548C58.7528 110.271 59.2275 110.132 59.7501 110.132C59.9421 110.132 60.1181 110.164 60.2781 110.228V111.476H60.2301C60.0701 111.423 59.8781 111.396 59.6541 111.396C58.9928 111.396 58.4275 111.631 57.9581 112.1C57.4888 112.559 57.2541 113.161 57.2541 113.908V118.5H55.9581V110.228H57.2541ZM61.4425 118.5V110.228H62.7385V118.5H61.4425ZM61.4425 108.66V107.06H62.7385V108.66H61.4425ZM65.801 110.228V111.316H65.833C66.473 110.463 67.3477 110.036 68.457 110.036C69.3317 110.036 70.0143 110.265 70.505 110.724C70.9957 111.183 71.241 111.839 71.241 112.692V118.5H69.945V112.804C69.945 112.271 69.7797 111.86 69.449 111.572C69.1183 111.273 68.6597 111.124 68.073 111.124C67.4117 111.124 66.8677 111.337 66.441 111.764C66.0143 112.191 65.801 112.74 65.801 113.412V118.5H64.505V110.228H65.801ZM78.3981 118.5L75.4701 114.036L74.2541 115.188V118.5H72.9581V107.06H74.2541V113.764L77.8861 110.228H79.5341L76.3661 113.204L79.9181 118.5H78.3981ZM82.5943 118.5L79.9703 110.228H81.3623L82.8183 115.332L83.2663 117.108H83.2983C83.4583 116.383 83.5969 115.801 83.7143 115.364L85.1063 110.228H86.4663L87.8103 115.364L88.2103 117.108H88.2423C88.4129 116.383 88.5676 115.791 88.7063 115.332L90.2423 110.228H91.5863L88.8823 118.5H87.5543L86.1783 113.492L85.7783 111.764H85.7463C85.5969 112.457 85.4583 113.033 85.3303 113.492L83.9383 118.5H82.5943ZM98.7979 118.58C97.9765 118.58 97.5019 118.169 97.3739 117.348H97.3579C96.6752 118.223 95.7579 118.66 94.6059 118.66C93.7845 118.66 93.1125 118.463 92.5899 118.068C92.0672 117.673 91.8059 117.103 91.8059 116.356C91.8059 115.972 91.8645 115.641 91.9819 115.364C92.1099 115.076 92.2699 114.847 92.4619 114.676C92.6539 114.495 92.9152 114.34 93.2459 114.212C93.5872 114.073 93.9125 113.972 94.2219 113.908C94.5312 113.833 94.9259 113.759 95.4059 113.684C95.7152 113.641 95.9339 113.609 96.0619 113.588C96.2005 113.556 96.3765 113.513 96.5899 113.46C96.8032 113.396 96.9525 113.327 97.0379 113.252C97.1232 113.177 97.2032 113.076 97.2779 112.948C97.3525 112.82 97.3899 112.671 97.3899 112.5C97.3899 112.031 97.2245 111.673 96.8939 111.428C96.5739 111.172 96.1205 111.044 95.5339 111.044C94.2005 111.044 93.5125 111.652 93.4699 112.868H92.2219C92.2432 112.025 92.5312 111.348 93.0859 110.836C93.6512 110.324 94.4619 110.068 95.5179 110.068C97.5552 110.068 98.5739 110.943 98.5739 112.692V116.628C98.5739 116.991 98.6325 117.247 98.7499 117.396C98.8779 117.545 99.1125 117.583 99.4539 117.508H99.5019V118.452C99.2885 118.537 99.0539 118.58 98.7979 118.58ZM94.8939 117.668C95.6939 117.668 96.3125 117.439 96.7499 116.98C97.1872 116.511 97.4059 115.999 97.4059 115.444V114.036C97.0112 114.281 96.3819 114.484 95.5179 114.644C95.1979 114.708 94.9472 114.761 94.7659 114.804C94.5845 114.836 94.3765 114.9 94.1419 114.996C93.9072 115.081 93.7312 115.177 93.6139 115.284C93.4965 115.391 93.3952 115.535 93.3099 115.716C93.2245 115.887 93.1819 116.089 93.1819 116.324C93.1819 117.22 93.7525 117.668 94.8939 117.668ZM99.7739 111.284V110.228H100.974V107.62H102.27V110.228H103.87V111.284H102.27V116.66C102.27 117.172 102.547 117.428 103.102 117.428C103.337 117.428 103.566 117.391 103.79 117.316H103.838V118.436C103.486 118.511 103.139 118.548 102.798 118.548C101.582 118.548 100.974 118.015 100.974 116.948V111.284H99.7739ZM108.666 118.724C107.439 118.724 106.463 118.313 105.738 117.492C105.023 116.66 104.666 115.62 104.666 114.372C104.666 113.145 105.029 112.116 105.754 111.284C106.49 110.441 107.434 110.02 108.586 110.02C109.802 110.02 110.741 110.447 111.402 111.3C112.063 112.143 112.394 113.268 112.394 114.676H105.994C106.047 115.551 106.303 116.265 106.762 116.82C107.231 117.364 107.866 117.636 108.666 117.636C109.903 117.636 110.666 117.071 110.954 115.94H112.218C112.026 116.825 111.621 117.513 111.002 118.004C110.383 118.484 109.605 118.724 108.666 118.724ZM110.314 111.748C109.898 111.279 109.322 111.044 108.586 111.044C107.85 111.044 107.263 111.289 106.826 111.78C106.399 112.271 106.133 112.911 106.026 113.7H111.002C110.959 112.868 110.73 112.217 110.314 111.748ZM115.553 118.5L112.657 110.228H114.049L115.761 115.476L116.305 117.22H116.337C116.54 116.537 116.721 115.956 116.881 115.476L118.625 110.228H119.969L116.993 118.5H115.553ZM124.26 118.724C123.033 118.724 122.057 118.313 121.332 117.492C120.617 116.66 120.26 115.62 120.26 114.372C120.26 113.145 120.622 112.116 121.348 111.284C122.084 110.441 123.028 110.02 124.18 110.02C125.396 110.02 126.334 110.447 126.996 111.3C127.657 112.143 127.988 113.268 127.988 114.676H121.588C121.641 115.551 121.897 116.265 122.356 116.82C122.825 117.364 123.46 117.636 124.26 117.636C125.497 117.636 126.26 117.071 126.548 115.94H127.812C127.62 116.825 127.214 117.513 126.596 118.004C125.977 118.484 125.198 118.724 124.26 118.724ZM125.908 111.748C125.492 111.279 124.916 111.044 124.18 111.044C123.444 111.044 122.857 111.289 122.42 111.78C121.993 112.271 121.726 112.911 121.62 113.7H126.596C126.553 112.868 126.324 112.217 125.908 111.748ZM130.551 110.228V111.604H130.583C130.85 111.167 131.196 110.815 131.623 110.548C132.05 110.271 132.524 110.132 133.047 110.132C133.239 110.132 133.415 110.164 133.575 110.228V111.476H133.527C133.367 111.423 133.175 111.396 132.951 111.396C132.29 111.396 131.724 111.631 131.255 112.1C130.786 112.559 130.551 113.161 130.551 113.908V118.5H129.255V110.228H130.551Z" fill="black"/>
<path d="M909.364 64.8925V72.2222H909.535C910.955 69.8926 912.802 68.0175 915.075 66.5971C917.348 65.1198 919.876 64.3811 922.66 64.3811C923.683 64.3811 924.62 64.5516 925.473 64.8925V71.5403H925.217C924.365 71.2562 923.342 71.1142 922.149 71.1142C918.626 71.1142 915.615 72.3642 913.115 74.8643C910.615 77.3075 909.364 80.5178 909.364 84.4951V108.956H902.461V64.8925H909.364Z" fill="black"/>
<path d="M877.557 110.149C871.023 110.149 865.824 107.961 861.96 103.586C858.153 99.1542 856.25 93.6143 856.25 86.9664C856.25 80.4322 858.182 74.9492 862.046 70.5173C865.966 66.0285 870.995 63.7842 877.131 63.7842C883.608 63.7842 888.609 66.057 892.131 70.6025C895.654 75.0912 897.416 81.0856 897.416 88.5858H863.324C863.608 93.245 864.972 97.0519 867.415 100.006C869.915 102.904 873.296 104.353 877.557 104.353C884.148 104.353 888.211 101.342 889.745 95.3189H896.478C895.455 100.035 893.296 103.7 890.001 106.313C886.705 108.87 882.557 110.149 877.557 110.149ZM886.336 72.9889C884.12 70.4889 881.052 69.2388 877.131 69.2388C873.211 69.2388 870.085 70.5457 867.756 73.1594C865.483 75.773 864.063 79.1822 863.494 83.3868H890.001C889.773 78.9549 888.552 75.4889 886.336 72.9889Z" fill="black"/>
<path d="M832.883 108.956L817.457 64.8926H824.872L833.991 92.8477L836.889 102.138H837.06C838.139 98.5012 839.105 95.4045 839.957 92.8477L849.247 64.8926H856.407L840.554 108.956H832.883Z" fill="black"/>
<path d="M797.905 110.149C791.371 110.149 786.172 107.961 782.308 103.586C778.501 99.1542 776.598 93.6143 776.598 86.9664C776.598 80.4322 778.53 74.9492 782.393 70.5173C786.314 66.0285 791.342 63.7842 797.479 63.7842C803.956 63.7842 808.956 66.057 812.479 70.6025C816.002 75.0912 817.763 81.0856 817.763 88.5858H783.672C783.956 93.245 785.319 97.0519 787.763 100.006C790.263 102.904 793.643 104.353 797.905 104.353C804.496 104.353 808.558 101.342 810.093 95.3189H816.826C815.803 100.035 813.644 103.7 810.348 106.313C807.053 108.87 802.905 110.149 797.905 110.149ZM806.683 72.9889C804.467 70.4889 801.399 69.2388 797.479 69.2388C793.558 69.2388 790.433 70.5457 788.104 73.1594C785.831 75.773 784.41 79.1822 783.842 83.3868H810.348C810.121 78.9549 808.899 75.4889 806.683 72.9889Z" fill="black"/>
<path d="M752.238 70.5174V64.8923H758.63V51H765.534V64.8923H774.057V70.5174H765.534V99.1543C765.534 101.882 767.011 103.245 769.966 103.245C771.216 103.245 772.438 103.046 773.631 102.649H773.886V108.615C772.011 109.012 770.165 109.211 768.347 109.211C761.869 109.211 758.63 106.37 758.63 100.688V70.5174H752.238Z" fill="black"/>
<path d="M748.745 109.382C744.37 109.382 741.841 107.194 741.16 102.819H741.074C737.438 107.478 732.552 109.808 726.415 109.808C722.04 109.808 718.46 108.757 715.676 106.654C712.892 104.552 711.5 101.512 711.5 97.535C711.5 95.4895 711.813 93.7281 712.438 92.2508C713.119 90.7167 713.972 89.4951 714.994 88.586C716.017 87.62 717.409 86.7961 719.171 86.1143C720.989 85.3757 722.722 84.8359 724.37 84.495C726.017 84.0972 728.12 83.6995 730.676 83.3018C732.324 83.0745 733.489 82.904 734.171 82.7904C734.91 82.6199 735.847 82.3927 736.983 82.1086C738.12 81.7676 738.915 81.3983 739.37 81.0006C739.824 80.6029 740.251 80.0631 740.648 79.3812C741.046 78.6994 741.245 77.9039 741.245 76.9948C741.245 74.4948 740.364 72.5913 738.603 71.2845C736.898 69.9208 734.483 69.239 731.358 69.239C724.256 69.239 720.591 72.4777 720.364 78.9551H713.716C713.83 74.4664 715.364 70.8583 718.318 68.131C721.33 65.4037 725.648 64.04 731.273 64.04C742.126 64.04 747.552 68.6992 747.552 78.0176V98.9839C747.552 100.916 747.864 102.279 748.489 103.075C749.171 103.87 750.421 104.069 752.239 103.671H752.495V108.7C751.359 109.155 750.109 109.382 748.745 109.382ZM727.949 104.524C732.211 104.524 735.506 103.302 737.836 100.859C740.165 98.3589 741.33 95.6315 741.33 92.6769V85.1768C739.228 86.4836 735.875 87.5632 731.273 88.4155C729.569 88.7564 728.233 89.0405 727.267 89.2678C726.301 89.4382 725.193 89.7792 723.943 90.2905C722.693 90.7451 721.756 91.2565 721.131 91.8247C720.506 92.3928 719.966 93.1599 719.512 94.1258C719.057 95.0349 718.83 96.1145 718.83 97.3645C718.83 102.137 721.87 104.524 727.949 104.524Z" fill="black"/>
<path d="M664.138 108.956L650.16 64.8926H657.575L665.331 92.0806L667.717 101.541H667.888C668.74 97.6773 669.479 94.5806 670.104 92.2511L677.519 64.8926H684.763L691.922 92.2511L694.053 101.541H694.223C695.133 97.6773 695.956 94.5238 696.695 92.0806L704.877 64.8926H712.036L697.633 108.956H690.559L683.229 82.2793L681.098 73.0745H680.928C680.132 76.7678 679.394 79.836 678.712 82.2793L671.297 108.956H664.138Z" fill="black"/>
<path d="M643.623 86.573C643.623 102.209 630.948 114.885 615.312 114.885C599.676 114.885 587 102.209 587 86.573C587 70.9368 599.676 58.2612 615.312 58.2612C630.948 58.2612 643.623 70.9368 643.623 86.573Z" fill="#E3FF50"/>
<path fill-rule="evenodd" clip-rule="evenodd" d="M615.312 111.215C628.921 111.215 639.953 100.182 639.953 86.573C639.953 72.9637 628.921 61.9313 615.312 61.9313C601.703 61.9313 590.67 72.9637 590.67 86.573C590.67 100.182 601.703 111.215 615.312 111.215ZM615.312 114.885C630.948 114.885 643.623 102.209 643.623 86.573C643.623 70.9368 630.948 58.2612 615.312 58.2612C599.676 58.2612 587 70.9368 587 86.573C587 102.209 599.676 114.885 615.312 114.885Z" fill="black"/>
<path fill-rule="evenodd" clip-rule="evenodd" d="M624.817 95.1342C627.491 91.0135 629.205 85.2113 629.205 78.7085L632.875 78.7085C632.875 85.8152 631.009 92.3341 627.896 97.1321C624.793 101.912 620.292 105.186 615.049 105.186C609.805 105.186 605.304 101.912 602.202 97.1321C599.088 92.3341 597.223 85.8152 597.223 78.7085L600.893 78.7085C600.893 85.2113 602.607 91.0135 605.281 95.1342C607.966 99.2726 611.461 101.516 615.049 101.516C618.637 101.516 622.131 99.2726 624.817 95.1342Z" fill="black"/>
<path d="M612.763 77.2492C612.763 78.7348 611.558 79.9391 610.073 79.9391C608.587 79.9391 607.383 78.7348 607.383 77.2492C607.383 75.7636 608.587 74.5593 610.073 74.5593C611.558 74.5593 612.763 75.7636 612.763 77.2492Z" fill="black"/>
<path d="M623.239 77.2492C623.239 78.7348 622.035 79.9391 620.549 79.9391C619.064 79.9391 617.859 78.7348 617.859 77.2492C617.859 75.7636 619.064 74.5593 620.549 74.5593C622.035 74.5593 623.239 75.7636 623.239 77.2492Z" fill="black"/>
<path d="M1427.88 55V43.56H1432.9C1434.23 43.56 1435.22 43.944 1435.9 44.632C1436.54 45.288 1436.92 46.184 1436.92 47.24C1436.92 49.4 1435.5 50.856 1433.1 50.856H1430.28V55H1427.88ZM1430.28 45.576V48.968H1432.68C1433.9 48.968 1434.54 48.296 1434.54 47.256C1434.54 46.184 1433.86 45.576 1432.71 45.576H1430.28ZM1439.81 46.792V48.104H1439.86C1440.36 47.176 1440.92 46.696 1441.88 46.696C1442.12 46.696 1442.26 46.712 1442.39 46.76V48.664H1442.34C1440.92 48.52 1439.89 49.272 1439.89 51V55H1437.72V46.792H1439.81ZM1443.15 55V46.792H1445.32V55H1443.15ZM1443.15 45.512V43.56H1445.32V45.512H1443.15ZM1448.73 55L1445.88 46.792H1448.09L1449.4 51.048C1449.64 51.832 1449.77 52.36 1449.77 52.36H1449.8C1449.8 52.36 1449.91 51.832 1450.15 51.048L1451.5 46.792H1453.67L1450.81 55H1448.73ZM1459.17 55C1459.04 54.84 1458.96 54.456 1458.91 54.088H1458.88C1458.46 54.712 1457.87 55.192 1456.46 55.192C1454.78 55.192 1453.6 54.312 1453.6 52.68C1453.6 50.872 1455.07 50.296 1456.9 50.04C1458.26 49.848 1458.88 49.736 1458.88 49.112C1458.88 48.52 1458.42 48.136 1457.5 48.136C1456.48 48.136 1455.98 48.504 1455.92 49.288H1453.98C1454.05 47.848 1455.12 46.584 1457.52 46.584C1459.98 46.584 1460.98 47.688 1460.98 49.608V53.784C1460.98 54.408 1461.07 54.776 1461.26 54.92V55H1459.17ZM1456.99 53.672C1458.24 53.672 1458.93 52.904 1458.93 52.104V50.872C1458.54 51.096 1457.95 51.224 1457.41 51.352C1456.27 51.608 1455.71 51.864 1455.71 52.632C1455.71 53.4 1456.22 53.672 1456.99 53.672ZM1465.99 55.24C1463.4 55.24 1461.78 53.352 1461.78 50.904C1461.78 48.456 1463.38 46.568 1465.88 46.568C1468.01 46.568 1469.32 47.8 1469.61 49.576H1467.48C1467.34 48.856 1466.78 48.312 1465.98 48.312C1464.66 48.312 1463.99 49.32 1463.99 50.904C1463.99 52.456 1464.62 53.496 1465.94 53.496C1466.82 53.496 1467.45 53.032 1467.59 52.104H1469.69C1469.54 53.848 1468.18 55.24 1465.99 55.24ZM1470.56 57.688V55.976H1471.33C1472.19 55.976 1472.54 55.528 1472.54 54.856C1472.54 54.408 1472.38 53.88 1471.92 52.632L1469.71 46.792H1472L1473.21 50.488C1473.47 51.24 1473.74 52.28 1473.74 52.28H1473.77C1473.77 52.28 1474 51.24 1474.25 50.488L1475.41 46.792H1477.6L1474.73 55.208C1474.11 57.032 1473.5 57.688 1471.84 57.688H1470.56Z" fill="black"/>
<path d="M1348.12 70.824V69.56H1357.17V70.824H1353.37V81H1351.93V70.824H1348.12ZM1360.18 81.224C1357.65 81.224 1356.18 79.272 1356.18 76.872C1356.18 74.472 1357.75 72.52 1360.1 72.52C1362.58 72.52 1363.91 74.44 1363.91 77.176H1357.51C1357.61 78.856 1358.52 80.136 1360.18 80.136C1361.38 80.136 1362.18 79.56 1362.47 78.44H1363.73C1363.35 80.216 1362.05 81.224 1360.18 81.224ZM1360.1 73.544C1358.57 73.544 1357.73 74.696 1357.54 76.2H1362.52C1362.44 74.552 1361.59 73.544 1360.1 73.544ZM1366.47 72.728V74.104H1366.5C1367 73.304 1367.86 72.632 1368.97 72.632C1369.21 72.632 1369.34 72.664 1369.5 72.728V73.976H1369.45C1369.26 73.912 1369.13 73.896 1368.87 73.896C1367.59 73.896 1366.47 74.856 1366.47 76.408V81H1365.18V72.728H1366.47ZM1370.66 81V72.728H1371.96V73.912H1371.99C1372.5 73.112 1373.38 72.536 1374.42 72.536C1375.43 72.536 1376.23 73.048 1376.58 74.008H1376.61C1377.14 73.064 1378.13 72.536 1379.14 72.536C1380.61 72.536 1381.65 73.48 1381.65 75.192V81H1380.36V75.256C1380.36 74.232 1379.67 73.624 1378.84 73.624C1377.77 73.624 1376.81 74.552 1376.81 75.848V81H1375.51V75.256C1375.51 74.232 1374.93 73.624 1374.09 73.624C1373.08 73.624 1371.96 74.552 1371.96 75.848V81H1370.66ZM1386.5 81.24C1384.23 81.24 1382.96 80.168 1382.84 78.312H1384.16C1384.34 79.752 1385.3 80.152 1386.53 80.152C1387.89 80.152 1388.45 79.56 1388.45 78.792C1388.45 77.864 1387.81 77.624 1386.29 77.304C1384.66 76.968 1383.2 76.632 1383.2 74.824C1383.2 73.448 1384.26 72.552 1386.18 72.552C1388.23 72.552 1389.24 73.528 1389.43 75.144H1388.1C1387.97 74.056 1387.38 73.576 1386.15 73.576C1384.96 73.576 1384.48 74.104 1384.48 74.76C1384.48 75.656 1385.28 75.832 1386.71 76.12C1388.37 76.456 1389.76 76.824 1389.76 78.728C1389.76 80.392 1388.4 81.24 1386.5 81.24ZM1396.58 81.224C1394.91 81.224 1393.3 80.04 1393.3 78.168C1393.3 76.472 1394.34 75.608 1395.78 74.728L1395.46 74.312C1394.8 73.464 1394.58 72.792 1394.58 71.96C1394.58 70.664 1395.65 69.672 1397.04 69.672C1398.3 69.672 1399.52 70.456 1399.52 72.056C1399.52 73.448 1398.51 74.216 1397.42 74.92L1399.7 77.816C1399.94 77.192 1400.08 76.488 1400.08 75.704H1401.2C1401.2 76.792 1400.94 77.88 1400.46 78.792L1402.19 81H1400.64L1399.74 79.848C1398.98 80.68 1397.92 81.224 1396.58 81.224ZM1396.66 80.088C1397.62 80.088 1398.43 79.656 1399.04 78.936L1396.42 75.56C1395.38 76.248 1394.59 76.904 1394.59 78.168C1394.59 79.304 1395.52 80.088 1396.66 80.088ZM1395.79 71.976C1395.79 72.616 1396 73.08 1396.5 73.72L1396.8 74.12C1397.79 73.48 1398.27 72.904 1398.27 72.024C1398.27 71.24 1397.79 70.744 1397.04 70.744C1396.3 70.744 1395.79 71.24 1395.79 71.976ZM1410.61 81.224C1407.36 81.224 1405.25 78.744 1405.25 75.272C1405.25 71.912 1407.27 69.304 1410.67 69.304C1413.35 69.304 1414.96 70.84 1415.27 72.952H1413.86C1413.59 71.528 1412.45 70.552 1410.64 70.552C1408.13 70.552 1406.72 72.584 1406.72 75.272C1406.72 78.072 1408.27 79.96 1410.66 79.96C1412.82 79.96 1413.84 78.488 1413.99 76.808H1415.41C1415.39 77.944 1414.85 79.224 1414.03 80.024C1413.23 80.808 1412.07 81.224 1410.61 81.224ZM1420.37 81.224C1417.91 81.224 1416.37 79.272 1416.37 76.872C1416.37 74.472 1417.91 72.52 1420.37 72.52C1422.85 72.52 1424.35 74.472 1424.35 76.872C1424.35 79.272 1422.85 81.224 1420.37 81.224ZM1420.37 80.136C1422.13 80.136 1423.03 78.696 1423.03 76.872C1423.03 75.048 1422.13 73.592 1420.37 73.592C1418.61 73.592 1417.7 75.048 1417.7 76.872C1417.7 78.696 1418.61 80.136 1420.37 80.136ZM1426.94 72.728V73.816H1426.97C1427.57 73.032 1428.4 72.536 1429.6 72.536C1431.33 72.536 1432.38 73.48 1432.38 75.192V81H1431.09V75.304C1431.09 74.232 1430.38 73.624 1429.21 73.624C1427.9 73.624 1426.94 74.552 1426.94 75.912V81H1425.65V72.728H1426.94ZM1437.3 81.24C1435.04 81.24 1433.63 79.544 1433.63 76.888C1433.63 74.136 1435.22 72.536 1437.27 72.536C1438.43 72.536 1439.33 73.112 1439.86 73.896H1439.89V69.56H1441.19V81H1439.89V79.992H1439.86C1439.23 80.792 1438.47 81.24 1437.3 81.24ZM1437.35 80.152C1439.19 80.152 1439.97 78.776 1439.97 76.904C1439.97 74.984 1439.04 73.64 1437.33 73.64C1435.76 73.64 1434.96 75.048 1434.96 76.904C1434.96 78.776 1435.76 80.152 1437.35 80.152ZM1442.94 81V72.728H1444.24V81H1442.94ZM1442.94 71.16V69.56H1444.24V71.16H1442.94ZM1445.48 73.784V72.728H1446.68V70.12H1447.97V72.728H1449.57V73.784H1447.97V79.16C1447.97 79.736 1448.28 79.928 1448.81 79.928C1449.06 79.928 1449.35 79.864 1449.49 79.816H1449.54V80.936C1449.24 81 1448.89 81.048 1448.5 81.048C1447.45 81.048 1446.68 80.616 1446.68 79.448V73.784H1445.48ZM1450.91 81V72.728H1452.21V81H1450.91ZM1450.91 71.16V69.56H1452.21V71.16H1450.91ZM1457.51 81.224C1455.05 81.224 1453.51 79.272 1453.51 76.872C1453.51 74.472 1455.05 72.52 1457.51 72.52C1459.99 72.52 1461.49 74.472 1461.49 76.872C1461.49 79.272 1459.99 81.224 1457.51 81.224ZM1457.51 80.136C1459.27 80.136 1460.17 78.696 1460.17 76.872C1460.17 75.048 1459.27 73.592 1457.51 73.592C1455.75 73.592 1454.84 75.048 1454.84 76.872C1454.84 78.696 1455.75 80.136 1457.51 80.136ZM1464.08 72.728V73.816H1464.11C1464.71 73.032 1465.54 72.536 1466.74 72.536C1468.47 72.536 1469.52 73.48 1469.52 75.192V81H1468.23V75.304C1468.23 74.232 1467.52 73.624 1466.35 73.624C1465.04 73.624 1464.08 74.552 1464.08 75.912V81H1462.79V72.728H1464.08ZM1474.38 81.24C1472.1 81.24 1470.84 80.168 1470.71 78.312H1472.04C1472.22 79.752 1473.18 80.152 1474.41 80.152C1475.77 80.152 1476.33 79.56 1476.33 78.792C1476.33 77.864 1475.69 77.624 1474.17 77.304C1472.54 76.968 1471.08 76.632 1471.08 74.824C1471.08 73.448 1472.14 72.552 1474.06 72.552C1476.1 72.552 1477.11 73.528 1477.3 75.144H1475.98C1475.85 74.056 1475.26 73.576 1474.02 73.576C1472.84 73.576 1472.36 74.104 1472.36 74.76C1472.36 75.656 1473.16 75.832 1474.58 76.12C1476.25 76.456 1477.64 76.824 1477.64 78.728C1477.64 80.392 1476.28 81.24 1474.38 81.24ZM1392.5 99.224C1389.25 99.224 1387.14 96.744 1387.14 93.272C1387.14 89.912 1389.16 87.304 1392.56 87.304C1395.24 87.304 1396.85 88.84 1397.16 90.952H1395.75C1395.48 89.528 1394.34 88.552 1392.53 88.552C1390.02 88.552 1388.61 90.584 1388.61 93.272C1388.61 96.072 1390.16 97.96 1392.55 97.96C1394.71 97.96 1395.73 96.488 1395.88 94.808H1397.3C1397.28 95.944 1396.74 97.224 1395.92 98.024C1395.12 98.808 1393.96 99.224 1392.5 99.224ZM1402.26 99.224C1399.8 99.224 1398.26 97.272 1398.26 94.872C1398.26 92.472 1399.8 90.52 1402.26 90.52C1404.74 90.52 1406.24 92.472 1406.24 94.872C1406.24 97.272 1404.74 99.224 1402.26 99.224ZM1402.26 98.136C1404.02 98.136 1404.92 96.696 1404.92 94.872C1404.92 93.048 1404.02 91.592 1402.26 91.592C1400.5 91.592 1399.59 93.048 1399.59 94.872C1399.59 96.696 1400.5 98.136 1402.26 98.136ZM1411.07 99.224C1408.61 99.224 1407.07 97.272 1407.07 94.872C1407.07 92.472 1408.61 90.52 1411.07 90.52C1413.55 90.52 1415.06 92.472 1415.06 94.872C1415.06 97.272 1413.55 99.224 1411.07 99.224ZM1411.07 98.136C1412.83 98.136 1413.73 96.696 1413.73 94.872C1413.73 93.048 1412.83 91.592 1411.07 91.592C1409.31 91.592 1408.4 93.048 1408.4 94.872C1408.4 96.696 1409.31 98.136 1411.07 98.136ZM1421.79 99L1418.86 94.536L1417.64 95.688V99H1416.35V87.56H1417.64V94.264L1421.28 90.728H1422.92L1419.76 93.704L1423.31 99H1421.79ZM1424.18 99V90.728H1425.47V99H1424.18ZM1424.18 89.16V87.56H1425.47V89.16H1424.18ZM1430.78 99.224C1428.25 99.224 1426.78 97.272 1426.78 94.872C1426.78 92.472 1428.34 90.52 1430.7 90.52C1433.18 90.52 1434.5 92.44 1434.5 95.176H1428.1C1428.2 96.856 1429.11 98.136 1430.78 98.136C1431.98 98.136 1432.78 97.56 1433.06 96.44H1434.33C1433.94 98.216 1432.65 99.224 1430.78 99.224ZM1430.7 91.544C1429.16 91.544 1428.33 92.696 1428.14 94.2H1433.11C1433.03 92.552 1432.18 91.544 1430.7 91.544ZM1438.51 99V87.56H1443.28C1444.48 87.56 1445.41 87.96 1446 88.664C1446.48 89.224 1446.77 89.976 1446.77 90.84C1446.77 92.936 1445.57 94.2 1443.07 94.2H1439.95V99H1438.51ZM1439.95 88.808V93.032H1442.96C1444.57 93.032 1445.34 92.216 1445.34 90.904C1445.34 89.528 1444.49 88.808 1443.04 88.808H1439.95ZM1451.26 99.224C1448.8 99.224 1447.26 97.272 1447.26 94.872C1447.26 92.472 1448.8 90.52 1451.26 90.52C1453.74 90.52 1455.24 92.472 1455.24 94.872C1455.24 97.272 1453.74 99.224 1451.26 99.224ZM1451.26 98.136C1453.02 98.136 1453.92 96.696 1453.92 94.872C1453.92 93.048 1453.02 91.592 1451.26 91.592C1449.5 91.592 1448.59 93.048 1448.59 94.872C1448.59 96.696 1449.5 98.136 1451.26 98.136ZM1456.58 99V87.56H1457.88V99H1456.58ZM1459.69 99V90.728H1460.99V99H1459.69ZM1459.69 89.16V87.56H1460.99V89.16H1459.69ZM1466.29 99.224C1463.83 99.224 1462.29 97.272 1462.29 94.872C1462.29 92.472 1463.83 90.52 1466.29 90.52C1468.24 90.52 1469.54 91.64 1469.83 93.4H1468.52C1468.32 92.28 1467.54 91.592 1466.29 91.592C1464.53 91.592 1463.62 93.048 1463.62 94.872C1463.62 96.696 1464.53 98.136 1466.29 98.136C1467.64 98.136 1468.44 97.368 1468.55 96.088H1469.83C1469.65 98.072 1468.36 99.224 1466.29 99.224ZM1472.11 101.736C1471.61 101.736 1471.29 101.704 1470.94 101.56V100.408H1471C1471.18 100.504 1471.45 100.584 1471.88 100.584C1472.43 100.584 1472.8 100.376 1473.12 99.576L1473.44 98.76L1470.2 90.728H1471.61L1473.56 95.88C1473.82 96.568 1474.12 97.496 1474.12 97.496H1474.16C1474.16 97.496 1474.44 96.568 1474.7 95.88L1476.59 90.728H1477.96L1474.43 99.672C1473.76 101.384 1473.12 101.736 1472.11 101.736ZM1395.07 117V105.56H1399.23C1402.67 105.56 1404.3 107.896 1404.3 111.32C1404.3 114.744 1402.56 117 1399.12 117H1395.07ZM1396.51 115.736H1399.07C1401.76 115.736 1402.83 114.008 1402.83 111.32C1402.83 108.632 1401.87 106.808 1399.18 106.808H1396.51V115.736ZM1412.16 117.08C1411.31 117.08 1410.86 116.696 1410.73 115.848H1410.72C1410.22 116.488 1409.37 117.16 1407.97 117.16C1406.4 117.16 1405.17 116.424 1405.17 114.856C1405.17 112.904 1406.7 112.504 1408.77 112.184C1409.93 112.008 1410.75 111.896 1410.75 111C1410.75 110.072 1410.08 109.544 1408.89 109.544C1407.55 109.544 1406.88 110.12 1406.83 111.368H1405.58C1405.63 109.768 1406.69 108.568 1408.88 108.568C1410.64 108.568 1411.93 109.224 1411.93 111.192V115.128C1411.93 115.8 1412.09 116.168 1412.81 116.008H1412.86V116.952C1412.7 117.016 1412.49 117.08 1412.16 117.08ZM1408.25 116.168C1409.98 116.168 1410.77 114.904 1410.77 113.944V112.536C1410.33 112.808 1409.58 113.016 1408.88 113.144C1407.58 113.384 1406.54 113.608 1406.54 114.824C1406.54 115.928 1407.41 116.168 1408.25 116.168ZM1413.13 109.784V108.728H1414.33V106.12H1415.63V108.728H1417.23V109.784H1415.63V115.16C1415.63 115.736 1415.93 115.928 1416.46 115.928C1416.72 115.928 1417.01 115.864 1417.15 115.816H1417.2V116.936C1416.89 117 1416.54 117.048 1416.16 117.048C1415.1 117.048 1414.33 116.616 1414.33 115.448V109.784H1413.13ZM1425.06 117.08C1424.22 117.08 1423.77 116.696 1423.64 115.848H1423.62C1423.13 116.488 1422.28 117.16 1420.87 117.16C1419.3 117.16 1418.07 116.424 1418.07 114.856C1418.07 112.904 1419.61 112.504 1421.67 112.184C1422.84 112.008 1423.66 111.896 1423.66 111C1423.66 110.072 1422.98 109.544 1421.8 109.544C1420.46 109.544 1419.78 110.12 1419.74 111.368H1418.49C1418.54 109.768 1419.59 108.568 1421.78 108.568C1423.54 108.568 1424.84 109.224 1424.84 111.192V115.128C1424.84 115.8 1425 116.168 1425.72 116.008H1425.77V116.952C1425.61 117.016 1425.4 117.08 1425.06 117.08ZM1421.16 116.168C1422.89 116.168 1423.67 114.904 1423.67 113.944V112.536C1423.24 112.808 1422.49 113.016 1421.78 113.144C1420.49 113.384 1419.45 113.608 1419.45 114.824C1419.45 115.928 1420.31 116.168 1421.16 116.168ZM1429.46 117V105.56H1434.23C1435.43 105.56 1436.36 105.96 1436.95 106.664C1437.43 107.224 1437.72 107.976 1437.72 108.84C1437.72 110.936 1436.52 112.2 1434.02 112.2H1430.9V117H1429.46ZM1430.9 106.808V111.032H1433.91C1435.53 111.032 1436.29 110.216 1436.29 108.904C1436.29 107.528 1435.45 106.808 1433.99 106.808H1430.9ZM1440.21 108.728V110.104H1440.24C1440.74 109.304 1441.6 108.632 1442.7 108.632C1442.94 108.632 1443.07 108.664 1443.23 108.728V109.976H1443.18C1442.99 109.912 1442.86 109.896 1442.61 109.896C1441.33 109.896 1440.21 110.856 1440.21 112.408V117H1438.91V108.728H1440.21ZM1444.4 117V108.728H1445.69V117H1444.4ZM1444.4 107.16V105.56H1445.69V107.16H1444.4ZM1449.51 117L1446.61 108.728H1448L1449.71 113.976C1449.95 114.712 1450.26 115.72 1450.26 115.72H1450.29C1450.29 115.72 1450.59 114.696 1450.83 113.976L1452.58 108.728H1453.92L1450.95 117H1449.51ZM1461.09 117.08C1460.25 117.08 1459.8 116.696 1459.67 115.848H1459.65C1459.16 116.488 1458.31 117.16 1456.9 117.16C1455.33 117.16 1454.1 116.424 1454.1 114.856C1454.1 112.904 1455.64 112.504 1457.7 112.184C1458.87 112.008 1459.69 111.896 1459.69 111C1459.69 110.072 1459.01 109.544 1457.83 109.544C1456.49 109.544 1455.81 110.12 1455.77 111.368H1454.52C1454.57 109.768 1455.62 108.568 1457.81 108.568C1459.57 108.568 1460.87 109.224 1460.87 111.192V115.128C1460.87 115.8 1461.03 116.168 1461.75 116.008H1461.8V116.952C1461.64 117.016 1461.43 117.08 1461.09 117.08ZM1457.19 116.168C1458.92 116.168 1459.7 114.904 1459.7 113.944V112.536C1459.27 112.808 1458.52 113.016 1457.81 113.144C1456.52 113.384 1455.48 113.608 1455.48 114.824C1455.48 115.928 1456.34 116.168 1457.19 116.168ZM1466.29 117.224C1463.83 117.224 1462.29 115.272 1462.29 112.872C1462.29 110.472 1463.83 108.52 1466.29 108.52C1468.24 108.52 1469.54 109.64 1469.83 111.4H1468.52C1468.32 110.28 1467.54 109.592 1466.29 109.592C1464.53 109.592 1463.62 111.048 1463.62 112.872C1463.62 114.696 1464.53 116.136 1466.29 116.136C1467.64 116.136 1468.44 115.368 1468.55 114.088H1469.83C1469.65 116.072 1468.36 117.224 1466.29 117.224ZM1472.11 119.736C1471.61 119.736 1471.29 119.704 1470.94 119.56V118.408H1471C1471.18 118.504 1471.45 118.584 1471.88 118.584C1472.43 118.584 1472.8 118.376 1473.12 117.576L1473.44 116.76L1470.2 108.728H1471.61L1473.56 113.88C1473.82 114.568 1474.12 115.496 1474.12 115.496H1474.16C1474.16 115.496 1474.44 114.568 1474.7 113.88L1476.59 108.728H1477.96L1474.43 117.672C1473.76 119.384 1473.12 119.736 1472.11 119.736ZM1411.84 135V123.56H1416.61C1417.81 123.56 1418.73 123.96 1419.33 124.664C1419.81 125.224 1420.09 125.976 1420.09 126.84C1420.09 128.936 1418.89 130.2 1416.4 130.2H1413.28V135H1411.84ZM1413.28 124.808V129.032H1416.29C1417.9 129.032 1418.67 128.216 1418.67 126.904C1418.67 125.528 1417.82 124.808 1416.37 124.808H1413.28ZM1427.47 135.08C1426.62 135.08 1426.17 134.696 1426.05 133.848H1426.03C1425.53 134.488 1424.69 135.16 1423.28 135.16C1421.71 135.16 1420.48 134.424 1420.48 132.856C1420.48 130.904 1422.01 130.504 1424.08 130.184C1425.25 130.008 1426.06 129.896 1426.06 129C1426.06 128.072 1425.39 127.544 1424.21 127.544C1422.86 127.544 1422.19 128.12 1422.14 129.368H1420.89C1420.94 127.768 1422 126.568 1424.19 126.568C1425.95 126.568 1427.25 127.224 1427.25 129.192V133.128C1427.25 133.8 1427.41 134.168 1428.13 134.008H1428.17V134.952C1428.01 135.016 1427.81 135.08 1427.47 135.08ZM1423.57 134.168C1425.29 134.168 1426.08 132.904 1426.08 131.944V130.536C1425.65 130.808 1424.89 131.016 1424.19 131.144C1422.89 131.384 1421.85 131.608 1421.85 132.824C1421.85 133.928 1422.72 134.168 1423.57 134.168ZM1430.03 137.736C1429.53 137.736 1429.21 137.704 1428.86 137.56V136.408H1428.93C1429.1 136.504 1429.37 136.584 1429.81 136.584C1430.35 136.584 1430.72 136.376 1431.04 135.576L1431.36 134.76L1428.13 126.728H1429.53L1431.49 131.88C1431.74 132.568 1432.05 133.496 1432.05 133.496H1432.08C1432.08 133.496 1432.37 132.568 1432.62 131.88L1434.51 126.728H1435.89L1432.35 135.672C1431.68 137.384 1431.04 137.736 1430.03 137.736ZM1436.8 135V126.728H1438.1V127.912H1438.13C1438.64 127.112 1439.52 126.536 1440.56 126.536C1441.57 126.536 1442.37 127.048 1442.72 128.008H1442.75C1443.28 127.064 1444.27 126.536 1445.28 126.536C1446.75 126.536 1447.79 127.48 1447.79 129.192V135H1446.5V129.256C1446.5 128.232 1445.81 127.624 1444.98 127.624C1443.91 127.624 1442.95 128.552 1442.95 129.848V135H1441.65V129.256C1441.65 128.232 1441.07 127.624 1440.23 127.624C1439.22 127.624 1438.1 128.552 1438.1 129.848V135H1436.8ZM1453.04 135.224C1450.51 135.224 1449.04 133.272 1449.04 130.872C1449.04 128.472 1450.61 126.52 1452.96 126.52C1455.44 126.52 1456.77 128.44 1456.77 131.176H1450.37C1450.47 132.856 1451.38 134.136 1453.04 134.136C1454.24 134.136 1455.04 133.56 1455.33 132.44H1456.59C1456.21 134.216 1454.91 135.224 1453.04 135.224ZM1452.96 127.544C1451.43 127.544 1450.59 128.696 1450.4 130.2H1455.38C1455.3 128.552 1454.45 127.544 1452.96 127.544ZM1459.33 126.728V127.816H1459.36C1459.96 127.032 1460.79 126.536 1461.99 126.536C1463.72 126.536 1464.77 127.48 1464.77 129.192V135H1463.48V129.304C1463.48 128.232 1462.77 127.624 1461.6 127.624C1460.29 127.624 1459.33 128.552 1459.33 129.912V135H1458.04V126.728H1459.33ZM1465.81 127.784V126.728H1467.01V124.12H1468.3V126.728H1469.9V127.784H1468.3V133.16C1468.3 133.736 1468.61 133.928 1469.13 133.928C1469.39 133.928 1469.68 133.864 1469.82 133.816H1469.87V134.936C1469.57 135 1469.21 135.048 1468.83 135.048C1467.77 135.048 1467.01 134.616 1467.01 133.448V127.784H1465.81ZM1474.38 135.24C1472.1 135.24 1470.84 134.168 1470.71 132.312H1472.04C1472.22 133.752 1473.18 134.152 1474.41 134.152C1475.77 134.152 1476.33 133.56 1476.33 132.792C1476.33 131.864 1475.69 131.624 1474.17 131.304C1472.54 130.968 1471.08 130.632 1471.08 128.824C1471.08 127.448 1472.14 126.552 1474.06 126.552C1476.1 126.552 1477.11 127.528 1477.3 129.144H1475.98C1475.85 128.056 1475.26 127.576 1474.02 127.576C1472.84 127.576 1472.36 128.104 1472.36 128.76C1472.36 129.656 1473.16 129.832 1474.58 130.12C1476.25 130.456 1477.64 130.824 1477.64 132.728C1477.64 134.392 1476.28 135.24 1474.38 135.24Z" fill="black"/>
<path d="M46.8891 173.445C46.8891 177.556 43.5561 180.889 39.4446 180.889C35.333 180.889 32 177.556 32 173.445C32 169.333 35.333 166 39.4446 166C43.5561 166 46.8891 169.333 46.8891 173.445Z" fill="#E3FF50"/>
<path fill-rule="evenodd" clip-rule="evenodd" d="M39.4446 179.924C43.0231 179.924 45.9241 177.023 45.9241 173.445C45.9241 169.866 43.0231 166.965 39.4446 166.965C35.866 166.965 32.965 169.866 32.965 173.445C32.965 177.023 35.866 179.924 39.4446 179.924ZM39.4446 180.889C43.5561 180.889 46.8891 177.556 46.8891 173.445C46.8891 169.333 43.5561 166 39.4446 166C35.333 166 32 169.333 32 173.445C32 177.556 35.333 180.889 39.4446 180.889Z" fill="black"/>
<path fill-rule="evenodd" clip-rule="evenodd" d="M41.9437 175.696C42.6468 174.612 43.0975 173.086 43.0975 171.376L44.0625 171.376C44.0625 173.245 43.5719 174.959 42.7532 176.221C41.9375 177.478 40.754 178.339 39.3752 178.339C37.9964 178.339 36.8129 177.478 35.9972 176.221C35.1785 174.959 34.6879 173.245 34.6879 171.376L35.6529 171.376C35.6529 173.086 36.1036 174.612 36.8067 175.696C37.5129 176.784 38.4317 177.373 39.3752 177.373C40.3186 177.373 41.2375 176.784 41.9437 175.696Z" fill="black"/>
<path d="M38.7738 170.802C38.7738 171.192 38.4572 171.509 38.0666 171.509C37.676 171.509 37.3594 171.192 37.3594 170.802C37.3594 170.411 37.676 170.095 38.0666 170.095C38.4572 170.095 38.7738 170.411 38.7738 170.802Z" fill="black"/>
<path d="M41.5277 170.802C41.5277 171.192 41.2111 171.509 40.8205 171.509C40.4299 171.509 40.1133 171.192 40.1133 170.802C40.1133 170.411 40.4299 170.095 40.8205 170.095C41.2111 170.095 41.5277 170.411 41.5277 170.802Z" fill="black"/>
<path d="M50.8906 180.597C51.04 177.274 53.4483 176.058 55.6887 174.805C57.3689 173.861 58.3957 173.225 58.3957 171.718C58.3957 170.193 57.3129 169.158 55.614 169.158C54.7179 169.158 54.0458 169.449 53.579 169.939C53.0749 170.466 52.8509 171.155 52.8509 172.426H51.208C51.208 170.829 51.6374 169.812 52.4215 169.049C53.243 168.269 54.4378 167.887 55.7447 167.887C58.3397 167.887 60.02 169.485 60.02 171.7C60.02 174.097 58.3397 174.896 56.2861 176.003C54.9045 176.748 53.131 177.764 52.7762 179.144H59.7586V180.597H50.8906Z" fill="black"/>
<path d="M66.268 180.869C63.1128 180.869 61.3019 178.327 61.3019 174.369C61.3019 170.338 63.2622 167.869 66.2866 167.869C69.3111 167.869 71.234 170.302 71.234 174.369C71.234 178.327 69.4604 180.869 66.268 180.869ZM66.2866 179.544C68.5643 179.544 69.6098 177.583 69.6098 174.369C69.6098 171.21 68.5083 169.176 66.2866 169.176C64.0276 169.176 62.9261 171.155 62.9261 174.369C62.9261 177.528 64.0276 179.544 66.2866 179.544Z" fill="black"/>
<path d="M72.3399 180.597C72.4892 177.274 74.8976 176.058 77.1379 174.805C78.8182 173.861 79.845 173.225 79.845 171.718C79.845 170.193 78.7622 169.158 77.0632 169.158C76.1671 169.158 75.495 169.449 75.0283 169.939C74.5242 170.466 74.3002 171.155 74.3002 172.426H72.6573C72.6573 170.829 73.0867 169.812 73.8708 169.049C74.6922 168.269 75.8871 167.887 77.1939 167.887C79.789 167.887 81.4692 169.485 81.4692 171.7C81.4692 174.097 79.789 174.896 77.7353 176.003C76.3538 176.748 74.5802 177.764 74.2255 179.144H81.2079V180.597H72.3399Z" fill="black"/>
<path d="M87.8801 180.597V177.547H81.8499V176.185L88.1788 168.033H89.411V176.33H91.5207V177.547H89.411V180.597H87.8801ZM83.3621 176.276V176.33H87.8801V170.502H87.8428L83.3621 176.276Z" fill="black"/>
<path d="M97.6365 180.597L94.5747 171.21H96.199L97.8979 177.002C98.1219 177.783 98.4206 179.017 98.4206 179.017H98.458C98.458 179.017 98.738 177.783 98.9434 177.038L100.568 171.21H102.154L103.723 177.038C103.928 177.801 104.189 179.017 104.189 179.017H104.227C104.227 179.017 104.526 177.783 104.768 177.002L106.56 171.21H108.129L104.974 180.597H103.424L101.818 174.914C101.594 174.133 101.352 172.953 101.352 172.953H101.314C101.314 172.953 101.053 174.133 100.829 174.914L99.2047 180.597H97.6365Z" fill="black"/>
<path d="M116.338 180.688C115.349 180.688 114.826 180.252 114.677 179.29H114.658C114.079 180.016 113.09 180.778 111.447 180.778C109.617 180.778 108.18 179.943 108.18 178.164C108.18 175.949 109.972 175.495 112.38 175.132C113.743 174.932 114.695 174.805 114.695 173.788C114.695 172.735 113.911 172.136 112.53 172.136C110.961 172.136 110.177 172.79 110.121 174.206H108.665C108.721 172.39 109.953 171.028 112.511 171.028C114.565 171.028 116.077 171.773 116.077 174.006V178.472C116.077 179.235 116.263 179.653 117.104 179.471H117.16V180.542C116.973 180.615 116.73 180.688 116.338 180.688ZM111.783 179.653C113.799 179.653 114.714 178.218 114.714 177.129V175.531C114.21 175.84 113.332 176.076 112.511 176.221C110.999 176.493 109.785 176.748 109.785 178.128C109.785 179.38 110.793 179.653 111.783 179.653Z" fill="black"/>
<path d="M117.272 172.408V171.21H118.672V168.25H120.184V171.21H122.051V172.408H120.184V178.509C120.184 179.162 120.539 179.38 121.155 179.38C121.454 179.38 121.79 179.308 121.958 179.253H122.014V180.524C121.659 180.597 121.248 180.651 120.8 180.651C119.568 180.651 118.672 180.161 118.672 178.836V172.408H117.272Z" fill="black"/>
<path d="M127.442 180.851C124.492 180.851 122.775 178.636 122.775 175.912C122.775 173.189 124.604 170.974 127.349 170.974C130.242 170.974 131.792 173.153 131.792 176.257H124.324C124.436 178.164 125.5 179.616 127.442 179.616C128.842 179.616 129.776 178.963 130.112 177.692H131.587C131.138 179.707 129.626 180.851 127.442 180.851ZM127.349 172.136C125.556 172.136 124.586 173.443 124.361 175.15H130.168C130.074 173.28 129.085 172.136 127.349 172.136Z" fill="black"/>
<path d="M135.273 180.597L131.893 171.21H133.518L135.515 177.165C135.795 178 136.15 179.144 136.15 179.144H136.187C136.187 179.144 136.542 177.982 136.822 177.165L138.857 171.21H140.425L136.953 180.597H135.273Z" fill="black"/>
<path d="M145.227 180.851C142.277 180.851 140.559 178.636 140.559 175.912C140.559 173.189 142.389 170.974 145.133 170.974C148.027 170.974 149.577 173.153 149.577 176.257H142.109C142.221 178.164 143.285 179.616 145.227 179.616C146.627 179.616 147.56 178.963 147.896 177.692H149.371C148.923 179.707 147.411 180.851 145.227 180.851ZM145.133 172.136C143.341 172.136 142.37 173.443 142.146 175.15H147.952C147.859 173.28 146.869 172.136 145.133 172.136Z" fill="black"/>
<path d="M152.362 171.21V172.771H152.399C152.978 171.864 153.986 171.101 155.275 171.101C155.555 171.101 155.704 171.137 155.891 171.21V172.626H155.835C155.611 172.553 155.461 172.535 155.163 172.535C153.669 172.535 152.362 173.625 152.362 175.386V180.597H150.85V171.21H152.362Z" fill="black"/>
</svg>
