<svg width="137" height="42" viewBox="0 0 137 42" fill="none" xmlns="http://www.w3.org/2000/svg">
<rect x="0.5" y="0.5" width="136" height="41" rx="19.5" fill="white"/>
<rect x="0.5" y="0.5" width="136" height="41" rx="19.5" stroke="black"/>
<path d="M17.0593 30.096C14.6473 30.096 13.2793 29.124 13.1173 27.522H14.4673C14.6113 28.548 15.5833 28.944 17.0233 28.944C18.7333 28.944 19.6873 28.17 19.6873 26.55V25.236H19.6513C18.9673 26.118 18.2293 26.676 16.8973 26.676C14.4853 26.676 12.8293 24.75 12.8293 22.068C12.8293 19.17 14.6473 17.478 16.8073 17.478C18.1573 17.478 19.0213 18 19.6513 18.882H19.6873V17.694H21.1453V26.496C21.1453 28.944 19.5253 30.096 17.0593 30.096ZM16.9693 25.452C19.1113 25.452 19.7953 23.958 19.7953 21.996C19.7953 19.962 18.9313 18.702 16.9513 18.702C15.2053 18.702 14.3233 20.07 14.3233 22.086C14.3233 24.12 15.2413 25.452 16.9693 25.452ZM27.1028 27.252C24.2588 27.252 22.6028 25.056 22.6028 22.356C22.6028 19.656 24.3668 17.46 27.0128 17.46C29.8028 17.46 31.2968 19.62 31.2968 22.698H24.0968C24.2048 24.588 25.2308 26.028 27.1028 26.028C28.4528 26.028 29.3528 25.38 29.6768 24.12H31.0988C30.6668 26.118 29.2088 27.252 27.1028 27.252ZM27.0128 18.612C25.2848 18.612 24.3488 19.908 24.1328 21.6H29.7308C29.6408 19.746 28.6868 18.612 27.0128 18.612ZM31.9526 18.882V17.694H33.3026V14.76H34.7606V17.694H36.5606V18.882H34.7606V24.93C34.7606 25.578 35.1026 25.794 35.6966 25.794C35.9846 25.794 36.3086 25.722 36.4706 25.668H36.5246V26.928C36.1826 27 35.7866 27.054 35.3546 27.054C34.1666 27.054 33.3026 26.568 33.3026 25.254V18.882H31.9526ZM42.9654 27L40.0134 17.694H41.5794L43.2174 23.436C43.4334 24.21 43.7214 25.434 43.7214 25.434H43.7574C43.7574 25.434 44.0274 24.21 44.2254 23.472L45.7914 17.694H47.3214L48.8334 23.472C49.0314 24.228 49.2834 25.434 49.2834 25.434H49.3194C49.3194 25.434 49.6074 24.21 49.8414 23.436L51.5694 17.694H53.0814L50.0394 27H48.5454L46.9974 21.366C46.7814 20.592 46.5474 19.422 46.5474 19.422H46.5114C46.5114 19.422 46.2594 20.592 46.0434 21.366L44.4774 27H42.9654ZM61.1945 27.09C60.2405 27.09 59.7365 26.658 59.5925 25.704H59.5745C59.0165 26.424 58.0625 27.18 56.4785 27.18C54.7145 27.18 53.3285 26.352 53.3285 24.588C53.3285 22.392 55.0565 21.942 57.3785 21.582C58.6925 21.384 59.6105 21.258 59.6105 20.25C59.6105 19.206 58.8545 18.612 57.5225 18.612C56.0105 18.612 55.2545 19.26 55.2005 20.664H53.7965C53.8505 18.864 55.0385 17.514 57.5045 17.514C59.4845 17.514 60.9425 18.252 60.9425 20.466V24.894C60.9425 25.65 61.1225 26.064 61.9325 25.884H61.9865V26.946C61.8065 27.018 61.5725 27.09 61.1945 27.09ZM56.8025 26.064C58.7465 26.064 59.6285 24.642 59.6285 23.562V21.978C59.1425 22.284 58.2965 22.518 57.5045 22.662C56.0465 22.932 54.8765 23.184 54.8765 24.552C54.8765 25.794 55.8485 26.064 56.8025 26.064ZM62.2925 18.882V17.694H63.6425V14.76H65.1005V17.694H66.9005V18.882H65.1005V24.93C65.1005 25.578 65.4425 25.794 66.0365 25.794C66.3245 25.794 66.6485 25.722 66.8105 25.668H66.8645V26.928C66.5225 27 66.1265 27.054 65.6945 27.054C64.5065 27.054 63.6425 26.568 63.6425 25.254V18.882H62.2925ZM72.2961 27.252C69.4521 27.252 67.7961 25.056 67.7961 22.356C67.7961 19.656 69.5601 17.46 72.2061 17.46C74.9961 17.46 76.4901 19.62 76.4901 22.698H69.2901C69.3981 24.588 70.4241 26.028 72.2961 26.028C73.6461 26.028 74.5461 25.38 74.8701 24.12H76.2921C75.8601 26.118 74.4021 27.252 72.2961 27.252ZM72.2061 18.612C70.4781 18.612 69.5421 19.908 69.3261 21.6H74.9241C74.8341 19.746 73.8801 18.612 72.2061 18.612ZM80.044 27L76.786 17.694H78.352L80.278 23.598C80.548 24.426 80.89 25.56 80.89 25.56H80.926C80.926 25.56 81.268 24.408 81.538 23.598L83.5 17.694H85.012L81.664 27H80.044ZM89.8391 27.252C86.9951 27.252 85.3391 25.056 85.3391 22.356C85.3391 19.656 87.1031 17.46 89.7491 17.46C92.5391 17.46 94.0331 19.62 94.0331 22.698H86.8331C86.9411 24.588 87.9671 26.028 89.8391 26.028C91.1891 26.028 92.0891 25.38 92.4131 24.12H93.8351C93.4031 26.118 91.9451 27.252 89.8391 27.252ZM89.7491 18.612C88.0211 18.612 87.0851 19.908 86.8691 21.6H92.4671C92.3771 19.746 91.4231 18.612 89.7491 18.612ZM96.9168 17.694V19.242H96.9528C97.5108 18.342 98.4828 17.586 99.7248 17.586C99.9948 17.586 100.139 17.622 100.319 17.694V19.098H100.265C100.049 19.026 99.9048 19.008 99.6168 19.008C98.1768 19.008 96.9168 20.088 96.9168 21.834V27H95.4588V17.694H96.9168Z" fill="black"/>
<mask id="mask0_3346_1651" style="mask-type:alpha" maskUnits="userSpaceOnUse" x="105" y="11" width="20" height="20">
<rect x="105" y="11" width="20" height="20" rx="1" fill="#D9D9D9"/>
</mask>
<g mask="url(#mask0_3346_1651)">
<path d="M116.771 23.5404C117.401 22.9105 116.955 21.8333 116.064 21.8333H109.165C108.705 21.8333 108.332 21.4602 108.332 21C108.332 20.5397 108.705 20.1666 109.165 20.1666H116.064C116.955 20.1666 117.401 19.0895 116.771 18.4595L114.405 16.0938C114.078 15.7667 114.08 15.2357 114.41 14.9115C114.736 14.5913 115.259 14.5937 115.582 14.9167L120.958 20.2929C121.349 20.6834 121.349 21.3166 120.958 21.7071L115.582 27.0833C115.259 27.4063 114.736 27.4086 114.41 27.0885C114.08 26.7643 114.078 26.2333 114.405 25.9062L116.771 23.5404Z" fill="#1C1B1F"/>
</g>
</svg>
