<svg width="126" height="42" viewBox="0 0 126 42" fill="none" xmlns="http://www.w3.org/2000/svg">
<rect x="0.5" y="0.5" width="125" height="41" rx="19.5" fill="white"/>
<rect x="0.5" y="0.5" width="125" height="41" rx="19.5" stroke="black"/>
<path d="M16.8796 30.096C14.4676 30.096 13.0996 29.124 12.9376 27.522H14.2876C14.4316 28.548 15.4036 28.944 16.8436 28.944C18.5536 28.944 19.5076 28.17 19.5076 26.55V25.236H19.4716C18.7876 26.118 18.0496 26.676 16.7176 26.676C14.3056 26.676 12.6496 24.75 12.6496 22.068C12.6496 19.17 14.4676 17.478 16.6276 17.478C17.9776 17.478 18.8416 18 19.4716 18.882H19.5076V17.694H20.9656V26.496C20.9656 28.944 19.3456 30.096 16.8796 30.096ZM16.7896 25.452C18.9316 25.452 19.6156 23.958 19.6156 21.996C19.6156 19.962 18.7516 18.702 16.7716 18.702C15.0256 18.702 14.1436 20.07 14.1436 22.086C14.1436 24.12 15.0616 25.452 16.7896 25.452ZM26.9231 27.252C24.0791 27.252 22.4231 25.056 22.4231 22.356C22.4231 19.656 24.1871 17.46 26.8331 17.46C29.6231 17.46 31.1171 19.62 31.1171 22.698H23.9171C24.0251 24.588 25.0511 26.028 26.9231 26.028C28.2731 26.028 29.1731 25.38 29.4971 24.12H30.9191C30.4871 26.118 29.0291 27.252 26.9231 27.252ZM26.8331 18.612C25.1051 18.612 24.1691 19.908 23.9531 21.6H29.5511C29.4611 19.746 28.5071 18.612 26.8331 18.612ZM31.773 18.882V17.694H33.123V14.76H34.581V17.694H36.381V18.882H34.581V24.93C34.581 25.578 34.923 25.794 35.517 25.794C35.805 25.794 36.129 25.722 36.291 25.668H36.345V26.928C36.003 27 35.607 27.054 35.175 27.054C33.987 27.054 33.123 26.568 33.123 25.254V18.882H31.773ZM40.1577 18.882V17.694H41.5077V14.76H42.9657V17.694H44.7657V18.882H42.9657V24.93C42.9657 25.578 43.3077 25.794 43.9017 25.794C44.1897 25.794 44.5137 25.722 44.6757 25.668H44.7297V26.928C44.3877 27 43.9917 27.054 43.5597 27.054C42.3717 27.054 41.5077 26.568 41.5077 25.254V18.882H40.1577ZM47.7293 14.13V18.918H47.7653C48.4313 18.036 49.3673 17.478 50.7173 17.478C52.6613 17.478 53.8493 18.54 53.8493 20.466V27H52.3913V20.592C52.3913 19.386 51.5993 18.702 50.2853 18.702C48.8093 18.702 47.7293 19.746 47.7293 21.276V27H46.2713V14.13H47.7293ZM59.759 27.252C56.915 27.252 55.259 25.056 55.259 22.356C55.259 19.656 57.023 17.46 59.669 17.46C62.459 17.46 63.953 19.62 63.953 22.698H56.753C56.861 24.588 57.887 26.028 59.759 26.028C61.109 26.028 62.009 25.38 62.333 24.12H63.755C63.323 26.118 61.865 27.252 59.759 27.252ZM59.669 18.612C57.941 18.612 57.005 19.908 56.789 21.6H62.387C62.297 19.746 61.343 18.612 59.669 18.612ZM72.2219 27.252C69.4499 27.252 67.7219 25.056 67.7219 22.356C67.7219 19.656 69.4499 17.46 72.2219 17.46C74.4179 17.46 75.8759 18.72 76.1999 20.7H74.7239C74.5079 19.44 73.6259 18.666 72.2219 18.666C70.2419 18.666 69.2159 20.304 69.2159 22.356C69.2159 24.408 70.2419 26.028 72.2219 26.028C73.7339 26.028 74.6339 25.164 74.7599 23.724H76.1999C76.0019 25.956 74.5439 27.252 72.2219 27.252ZM85.0617 27.09C84.1077 27.09 83.6037 26.658 83.4597 25.704H83.4417C82.8837 26.424 81.9297 27.18 80.3457 27.18C78.5817 27.18 77.1957 26.352 77.1957 24.588C77.1957 22.392 78.9237 21.942 81.2457 21.582C82.5597 21.384 83.4777 21.258 83.4777 20.25C83.4777 19.206 82.7217 18.612 81.3897 18.612C79.8777 18.612 79.1217 19.26 79.0677 20.664H77.6637C77.7177 18.864 78.9057 17.514 81.3717 17.514C83.3517 17.514 84.8097 18.252 84.8097 20.466V24.894C84.8097 25.65 84.9897 26.064 85.7997 25.884H85.8537V26.946C85.6737 27.018 85.4397 27.09 85.0617 27.09ZM80.6697 26.064C82.6137 26.064 83.4957 24.642 83.4957 23.562V21.978C83.0097 22.284 82.1637 22.518 81.3717 22.662C79.9137 22.932 78.7437 23.184 78.7437 24.552C78.7437 25.794 79.7157 26.064 80.6697 26.064ZM90.4575 27.27C87.9015 27.27 86.4795 26.064 86.3355 23.976H87.8295C88.0275 25.596 89.1075 26.046 90.4935 26.046C92.0235 26.046 92.6535 25.38 92.6535 24.516C92.6535 23.472 91.9335 23.202 90.2235 22.842C88.3875 22.464 86.7495 22.086 86.7495 20.052C86.7495 18.504 87.9375 17.496 90.0975 17.496C92.4015 17.496 93.5355 18.594 93.7515 20.412H92.2575C92.1135 19.188 91.4475 18.648 90.0615 18.648C88.7295 18.648 88.1895 19.242 88.1895 19.98C88.1895 20.988 89.0895 21.186 90.6915 21.51C92.5635 21.888 94.1295 22.302 94.1295 24.444C94.1295 26.316 92.5995 27.27 90.4575 27.27ZM99.6789 27.252C96.8349 27.252 95.1789 25.056 95.1789 22.356C95.1789 19.656 96.9429 17.46 99.5889 17.46C102.379 17.46 103.873 19.62 103.873 22.698H96.6729C96.7809 24.588 97.8069 26.028 99.6789 26.028C101.029 26.028 101.929 25.38 102.253 24.12H103.675C103.243 26.118 101.785 27.252 99.6789 27.252ZM99.5889 18.612C97.8609 18.612 96.9249 19.908 96.7089 21.6H102.307C102.217 19.746 101.263 18.612 99.5889 18.612ZM109.061 22.608C106.703 22.608 104.777 20.772 104.777 18.252C104.777 15.75 106.703 13.896 109.061 13.896C111.419 13.896 113.345 15.75 113.345 18.252C113.345 20.772 111.419 22.608 109.061 22.608ZM109.061 21.978C111.113 21.978 112.607 20.412 112.607 18.252C112.607 16.11 111.113 14.526 109.061 14.526C107.009 14.526 105.515 16.11 105.515 18.252C105.515 20.412 107.009 21.978 109.061 21.978ZM107.387 20.502V15.894H109.511C110.357 15.894 110.969 16.434 110.969 17.19C110.969 17.712 110.699 18.144 110.105 18.288V18.306C110.555 18.432 110.771 18.684 110.825 19.242C110.897 19.89 110.861 20.376 111.023 20.448V20.502H110.141C110.015 20.448 109.961 19.926 109.943 19.44C109.925 18.954 109.637 18.648 109.061 18.648H108.305V20.502H107.387ZM108.305 16.65V17.946H109.313C109.817 17.946 110.069 17.676 110.069 17.298C110.069 16.92 109.817 16.65 109.313 16.65H108.305Z" fill="black"/>
</svg>
