<svg width="159" height="48" viewBox="0 0 159 48" fill="none" xmlns="http://www.w3.org/2000/svg">
<rect x="0.5" y="0.5" width="158" height="47" rx="23.5" fill="white"/>
<rect x="0.5" y="0.5" width="158" height="47" rx="23.5" stroke="black"/>
<path d="M43.225 32V14.125H45.475V32H43.225ZM54.818 32L50.718 19.075H52.893L55.168 27.05L55.868 29.825H55.918C56.168 28.6917 56.3846 27.7833 56.568 27.1L58.743 19.075H60.868L62.968 27.1L63.593 29.825H63.643C63.9096 28.6917 64.1513 27.7667 64.368 27.05L66.768 19.075H68.868L64.643 32H62.568L60.418 24.175L59.793 21.475H59.743C59.5096 22.5583 59.293 23.4583 59.093 24.175L56.918 32H54.818ZM79.8611 32.125C78.5778 32.125 77.8361 31.4833 77.6361 30.2H77.6111C76.5445 31.5667 75.1111 32.25 73.3111 32.25C72.0278 32.25 70.9778 31.9417 70.1611 31.325C69.3445 30.7083 68.9361 29.8167 68.9361 28.65C68.9361 28.05 69.0278 27.5333 69.2111 27.1C69.4111 26.65 69.6611 26.2917 69.9611 26.025C70.2611 25.7417 70.6695 25.5 71.1861 25.3C71.7195 25.0833 72.2278 24.925 72.7111 24.825C73.1945 24.7083 73.8111 24.5917 74.5611 24.475C75.0445 24.4083 75.3861 24.3583 75.5861 24.325C75.8028 24.275 76.0778 24.2083 76.4111 24.125C76.7445 24.025 76.9778 23.9167 77.1111 23.8C77.2445 23.6833 77.3695 23.525 77.4861 23.325C77.6028 23.125 77.6611 22.8917 77.6611 22.625C77.6611 21.8917 77.4028 21.3333 76.8861 20.95C76.3861 20.55 75.6778 20.35 74.7611 20.35C72.6778 20.35 71.6028 21.3 71.5361 23.2H69.5861C69.6195 21.8833 70.0695 20.825 70.9361 20.025C71.8195 19.225 73.0861 18.825 74.7361 18.825C77.9195 18.825 79.5111 20.1917 79.5111 22.925V29.075C79.5111 29.6417 79.6028 30.0417 79.7861 30.275C79.9861 30.5083 80.3528 30.5667 80.8861 30.45H80.9611V31.925C80.6278 32.0583 80.2611 32.125 79.8611 32.125ZM73.7611 30.7C75.0111 30.7 75.9778 30.3417 76.6611 29.625C77.3445 28.8917 77.6861 28.0917 77.6861 27.225V25.025C77.0695 25.4083 76.0861 25.725 74.7361 25.975C74.2361 26.075 73.8445 26.1583 73.5611 26.225C73.2778 26.275 72.9528 26.375 72.5861 26.525C72.2195 26.6583 71.9445 26.8083 71.7611 26.975C71.5778 27.1417 71.4195 27.3667 71.2861 27.65C71.1528 27.9167 71.0861 28.2333 71.0861 28.6C71.0861 30 71.9778 30.7 73.7611 30.7ZM84.2053 19.075V20.775H84.2553C85.2553 19.4417 86.6219 18.775 88.3553 18.775C89.7219 18.775 90.7886 19.1333 91.5553 19.85C92.3219 20.5667 92.7053 21.5917 92.7053 22.925V32H90.6803V23.1C90.6803 22.2667 90.4219 21.625 89.9053 21.175C89.3886 20.7083 88.6719 20.475 87.7553 20.475C86.7219 20.475 85.8719 20.8083 85.2053 21.475C84.5386 22.1417 84.2053 23 84.2053 24.05V32H82.1803V19.075H84.2053ZM94.0441 20.725V19.075H95.9191V15H97.9441V19.075H100.444V20.725H97.9441V29.125C97.9441 29.925 98.3775 30.325 99.2441 30.325C99.6108 30.325 99.9691 30.2667 100.319 30.15H100.394V31.9C99.8441 32.0167 99.3025 32.075 98.7691 32.075C96.8691 32.075 95.9191 31.2417 95.9191 29.575V20.725H94.0441ZM105.965 32V19.075H107.99V32H105.965ZM105.965 16.625V14.125H107.99V16.625H105.965ZM109.65 20.725V19.075H111.525V15H113.55V19.075H116.05V20.725H113.55V29.125C113.55 29.925 113.983 30.325 114.85 30.325C115.216 30.325 115.575 30.2667 115.925 30.15H116V31.9C115.45 32.0167 114.908 32.075 114.375 32.075C112.475 32.075 111.525 31.2417 111.525 29.575V20.725H109.65Z" fill="black"/>
</svg>
