<svg width="252" height="50" viewBox="0 0 252 50" fill="none" xmlns="http://www.w3.org/2000/svg">
<rect x="0.5" y="0.5" width="251" height="49" rx="24.5" fill="white"/>
<rect x="0.5" y="0.5" width="251" height="49" rx="24.5" stroke="black"/>
<path d="M66.8 33.35C63.3 33.35 61.55 31.3833 61.55 27.45V27.2H63.775V27.375C63.775 28.9083 64.0167 29.9833 64.5 30.6C65 31.2 65.7917 31.5 66.875 31.5C68.775 31.5 69.725 30.4417 69.725 28.325V15.125H71.975V28.475C71.975 29.9583 71.525 31.1417 70.625 32.025C69.7417 32.9083 68.4667 33.35 66.8 33.35ZM84.5768 31.4C83.4434 32.7 81.9351 33.35 80.0518 33.35C78.1684 33.35 76.6518 32.7 75.5018 31.4C74.3684 30.1 73.8018 28.4833 73.8018 26.55C73.8018 24.6167 74.3684 23 75.5018 21.7C76.6518 20.4 78.1684 19.75 80.0518 19.75C81.9351 19.75 83.4434 20.4 84.5768 21.7C85.7101 23 86.2768 24.6167 86.2768 26.55C86.2768 28.4833 85.7101 30.1 84.5768 31.4ZM76.9518 30.225C77.6851 31.175 78.7184 31.65 80.0518 31.65C81.3851 31.65 82.4101 31.175 83.1268 30.225C83.8434 29.2583 84.2018 28.0333 84.2018 26.55C84.2018 25.05 83.8351 23.825 83.1018 22.875C82.3851 21.9083 81.3684 21.425 80.0518 21.425C78.7184 21.425 77.6851 21.9083 76.9518 22.875C76.2351 23.8417 75.8768 25.0667 75.8768 26.55C75.8768 28.0333 76.2351 29.2583 76.9518 30.225ZM88.0213 33V20.075H90.0463V33H88.0213ZM88.0213 17.625V15.125H90.0463V17.625H88.0213ZM94.5564 20.075V21.775H94.6064C95.6064 20.4417 96.9731 19.775 98.7064 19.775C100.073 19.775 101.14 20.1333 101.906 20.85C102.673 21.5667 103.056 22.5917 103.056 23.925V33H101.031V24.1C101.031 23.2667 100.773 22.625 100.256 22.175C99.7398 21.7083 99.0231 21.475 98.1064 21.475C97.0731 21.475 96.2231 21.8083 95.5564 22.475C94.8898 23.1417 94.5564 24 94.5564 25.05V33H92.5314V20.075H94.5564ZM111.994 33L107.894 20.075H110.069L112.344 28.05L113.044 30.825H113.094C113.344 29.6917 113.561 28.7833 113.744 28.1L115.919 20.075H118.044L120.144 28.1L120.769 30.825H120.819C121.086 29.6917 121.327 28.7667 121.544 28.05L123.944 20.075H126.044L121.819 33H119.744L117.594 25.175L116.969 22.475H116.919C116.686 23.5583 116.469 24.4583 116.269 25.175L114.094 33H111.994ZM137.037 33.125C135.754 33.125 135.012 32.4833 134.812 31.2H134.787C133.72 32.5667 132.287 33.25 130.487 33.25C129.204 33.25 128.154 32.9417 127.337 32.325C126.52 31.7083 126.112 30.8167 126.112 29.65C126.112 29.05 126.204 28.5333 126.387 28.1C126.587 27.65 126.837 27.2917 127.137 27.025C127.437 26.7417 127.845 26.5 128.362 26.3C128.895 26.0833 129.404 25.925 129.887 25.825C130.37 25.7083 130.987 25.5917 131.737 25.475C132.22 25.4083 132.562 25.3583 132.762 25.325C132.979 25.275 133.254 25.2083 133.587 25.125C133.92 25.025 134.154 24.9167 134.287 24.8C134.42 24.6833 134.545 24.525 134.662 24.325C134.779 24.125 134.837 23.8917 134.837 23.625C134.837 22.8917 134.579 22.3333 134.062 21.95C133.562 21.55 132.854 21.35 131.937 21.35C129.854 21.35 128.779 22.3 128.712 24.2H126.762C126.795 22.8833 127.245 21.825 128.112 21.025C128.995 20.225 130.262 19.825 131.912 19.825C135.095 19.825 136.687 21.1917 136.687 23.925V30.075C136.687 30.6417 136.779 31.0417 136.962 31.275C137.162 31.5083 137.529 31.5667 138.062 31.45H138.137V32.925C137.804 33.0583 137.437 33.125 137.037 33.125ZM130.937 31.7C132.187 31.7 133.154 31.3417 133.837 30.625C134.52 29.8917 134.862 29.0917 134.862 28.225V26.025C134.245 26.4083 133.262 26.725 131.912 26.975C131.412 27.075 131.02 27.1583 130.737 27.225C130.454 27.275 130.129 27.375 129.762 27.525C129.395 27.6583 129.12 27.8083 128.937 27.975C128.754 28.1417 128.595 28.3667 128.462 28.65C128.329 28.9167 128.262 29.2333 128.262 29.6C128.262 31 129.154 31.7 130.937 31.7ZM138.287 21.725V20.075H140.162V16H142.187V20.075H144.687V21.725H142.187V30.125C142.187 30.925 142.62 31.325 143.487 31.325C143.854 31.325 144.212 31.2667 144.562 31.15H144.637V32.9C144.087 33.0167 143.545 33.075 143.012 33.075C141.112 33.075 140.162 32.2417 140.162 30.575V21.725H138.287ZM151.906 33.35C149.989 33.35 148.464 32.7083 147.331 31.425C146.214 30.125 145.656 28.5 145.656 26.55C145.656 24.6333 146.223 23.025 147.356 21.725C148.506 20.4083 149.981 19.75 151.781 19.75C153.681 19.75 155.148 20.4167 156.181 21.75C157.214 23.0667 157.731 24.825 157.731 27.025H147.731C147.814 28.3917 148.214 29.5083 148.931 30.375C149.664 31.225 150.656 31.65 151.906 31.65C153.839 31.65 155.031 30.7667 155.481 29H157.456C157.156 30.3833 156.523 31.4583 155.556 32.225C154.589 32.975 153.373 33.35 151.906 33.35ZM154.481 22.45C153.831 21.7167 152.931 21.35 151.781 21.35C150.631 21.35 149.714 21.7333 149.031 22.5C148.364 23.2667 147.948 24.2667 147.781 25.5H155.556C155.489 24.2 155.131 23.1833 154.481 22.45ZM162.392 33L157.867 20.075H160.042L162.717 28.275L163.567 31H163.617C163.934 29.9333 164.217 29.025 164.467 28.275L167.192 20.075H169.292L164.642 33H162.392ZM175.721 33.35C173.805 33.35 172.28 32.7083 171.146 31.425C170.03 30.125 169.471 28.5 169.471 26.55C169.471 24.6333 170.038 23.025 171.171 21.725C172.321 20.4083 173.796 19.75 175.596 19.75C177.496 19.75 178.963 20.4167 179.996 21.75C181.03 23.0667 181.546 24.825 181.546 27.025H171.546C171.63 28.3917 172.03 29.5083 172.746 30.375C173.48 31.225 174.471 31.65 175.721 31.65C177.655 31.65 178.846 30.7667 179.296 29H181.271C180.971 30.3833 180.338 31.4583 179.371 32.225C178.405 32.975 177.188 33.35 175.721 33.35ZM178.296 22.45C177.646 21.7167 176.746 21.35 175.596 21.35C174.446 21.35 173.53 21.7333 172.846 22.5C172.18 23.2667 171.763 24.2667 171.596 25.5H179.371C179.305 24.2 178.946 23.1833 178.296 22.45ZM185.276 20.075V22.225H185.326C185.743 21.5417 186.285 20.9917 186.951 20.575C187.618 20.1417 188.36 19.925 189.176 19.925C189.476 19.925 189.751 19.975 190.001 20.075V22.025H189.926C189.676 21.9417 189.376 21.9 189.026 21.9C187.993 21.9 187.11 22.2667 186.376 23C185.643 23.7167 185.276 24.6583 185.276 25.825V33H183.251V20.075H185.276Z" fill="black"/>
</svg>
