<svg width="252" height="50" viewBox="0 0 252 50" fill="none" xmlns="http://www.w3.org/2000/svg">
<rect x="0.5" y="0.5" width="251" height="49" rx="24.5" fill="white"/>
<rect x="0.5" y="0.5" width="251" height="49" rx="24.5" stroke="black"/>
<path d="M68.175 33V15.125H70.425V30.925H79.8V33H68.175ZM86.4795 33.35C84.5628 33.35 83.0378 32.7083 81.9045 31.425C80.7878 30.125 80.2295 28.5 80.2295 26.55C80.2295 24.6333 80.7962 23.025 81.9295 21.725C83.0795 20.4083 84.5545 19.75 86.3545 19.75C88.2545 19.75 89.7212 20.4167 90.7545 21.75C91.7878 23.0667 92.3045 24.825 92.3045 27.025H82.3045C82.3878 28.3917 82.7878 29.5083 83.5045 30.375C84.2378 31.225 85.2295 31.65 86.4795 31.65C88.4128 31.65 89.6045 30.7667 90.0545 29H92.0295C91.7295 30.3833 91.0962 31.4583 90.1295 32.225C89.1628 32.975 87.9462 33.35 86.4795 33.35ZM89.0545 22.45C88.4045 21.7167 87.5045 21.35 86.3545 21.35C85.2045 21.35 84.2878 21.7333 83.6045 22.5C82.9378 23.2667 82.5212 24.2667 82.3545 25.5H90.1295C90.0628 24.2 89.7045 23.1833 89.0545 22.45ZM92.9404 21.725V20.075H94.8154V16H96.8404V20.075H99.3404V21.725H96.8404V30.125C96.8404 30.925 97.2738 31.325 98.1404 31.325C98.5071 31.325 98.8654 31.2667 99.2154 31.15H99.2904V32.9C98.7404 33.0167 98.1988 33.075 97.6654 33.075C95.7654 33.075 94.8154 32.2417 94.8154 30.575V21.725H92.9404ZM102.956 15.125V17.625C102.956 19.2417 102.256 20.1583 100.856 20.375V19.425C101.49 19.175 101.806 18.575 101.806 17.625H100.831V15.125H102.956ZM108.638 33.375C106.871 33.375 105.496 32.9833 104.513 32.2C103.546 31.4 103.013 30.2667 102.913 28.8H104.988C105.221 30.7167 106.455 31.675 108.688 31.675C109.705 31.675 110.455 31.4833 110.938 31.1C111.438 30.7 111.688 30.1833 111.688 29.55C111.688 28.8667 111.446 28.375 110.963 28.075C110.48 27.775 109.596 27.4917 108.313 27.225C107.78 27.1083 107.355 27.0167 107.038 26.95C106.738 26.8667 106.371 26.7583 105.938 26.625C105.505 26.475 105.163 26.3167 104.913 26.15C104.68 25.9667 104.438 25.75 104.188 25.5C103.938 25.25 103.755 24.9417 103.638 24.575C103.538 24.2083 103.488 23.8 103.488 23.35C103.488 22.25 103.888 21.3833 104.688 20.75C105.505 20.1167 106.655 19.8 108.138 19.8C111.205 19.8 112.896 21.15 113.213 23.85H111.138C111.038 23 110.746 22.3833 110.263 22C109.78 21.6 109.055 21.4 108.088 21.4C107.205 21.4 106.546 21.575 106.113 21.925C105.696 22.2583 105.488 22.7 105.488 23.25C105.488 23.8833 105.738 24.3333 106.238 24.6C106.738 24.85 107.646 25.1083 108.963 25.375C109.763 25.5417 110.388 25.7 110.838 25.85C111.305 25.9833 111.788 26.2 112.288 26.5C112.788 26.7833 113.155 27.1667 113.388 27.65C113.621 28.1333 113.738 28.7333 113.738 29.45C113.738 30.7167 113.271 31.6917 112.338 32.375C111.405 33.0417 110.171 33.375 108.638 33.375ZM124.106 33.375C122.339 33.375 120.939 32.7667 119.906 31.55C118.889 30.3167 118.381 28.6583 118.381 26.575C118.381 24.475 118.914 22.8167 119.981 21.6C121.048 20.3833 122.406 19.775 124.056 19.775C125.806 19.775 127.156 20.4833 128.106 21.9H128.156V15.125H130.181V33H128.156V31.425H128.106C127.089 32.725 125.756 33.375 124.106 33.375ZM124.181 31.675C125.564 31.675 126.589 31.2167 127.256 30.3C127.939 29.3833 128.281 28.15 128.281 26.6C128.281 25.0667 127.914 23.8333 127.181 22.9C126.464 21.9667 125.456 21.5 124.156 21.5C122.973 21.5 122.056 21.975 121.406 22.925C120.773 23.8583 120.456 25.0833 120.456 26.6C120.456 28.1167 120.773 29.3417 121.406 30.275C122.056 31.2083 122.981 31.675 124.181 31.675ZM142.699 31.4C141.566 32.7 140.058 33.35 138.174 33.35C136.291 33.35 134.774 32.7 133.624 31.4C132.491 30.1 131.924 28.4833 131.924 26.55C131.924 24.6167 132.491 23 133.624 21.7C134.774 20.4 136.291 19.75 138.174 19.75C140.058 19.75 141.566 20.4 142.699 21.7C143.833 23 144.399 24.6167 144.399 26.55C144.399 28.4833 143.833 30.1 142.699 31.4ZM135.074 30.225C135.808 31.175 136.841 31.65 138.174 31.65C139.508 31.65 140.533 31.175 141.249 30.225C141.966 29.2583 142.324 28.0333 142.324 26.55C142.324 25.05 141.958 23.825 141.224 22.875C140.508 21.9083 139.491 21.425 138.174 21.425C136.841 21.425 135.808 21.9083 135.074 22.875C134.358 23.8417 133.999 25.0667 133.999 26.55C133.999 28.0333 134.358 29.2583 135.074 30.225ZM149.023 21.725V20.075H150.898V16H152.923V20.075H155.423V21.725H152.923V30.125C152.923 30.925 153.357 31.325 154.223 31.325C154.59 31.325 154.948 31.2667 155.298 31.15H155.373V32.9C154.823 33.0167 154.282 33.075 153.748 33.075C151.848 33.075 150.898 32.2417 150.898 30.575V21.725H149.023ZM159.264 15.125V21.775H159.314C160.314 20.4417 161.681 19.775 163.414 19.775C164.781 19.775 165.848 20.1333 166.614 20.85C167.381 21.5667 167.764 22.5917 167.764 23.925V33H165.739V24.1C165.739 23.2667 165.481 22.625 164.964 22.175C164.448 21.7083 163.731 21.475 162.814 21.475C161.781 21.475 160.931 21.8083 160.264 22.475C159.598 23.1417 159.264 24 159.264 25.05V33H157.239V15.125H159.264ZM170.172 33V20.075H172.197V33H170.172ZM170.172 17.625V15.125H172.197V17.625H170.172ZM179.582 33.375C177.816 33.375 176.441 32.9833 175.457 32.2C174.491 31.4 173.957 30.2667 173.857 28.8H175.932C176.166 30.7167 177.399 31.675 179.632 31.675C180.649 31.675 181.399 31.4833 181.882 31.1C182.382 30.7 182.632 30.1833 182.632 29.55C182.632 28.8667 182.391 28.375 181.907 28.075C181.424 27.775 180.541 27.4917 179.257 27.225C178.724 27.1083 178.299 27.0167 177.982 26.95C177.682 26.8667 177.316 26.7583 176.882 26.625C176.449 26.475 176.107 26.3167 175.857 26.15C175.624 25.9667 175.382 25.75 175.132 25.5C174.882 25.25 174.699 24.9417 174.582 24.575C174.482 24.2083 174.432 23.8 174.432 23.35C174.432 22.25 174.832 21.3833 175.632 20.75C176.449 20.1167 177.599 19.8 179.082 19.8C182.149 19.8 183.841 21.15 184.157 23.85H182.082C181.982 23 181.691 22.3833 181.207 22C180.724 21.6 179.999 21.4 179.032 21.4C178.149 21.4 177.491 21.575 177.057 21.925C176.641 22.2583 176.432 22.7 176.432 23.25C176.432 23.8833 176.682 24.3333 177.182 24.6C177.682 24.85 178.591 25.1083 179.907 25.375C180.707 25.5417 181.332 25.7 181.782 25.85C182.249 25.9833 182.732 26.2 183.232 26.5C183.732 26.7833 184.099 27.1667 184.332 27.65C184.566 28.1333 184.682 28.7333 184.682 29.45C184.682 30.7167 184.216 31.6917 183.282 32.375C182.349 33.0417 181.116 33.375 179.582 33.375Z" fill="black"/>
</svg>
