<svg width="173" height="34" viewBox="0 0 173 34" fill="none" xmlns="http://www.w3.org/2000/svg">
<path d="M154.654 6.33506V9.67744H154.732C155.379 8.61513 156.221 7.7601 157.258 7.11235C158.294 6.4387 159.447 6.10187 160.717 6.10187C161.183 6.10187 161.611 6.1796 161.999 6.33506V9.36652H161.883C161.494 9.23697 161.028 9.17219 160.484 9.17219C158.877 9.17219 157.504 9.74221 156.364 10.8822C155.224 11.9964 154.654 13.4603 154.654 15.274V26.4282H151.506V6.33506H154.654Z" fill="black"/>
<path d="M140.15 26.9723C137.17 26.9723 134.799 25.9747 133.038 23.9797C131.302 21.9587 130.434 19.4325 130.434 16.401C130.434 13.4214 131.315 10.9211 133.076 8.9001C134.864 6.85322 137.157 5.82977 139.955 5.82977C142.909 5.82977 145.189 6.86617 146.796 8.93897C148.402 10.9859 149.205 13.7193 149.205 17.1395H133.659C133.789 19.2641 134.411 21 135.525 22.3474C136.665 23.6688 138.207 24.3295 140.15 24.3295C143.155 24.3295 145.008 22.9562 145.707 20.2098H148.778C148.311 22.3603 147.327 24.0315 145.824 25.2234C144.321 26.3893 142.43 26.9723 140.15 26.9723ZM144.153 10.0272C143.142 8.88715 141.743 8.31713 139.955 8.31713C138.168 8.31713 136.743 8.91306 135.68 10.1049C134.644 11.2968 133.996 12.8514 133.737 14.7687H145.824C145.72 12.7477 145.163 11.1672 144.153 10.0272Z" fill="black"/>
<path d="M119.779 26.4282L112.744 6.33502H116.125L120.284 19.0827L121.605 23.319H121.683C122.175 21.6607 122.616 20.2487 123.004 19.0827L127.241 6.33502H130.505L123.277 26.4282H119.779Z" fill="black"/>
<path d="M103.826 26.9723C100.846 26.9723 98.4752 25.9747 96.7133 23.9797C94.9774 21.9587 94.1094 19.4325 94.1094 16.401C94.1094 13.4214 94.9903 10.9211 96.7522 8.9001C98.54 6.85322 100.833 5.82977 103.631 5.82977C106.585 5.82977 108.865 6.86617 110.471 8.93897C112.078 10.9859 112.881 13.7193 112.881 17.1395H97.3352C97.4647 19.2641 98.0865 21 99.2007 22.3474C100.341 23.6688 101.882 24.3295 103.826 24.3295C106.831 24.3295 108.684 22.9562 109.383 20.2098H112.454C111.987 22.3603 111.003 24.0315 109.5 25.2234C107.997 26.3893 106.106 26.9723 103.826 26.9723ZM107.829 10.0272C106.818 8.88715 105.419 8.31713 103.631 8.31713C101.843 8.31713 100.418 8.91306 99.3561 10.1049C98.3197 11.2968 97.672 12.8514 97.4129 14.7687H109.5C109.396 12.7477 108.839 11.1672 107.829 10.0272Z" fill="black"/>
<path d="M83.0039 8.90006V6.33498H85.9188V0H89.0668V6.33498H92.9533V8.90006H89.0668V21.9587C89.0668 23.2023 89.7405 23.8242 91.0878 23.8242C91.6578 23.8242 92.2149 23.7335 92.759 23.5521H92.8756V26.2727C92.0206 26.454 91.1785 26.5447 90.3494 26.5447C87.3956 26.5447 85.9188 25.2492 85.9188 22.6582V8.90006H83.0039Z" fill="black"/>
<path d="M81.4117 26.6226C79.4166 26.6226 78.2636 25.6251 77.9527 23.63H77.9138C76.2556 25.7546 74.0274 26.8169 71.2291 26.8169C69.234 26.8169 67.6017 26.3376 66.3321 25.3789C65.0625 24.4203 64.4277 23.0341 64.4277 21.2204C64.4277 20.2876 64.5702 19.4844 64.8552 18.8108C65.1662 18.1112 65.5548 17.5541 66.0212 17.1396C66.4876 16.6991 67.1224 16.3234 67.9256 16.0125C68.7547 15.6756 69.5449 15.4295 70.2963 15.274C71.0477 15.0927 72.0064 14.9113 73.1723 14.7299C73.9237 14.6263 74.4549 14.5486 74.7658 14.4967C75.1026 14.419 75.5301 14.3154 76.0483 14.1858C76.5665 14.0304 76.9293 13.862 77.1366 13.6806C77.3438 13.4992 77.5382 13.2531 77.7195 12.9422C77.9009 12.6312 77.9916 12.2685 77.9916 11.8539C77.9916 10.7139 77.59 9.84591 76.7868 9.24999C76.0095 8.62815 74.9083 8.31723 73.4833 8.31723C70.2445 8.31723 68.5733 9.7941 68.4697 12.7478H65.4382C65.49 10.7009 66.1896 9.05566 67.5369 7.81199C68.9102 6.56831 70.8793 5.94647 73.4444 5.94647C78.3932 5.94647 80.8676 8.07109 80.8676 12.3203V21.8811C80.8676 22.762 81.0101 23.3839 81.2951 23.7466C81.606 24.1093 82.176 24.2 83.0052 24.0186H83.1217V26.3117C82.6035 26.519 82.0335 26.6226 81.4117 26.6226ZM71.9287 24.4073C73.8719 24.4073 75.3747 23.8502 76.437 22.7361C77.4993 21.5961 78.0304 20.3524 78.0304 19.0051V15.585C77.0718 16.1809 75.5431 16.6732 73.4444 17.0618C72.6671 17.2173 72.0582 17.3468 71.6177 17.4505C71.1773 17.5282 70.672 17.6837 70.102 17.9169C69.532 18.1241 69.1045 18.3573 68.8195 18.6164C68.5345 18.8755 68.2883 19.2253 68.081 19.6658C67.8738 20.0803 67.7701 20.5726 67.7701 21.1426C67.7701 23.3191 69.1563 24.4073 71.9287 24.4073Z" fill="black"/>
<path d="M42.8289 26.4282L36.4551 6.33502H39.8363L43.373 18.7329L44.4612 23.0469H44.539C44.9276 21.2851 45.2645 19.873 45.5495 18.8107L48.9307 6.33502H52.2342L55.4989 18.8107L56.4705 23.0469H56.5482C56.9628 21.2851 57.3385 19.8471 57.6753 18.7329L61.4063 6.33502H64.671L58.1028 26.4282H54.877L51.5347 14.2635L50.563 10.0661H50.4853C50.1226 11.7502 49.7857 13.1493 49.4748 14.2635L46.0936 26.4282H42.8289Z" fill="black"/>
<path d="M30.3146 16.3234C30.3146 24.6946 23.5285 31.4808 15.1573 31.4808C6.78616 31.4808 0 24.6946 0 16.3234C0 7.9523 6.78616 1.16614 15.1573 1.16614C23.5285 1.16614 30.3146 7.9523 30.3146 16.3234Z" fill="#E3FF50"/>
<path fill-rule="evenodd" clip-rule="evenodd" d="M15.1573 29.5159C22.4433 29.5159 28.3498 23.6094 28.3498 16.3234C28.3498 9.03744 22.4433 3.13097 15.1573 3.13097C7.87131 3.13097 1.96484 9.03744 1.96484 16.3234C1.96484 23.6094 7.87131 29.5159 15.1573 29.5159ZM15.1573 31.4808C23.5285 31.4808 30.3146 24.6946 30.3146 16.3234C30.3146 7.9523 23.5285 1.16614 15.1573 1.16614C6.78616 1.16614 0 7.9523 0 16.3234C0 24.6946 6.78616 31.4808 15.1573 31.4808Z" fill="black"/>
<path fill-rule="evenodd" clip-rule="evenodd" d="M20.2465 20.9066C21.6781 18.7005 22.5957 15.5942 22.5957 12.1129L24.5605 12.1129C24.5605 15.9175 23.5617 19.4075 21.8948 21.9761C20.234 24.5353 17.8243 26.2877 15.0171 26.2877C12.2098 26.2877 9.8001 24.5353 8.13936 21.9761C6.47246 19.4075 5.47357 15.9175 5.47357 12.1129L7.4384 12.1129C7.4384 15.5942 8.35597 18.7005 9.78757 20.9066C11.2253 23.1221 13.0962 24.3229 15.0171 24.3229C16.9379 24.3229 18.8088 23.1221 20.2465 20.9066Z" fill="black"/>
<path d="M13.792 10.9428C13.792 11.7381 13.1473 12.3828 12.3521 12.3828C11.5568 12.3828 10.9121 11.7381 10.9121 10.9428C10.9121 10.1476 11.5568 9.50287 12.3521 9.50287C13.1473 9.50287 13.792 10.1476 13.792 10.9428Z" fill="black"/>
<path d="M19.4014 10.9428C19.4014 11.7381 18.7567 12.3828 17.9614 12.3828C17.1662 12.3828 16.5215 11.7381 16.5215 10.9428C16.5215 10.1476 17.1662 9.50287 17.9614 9.50287C18.7567 9.50287 19.4014 10.1476 19.4014 10.9428Z" fill="black"/>
</svg>
