<svg width="658" height="95" viewBox="0 0 658 95" fill="none" xmlns="http://www.w3.org/2000/svg">
<path d="M14.28 76L0.34 32.055H7.735L15.47 59.17L17.85 68.605H18.02C18.87 64.7517 19.6067 61.6633 20.23 59.34L27.625 32.055H34.85L41.99 59.34L44.115 68.605H44.285C45.1917 64.7517 46.0133 61.6067 46.75 59.17L54.91 32.055H62.05L47.685 76H40.63L33.32 49.395L31.195 40.215H31.025C30.2317 43.8983 29.495 46.9583 28.815 49.395L21.42 76H14.28ZM100.362 76.425C95.9984 76.425 93.4768 74.2433 92.7968 69.88H92.7118C89.0851 74.5267 84.2118 76.85 78.0918 76.85C73.7284 76.85 70.1584 75.8017 67.3818 73.705C64.6051 71.6083 63.2168 68.5767 63.2168 64.61C63.2168 62.57 63.5284 60.8133 64.1518 59.34C64.8318 57.81 65.6818 56.5917 66.7018 55.685C67.7218 54.7217 69.1101 53.9 70.8668 53.22C72.6801 52.4833 74.4084 51.945 76.0518 51.605C77.6951 51.2083 79.7918 50.8117 82.3418 50.415C83.9851 50.1883 85.1468 50.0183 85.8268 49.905C86.5634 49.735 87.4984 49.5083 88.6318 49.225C89.7651 48.885 90.5584 48.5167 91.0118 48.12C91.4651 47.7233 91.8901 47.185 92.2868 46.505C92.6834 45.825 92.8818 45.0317 92.8818 44.125C92.8818 41.6317 92.0034 39.7333 90.2468 38.43C88.5468 37.07 86.1384 36.39 83.0218 36.39C75.9384 36.39 72.2834 39.62 72.0568 46.08H65.4268C65.5401 41.6033 67.0701 38.005 70.0168 35.285C73.0201 32.565 77.3268 31.205 82.9368 31.205C93.7601 31.205 99.1718 35.8517 99.1718 45.145V66.055C99.1718 67.9817 99.4834 69.3417 100.107 70.135C100.787 70.9283 102.033 71.1267 103.847 70.73H104.102V75.745C102.968 76.1983 101.722 76.425 100.362 76.425ZM79.6218 71.58C83.8718 71.58 87.1584 70.3617 89.4818 67.925C91.8051 65.4317 92.9668 62.7117 92.9668 59.765V52.285C90.8701 53.5883 87.5268 54.665 82.9368 55.515C81.2368 55.855 79.9051 56.1383 78.9418 56.365C77.9784 56.535 76.8734 56.875 75.6268 57.385C74.3801 57.8383 73.4451 58.3483 72.8218 58.915C72.1984 59.4817 71.6601 60.2467 71.2068 61.21C70.7534 62.1167 70.5268 63.1933 70.5268 64.44C70.5268 69.2 73.5584 71.58 79.6218 71.58ZM105.547 37.665V32.055H111.922V18.2H118.807V32.055H127.307V37.665H118.807V66.225C118.807 68.945 120.28 70.305 123.227 70.305C124.473 70.305 125.692 70.1067 126.882 69.71H127.137V75.66C125.267 76.0567 123.425 76.255 121.612 76.255C115.152 76.255 111.922 73.4217 111.922 67.755V37.665H105.547ZM152.786 77.19C146.27 77.19 141.085 75.0083 137.231 70.645C133.435 66.225 131.536 60.7 131.536 54.07C131.536 47.5533 133.463 42.085 137.316 37.665C141.226 33.1883 146.241 30.95 152.361 30.95C158.821 30.95 163.808 33.2167 167.321 37.75C170.835 42.2267 172.591 48.205 172.591 55.685H138.591C138.875 60.3317 140.235 64.1283 142.671 67.075C145.165 69.965 148.536 71.41 152.786 71.41C159.36 71.41 163.411 68.4067 164.941 62.4H171.656C170.636 67.1033 168.483 70.7583 165.196 73.365C161.91 75.915 157.773 77.19 152.786 77.19ZM161.541 40.13C159.331 37.6367 156.271 36.39 152.361 36.39C148.451 36.39 145.335 37.6933 143.011 40.3C140.745 42.9067 139.328 46.3067 138.761 50.5H165.196C164.97 46.08 163.751 42.6233 161.541 40.13ZM189.373 76L173.988 32.055H181.383L190.478 59.935L193.368 69.2H193.538C194.615 65.5733 195.578 62.485 196.428 59.935L205.693 32.055H212.833L197.023 76H189.373ZM235.628 77.19C229.111 77.19 223.926 75.0083 220.073 70.645C216.276 66.225 214.378 60.7 214.378 54.07C214.378 47.5533 216.305 42.085 220.158 37.665C224.068 33.1883 229.083 30.95 235.203 30.95C241.663 30.95 246.65 33.2167 250.163 37.75C253.676 42.2267 255.433 48.205 255.433 55.685H221.433C221.716 60.3317 223.076 64.1283 225.513 67.075C228.006 69.965 231.378 71.41 235.628 71.41C242.201 71.41 246.253 68.4067 247.783 62.4H254.498C253.478 67.1033 251.325 70.7583 248.038 73.365C244.751 75.915 240.615 77.19 235.628 77.19ZM244.383 40.13C242.173 37.6367 239.113 36.39 235.203 36.39C231.293 36.39 228.176 37.6933 225.853 40.3C223.586 42.9067 222.17 46.3067 221.603 50.5H248.038C247.811 46.08 246.593 42.6233 244.383 40.13ZM269.05 32.055V39.365H269.22C270.637 37.0417 272.479 35.1717 274.745 33.755C277.012 32.2817 279.534 31.545 282.31 31.545C283.33 31.545 284.265 31.715 285.115 32.055V38.685H284.86C284.01 38.4017 282.99 38.26 281.8 38.26C278.287 38.26 275.284 39.5067 272.79 42C270.297 44.4367 269.05 47.6383 269.05 51.605V76H262.165V32.055H269.05ZM309.277 37.665V32.055H315.652V18.2H322.537V32.055H331.037V37.665H322.537V66.225C322.537 68.945 324.011 70.305 326.957 70.305C328.204 70.305 329.422 70.1067 330.612 69.71H330.867V75.66C328.997 76.0567 327.156 76.255 325.342 76.255C318.882 76.255 315.652 73.4217 315.652 67.755V37.665H309.277ZM345.032 15.225V37.835H345.202C348.602 33.3017 353.248 31.035 359.142 31.035C363.788 31.035 367.415 32.2533 370.022 34.69C372.628 37.1267 373.932 40.6117 373.932 45.145V76H367.047V45.74C367.047 42.9067 366.168 40.725 364.412 39.195C362.655 37.6083 360.218 36.815 357.102 36.815C353.588 36.815 350.698 37.9483 348.432 40.215C346.165 42.4817 345.032 45.4 345.032 48.97V76H338.147V15.225H345.032ZM401.839 77.19C395.322 77.19 390.137 75.0083 386.284 70.645C382.487 66.225 380.589 60.7 380.589 54.07C380.589 47.5533 382.516 42.085 386.369 37.665C390.279 33.1883 395.294 30.95 401.414 30.95C407.874 30.95 412.861 33.2167 416.374 37.75C419.887 42.2267 421.644 48.205 421.644 55.685H387.644C387.927 60.3317 389.287 64.1283 391.724 67.075C394.217 69.965 397.589 71.41 401.839 71.41C408.412 71.41 412.464 68.4067 413.994 62.4H420.709C419.689 67.1033 417.536 70.7583 414.249 73.365C410.962 75.915 406.826 77.19 401.839 77.19ZM410.594 40.13C408.384 37.6367 405.324 36.39 401.414 36.39C397.504 36.39 394.387 37.6933 392.064 40.3C389.797 42.9067 388.381 46.3067 387.814 50.5H414.249C414.022 46.08 412.804 42.6233 410.594 40.13ZM460.691 77.19C454.288 77.19 449.131 74.98 445.221 70.56C441.368 66.14 439.441 60.6433 439.441 54.07C439.441 47.4967 441.368 42 445.221 37.58C449.131 33.16 454.288 30.95 460.691 30.95C465.848 30.95 470.07 32.3383 473.356 35.115C476.643 37.835 478.683 41.5467 479.476 46.25H472.506C471.996 43.2467 470.721 40.895 468.681 39.195C466.641 37.495 463.978 36.645 460.691 36.645C456.158 36.645 452.645 38.2883 450.151 41.575C447.715 44.8617 446.496 49.0267 446.496 54.07C446.496 59.1133 447.715 63.2783 450.151 66.565C452.645 69.795 456.158 71.41 460.691 71.41C464.205 71.41 467.01 70.475 469.106 68.605C471.203 66.6783 472.393 63.9867 472.676 60.53H479.476C479.023 65.8 477.153 69.9083 473.866 72.855C470.58 75.745 466.188 77.19 460.691 77.19ZM521.324 76.425C516.96 76.425 514.439 74.2433 513.759 69.88H513.674C510.047 74.5267 505.174 76.85 499.054 76.85C494.69 76.85 491.12 75.8017 488.344 73.705C485.567 71.6083 484.179 68.5767 484.179 64.61C484.179 62.57 484.49 60.8133 485.114 59.34C485.794 57.81 486.644 56.5917 487.664 55.685C488.684 54.7217 490.072 53.9 491.829 53.22C493.642 52.4833 495.37 51.945 497.014 51.605C498.657 51.2083 500.754 50.8117 503.304 50.415C504.947 50.1883 506.109 50.0183 506.789 49.905C507.525 49.735 508.46 49.5083 509.594 49.225C510.727 48.885 511.52 48.5167 511.974 48.12C512.427 47.7233 512.852 47.185 513.249 46.505C513.645 45.825 513.844 45.0317 513.844 44.125C513.844 41.6317 512.965 39.7333 511.209 38.43C509.509 37.07 507.1 36.39 503.984 36.39C496.9 36.39 493.245 39.62 493.019 46.08H486.389C486.502 41.6033 488.032 38.005 490.979 35.285C493.982 32.565 498.289 31.205 503.899 31.205C514.722 31.205 520.134 35.8517 520.134 45.145V66.055C520.134 67.9817 520.445 69.3417 521.069 70.135C521.749 70.9283 522.995 71.1267 524.809 70.73H525.064V75.745C523.93 76.1983 522.684 76.425 521.324 76.425ZM500.584 71.58C504.834 71.58 508.12 70.3617 510.444 67.925C512.767 65.4317 513.929 62.7117 513.929 59.765V52.285C511.832 53.5883 508.489 54.665 503.899 55.515C502.199 55.855 500.867 56.1383 499.904 56.365C498.94 56.535 497.835 56.875 496.589 57.385C495.342 57.8383 494.407 58.3483 493.784 58.915C493.16 59.4817 492.622 60.2467 492.169 61.21C491.715 62.1167 491.489 63.1933 491.489 64.44C491.489 69.2 494.52 71.58 500.584 71.58ZM546.804 77.275C540.797 77.275 536.122 75.9433 532.779 73.28C529.492 70.56 527.679 66.7067 527.339 61.72H534.394C535.187 68.2367 539.38 71.495 546.974 71.495C550.43 71.495 552.98 70.8433 554.624 69.54C556.324 68.18 557.174 66.4233 557.174 64.27C557.174 61.9467 556.352 60.275 554.709 59.255C553.065 58.235 550.062 57.2717 545.699 56.365C543.885 55.9683 542.44 55.6567 541.364 55.43C540.344 55.1467 539.097 54.7783 537.624 54.325C536.15 53.815 534.989 53.2767 534.139 52.71C533.345 52.0867 532.524 51.35 531.674 50.5C530.824 49.65 530.2 48.6017 529.804 47.355C529.464 46.1083 529.294 44.72 529.294 43.19C529.294 39.45 530.654 36.5033 533.374 34.35C536.15 32.1967 540.06 31.12 545.104 31.12C555.53 31.12 561.282 35.71 562.359 44.89H555.304C554.964 42 553.972 39.9033 552.329 38.6C550.685 37.24 548.22 36.56 544.934 36.56C541.93 36.56 539.692 37.155 538.219 38.345C536.802 39.4783 536.094 40.98 536.094 42.85C536.094 45.0033 536.944 46.5333 538.644 47.44C540.344 48.29 543.432 49.1683 547.909 50.075C550.629 50.6417 552.754 51.18 554.284 51.69C555.87 52.1433 557.514 52.88 559.214 53.9C560.914 54.8633 562.16 56.1667 562.954 57.81C563.747 59.4533 564.144 61.4933 564.144 63.93C564.144 68.2367 562.557 71.5517 559.384 73.875C556.21 76.1417 552.017 77.275 546.804 77.275ZM590.35 77.19C583.833 77.19 578.648 75.0083 574.795 70.645C570.998 66.225 569.1 60.7 569.1 54.07C569.1 47.5533 571.026 42.085 574.88 37.665C578.79 33.1883 583.805 30.95 589.925 30.95C596.385 30.95 601.371 33.2167 604.885 37.75C608.398 42.2267 610.155 48.205 610.155 55.685H576.155C576.438 60.3317 577.798 64.1283 580.235 67.075C582.728 69.965 586.1 71.41 590.35 71.41C596.923 71.41 600.975 68.4067 602.505 62.4H609.22C608.2 67.1033 606.046 70.7583 602.76 73.365C599.473 75.915 595.336 77.19 590.35 77.19ZM599.105 40.13C596.895 37.6367 593.835 36.39 589.925 36.39C586.015 36.39 582.898 37.6933 580.575 40.3C578.308 42.9067 576.891 46.3067 576.325 50.5H602.76C602.533 46.08 601.315 42.6233 599.105 40.13ZM623.177 47.015C626.577 50.3583 630.657 52.03 635.417 52.03C640.234 52.03 644.342 50.3583 647.742 47.015C651.142 43.615 652.842 39.5067 652.842 34.69C652.842 29.8733 651.142 25.7933 647.742 22.45C644.342 19.05 640.234 17.35 635.417 17.35C630.657 17.35 626.577 19.05 623.177 22.45C619.777 25.7933 618.077 29.8733 618.077 34.69C618.077 39.5067 619.777 43.615 623.177 47.015ZM650.037 49.225C646.014 53.2483 641.169 55.26 635.502 55.26C629.835 55.26 624.99 53.2483 620.967 49.225C616.944 45.2017 614.932 40.3567 614.932 34.69C614.932 29.0233 616.944 24.1783 620.967 20.155C624.99 16.1317 629.835 14.12 635.502 14.12C641.169 14.12 646.014 16.1317 650.037 20.155C654.06 24.1783 656.072 29.0233 656.072 34.69C656.072 40.3567 654.06 45.2017 650.037 49.225ZM642.132 40.725C644.229 37.495 645.277 33.585 645.277 28.995H648.507C648.507 34.265 647.289 38.77 644.852 42.51C642.245 46.4767 639.044 48.46 635.247 48.46C631.507 48.46 628.334 46.4767 625.727 42.51C623.29 38.77 622.072 34.265 622.072 28.995H625.302C625.302 33.585 626.35 37.495 628.447 40.725C630.374 43.785 632.64 45.315 635.247 45.315C637.91 45.315 640.205 43.785 642.132 40.725ZM633.122 26.02C633.519 26.4167 633.717 26.8983 633.717 27.465C633.717 27.975 633.519 28.4283 633.122 28.825C632.725 29.2217 632.244 29.42 631.677 29.42C631.167 29.42 630.714 29.2217 630.317 28.825C629.92 28.4283 629.722 27.975 629.722 27.465C629.722 26.8983 629.92 26.4167 630.317 26.02C630.714 25.6233 631.167 25.425 631.677 25.425C632.244 25.425 632.725 25.6233 633.122 26.02ZM640.772 26.02C641.169 26.4167 641.367 26.8983 641.367 27.465C641.367 27.975 641.169 28.4283 640.772 28.825C640.375 29.2217 639.894 29.42 639.327 29.42C638.76 29.42 638.279 29.2217 637.882 28.825C637.542 28.4283 637.372 27.975 637.372 27.465C637.372 26.8983 637.542 26.4167 637.882 26.02C638.279 25.6233 638.76 25.425 639.327 25.425C639.894 25.425 640.375 25.6233 640.772 26.02Z" fill="black"/>
</svg>
