<svg width="31" height="31" viewBox="0 0 31 31" fill="none" xmlns="http://www.w3.org/2000/svg">
<g id="Group 34096">
<g id="Group 15">
<path id="Ellipse 7" d="M30.3146 15.3233C30.3146 23.6945 23.5285 30.4806 15.1573 30.4806C6.78616 30.4806 0 23.6945 0 15.3233C0 6.95217 6.78616 0.166016 15.1573 0.166016C23.5285 0.166016 30.3146 6.95217 30.3146 15.3233Z" fill="#E3FF51"/>
<path id="Ellipse 7 (Stroke)" fill-rule="evenodd" clip-rule="evenodd" d="M15.1573 28.5158C22.4433 28.5158 28.3498 22.6093 28.3498 15.3233C28.3498 8.03732 22.4433 2.13085 15.1573 2.13085C7.87131 2.13085 1.96484 8.03732 1.96484 15.3233C1.96484 22.6093 7.87131 28.5158 15.1573 28.5158ZM15.1573 30.4806C23.5285 30.4806 30.3146 23.6945 30.3146 15.3233C30.3146 6.95217 23.5285 0.166016 15.1573 0.166016C6.78616 0.166016 0 6.95217 0 15.3233C0 23.6945 6.78616 30.4806 15.1573 30.4806Z" fill="black"/>
<path id="Ellipse 10 (Stroke)" fill-rule="evenodd" clip-rule="evenodd" d="M20.2485 19.9065C21.6801 17.7004 22.5977 14.5941 22.5977 11.1128L24.5625 11.1128C24.5625 14.9175 23.5636 18.4074 21.8967 20.9761C20.236 23.5352 17.8263 25.2877 15.019 25.2877C12.2117 25.2877 9.80206 23.5352 8.14132 20.9761C6.47441 18.4074 5.47552 14.9175 5.47552 11.1128L7.44036 11.1128C7.44036 14.5941 8.35792 17.7004 9.78952 19.9065C11.2273 22.1221 13.0981 23.3228 15.019 23.3228C16.9399 23.3228 18.8107 22.1221 20.2485 19.9065Z" fill="black"/>
</g>
<path id="Ellipse 35" d="M13.794 9.94287C13.794 10.7381 13.1493 11.3828 12.354 11.3828C11.5587 11.3828 10.9141 10.7381 10.9141 9.94287C10.9141 9.14761 11.5587 8.50293 12.354 8.50293C13.1493 8.50293 13.794 9.14761 13.794 9.94287Z" fill="black"/>
<path id="Ellipse 36" d="M19.4033 9.94287C19.4033 10.7381 18.7586 11.3828 17.9634 11.3828C17.1681 11.3828 16.5234 10.7381 16.5234 9.94287C16.5234 9.14761 17.1681 8.50293 17.9634 8.50293C18.7586 8.50293 19.4033 9.14761 19.4033 9.94287Z" fill="black"/>
</g>
</svg>
