<svg width="434" height="78" viewBox="0 0 434 78" fill="none" xmlns="http://www.w3.org/2000/svg">
<path fill-rule="evenodd" clip-rule="evenodd" d="M39 72.9444C57.747 72.9444 72.9444 57.747 72.9444 39C72.9444 20.253 57.747 5.05556 39 5.05556C20.253 5.05556 5.05556 20.253 5.05556 39C5.05556 57.747 20.253 72.9444 39 72.9444ZM39 78C60.5391 78 78 60.5391 78 39C78 17.4609 60.5391 0 39 0C17.4609 0 0 17.4609 0 39C0 60.5391 17.4609 78 39 78Z" fill="white"/>
<path fill-rule="evenodd" clip-rule="evenodd" d="M52.0953 50.7928C55.7788 45.1166 58.1398 37.124 58.1398 28.1665L63.1953 28.1665C63.1953 37.956 60.6251 46.9357 56.3362 53.5449C52.0631 60.1297 45.8629 64.6387 38.6398 64.6387C31.4166 64.6387 25.2165 60.1297 20.9433 53.5449C16.6544 46.9357 14.0842 37.956 14.0842 28.1665L19.1398 28.1665C19.1398 37.124 21.5007 45.1166 25.1842 50.7928C28.8836 56.4935 33.6973 59.5832 38.6398 59.5832C43.5822 59.5832 48.3959 56.4935 52.0953 50.7928Z" fill="white"/>
<path d="M35.4881 25.1557C35.4881 27.2019 33.8293 28.8607 31.7831 28.8607C29.7369 28.8607 28.0781 27.2019 28.0781 25.1557C28.0781 23.1095 29.7369 21.4507 31.7831 21.4507C33.8293 21.4507 35.4881 23.1095 35.4881 25.1557Z" fill="white"/>
<path d="M49.9217 25.1557C49.9217 27.2019 48.2629 28.8607 46.2167 28.8607C44.1705 28.8607 42.5117 27.2019 42.5117 25.1557C42.5117 23.1095 44.1705 21.4507 46.2167 21.4507C48.2629 21.4507 49.9217 23.1095 49.9217 25.1557Z" fill="white"/>
<path d="M410.672 75.9C394.872 75.9 385.672 63.7 385.672 48.7C385.672 33.7 395.472 21.5 410.172 21.5C425.672 21.5 433.972 33.5 433.972 50.6H393.972C394.572 61.1 400.272 69.1 410.672 69.1C418.172 69.1 423.172 65.5 424.972 58.5H432.872C430.472 69.6 422.372 75.9 410.672 75.9ZM410.172 27.9C400.572 27.9 395.372 35.1 394.172 44.5H425.272C424.772 34.2 419.472 27.9 410.172 27.9Z" fill="white"/>
<path d="M361.443 76.0002C347.243 76.0002 339.343 69.3002 338.543 57.7002H346.843C347.943 66.7002 353.943 69.2002 361.643 69.2002C370.143 69.2002 373.643 65.5002 373.643 60.7002C373.643 54.9002 369.643 53.4002 360.143 51.4002C349.943 49.3002 340.843 47.2002 340.843 35.9002C340.843 27.3002 347.443 21.7002 359.443 21.7002C372.243 21.7002 378.543 27.8002 379.743 37.9002H371.443C370.643 31.1002 366.943 28.1002 359.243 28.1002C351.843 28.1002 348.843 31.4002 348.843 35.5002C348.843 41.1002 353.843 42.2002 362.743 44.0002C373.143 46.1002 381.843 48.4002 381.843 60.3002C381.843 70.7002 373.343 76.0002 361.443 76.0002Z" fill="white"/>
<path d="M333.466 74.9998C328.166 74.9998 325.366 72.5998 324.566 67.2998H324.466C321.366 71.2998 316.066 75.4998 307.266 75.4998C297.466 75.4998 289.766 70.8998 289.766 61.0998C289.766 48.8998 299.366 46.3998 312.266 44.3998C319.566 43.2998 324.666 42.5998 324.666 36.9998C324.666 31.1998 320.466 27.8998 313.066 27.8998C304.666 27.8998 300.466 31.4998 300.166 39.2998H292.366C292.666 29.2998 299.266 21.7998 312.966 21.7998C323.966 21.7998 332.066 25.8998 332.066 38.1998V62.7998C332.066 66.9998 333.066 69.2998 337.566 68.2998H337.866V74.1998C336.866 74.5998 335.566 74.9998 333.466 74.9998ZM309.066 69.2998C319.866 69.2998 324.766 61.3998 324.766 55.3998V46.5998C322.066 48.2998 317.366 49.5998 312.966 50.3998C304.866 51.8998 298.366 53.2998 298.366 60.8998C298.366 67.7998 303.766 69.2998 309.066 69.2998Z" fill="white"/>
<path d="M264.133 75.9C248.733 75.9 239.133 63.7 239.133 48.7C239.133 33.7 248.733 21.5 264.133 21.5C276.333 21.5 284.433 28.5 286.233 39.5H278.033C276.833 32.5 271.933 28.2 264.133 28.2C253.133 28.2 247.433 37.3 247.433 48.7C247.433 60.1 253.133 69.1 264.133 69.1C272.533 69.1 277.533 64.3 278.233 56.3H286.233C285.133 68.7 277.033 75.9 264.133 75.9Z" fill="white"/>
<path d="M198.895 75.9C183.095 75.9 173.895 63.7 173.895 48.7C173.895 33.7 183.695 21.5 198.395 21.5C213.895 21.5 222.195 33.5 222.195 50.6H182.195C182.795 61.1 188.495 69.1 198.895 69.1C206.395 69.1 211.395 65.5 213.195 58.5H221.095C218.695 69.6 210.595 75.9 198.895 75.9ZM198.395 27.9C188.795 27.9 183.595 35.1 182.395 44.5H213.495C212.995 34.2 207.695 27.9 198.395 27.9Z" fill="white"/>
<path d="M134.065 3V29.6H134.265C137.965 24.7 143.165 21.6 150.665 21.6C161.465 21.6 168.065 27.5 168.065 38.2V74.5H159.965V38.9C159.965 32.2 155.565 28.4 148.265 28.4C140.065 28.4 134.065 34.2 134.065 42.7V74.5H125.965V3H134.065Z" fill="white"/>
<path d="M94 29.4V22.8H101.5V6.5H109.6V22.8H119.6V29.4H109.6V63C109.6 66.6 111.5 67.8 114.8 67.8C116.4 67.8 118.2 67.4 119.1 67.1H119.4V74.1C117.5 74.5 115.3 74.8 112.9 74.8C106.3 74.8 101.5 72.1 101.5 64.8V29.4H94Z" fill="white"/>
</svg>
