<svg width="378" height="95" viewBox="0 0 378 95" fill="none" xmlns="http://www.w3.org/2000/svg">
<path d="M1.87 36.665V31.055H8.245V17.2H15.13V31.055H23.63V36.665H15.13V65.225C15.13 67.945 16.6033 69.305 19.55 69.305C20.7967 69.305 22.015 69.1067 23.205 68.71H23.46V74.66C21.59 75.0567 19.7483 75.255 17.935 75.255C11.475 75.255 8.245 72.4217 8.245 66.755V36.665H1.87ZM37.6245 14.225V36.835H37.7945C41.1945 32.3017 45.8411 30.035 51.7345 30.035C56.3811 30.035 60.0078 31.2533 62.6145 33.69C65.2211 36.1267 66.5245 39.6117 66.5245 44.145V75H59.6395V44.74C59.6395 41.9067 58.7611 39.725 57.0045 38.195C55.2478 36.6083 52.8111 35.815 49.6945 35.815C46.1811 35.815 43.2911 36.9483 41.0245 39.215C38.7578 41.4817 37.6245 44.4 37.6245 47.97V75H30.7395V14.225H37.6245ZM94.4317 76.19C87.915 76.19 82.73 74.0083 78.8767 69.645C75.08 65.225 73.1817 59.7 73.1817 53.07C73.1817 46.5533 75.1083 41.085 78.9617 36.665C82.8717 32.1883 87.8867 29.95 94.0067 29.95C100.467 29.95 105.453 32.2167 108.967 36.75C112.48 41.2267 114.237 47.205 114.237 54.685H80.2367C80.52 59.3317 81.88 63.1283 84.3167 66.075C86.81 68.965 90.1817 70.41 94.4317 70.41C101.005 70.41 105.057 67.4067 106.587 61.4H113.302C112.282 66.1033 110.128 69.7583 106.842 72.365C103.555 74.915 99.4183 76.19 94.4317 76.19ZM103.187 39.13C100.977 36.6367 97.9167 35.39 94.0067 35.39C90.0967 35.39 86.98 36.6933 84.6567 39.3C82.39 41.9067 80.9733 45.3067 80.4067 49.5H106.842C106.615 45.08 105.397 41.6233 103.187 39.13ZM153.284 76.19C146.881 76.19 141.724 73.98 137.814 69.56C133.961 65.14 132.034 59.6433 132.034 53.07C132.034 46.4967 133.961 41 137.814 36.58C141.724 32.16 146.881 29.95 153.284 29.95C158.441 29.95 162.663 31.3383 165.949 34.115C169.236 36.835 171.276 40.5467 172.069 45.25H165.099C164.589 42.2467 163.314 39.895 161.274 38.195C159.234 36.495 156.571 35.645 153.284 35.645C148.751 35.645 145.238 37.2883 142.744 40.575C140.308 43.8617 139.089 48.0267 139.089 53.07C139.089 58.1133 140.308 62.2783 142.744 65.565C145.238 68.795 148.751 70.41 153.284 70.41C156.798 70.41 159.603 69.475 161.699 67.605C163.796 65.6783 164.986 62.9867 165.269 59.53H172.069C171.616 64.8 169.746 68.9083 166.459 71.855C163.173 74.745 158.781 76.19 153.284 76.19ZM213.916 75.425C209.553 75.425 207.031 73.2433 206.351 68.88H206.266C202.64 73.5267 197.766 75.85 191.646 75.85C187.283 75.85 183.713 74.8017 180.936 72.705C178.16 70.6083 176.771 67.5767 176.771 63.61C176.771 61.57 177.083 59.8133 177.706 58.34C178.386 56.81 179.236 55.5917 180.256 54.685C181.276 53.7217 182.665 52.9 184.421 52.22C186.235 51.4833 187.963 50.945 189.606 50.605C191.25 50.2083 193.346 49.8117 195.896 49.415C197.54 49.1883 198.701 49.0183 199.381 48.905C200.118 48.735 201.053 48.5083 202.186 48.225C203.32 47.885 204.113 47.5167 204.566 47.12C205.02 46.7233 205.445 46.185 205.841 45.505C206.238 44.825 206.436 44.0317 206.436 43.125C206.436 40.6317 205.558 38.7333 203.801 37.43C202.101 36.07 199.693 35.39 196.576 35.39C189.493 35.39 185.838 38.62 185.611 45.08H178.981C179.095 40.6033 180.625 37.005 183.571 34.285C186.575 31.565 190.881 30.205 196.491 30.205C207.315 30.205 212.726 34.8517 212.726 44.145V65.055C212.726 66.9817 213.038 68.3417 213.661 69.135C214.341 69.9283 215.588 70.1267 217.401 69.73H217.656V74.745C216.523 75.1983 215.276 75.425 213.916 75.425ZM193.176 70.58C197.426 70.58 200.713 69.3617 203.036 66.925C205.36 64.4317 206.521 61.7117 206.521 58.765V51.285C204.425 52.5883 201.081 53.665 196.491 54.515C194.791 54.855 193.46 55.1383 192.496 55.365C191.533 55.535 190.428 55.875 189.181 56.385C187.935 56.8383 187 57.3483 186.376 57.915C185.753 58.4817 185.215 59.2467 184.761 60.21C184.308 61.1167 184.081 62.1933 184.081 63.44C184.081 68.2 187.113 70.58 193.176 70.58ZM239.397 76.275C233.39 76.275 228.715 74.9433 225.372 72.28C222.085 69.56 220.272 65.7067 219.932 60.72H226.987C227.78 67.2367 231.973 70.495 239.567 70.495C243.023 70.495 245.573 69.8433 247.217 68.54C248.917 67.18 249.767 65.4233 249.767 63.27C249.767 60.9467 248.945 59.275 247.302 58.255C245.658 57.235 242.655 56.2717 238.292 55.365C236.478 54.9683 235.033 54.6567 233.957 54.43C232.937 54.1467 231.69 53.7783 230.217 53.325C228.743 52.815 227.582 52.2767 226.732 51.71C225.938 51.0867 225.117 50.35 224.267 49.5C223.417 48.65 222.793 47.6017 222.397 46.355C222.057 45.1083 221.887 43.72 221.887 42.19C221.887 38.45 223.247 35.5033 225.967 33.35C228.743 31.1967 232.653 30.12 237.697 30.12C248.123 30.12 253.875 34.71 254.952 43.89H247.897C247.557 41 246.565 38.9033 244.922 37.6C243.278 36.24 240.813 35.56 237.527 35.56C234.523 35.56 232.285 36.155 230.812 37.345C229.395 38.4783 228.687 39.98 228.687 41.85C228.687 44.0033 229.537 45.5333 231.237 46.44C232.937 47.29 236.025 48.1683 240.502 49.075C243.222 49.6417 245.347 50.18 246.877 50.69C248.463 51.1433 250.107 51.88 251.807 52.9C253.507 53.8633 254.753 55.1667 255.547 56.81C256.34 58.4533 256.737 60.4933 256.737 62.93C256.737 67.2367 255.15 70.5517 251.977 72.875C248.803 75.1417 244.61 76.275 239.397 76.275ZM282.942 76.19C276.426 76.19 271.241 74.0083 267.387 69.645C263.591 65.225 261.692 59.7 261.692 53.07C261.692 46.5533 263.619 41.085 267.472 36.665C271.382 32.1883 276.397 29.95 282.517 29.95C288.977 29.95 293.964 32.2167 297.477 36.75C300.991 41.2267 302.747 47.205 302.747 54.685H268.747C269.031 59.3317 270.391 63.1283 272.827 66.075C275.321 68.965 278.692 70.41 282.942 70.41C289.516 70.41 293.567 67.4067 295.097 61.4H301.812C300.792 66.1033 298.639 69.7583 295.352 72.365C292.066 74.915 287.929 76.19 282.942 76.19ZM291.697 39.13C289.487 36.6367 286.427 35.39 282.517 35.39C278.607 35.39 275.491 36.6933 273.167 39.3C270.901 41.9067 269.484 45.3067 268.917 49.5H295.352C295.126 45.08 293.907 41.6233 291.697 39.13ZM315.77 46.015C319.17 49.3583 323.25 51.03 328.01 51.03C332.826 51.03 336.935 49.3583 340.335 46.015C343.735 42.615 345.435 38.5067 345.435 33.69C345.435 28.8733 343.735 24.7933 340.335 21.45C336.935 18.05 332.826 16.35 328.01 16.35C323.25 16.35 319.17 18.05 315.77 21.45C312.37 24.7933 310.67 28.8733 310.67 33.69C310.67 38.5067 312.37 42.615 315.77 46.015ZM342.63 48.225C338.606 52.2483 333.761 54.26 328.095 54.26C322.428 54.26 317.583 52.2483 313.56 48.225C309.536 44.2017 307.525 39.3567 307.525 33.69C307.525 28.0233 309.536 23.1783 313.56 19.155C317.583 15.1317 322.428 13.12 328.095 13.12C333.761 13.12 338.606 15.1317 342.63 19.155C346.653 23.1783 348.665 28.0233 348.665 33.69C348.665 39.3567 346.653 44.2017 342.63 48.225ZM334.725 39.725C336.821 36.495 337.87 32.585 337.87 27.995H341.1C341.1 33.265 339.881 37.77 337.445 41.51C334.838 45.4767 331.636 47.46 327.84 47.46C324.1 47.46 320.926 45.4767 318.32 41.51C315.883 37.77 314.665 33.265 314.665 27.995H317.895C317.895 32.585 318.943 36.495 321.04 39.725C322.966 42.785 325.233 44.315 327.84 44.315C330.503 44.315 332.798 42.785 334.725 39.725ZM325.715 25.02C326.111 25.4167 326.31 25.8983 326.31 26.465C326.31 26.975 326.111 27.4283 325.715 27.825C325.318 28.2217 324.836 28.42 324.27 28.42C323.76 28.42 323.306 28.2217 322.91 27.825C322.513 27.4283 322.315 26.975 322.315 26.465C322.315 25.8983 322.513 25.4167 322.91 25.02C323.306 24.6233 323.76 24.425 324.27 24.425C324.836 24.425 325.318 24.6233 325.715 25.02ZM333.365 25.02C333.761 25.4167 333.96 25.8983 333.96 26.465C333.96 26.975 333.761 27.4283 333.365 27.825C332.968 28.2217 332.486 28.42 331.92 28.42C331.353 28.42 330.871 28.2217 330.475 27.825C330.135 27.4283 329.965 26.975 329.965 26.465C329.965 25.8983 330.135 25.4167 330.475 25.02C330.871 24.6233 331.353 24.425 331.92 24.425C332.486 24.425 332.968 24.6233 333.365 25.02Z" fill="#1E1E1E"/>
</svg>
