<svg width="350" height="95" viewBox="0 0 350 95" fill="none" xmlns="http://www.w3.org/2000/svg">
<path d="M2.01404 36.665V31.055H8.38904V17.2H15.274V31.055H23.774V36.665H15.274V65.225C15.274 67.945 16.7474 69.305 19.694 69.305C20.9407 69.305 22.159 69.1067 23.349 68.71H23.604V74.66C21.734 75.0567 19.8924 75.255 18.079 75.255C11.619 75.255 8.38904 72.4217 8.38904 66.755V36.665H2.01404ZM37.7685 14.225V36.835H37.9385C41.3385 32.3017 45.9852 30.035 51.8785 30.035C56.5252 30.035 60.1518 31.2533 62.7585 33.69C65.3652 36.1267 66.6685 39.6117 66.6685 44.145V75H59.7835V44.74C59.7835 41.9067 58.9052 39.725 57.1485 38.195C55.3918 36.6083 52.9552 35.815 49.8385 35.815C46.3252 35.815 43.4352 36.9483 41.1685 39.215C38.9018 41.4817 37.7685 44.4 37.7685 47.97V75H30.8835V14.225H37.7685ZM94.5757 76.19C88.0591 76.19 82.8741 74.0083 79.0207 69.645C75.2241 65.225 73.3257 59.7 73.3257 53.07C73.3257 46.5533 75.2524 41.085 79.1057 36.665C83.0157 32.1883 88.0307 29.95 94.1507 29.95C100.611 29.95 105.597 32.2167 109.111 36.75C112.624 41.2267 114.381 47.205 114.381 54.685H80.3807C80.6641 59.3317 82.0241 63.1283 84.4607 66.075C86.9541 68.965 90.3257 70.41 94.5757 70.41C101.149 70.41 105.201 67.4067 106.731 61.4H113.446C112.426 66.1033 110.272 69.7583 106.986 72.365C103.699 74.915 99.5624 76.19 94.5757 76.19ZM103.331 39.13C101.121 36.6367 98.0607 35.39 94.1507 35.39C90.2407 35.39 87.1241 36.6933 84.8007 39.3C82.5341 41.9067 81.1174 45.3067 80.5507 49.5H106.986C106.759 45.08 105.541 41.6233 103.331 39.13ZM153.428 76.19C147.025 76.19 141.868 73.98 137.958 69.56C134.105 65.14 132.178 59.6433 132.178 53.07C132.178 46.4967 134.105 41 137.958 36.58C141.868 32.16 147.025 29.95 153.428 29.95C158.585 29.95 162.807 31.3383 166.093 34.115C169.38 36.835 171.42 40.5467 172.213 45.25H165.243C164.733 42.2467 163.458 39.895 161.418 38.195C159.378 36.495 156.715 35.645 153.428 35.645C148.895 35.645 145.382 37.2883 142.888 40.575C140.452 43.8617 139.233 48.0267 139.233 53.07C139.233 58.1133 140.452 62.2783 142.888 65.565C145.382 68.795 148.895 70.41 153.428 70.41C156.942 70.41 159.747 69.475 161.843 67.605C163.94 65.6783 165.13 62.9867 165.413 59.53H172.213C171.76 64.8 169.89 68.9083 166.603 71.855C163.317 74.745 158.925 76.19 153.428 76.19ZM214.06 75.425C209.697 75.425 207.175 73.2433 206.495 68.88H206.41C202.784 73.5267 197.91 75.85 191.79 75.85C187.427 75.85 183.857 74.8017 181.08 72.705C178.304 70.6083 176.915 67.5767 176.915 63.61C176.915 61.57 177.227 59.8133 177.85 58.34C178.53 56.81 179.38 55.5917 180.4 54.685C181.42 53.7217 182.809 52.9 184.565 52.22C186.379 51.4833 188.107 50.945 189.75 50.605C191.394 50.2083 193.49 49.8117 196.04 49.415C197.684 49.1883 198.845 49.0183 199.525 48.905C200.262 48.735 201.197 48.5083 202.33 48.225C203.464 47.885 204.257 47.5167 204.71 47.12C205.164 46.7233 205.589 46.185 205.985 45.505C206.382 44.825 206.58 44.0317 206.58 43.125C206.58 40.6317 205.702 38.7333 203.945 37.43C202.245 36.07 199.837 35.39 196.72 35.39C189.637 35.39 185.982 38.62 185.755 45.08H179.125C179.239 40.6033 180.769 37.005 183.715 34.285C186.719 31.565 191.025 30.205 196.635 30.205C207.459 30.205 212.87 34.8517 212.87 44.145V65.055C212.87 66.9817 213.182 68.3417 213.805 69.135C214.485 69.9283 215.732 70.1267 217.545 69.73H217.8V74.745C216.667 75.1983 215.42 75.425 214.06 75.425ZM193.32 70.58C197.57 70.58 200.857 69.3617 203.18 66.925C205.504 64.4317 206.665 61.7117 206.665 58.765V51.285C204.569 52.5883 201.225 53.665 196.635 54.515C194.935 54.855 193.604 55.1383 192.64 55.365C191.677 55.535 190.572 55.875 189.325 56.385C188.079 56.8383 187.144 57.3483 186.52 57.915C185.897 58.4817 185.359 59.2467 184.905 60.21C184.452 61.1167 184.225 62.1933 184.225 63.44C184.225 68.2 187.257 70.58 193.32 70.58ZM239.541 76.275C233.534 76.275 228.859 74.9433 225.516 72.28C222.229 69.56 220.416 65.7067 220.076 60.72H227.131C227.924 67.2367 232.117 70.495 239.711 70.495C243.167 70.495 245.717 69.8433 247.361 68.54C249.061 67.18 249.911 65.4233 249.911 63.27C249.911 60.9467 249.089 59.275 247.446 58.255C245.802 57.235 242.799 56.2717 238.436 55.365C236.622 54.9683 235.177 54.6567 234.101 54.43C233.081 54.1467 231.834 53.7783 230.361 53.325C228.887 52.815 227.726 52.2767 226.876 51.71C226.082 51.0867 225.261 50.35 224.411 49.5C223.561 48.65 222.937 47.6017 222.541 46.355C222.201 45.1083 222.031 43.72 222.031 42.19C222.031 38.45 223.391 35.5033 226.111 33.35C228.887 31.1967 232.797 30.12 237.841 30.12C248.267 30.12 254.019 34.71 255.096 43.89H248.041C247.701 41 246.709 38.9033 245.066 37.6C243.422 36.24 240.957 35.56 237.671 35.56C234.667 35.56 232.429 36.155 230.956 37.345C229.539 38.4783 228.831 39.98 228.831 41.85C228.831 44.0033 229.681 45.5333 231.381 46.44C233.081 47.29 236.169 48.1683 240.646 49.075C243.366 49.6417 245.491 50.18 247.021 50.69C248.607 51.1433 250.251 51.88 251.951 52.9C253.651 53.8633 254.897 55.1667 255.691 56.81C256.484 58.4533 256.881 60.4933 256.881 62.93C256.881 67.2367 255.294 70.5517 252.121 72.875C248.947 75.1417 244.754 76.275 239.541 76.275ZM283.086 76.19C276.57 76.19 271.385 74.0083 267.531 69.645C263.735 65.225 261.836 59.7 261.836 53.07C261.836 46.5533 263.763 41.085 267.616 36.665C271.526 32.1883 276.541 29.95 282.661 29.95C289.121 29.95 294.108 32.2167 297.621 36.75C301.135 41.2267 302.891 47.205 302.891 54.685H268.891C269.175 59.3317 270.535 63.1283 272.971 66.075C275.465 68.965 278.836 70.41 283.086 70.41C289.66 70.41 293.711 67.4067 295.241 61.4H301.956C300.936 66.1033 298.783 69.7583 295.496 72.365C292.21 74.915 288.073 76.19 283.086 76.19ZM291.841 39.13C289.631 36.6367 286.571 35.39 282.661 35.39C278.751 35.39 275.635 36.6933 273.311 39.3C271.045 41.9067 269.628 45.3067 269.061 49.5H295.496C295.27 45.08 294.051 41.6233 291.841 39.13ZM315.914 46.015C319.314 49.3583 323.394 51.03 328.154 51.03C332.97 51.03 337.079 49.3583 340.479 46.015C343.879 42.615 345.579 38.5067 345.579 33.69C345.579 28.8733 343.879 24.7933 340.479 21.45C337.079 18.05 332.97 16.35 328.154 16.35C323.394 16.35 319.314 18.05 315.914 21.45C312.514 24.7933 310.814 28.8733 310.814 33.69C310.814 38.5067 312.514 42.615 315.914 46.015ZM342.774 48.225C338.75 52.2483 333.905 54.26 328.239 54.26C322.572 54.26 317.727 52.2483 313.704 48.225C309.68 44.2017 307.669 39.3567 307.669 33.69C307.669 28.0233 309.68 23.1783 313.704 19.155C317.727 15.1317 322.572 13.12 328.239 13.12C333.905 13.12 338.75 15.1317 342.774 19.155C346.797 23.1783 348.809 28.0233 348.809 33.69C348.809 39.3567 346.797 44.2017 342.774 48.225ZM334.869 39.725C336.965 36.495 338.014 32.585 338.014 27.995H341.244C341.244 33.265 340.025 37.77 337.589 41.51C334.982 45.4767 331.78 47.46 327.984 47.46C324.244 47.46 321.07 45.4767 318.464 41.51C316.027 37.77 314.809 33.265 314.809 27.995H318.039C318.039 32.585 319.087 36.495 321.184 39.725C323.11 42.785 325.377 44.315 327.984 44.315C330.647 44.315 332.942 42.785 334.869 39.725ZM325.859 25.02C326.255 25.4167 326.454 25.8983 326.454 26.465C326.454 26.975 326.255 27.4283 325.859 27.825C325.462 28.2217 324.98 28.42 324.414 28.42C323.904 28.42 323.45 28.2217 323.054 27.825C322.657 27.4283 322.459 26.975 322.459 26.465C322.459 25.8983 322.657 25.4167 323.054 25.02C323.45 24.6233 323.904 24.425 324.414 24.425C324.98 24.425 325.462 24.6233 325.859 25.02ZM333.509 25.02C333.905 25.4167 334.104 25.8983 334.104 26.465C334.104 26.975 333.905 27.4283 333.509 27.825C333.112 28.2217 332.63 28.42 332.064 28.42C331.497 28.42 331.015 28.2217 330.619 27.825C330.279 27.4283 330.109 26.975 330.109 26.465C330.109 25.8983 330.279 25.4167 330.619 25.02C331.015 24.6233 331.497 24.425 332.064 24.425C332.63 24.425 333.112 24.6233 333.509 25.02Z" fill="white"/>
</svg>
