<svg width="99" height="42" viewBox="0 0 99 42" fill="none" xmlns="http://www.w3.org/2000/svg">
<rect x="0.5" y="0.5" width="98" height="41" rx="19.5" fill="white"/>
<rect x="0.5" y="0.5" width="98" height="41" rx="19.5" stroke="white"/>
<path d="M12.8677 18.882V17.694H14.2177V14.76H15.6757V17.694H17.4757V18.882H15.6757V24.93C15.6757 25.578 16.0177 25.794 16.6117 25.794C16.8997 25.794 17.2237 25.722 17.3857 25.668H17.4397V26.928C17.0977 27 16.7017 27.054 16.2697 27.054C15.0817 27.054 14.2177 26.568 14.2177 25.254V18.882H12.8677ZM20.4392 14.13V18.918H20.4752C21.1412 18.036 22.0772 17.478 23.4272 17.478C25.3712 17.478 26.5592 18.54 26.5592 20.466V27H25.1012V20.592C25.1012 19.386 24.3092 18.702 22.9952 18.702C21.5192 18.702 20.4392 19.746 20.4392 21.276V27H18.9812V14.13H20.4392ZM32.469 27.252C29.625 27.252 27.969 25.056 27.969 22.356C27.969 19.656 29.733 17.46 32.379 17.46C35.169 17.46 36.663 19.62 36.663 22.698H29.463C29.571 24.588 30.597 26.028 32.469 26.028C33.819 26.028 34.719 25.38 35.043 24.12H36.465C36.033 26.118 34.575 27.252 32.469 27.252ZM32.379 18.612C30.651 18.612 29.715 19.908 29.499 21.6H35.097C35.007 19.746 34.053 18.612 32.379 18.612ZM44.9319 27.252C42.1599 27.252 40.4319 25.056 40.4319 22.356C40.4319 19.656 42.1599 17.46 44.9319 17.46C47.1279 17.46 48.5859 18.72 48.9099 20.7H47.4339C47.2179 19.44 46.3359 18.666 44.9319 18.666C42.9519 18.666 41.9259 20.304 41.9259 22.356C41.9259 24.408 42.9519 26.028 44.9319 26.028C46.4439 26.028 47.3439 25.164 47.4699 23.724H48.9099C48.7119 25.956 47.2539 27.252 44.9319 27.252ZM57.7716 27.09C56.8176 27.09 56.3136 26.658 56.1696 25.704H56.1516C55.5936 26.424 54.6396 27.18 53.0556 27.18C51.2916 27.18 49.9056 26.352 49.9056 24.588C49.9056 22.392 51.6336 21.942 53.9556 21.582C55.2696 21.384 56.1876 21.258 56.1876 20.25C56.1876 19.206 55.4316 18.612 54.0996 18.612C52.5876 18.612 51.8316 19.26 51.7776 20.664H50.3736C50.4276 18.864 51.6156 17.514 54.0816 17.514C56.0616 17.514 57.5196 18.252 57.5196 20.466V24.894C57.5196 25.65 57.6996 26.064 58.5096 25.884H58.5636V26.946C58.3836 27.018 58.1496 27.09 57.7716 27.09ZM53.3796 26.064C55.3236 26.064 56.2056 24.642 56.2056 23.562V21.978C55.7196 22.284 54.8736 22.518 54.0816 22.662C52.6236 22.932 51.4536 23.184 51.4536 24.552C51.4536 25.794 52.4256 26.064 53.3796 26.064ZM63.1674 27.27C60.6114 27.27 59.1894 26.064 59.0454 23.976H60.5394C60.7374 25.596 61.8174 26.046 63.2034 26.046C64.7334 26.046 65.3634 25.38 65.3634 24.516C65.3634 23.472 64.6434 23.202 62.9334 22.842C61.0974 22.464 59.4594 22.086 59.4594 20.052C59.4594 18.504 60.6474 17.496 62.8074 17.496C65.1114 17.496 66.2454 18.594 66.4614 20.412H64.9674C64.8234 19.188 64.1574 18.648 62.7714 18.648C61.4394 18.648 60.8994 19.242 60.8994 19.98C60.8994 20.988 61.7994 21.186 63.4014 21.51C65.2734 21.888 66.8394 22.302 66.8394 24.444C66.8394 26.316 65.3094 27.27 63.1674 27.27ZM72.3889 27.252C69.5449 27.252 67.8889 25.056 67.8889 22.356C67.8889 19.656 69.6529 17.46 72.2989 17.46C75.0889 17.46 76.5829 19.62 76.5829 22.698H69.3829C69.4909 24.588 70.5169 26.028 72.3889 26.028C73.7389 26.028 74.6389 25.38 74.9629 24.12H76.3849C75.9529 26.118 74.4949 27.252 72.3889 27.252ZM72.2989 18.612C70.5709 18.612 69.6349 19.908 69.4189 21.6H75.0169C74.9269 19.746 73.9729 18.612 72.2989 18.612ZM81.7706 22.608C79.4126 22.608 77.4866 20.772 77.4866 18.252C77.4866 15.75 79.4126 13.896 81.7706 13.896C84.1286 13.896 86.0546 15.75 86.0546 18.252C86.0546 20.772 84.1286 22.608 81.7706 22.608ZM81.7706 21.978C83.8226 21.978 85.3166 20.412 85.3166 18.252C85.3166 16.11 83.8226 14.526 81.7706 14.526C79.7186 14.526 78.2246 16.11 78.2246 18.252C78.2246 20.412 79.7186 21.978 81.7706 21.978ZM80.0966 20.502V15.894H82.2206C83.0666 15.894 83.6786 16.434 83.6786 17.19C83.6786 17.712 83.4086 18.144 82.8146 18.288V18.306C83.2646 18.432 83.4806 18.684 83.5346 19.242C83.6066 19.89 83.5706 20.376 83.7326 20.448V20.502H82.8506C82.7246 20.448 82.6706 19.926 82.6526 19.44C82.6346 18.954 82.3466 18.648 81.7706 18.648H81.0146V20.502H80.0966ZM81.0146 16.65V17.946H82.0226C82.5266 17.946 82.7786 17.676 82.7786 17.298C82.7786 16.92 82.5266 16.65 82.0226 16.65H81.0146Z" fill="black"/>
</svg>
