<svg width="332" height="95" viewBox="0 0 332 95" fill="none" xmlns="http://www.w3.org/2000/svg">
<path d="M14.5134 75L0.573398 31.055H7.9684L15.7034 58.17L18.0834 67.605H18.2534C19.1034 63.7517 19.8401 60.6633 20.4634 58.34L27.8584 31.055H35.0834L42.2234 58.34L44.3484 67.605H44.5184C45.4251 63.7517 46.2467 60.6067 46.9834 58.17L55.1434 31.055H62.2834L47.9184 75H40.8634L33.5534 48.395L31.4284 39.215H31.2584C30.4651 42.8983 29.7284 45.9583 29.0484 48.395L21.6534 75H14.5134ZM100.595 75.425C96.2318 75.425 93.7102 73.2433 93.0302 68.88H92.9452C89.3185 73.5267 84.4452 75.85 78.3252 75.85C73.9618 75.85 70.3918 74.8017 67.6152 72.705C64.8385 70.6083 63.4502 67.5767 63.4502 63.61C63.4502 61.57 63.7618 59.8133 64.3852 58.34C65.0652 56.81 65.9152 55.5917 66.9352 54.685C67.9552 53.7217 69.3435 52.9 71.1002 52.22C72.9135 51.4833 74.6418 50.945 76.2852 50.605C77.9285 50.2083 80.0252 49.8117 82.5752 49.415C84.2185 49.1883 85.3802 49.0183 86.0602 48.905C86.7968 48.735 87.7318 48.5083 88.8652 48.225C89.9985 47.885 90.7918 47.5167 91.2452 47.12C91.6985 46.7233 92.1235 46.185 92.5202 45.505C92.9168 44.825 93.1152 44.0317 93.1152 43.125C93.1152 40.6317 92.2368 38.7333 90.4802 37.43C88.7802 36.07 86.3718 35.39 83.2552 35.39C76.1718 35.39 72.5168 38.62 72.2902 45.08H65.6602C65.7735 40.6033 67.3035 37.005 70.2502 34.285C73.2535 31.565 77.5602 30.205 83.1702 30.205C93.9935 30.205 99.4052 34.8517 99.4052 44.145V65.055C99.4052 66.9817 99.7168 68.3417 100.34 69.135C101.02 69.9283 102.267 70.1267 104.08 69.73H104.335V74.745C103.202 75.1983 101.955 75.425 100.595 75.425ZM79.8552 70.58C84.1052 70.58 87.3918 69.3617 89.7152 66.925C92.0385 64.4317 93.2002 61.7117 93.2002 58.765V51.285C91.1035 52.5883 87.7602 53.665 83.1702 54.515C81.4702 54.855 80.1385 55.1383 79.1752 55.365C78.2118 55.535 77.1068 55.875 75.8602 56.385C74.6135 56.8383 73.6785 57.3483 73.0552 57.915C72.4318 58.4817 71.8935 59.2467 71.4402 60.21C70.9868 61.1167 70.7602 62.1933 70.7602 63.44C70.7602 68.2 73.7918 70.58 79.8552 70.58ZM105.78 36.665V31.055H112.155V17.2H119.04V31.055H127.54V36.665H119.04V65.225C119.04 67.945 120.513 69.305 123.46 69.305C124.707 69.305 125.925 69.1067 127.115 68.71H127.37V74.66C125.5 75.0567 123.658 75.255 121.845 75.255C115.385 75.255 112.155 72.4217 112.155 66.755V36.665H105.78ZM153.02 76.19C146.503 76.19 141.318 74.0083 137.465 69.645C133.668 65.225 131.77 59.7 131.77 53.07C131.77 46.5533 133.696 41.085 137.55 36.665C141.46 32.1883 146.475 29.95 152.595 29.95C159.055 29.95 164.041 32.2167 167.555 36.75C171.068 41.2267 172.825 47.205 172.825 54.685H138.825C139.108 59.3317 140.468 63.1283 142.905 66.075C145.398 68.965 148.77 70.41 153.02 70.41C159.593 70.41 163.645 67.4067 165.175 61.4H171.89C170.87 66.1033 168.716 69.7583 165.43 72.365C162.143 74.915 158.006 76.19 153.02 76.19ZM161.775 39.13C159.565 36.6367 156.505 35.39 152.595 35.39C148.685 35.39 145.568 36.6933 143.245 39.3C140.978 41.9067 139.561 45.3067 138.995 49.5H165.43C165.203 45.08 163.985 41.6233 161.775 39.13ZM189.607 75L174.222 31.055H181.617L190.712 58.935L193.602 68.2H193.772C194.848 64.5733 195.812 61.485 196.662 58.935L205.927 31.055H213.067L197.257 75H189.607ZM235.861 76.19C229.345 76.19 224.16 74.0083 220.306 69.645C216.51 65.225 214.611 59.7 214.611 53.07C214.611 46.5533 216.538 41.085 220.391 36.665C224.301 32.1883 229.316 29.95 235.436 29.95C241.896 29.95 246.883 32.2167 250.396 36.75C253.91 41.2267 255.666 47.205 255.666 54.685H221.666C221.95 59.3317 223.31 63.1283 225.746 66.075C228.24 68.965 231.611 70.41 235.861 70.41C242.435 70.41 246.486 67.4067 248.016 61.4H254.731C253.711 66.1033 251.558 69.7583 248.271 72.365C244.985 74.915 240.848 76.19 235.861 76.19ZM244.616 39.13C242.406 36.6367 239.346 35.39 235.436 35.39C231.526 35.39 228.41 36.6933 226.086 39.3C223.82 41.9067 222.403 45.3067 221.836 49.5H248.271C248.045 45.08 246.826 41.6233 244.616 39.13ZM269.284 31.055V38.365H269.454C270.87 36.0417 272.712 34.1717 274.979 32.755C277.245 31.2817 279.767 30.545 282.544 30.545C283.564 30.545 284.499 30.715 285.349 31.055V37.685H285.094C284.244 37.4017 283.224 37.26 282.034 37.26C278.52 37.26 275.517 38.5067 273.024 41C270.53 43.4367 269.284 46.6383 269.284 50.605V75H262.399V31.055H269.284ZM297.824 46.015C301.224 49.3583 305.304 51.03 310.064 51.03C314.881 51.03 318.989 49.3583 322.389 46.015C325.789 42.615 327.489 38.5067 327.489 33.69C327.489 28.8733 325.789 24.7933 322.389 21.45C318.989 18.05 314.881 16.35 310.064 16.35C305.304 16.35 301.224 18.05 297.824 21.45C294.424 24.7933 292.724 28.8733 292.724 33.69C292.724 38.5067 294.424 42.615 297.824 46.015ZM324.684 48.225C320.661 52.2483 315.816 54.26 310.149 54.26C304.483 54.26 299.638 52.2483 295.614 48.225C291.591 44.2017 289.579 39.3567 289.579 33.69C289.579 28.0233 291.591 23.1783 295.614 19.155C299.638 15.1317 304.483 13.12 310.149 13.12C315.816 13.12 320.661 15.1317 324.684 19.155C328.708 23.1783 330.719 28.0233 330.719 33.69C330.719 39.3567 328.708 44.2017 324.684 48.225ZM316.779 39.725C318.876 36.495 319.924 32.585 319.924 27.995H323.154C323.154 33.265 321.936 37.77 319.499 41.51C316.893 45.4767 313.691 47.46 309.894 47.46C306.154 47.46 302.981 45.4767 300.374 41.51C297.938 37.77 296.719 33.265 296.719 27.995H299.949C299.949 32.585 300.998 36.495 303.094 39.725C305.021 42.785 307.288 44.315 309.894 44.315C312.558 44.315 314.853 42.785 316.779 39.725ZM307.769 25.02C308.166 25.4167 308.364 25.8983 308.364 26.465C308.364 26.975 308.166 27.4283 307.769 27.825C307.373 28.2217 306.891 28.42 306.324 28.42C305.814 28.42 305.361 28.2217 304.964 27.825C304.568 27.4283 304.369 26.975 304.369 26.465C304.369 25.8983 304.568 25.4167 304.964 25.02C305.361 24.6233 305.814 24.425 306.324 24.425C306.891 24.425 307.373 24.6233 307.769 25.02ZM315.419 25.02C315.816 25.4167 316.014 25.8983 316.014 26.465C316.014 26.975 315.816 27.4283 315.419 27.825C315.023 28.2217 314.541 28.42 313.974 28.42C313.408 28.42 312.926 28.2217 312.529 27.825C312.189 27.4283 312.019 26.975 312.019 26.465C312.019 25.8983 312.189 25.4167 312.529 25.02C312.926 24.6233 313.408 24.425 313.974 24.425C314.541 24.425 315.023 24.6233 315.419 25.02Z" fill="white"/>
</svg>
