<svg width="252" height="50" viewBox="0 0 252 50" fill="none" xmlns="http://www.w3.org/2000/svg">
<rect x="0.5" y="0.5" width="251" height="49" rx="24.5" fill="white"/>
<rect x="0.5" y="0.5" width="251" height="49" rx="24.5" stroke="black"/>
<path d="M37.05 17.1V15.125H51.2V17.1H45.25V33H43V17.1H37.05ZM53.0039 20.075V22.225H53.0539C53.4706 21.5417 54.0122 20.9917 54.6789 20.575C55.3456 20.1417 56.0872 19.925 56.9039 19.925C57.2039 19.925 57.4789 19.975 57.7289 20.075V22.025H57.6539C57.4039 21.9417 57.1039 21.9 56.7539 21.9C55.7206 21.9 54.8372 22.2667 54.1039 23C53.3706 23.7167 53.0039 24.6583 53.0039 25.825V33H50.9789V20.075H53.0039ZM60.9232 37.275C60.1566 37.275 59.5482 37.1833 59.0982 37V35.2H59.1982C59.5316 35.3833 59.9899 35.475 60.5732 35.475C61.0232 35.475 61.3982 35.3583 61.6982 35.125C61.9982 34.9083 62.2649 34.5 62.4982 33.9L62.9982 32.625L57.9482 20.075H60.1482L63.1982 28.125L64.0732 30.65H64.1232C64.4232 29.6833 64.7066 28.8417 64.9732 28.125L67.9232 20.075H70.0732L64.5482 34.05C64.0482 35.3167 63.5316 36.1667 62.9982 36.6C62.4649 37.05 61.7732 37.275 60.9232 37.275ZM74.1092 21.725V20.075H75.9842V16H78.0092V20.075H80.5092V21.725H78.0092V30.125C78.0092 30.925 78.4425 31.325 79.3092 31.325C79.6758 31.325 80.0342 31.2667 80.3842 31.15H80.4592V32.9C79.9092 33.0167 79.3675 33.075 78.8342 33.075C76.9342 33.075 75.9842 32.2417 75.9842 30.575V21.725H74.1092ZM84.3502 15.125V21.775H84.4002C85.4002 20.4417 86.7669 19.775 88.5002 19.775C89.8669 19.775 90.9335 20.1333 91.7002 20.85C92.4669 21.5667 92.8502 22.5917 92.8502 23.925V33H90.8252V24.1C90.8252 23.2667 90.5669 22.625 90.0502 22.175C89.5335 21.7083 88.8169 21.475 87.9002 21.475C86.8669 21.475 86.0169 21.8083 85.3502 22.475C84.6835 23.1417 84.3502 24 84.3502 25.05V33H82.3252V15.125H84.3502ZM100.783 33.35C98.8665 33.35 97.3415 32.7083 96.2082 31.425C95.0915 30.125 94.5332 28.5 94.5332 26.55C94.5332 24.6333 95.0999 23.025 96.2332 21.725C97.3832 20.4083 98.8582 19.75 100.658 19.75C102.558 19.75 104.025 20.4167 105.058 21.75C106.092 23.0667 106.608 24.825 106.608 27.025H96.6082C96.6915 28.3917 97.0915 29.5083 97.8082 30.375C98.5415 31.225 99.5332 31.65 100.783 31.65C102.717 31.65 103.908 30.7667 104.358 29H106.333C106.033 30.3833 105.4 31.4583 104.433 32.225C103.467 32.975 102.25 33.35 100.783 33.35ZM103.358 22.45C102.708 21.7167 101.808 21.35 100.658 21.35C99.5082 21.35 98.5915 21.7333 97.9082 22.5C97.2415 23.2667 96.8249 24.2667 96.6582 25.5H104.433C104.367 24.2 104.008 23.1833 103.358 22.45ZM111.193 21.725V20.075H112.968V18C112.968 16.9333 113.259 16.1667 113.843 15.7C114.426 15.2167 115.276 14.975 116.393 14.975C116.709 14.975 117.051 14.9917 117.418 15.025V16.75C117.184 16.7333 116.968 16.725 116.768 16.725C116.118 16.725 115.659 16.825 115.393 17.025C115.126 17.225 114.993 17.5833 114.993 18.1V20.075H117.393V21.725H114.993V33H112.968V21.725H111.193ZM121.116 20.075V22.225H121.166C121.583 21.5417 122.125 20.9917 122.791 20.575C123.458 20.1417 124.2 19.925 125.016 19.925C125.316 19.925 125.591 19.975 125.841 20.075V22.025H125.766C125.516 21.9417 125.216 21.9 124.866 21.9C123.833 21.9 122.95 22.2667 122.216 23C121.483 23.7167 121.116 24.6583 121.116 25.825V33H119.091V20.075H121.116ZM132.422 33.35C130.506 33.35 128.981 32.7083 127.847 31.425C126.731 30.125 126.172 28.5 126.172 26.55C126.172 24.6333 126.739 23.025 127.872 21.725C129.022 20.4083 130.497 19.75 132.297 19.75C134.197 19.75 135.664 20.4167 136.697 21.75C137.731 23.0667 138.247 24.825 138.247 27.025H128.247C128.331 28.3917 128.731 29.5083 129.447 30.375C130.181 31.225 131.172 31.65 132.422 31.65C134.356 31.65 135.547 30.7667 135.997 29H137.972C137.672 30.3833 137.039 31.4583 136.072 32.225C135.106 32.975 133.889 33.35 132.422 33.35ZM134.997 22.45C134.347 21.7167 133.447 21.35 132.297 21.35C131.147 21.35 130.231 21.7333 129.547 22.5C128.881 23.2667 128.464 24.2667 128.297 25.5H136.072C136.006 24.2 135.647 23.1833 134.997 22.45ZM145.478 33.35C143.561 33.35 142.036 32.7083 140.903 31.425C139.786 30.125 139.228 28.5 139.228 26.55C139.228 24.6333 139.794 23.025 140.928 21.725C142.078 20.4083 143.553 19.75 145.353 19.75C147.253 19.75 148.719 20.4167 149.753 21.75C150.786 23.0667 151.303 24.825 151.303 27.025H141.303C141.386 28.3917 141.786 29.5083 142.503 30.375C143.236 31.225 144.228 31.65 145.478 31.65C147.411 31.65 148.603 30.7667 149.053 29H151.028C150.728 30.3833 150.094 31.4583 149.128 32.225C148.161 32.975 146.944 33.35 145.478 33.35ZM148.053 22.45C147.403 21.7167 146.503 21.35 145.353 21.35C144.203 21.35 143.286 21.7333 142.603 22.5C141.936 23.2667 141.519 24.2667 141.353 25.5H149.128C149.061 24.2 148.703 23.1833 148.053 22.45ZM161.712 33.375C159.945 33.375 158.545 32.7667 157.512 31.55C156.495 30.3167 155.987 28.6583 155.987 26.575C155.987 24.475 156.52 22.8167 157.587 21.6C158.654 20.3833 160.012 19.775 161.662 19.775C163.412 19.775 164.762 20.4833 165.712 21.9H165.762V15.125H167.787V33H165.762V31.425H165.712C164.695 32.725 163.362 33.375 161.712 33.375ZM161.787 31.675C163.17 31.675 164.195 31.2167 164.862 30.3C165.545 29.3833 165.887 28.15 165.887 26.6C165.887 25.0667 165.52 23.8333 164.787 22.9C164.07 21.9667 163.062 21.5 161.762 21.5C160.579 21.5 159.662 21.975 159.012 22.925C158.379 23.8583 158.062 25.0833 158.062 26.6C158.062 28.1167 158.379 29.3417 159.012 30.275C159.662 31.2083 160.587 31.675 161.787 31.675ZM175.78 33.35C173.864 33.35 172.339 32.7083 171.205 31.425C170.089 30.125 169.53 28.5 169.53 26.55C169.53 24.6333 170.097 23.025 171.23 21.725C172.38 20.4083 173.855 19.75 175.655 19.75C177.555 19.75 179.022 20.4167 180.055 21.75C181.089 23.0667 181.605 24.825 181.605 27.025H171.605C171.689 28.3917 172.089 29.5083 172.805 30.375C173.539 31.225 174.53 31.65 175.78 31.65C177.714 31.65 178.905 30.7667 179.355 29H181.33C181.03 30.3833 180.397 31.4583 179.43 32.225C178.464 32.975 177.247 33.35 175.78 33.35ZM178.355 22.45C177.705 21.7167 176.805 21.35 175.655 21.35C174.505 21.35 173.589 21.7333 172.905 22.5C172.239 23.2667 171.822 24.2667 171.655 25.5H179.43C179.364 24.2 179.005 23.1833 178.355 22.45ZM183.311 33V20.075H185.336V21.925H185.386C185.802 21.275 186.344 20.7583 187.011 20.375C187.677 19.975 188.402 19.775 189.186 19.775C190.869 19.775 191.994 20.5417 192.561 22.075H192.611C193.011 21.3583 193.569 20.8 194.286 20.4C195.002 19.9833 195.761 19.775 196.561 19.775C197.744 19.775 198.694 20.1417 199.411 20.875C200.127 21.5917 200.486 22.6083 200.486 23.925V33H198.461V24.025C198.461 23.2417 198.227 22.625 197.761 22.175C197.311 21.7083 196.752 21.475 196.086 21.475C195.236 21.475 194.494 21.8083 193.861 22.475C193.227 23.1417 192.911 23.9667 192.911 24.95V33H190.886V24.025C190.886 23.2417 190.677 22.625 190.261 22.175C189.861 21.7083 189.327 21.475 188.661 21.475C187.827 21.475 187.061 21.8167 186.361 22.5C185.677 23.1667 185.336 23.9833 185.336 24.95V33H183.311ZM212.934 31.4C211.801 32.7 210.293 33.35 208.409 33.35C206.526 33.35 205.009 32.7 203.859 31.4C202.726 30.1 202.159 28.4833 202.159 26.55C202.159 24.6167 202.726 23 203.859 21.7C205.009 20.4 206.526 19.75 208.409 19.75C210.293 19.75 211.801 20.4 212.934 21.7C214.068 23 214.634 24.6167 214.634 26.55C214.634 28.4833 214.068 30.1 212.934 31.4ZM205.309 30.225C206.043 31.175 207.076 31.65 208.409 31.65C209.743 31.65 210.768 31.175 211.484 30.225C212.201 29.2583 212.559 28.0333 212.559 26.55C212.559 25.05 212.193 23.825 211.459 22.875C210.743 21.9083 209.726 21.425 208.409 21.425C207.076 21.425 206.043 21.9083 205.309 22.875C204.593 23.8417 204.234 25.0667 204.234 26.55C204.234 28.0333 204.593 29.2583 205.309 30.225Z" fill="black"/>
</svg>
