<svg width="332" height="95" viewBox="0 0 332 95" fill="none" xmlns="http://www.w3.org/2000/svg">
<path d="M14.28 76L0.34 32.055H7.735L15.47 59.17L17.85 68.605H18.02C18.87 64.7517 19.6067 61.6633 20.23 59.34L27.625 32.055H34.85L41.99 59.34L44.115 68.605H44.285C45.1917 64.7517 46.0133 61.6067 46.75 59.17L54.91 32.055H62.05L47.685 76H40.63L33.32 49.395L31.195 40.215H31.025C30.2317 43.8983 29.495 46.9583 28.815 49.395L21.42 76H14.28ZM100.362 76.425C95.9984 76.425 93.4768 74.2433 92.7968 69.88H92.7118C89.0851 74.5267 84.2118 76.85 78.0918 76.85C73.7284 76.85 70.1584 75.8017 67.3818 73.705C64.6051 71.6083 63.2168 68.5767 63.2168 64.61C63.2168 62.57 63.5284 60.8133 64.1518 59.34C64.8318 57.81 65.6818 56.5917 66.7018 55.685C67.7218 54.7217 69.1101 53.9 70.8668 53.22C72.6801 52.4833 74.4084 51.945 76.0518 51.605C77.6951 51.2083 79.7918 50.8117 82.3418 50.415C83.9851 50.1883 85.1468 50.0183 85.8268 49.905C86.5634 49.735 87.4984 49.5083 88.6318 49.225C89.7651 48.885 90.5584 48.5167 91.0118 48.12C91.4651 47.7233 91.8901 47.185 92.2868 46.505C92.6834 45.825 92.8818 45.0317 92.8818 44.125C92.8818 41.6317 92.0034 39.7333 90.2468 38.43C88.5468 37.07 86.1384 36.39 83.0218 36.39C75.9384 36.39 72.2834 39.62 72.0568 46.08H65.4268C65.5401 41.6033 67.0701 38.005 70.0168 35.285C73.0201 32.565 77.3268 31.205 82.9368 31.205C93.7601 31.205 99.1718 35.8517 99.1718 45.145V66.055C99.1718 67.9817 99.4834 69.3417 100.107 70.135C100.787 70.9283 102.033 71.1267 103.847 70.73H104.102V75.745C102.968 76.1983 101.722 76.425 100.362 76.425ZM79.6218 71.58C83.8718 71.58 87.1584 70.3617 89.4818 67.925C91.8051 65.4317 92.9668 62.7117 92.9668 59.765V52.285C90.8701 53.5883 87.5268 54.665 82.9368 55.515C81.2368 55.855 79.9051 56.1383 78.9418 56.365C77.9784 56.535 76.8734 56.875 75.6268 57.385C74.3801 57.8383 73.4451 58.3483 72.8218 58.915C72.1984 59.4817 71.6601 60.2467 71.2068 61.21C70.7534 62.1167 70.5268 63.1933 70.5268 64.44C70.5268 69.2 73.5584 71.58 79.6218 71.58ZM105.547 37.665V32.055H111.922V18.2H118.807V32.055H127.307V37.665H118.807V66.225C118.807 68.945 120.28 70.305 123.227 70.305C124.473 70.305 125.692 70.1067 126.882 69.71H127.137V75.66C125.267 76.0567 123.425 76.255 121.612 76.255C115.152 76.255 111.922 73.4217 111.922 67.755V37.665H105.547ZM152.786 77.19C146.27 77.19 141.085 75.0083 137.231 70.645C133.435 66.225 131.536 60.7 131.536 54.07C131.536 47.5533 133.463 42.085 137.316 37.665C141.226 33.1883 146.241 30.95 152.361 30.95C158.821 30.95 163.808 33.2167 167.321 37.75C170.835 42.2267 172.591 48.205 172.591 55.685H138.591C138.875 60.3317 140.235 64.1283 142.671 67.075C145.165 69.965 148.536 71.41 152.786 71.41C159.36 71.41 163.411 68.4067 164.941 62.4H171.656C170.636 67.1033 168.483 70.7583 165.196 73.365C161.91 75.915 157.773 77.19 152.786 77.19ZM161.541 40.13C159.331 37.6367 156.271 36.39 152.361 36.39C148.451 36.39 145.335 37.6933 143.011 40.3C140.745 42.9067 139.328 46.3067 138.761 50.5H165.196C164.97 46.08 163.751 42.6233 161.541 40.13ZM189.373 76L173.988 32.055H181.383L190.478 59.935L193.368 69.2H193.538C194.615 65.5733 195.578 62.485 196.428 59.935L205.693 32.055H212.833L197.023 76H189.373ZM235.628 77.19C229.111 77.19 223.926 75.0083 220.073 70.645C216.276 66.225 214.378 60.7 214.378 54.07C214.378 47.5533 216.305 42.085 220.158 37.665C224.068 33.1883 229.083 30.95 235.203 30.95C241.663 30.95 246.65 33.2167 250.163 37.75C253.676 42.2267 255.433 48.205 255.433 55.685H221.433C221.716 60.3317 223.076 64.1283 225.513 67.075C228.006 69.965 231.378 71.41 235.628 71.41C242.201 71.41 246.253 68.4067 247.783 62.4H254.498C253.478 67.1033 251.325 70.7583 248.038 73.365C244.751 75.915 240.615 77.19 235.628 77.19ZM244.383 40.13C242.173 37.6367 239.113 36.39 235.203 36.39C231.293 36.39 228.176 37.6933 225.853 40.3C223.586 42.9067 222.17 46.3067 221.603 50.5H248.038C247.811 46.08 246.593 42.6233 244.383 40.13ZM269.05 32.055V39.365H269.22C270.637 37.0417 272.479 35.1717 274.745 33.755C277.012 32.2817 279.534 31.545 282.31 31.545C283.33 31.545 284.265 31.715 285.115 32.055V38.685H284.86C284.01 38.4017 282.99 38.26 281.8 38.26C278.287 38.26 275.284 39.5067 272.79 42C270.297 44.4367 269.05 47.6383 269.05 51.605V76H262.165V32.055H269.05ZM297.591 47.015C300.991 50.3583 305.071 52.03 309.831 52.03C314.648 52.03 318.756 50.3583 322.156 47.015C325.556 43.615 327.256 39.5067 327.256 34.69C327.256 29.8733 325.556 25.7933 322.156 22.45C318.756 19.05 314.648 17.35 309.831 17.35C305.071 17.35 300.991 19.05 297.591 22.45C294.191 25.7933 292.491 29.8733 292.491 34.69C292.491 39.5067 294.191 43.615 297.591 47.015ZM324.451 49.225C320.428 53.2483 315.583 55.26 309.916 55.26C304.249 55.26 299.404 53.2483 295.381 49.225C291.358 45.2017 289.346 40.3567 289.346 34.69C289.346 29.0233 291.358 24.1783 295.381 20.155C299.404 16.1317 304.249 14.12 309.916 14.12C315.583 14.12 320.428 16.1317 324.451 20.155C328.474 24.1783 330.486 29.0233 330.486 34.69C330.486 40.3567 328.474 45.2017 324.451 49.225ZM316.546 40.725C318.643 37.495 319.691 33.585 319.691 28.995H322.921C322.921 34.265 321.703 38.77 319.266 42.51C316.659 46.4767 313.458 48.46 309.661 48.46C305.921 48.46 302.748 46.4767 300.141 42.51C297.704 38.77 296.486 34.265 296.486 28.995H299.716C299.716 33.585 300.764 37.495 302.861 40.725C304.788 43.785 307.054 45.315 309.661 45.315C312.324 45.315 314.619 43.785 316.546 40.725ZM307.536 26.02C307.933 26.4167 308.131 26.8983 308.131 27.465C308.131 27.975 307.933 28.4283 307.536 28.825C307.139 29.2217 306.658 29.42 306.091 29.42C305.581 29.42 305.128 29.2217 304.731 28.825C304.334 28.4283 304.136 27.975 304.136 27.465C304.136 26.8983 304.334 26.4167 304.731 26.02C305.128 25.6233 305.581 25.425 306.091 25.425C306.658 25.425 307.139 25.6233 307.536 26.02ZM315.186 26.02C315.583 26.4167 315.781 26.8983 315.781 27.465C315.781 27.975 315.583 28.4283 315.186 28.825C314.789 29.2217 314.308 29.42 313.741 29.42C313.174 29.42 312.693 29.2217 312.296 28.825C311.956 28.4283 311.786 27.975 311.786 27.465C311.786 26.8983 311.956 26.4167 312.296 26.02C312.693 25.6233 313.174 25.425 313.741 25.425C314.308 25.425 314.789 25.6233 315.186 26.02Z" fill="black"/>
</svg>
