<svg width="656" height="64" viewBox="0 0 656 64" fill="none" xmlns="http://www.w3.org/2000/svg">
<path d="M14.28 62L0.34 18.055H7.735L15.47 45.17L17.85 54.605H18.02C18.87 50.7517 19.6067 47.6633 20.23 45.34L27.625 18.055H34.85L41.99 45.34L44.115 54.605H44.285C45.1917 50.7517 46.0133 47.6067 46.75 45.17L54.91 18.055H62.05L47.685 62H40.63L33.32 35.395L31.195 26.215H31.025C30.2317 29.8983 29.495 32.9583 28.815 35.395L21.42 62H14.28ZM100.362 62.425C95.9984 62.425 93.4768 60.2433 92.7968 55.88H92.7118C89.0851 60.5267 84.2118 62.85 78.0918 62.85C73.7284 62.85 70.1584 61.8017 67.3818 59.705C64.6051 57.6083 63.2168 54.5767 63.2168 50.61C63.2168 48.57 63.5284 46.8133 64.1518 45.34C64.8318 43.81 65.6818 42.5917 66.7018 41.685C67.7218 40.7217 69.1101 39.9 70.8668 39.22C72.6801 38.4833 74.4084 37.945 76.0518 37.605C77.6951 37.2083 79.7918 36.8117 82.3418 36.415C83.9851 36.1883 85.1468 36.0183 85.8268 35.905C86.5634 35.735 87.4984 35.5083 88.6318 35.225C89.7651 34.885 90.5584 34.5167 91.0118 34.12C91.4651 33.7233 91.8901 33.185 92.2868 32.505C92.6834 31.825 92.8818 31.0317 92.8818 30.125C92.8818 27.6317 92.0034 25.7333 90.2468 24.43C88.5468 23.07 86.1384 22.39 83.0218 22.39C75.9384 22.39 72.2834 25.62 72.0568 32.08H65.4268C65.5401 27.6033 67.0701 24.005 70.0168 21.285C73.0201 18.565 77.3268 17.205 82.9368 17.205C93.7601 17.205 99.1718 21.8517 99.1718 31.145V52.055C99.1718 53.9817 99.4834 55.3417 100.107 56.135C100.787 56.9283 102.033 57.1267 103.847 56.73H104.102V61.745C102.968 62.1983 101.722 62.425 100.362 62.425ZM79.6218 57.58C83.8718 57.58 87.1584 56.3617 89.4818 53.925C91.8051 51.4317 92.9668 48.7117 92.9668 45.765V38.285C90.8701 39.5883 87.5268 40.665 82.9368 41.515C81.2368 41.855 79.9051 42.1383 78.9418 42.365C77.9784 42.535 76.8734 42.875 75.6268 43.385C74.3801 43.8383 73.4451 44.3483 72.8218 44.915C72.1984 45.4817 71.6601 46.2467 71.2068 47.21C70.7534 48.1167 70.5268 49.1933 70.5268 50.44C70.5268 55.2 73.5584 57.58 79.6218 57.58ZM105.547 23.665V18.055H111.922V4.2H118.807V18.055H127.307V23.665H118.807V52.225C118.807 54.945 120.28 56.305 123.227 56.305C124.473 56.305 125.692 56.1067 126.882 55.71H127.137V61.66C125.267 62.0567 123.425 62.255 121.612 62.255C115.152 62.255 111.922 59.4217 111.922 53.755V23.665H105.547ZM152.786 63.19C146.27 63.19 141.085 61.0083 137.231 56.645C133.435 52.225 131.536 46.7 131.536 40.07C131.536 33.5533 133.463 28.085 137.316 23.665C141.226 19.1883 146.241 16.95 152.361 16.95C158.821 16.95 163.808 19.2167 167.321 23.75C170.835 28.2267 172.591 34.205 172.591 41.685H138.591C138.875 46.3317 140.235 50.1283 142.671 53.075C145.165 55.965 148.536 57.41 152.786 57.41C159.36 57.41 163.411 54.4067 164.941 48.4H171.656C170.636 53.1033 168.483 56.7583 165.196 59.365C161.91 61.915 157.773 63.19 152.786 63.19ZM161.541 26.13C159.331 23.6367 156.271 22.39 152.361 22.39C148.451 22.39 145.335 23.6933 143.011 26.3C140.745 28.9067 139.328 32.3067 138.761 36.5H165.196C164.97 32.08 163.751 28.6233 161.541 26.13ZM189.373 62L173.988 18.055H181.383L190.478 45.935L193.368 55.2H193.538C194.615 51.5733 195.578 48.485 196.428 45.935L205.693 18.055H212.833L197.023 62H189.373ZM235.628 63.19C229.111 63.19 223.926 61.0083 220.073 56.645C216.276 52.225 214.378 46.7 214.378 40.07C214.378 33.5533 216.305 28.085 220.158 23.665C224.068 19.1883 229.083 16.95 235.203 16.95C241.663 16.95 246.65 19.2167 250.163 23.75C253.676 28.2267 255.433 34.205 255.433 41.685H221.433C221.716 46.3317 223.076 50.1283 225.513 53.075C228.006 55.965 231.378 57.41 235.628 57.41C242.201 57.41 246.253 54.4067 247.783 48.4H254.498C253.478 53.1033 251.325 56.7583 248.038 59.365C244.751 61.915 240.615 63.19 235.628 63.19ZM244.383 26.13C242.173 23.6367 239.113 22.39 235.203 22.39C231.293 22.39 228.176 23.6933 225.853 26.3C223.586 28.9067 222.17 32.3067 221.603 36.5H248.038C247.811 32.08 246.593 28.6233 244.383 26.13ZM269.05 18.055V25.365H269.22C270.637 23.0417 272.479 21.1717 274.745 19.755C277.012 18.2817 279.534 17.545 282.31 17.545C283.33 17.545 284.265 17.715 285.115 18.055V24.685H284.86C284.01 24.4017 282.99 24.26 281.8 24.26C278.287 24.26 275.284 25.5067 272.79 28C270.297 30.4367 269.05 33.6383 269.05 37.605V62H262.165V18.055H269.05ZM297.591 33.015C300.991 36.3583 305.071 38.03 309.831 38.03C314.648 38.03 318.756 36.3583 322.156 33.015C325.556 29.615 327.256 25.5067 327.256 20.69C327.256 15.8733 325.556 11.7933 322.156 8.45C318.756 5.05 314.648 3.35 309.831 3.35C305.071 3.35 300.991 5.05 297.591 8.45C294.191 11.7933 292.491 15.8733 292.491 20.69C292.491 25.5067 294.191 29.615 297.591 33.015ZM324.451 35.225C320.428 39.2483 315.583 41.26 309.916 41.26C304.249 41.26 299.404 39.2483 295.381 35.225C291.358 31.2017 289.346 26.3567 289.346 20.69C289.346 15.0233 291.358 10.1783 295.381 6.155C299.404 2.13166 304.249 0.119996 309.916 0.119996C315.583 0.119996 320.428 2.13166 324.451 6.155C328.474 10.1783 330.486 15.0233 330.486 20.69C330.486 26.3567 328.474 31.2017 324.451 35.225ZM316.546 26.725C318.643 23.495 319.691 19.585 319.691 14.995H322.921C322.921 20.265 321.703 24.77 319.266 28.51C316.659 32.4767 313.458 34.46 309.661 34.46C305.921 34.46 302.748 32.4767 300.141 28.51C297.704 24.77 296.486 20.265 296.486 14.995H299.716C299.716 19.585 300.764 23.495 302.861 26.725C304.788 29.785 307.054 31.315 309.661 31.315C312.324 31.315 314.619 29.785 316.546 26.725ZM307.536 12.02C307.933 12.4167 308.131 12.8983 308.131 13.465C308.131 13.975 307.933 14.4283 307.536 14.825C307.139 15.2217 306.658 15.42 306.091 15.42C305.581 15.42 305.128 15.2217 304.731 14.825C304.334 14.4283 304.136 13.975 304.136 13.465C304.136 12.8983 304.334 12.4167 304.731 12.02C305.128 11.6233 305.581 11.425 306.091 11.425C306.658 11.425 307.139 11.6233 307.536 12.02ZM315.186 12.02C315.583 12.4167 315.781 12.8983 315.781 13.465C315.781 13.975 315.583 14.4283 315.186 14.825C314.789 15.2217 314.308 15.42 313.741 15.42C313.174 15.42 312.693 15.2217 312.296 14.825C311.956 14.4283 311.786 13.975 311.786 13.465C311.786 12.8983 311.956 12.4167 312.296 12.02C312.693 11.6233 313.174 11.425 313.741 11.425C314.308 11.425 314.789 11.6233 315.186 12.02ZM354.184 23.665V18.055H360.559V4.2H367.444V18.055H375.944V23.665H367.444V52.225C367.444 54.945 368.918 56.305 371.864 56.305C373.111 56.305 374.329 56.1067 375.519 55.71H375.774V61.66C373.904 62.0567 372.063 62.255 370.249 62.255C363.789 62.255 360.559 59.4217 360.559 53.755V23.665H354.184ZM389.939 1.225V23.835H390.109C393.509 19.3017 398.156 17.035 404.049 17.035C408.696 17.035 412.322 18.2533 414.929 20.69C417.536 23.1267 418.839 26.6117 418.839 31.145V62H411.954V31.74C411.954 28.9067 411.076 26.725 409.319 25.195C407.562 23.6083 405.126 22.815 402.009 22.815C398.496 22.815 395.606 23.9483 393.339 26.215C391.072 28.4817 389.939 31.4 389.939 34.97V62H383.054V1.225H389.939ZM446.746 63.19C440.229 63.19 435.044 61.0083 431.191 56.645C427.394 52.225 425.496 46.7 425.496 40.07C425.496 33.5533 427.423 28.085 431.276 23.665C435.186 19.1883 440.201 16.95 446.321 16.95C452.781 16.95 457.768 19.2167 461.281 23.75C464.794 28.2267 466.551 34.205 466.551 41.685H432.551C432.834 46.3317 434.194 50.1283 436.631 53.075C439.124 55.965 442.496 57.41 446.746 57.41C453.319 57.41 457.371 54.4067 458.901 48.4H465.616C464.596 53.1033 462.443 56.7583 459.156 59.365C455.869 61.915 451.733 63.19 446.746 63.19ZM455.501 26.13C453.291 23.6367 450.231 22.39 446.321 22.39C442.411 22.39 439.294 23.6933 436.971 26.3C434.704 28.9067 433.288 32.3067 432.721 36.5H459.156C458.929 32.08 457.711 28.6233 455.501 26.13ZM505.599 63.19C499.195 63.19 494.039 60.98 490.129 56.56C486.275 52.14 484.349 46.6433 484.349 40.07C484.349 33.4967 486.275 28 490.129 23.58C494.039 19.16 499.195 16.95 505.599 16.95C510.755 16.95 514.977 18.3383 518.264 21.115C521.55 23.835 523.59 27.5467 524.384 32.25H517.414C516.904 29.2467 515.629 26.895 513.589 25.195C511.549 23.495 508.885 22.645 505.599 22.645C501.065 22.645 497.552 24.2883 495.059 27.575C492.622 30.8617 491.404 35.0267 491.404 40.07C491.404 45.1133 492.622 49.2783 495.059 52.565C497.552 55.795 501.065 57.41 505.599 57.41C509.112 57.41 511.917 56.475 514.014 54.605C516.11 52.6783 517.3 49.9867 517.584 46.53H524.384C523.93 51.8 522.06 55.9083 518.774 58.855C515.487 61.745 511.095 63.19 505.599 63.19ZM566.231 62.425C561.868 62.425 559.346 60.2433 558.666 55.88H558.581C554.954 60.5267 550.081 62.85 543.961 62.85C539.598 62.85 536.028 61.8017 533.251 59.705C530.474 57.6083 529.086 54.5767 529.086 50.61C529.086 48.57 529.398 46.8133 530.021 45.34C530.701 43.81 531.551 42.5917 532.571 41.685C533.591 40.7217 534.979 39.9 536.736 39.22C538.549 38.4833 540.278 37.945 541.921 37.605C543.564 37.2083 545.661 36.8117 548.211 36.415C549.854 36.1883 551.016 36.0183 551.696 35.905C552.433 35.735 553.368 35.5083 554.501 35.225C555.634 34.885 556.428 34.5167 556.881 34.12C557.334 33.7233 557.759 33.185 558.156 32.505C558.553 31.825 558.751 31.0317 558.751 30.125C558.751 27.6317 557.873 25.7333 556.116 24.43C554.416 23.07 552.008 22.39 548.891 22.39C541.808 22.39 538.153 25.62 537.926 32.08H531.296C531.409 27.6033 532.939 24.005 535.886 21.285C538.889 18.565 543.196 17.205 548.806 17.205C559.629 17.205 565.041 21.8517 565.041 31.145V52.055C565.041 53.9817 565.353 55.3417 565.976 56.135C566.656 56.9283 567.903 57.1267 569.716 56.73H569.971V61.745C568.838 62.1983 567.591 62.425 566.231 62.425ZM545.491 57.58C549.741 57.58 553.028 56.3617 555.351 53.925C557.674 51.4317 558.836 48.7117 558.836 45.765V38.285C556.739 39.5883 553.396 40.665 548.806 41.515C547.106 41.855 545.774 42.1383 544.811 42.365C543.848 42.535 542.743 42.875 541.496 43.385C540.249 43.8383 539.314 44.3483 538.691 44.915C538.068 45.4817 537.529 46.2467 537.076 47.21C536.623 48.1167 536.396 49.1933 536.396 50.44C536.396 55.2 539.428 57.58 545.491 57.58ZM591.711 63.275C585.704 63.275 581.029 61.9433 577.686 59.28C574.399 56.56 572.586 52.7067 572.246 47.72H579.301C580.094 54.2367 584.288 57.495 591.881 57.495C595.338 57.495 597.888 56.8433 599.531 55.54C601.231 54.18 602.081 52.4233 602.081 50.27C602.081 47.9467 601.259 46.275 599.616 45.255C597.973 44.235 594.969 43.2717 590.606 42.365C588.793 41.9683 587.348 41.6567 586.271 41.43C585.251 41.1467 584.004 40.7783 582.531 40.325C581.058 39.815 579.896 39.2767 579.046 38.71C578.253 38.0867 577.431 37.35 576.581 36.5C575.731 35.65 575.108 34.6017 574.711 33.355C574.371 32.1083 574.201 30.72 574.201 29.19C574.201 25.45 575.561 22.5033 578.281 20.35C581.058 18.1967 584.968 17.12 590.011 17.12C600.438 17.12 606.189 21.71 607.266 30.89H600.211C599.871 28 598.879 25.9033 597.236 24.6C595.593 23.24 593.128 22.56 589.841 22.56C586.838 22.56 584.599 23.155 583.126 24.345C581.709 25.4783 581.001 26.98 581.001 28.85C581.001 31.0033 581.851 32.5333 583.551 33.44C585.251 34.29 588.339 35.1683 592.816 36.075C595.536 36.6417 597.661 37.18 599.191 37.69C600.778 38.1433 602.421 38.88 604.121 39.9C605.821 40.8633 607.068 42.1667 607.861 43.81C608.654 45.4533 609.051 47.4933 609.051 49.93C609.051 54.2367 607.464 57.5517 604.291 59.875C601.118 62.1417 596.924 63.275 591.711 63.275ZM635.257 63.19C628.74 63.19 623.555 61.0083 619.702 56.645C615.905 52.225 614.007 46.7 614.007 40.07C614.007 33.5533 615.934 28.085 619.787 23.665C623.697 19.1883 628.712 16.95 634.832 16.95C641.292 16.95 646.279 19.2167 649.792 23.75C653.305 28.2267 655.062 34.205 655.062 41.685H621.062C621.345 46.3317 622.705 50.1283 625.142 53.075C627.635 55.965 631.007 57.41 635.257 57.41C641.83 57.41 645.882 54.4067 647.412 48.4H654.127C653.107 53.1033 650.954 56.7583 647.667 59.365C644.38 61.915 640.244 63.19 635.257 63.19ZM644.012 26.13C641.802 23.6367 638.742 22.39 634.832 22.39C630.922 22.39 627.805 23.6933 625.482 26.3C623.215 28.9067 621.799 32.3067 621.232 36.5H647.667C647.44 32.08 646.222 28.6233 644.012 26.13Z" fill="black"/>
</svg>
