<svg width="126" height="27" viewBox="0 0 126 27" fill="none" xmlns="http://www.w3.org/2000/svg">
<g id="watever">
<path id="Vector" d="M118.656 6.33524V9.67762H118.734C119.381 8.61531 120.223 7.76029 121.26 7.11254C122.296 6.43888 123.449 6.10205 124.719 6.10205C125.185 6.10205 125.613 6.17978 126.001 6.33524V9.3667H125.885C125.496 9.23715 125.03 9.17238 124.486 9.17238C122.879 9.17238 121.506 9.7424 120.366 10.8824C119.226 11.9966 118.656 13.4605 118.656 15.2742V26.4284H115.508V6.33524H118.656Z" fill="black"/>
<path id="Vector_2" d="M104.15 26.9721C101.17 26.9721 98.7994 25.9746 97.0375 23.9795C95.3016 21.9585 94.4336 19.4323 94.4336 16.4008C94.4336 13.4212 95.3145 10.9209 97.0764 8.89992C98.8642 6.85303 101.157 5.82959 103.955 5.82959C106.909 5.82959 109.189 6.86599 110.796 8.93878C112.402 10.9857 113.205 13.7192 113.205 17.1393H97.6594C97.7889 19.2639 98.4108 20.9999 99.5249 22.3472C100.665 23.6686 102.207 24.3293 104.15 24.3293C107.155 24.3293 109.008 22.9561 109.707 20.2096H112.778C112.311 22.3601 111.327 24.0313 109.824 25.2232C108.321 26.3891 106.43 26.9721 104.15 26.9721ZM108.153 10.027C107.142 8.88696 105.743 8.31694 103.955 8.31694C102.168 8.31694 100.743 8.91287 99.6804 10.1047C98.644 11.2966 97.9962 12.8512 97.7371 14.7685H109.824C109.72 12.7475 109.163 11.167 108.153 10.027Z" fill="black"/>
<path id="Vector_3" d="M83.7767 26.4281L76.7422 6.33496H80.1234L84.282 19.0826L85.6034 23.3189H85.6811C86.1734 21.6607 86.6139 20.2486 87.0025 19.0826L91.2388 6.33496H94.5035L87.2746 26.4281H83.7767Z" fill="black"/>
<path id="Vector_4" d="M67.8256 26.9721C64.846 26.9721 62.4752 25.9746 60.7133 23.9795C58.9774 21.9585 58.1094 19.4323 58.1094 16.4008C58.1094 13.4212 58.9903 10.9209 60.7522 8.89992C62.54 6.85303 64.833 5.82959 67.6313 5.82959C70.585 5.82959 72.8651 6.86599 74.4715 8.93878C76.0779 10.9857 76.8811 13.7192 76.8811 17.1393H61.3352C61.4647 19.2639 62.0865 20.9999 63.2007 22.3472C64.3407 23.6686 65.8824 24.3293 67.8256 24.3293C70.8312 24.3293 72.6837 22.9561 73.3833 20.2096H76.4536C75.9872 22.3601 75.0026 24.0313 73.4999 25.2232C71.9971 26.3891 70.1057 26.9721 67.8256 26.9721ZM71.8287 10.027C70.8182 8.88696 69.4191 8.31694 67.6313 8.31694C65.8435 8.31694 64.4184 8.91287 63.3561 10.1047C62.3197 11.2966 61.672 12.8512 61.4129 14.7685H73.4999C73.3962 12.7475 72.8392 11.167 71.8287 10.027Z" fill="black"/>
<path id="Vector_5" d="M47.0039 8.90006V6.33498H49.9188V0H53.0668V6.33498H56.9533V8.90006H53.0668V21.9587C53.0668 23.2023 53.7405 23.8242 55.0878 23.8242C55.6578 23.8242 56.2149 23.7335 56.759 23.5521H56.8756V26.2727C56.0206 26.454 55.1785 26.5447 54.3494 26.5447C51.3956 26.5447 49.9188 25.2492 49.9188 22.6582V8.90006H47.0039Z" fill="black"/>
<path id="Vector_6" d="M45.4097 26.6224C43.4147 26.6224 42.2617 25.6249 41.9508 23.6298H41.9119C40.2537 25.7544 38.0254 26.8167 35.2271 26.8167C33.2321 26.8167 31.5997 26.3374 30.3302 25.3787C29.0606 24.4201 28.4258 23.0339 28.4258 21.2202C28.4258 20.2874 28.5683 19.4842 28.8533 18.8106C29.1642 18.111 29.5529 17.5539 30.0192 17.1394C30.4856 16.6989 31.1204 16.3232 31.9236 16.0123C32.7527 15.6755 33.543 15.4293 34.2944 15.2739C35.0458 15.0925 36.0044 14.9111 37.1704 14.7298C37.9218 14.6261 38.4529 14.5484 38.7638 14.4966C39.1007 14.4188 39.5282 14.3152 40.0464 14.1856C40.5646 14.0302 40.9273 13.8618 41.1346 13.6804C41.3419 13.499 41.5362 13.2529 41.7176 12.942C41.8989 12.6311 41.9896 12.2683 41.9896 11.8538C41.9896 10.7137 41.588 9.84573 40.7848 9.2498C40.0075 8.62797 38.9063 8.31705 37.4813 8.31705C34.2426 8.31705 32.5714 9.79391 32.4677 12.7476H29.4363C29.4881 10.7008 30.1877 9.05548 31.535 7.8118C32.9082 6.56813 34.8774 5.94629 37.4424 5.94629C42.3912 5.94629 44.8656 8.0709 44.8656 12.3201V21.8809C44.8656 22.7618 45.0081 23.3837 45.2931 23.7464C45.6041 24.1091 46.1741 24.1998 47.0032 24.0185H47.1198V26.3115C46.6016 26.5188 46.0316 26.6224 45.4097 26.6224ZM35.9267 24.4071C37.8699 24.4071 39.3727 23.85 40.435 22.7359C41.4973 21.5959 42.0285 20.3522 42.0285 19.0049V15.5848C41.0698 16.1807 39.5411 16.673 37.4424 17.0616C36.6651 17.2171 36.0563 17.3467 35.6158 17.4503C35.1753 17.528 34.6701 17.6835 34.1001 17.9167C33.53 18.124 33.1025 18.3571 32.8175 18.6162C32.5325 18.8753 32.2864 19.2251 32.0791 19.6656C31.8718 20.0802 31.7682 20.5724 31.7682 21.1425C31.7682 23.3189 33.1543 24.4071 35.9267 24.4071Z" fill="black"/>
<path id="Vector_7" d="M6.82697 26.4281L0.453125 6.33496H3.83437L7.37108 18.7329L8.45929 23.0469H8.53702C8.92567 21.285 9.2625 19.8729 9.54751 18.8106L12.9288 6.33496H16.2323L19.4969 18.8106L20.4685 23.0469H20.5463C20.9608 21.285 21.3365 19.847 21.6734 18.7329L25.4044 6.33496H28.669L22.1009 26.4281H18.8751L15.5327 14.2634L14.5611 10.066H14.4834C14.1206 11.7501 13.7838 13.1493 13.4729 14.2634L10.0916 26.4281H6.82697Z" fill="black"/>
</g>
</svg>
