<svg width="99" height="42" viewBox="0 0 99 42" fill="none" xmlns="http://www.w3.org/2000/svg">
<rect x="0.5" y="0.5" width="98" height="41" rx="19.5" fill="white"/>
<rect x="0.5" y="0.5" width="98" height="41" rx="19.5" stroke="white"/>
<path d="M12.8677 18.882V17.694H14.2177V14.76H15.6757V17.694H17.4757V18.882H15.6757V24.93C15.6757 25.506 15.9877 25.794 16.6117 25.794C16.8757 25.794 17.1337 25.752 17.3857 25.668H17.4397V26.928C17.0437 27.012 16.6537 27.054 16.2697 27.054C14.9017 27.054 14.2177 26.454 14.2177 25.254V18.882H12.8677ZM20.4392 14.13V18.918H20.4752C21.1952 17.958 22.1792 17.478 23.4272 17.478C24.4112 17.478 25.1792 17.736 25.7312 18.252C26.2832 18.768 26.5592 19.506 26.5592 20.466V27H25.1012V20.592C25.1012 19.992 24.9152 19.53 24.5432 19.206C24.1712 18.87 23.6552 18.702 22.9952 18.702C22.2512 18.702 21.6392 18.942 21.1592 19.422C20.6792 19.902 20.4392 20.52 20.4392 21.276V27H18.9812V14.13H20.4392ZM32.469 27.252C31.089 27.252 29.991 26.79 29.175 25.866C28.371 24.93 27.969 23.76 27.969 22.356C27.969 20.976 28.377 19.818 29.193 18.882C30.021 17.934 31.083 17.46 32.379 17.46C33.747 17.46 34.803 17.94 35.547 18.9C36.291 19.848 36.663 21.114 36.663 22.698H29.463C29.523 23.682 29.811 24.486 30.327 25.11C30.855 25.722 31.569 26.028 32.469 26.028C33.861 26.028 34.719 25.392 35.043 24.12H36.465C36.249 25.116 35.793 25.89 35.097 26.442C34.401 26.982 33.525 27.252 32.469 27.252ZM34.323 19.404C33.855 18.876 33.207 18.612 32.379 18.612C31.551 18.612 30.891 18.888 30.399 19.44C29.919 19.992 29.619 20.712 29.499 21.6H35.097C35.049 20.664 34.791 19.932 34.323 19.404ZM44.9319 27.252C43.5759 27.252 42.4839 26.784 41.6559 25.848C40.8399 24.912 40.4319 23.748 40.4319 22.356C40.4319 20.964 40.8399 19.8 41.6559 18.864C42.4839 17.928 43.5759 17.46 44.9319 17.46C46.0239 17.46 46.9179 17.754 47.6139 18.342C48.3099 18.918 48.7419 19.704 48.9099 20.7H47.4339C47.3259 20.064 47.0559 19.566 46.6239 19.206C46.1919 18.846 45.6279 18.666 44.9319 18.666C43.9719 18.666 43.2279 19.014 42.6999 19.71C42.1839 20.406 41.9259 21.288 41.9259 22.356C41.9259 23.424 42.1839 24.306 42.6999 25.002C43.2279 25.686 43.9719 26.028 44.9319 26.028C45.6759 26.028 46.2699 25.83 46.7139 25.434C47.1579 25.026 47.4099 24.456 47.4699 23.724H48.9099C48.8139 24.84 48.4179 25.71 47.7219 26.334C47.0259 26.946 46.0959 27.252 44.9319 27.252ZM57.7716 27.09C56.8476 27.09 56.3136 26.628 56.1696 25.704H56.1516C55.3836 26.688 54.3516 27.18 53.0556 27.18C52.1316 27.18 51.3756 26.958 50.7876 26.514C50.1996 26.07 49.9056 25.428 49.9056 24.588C49.9056 24.156 49.9716 23.784 50.1036 23.472C50.2476 23.148 50.4276 22.89 50.6436 22.698C50.8596 22.494 51.1536 22.32 51.5256 22.176C51.9096 22.02 52.2756 21.906 52.6236 21.834C52.9716 21.75 53.4156 21.666 53.9556 21.582C54.3036 21.534 54.5496 21.498 54.6936 21.474C54.8496 21.438 55.0476 21.39 55.2876 21.33C55.5276 21.258 55.6956 21.18 55.7916 21.096C55.8876 21.012 55.9776 20.898 56.0616 20.754C56.1456 20.61 56.1876 20.442 56.1876 20.25C56.1876 19.722 56.0016 19.32 55.6296 19.044C55.2696 18.756 54.7596 18.612 54.0996 18.612C52.5996 18.612 51.8256 19.296 51.7776 20.664H50.3736C50.3976 19.716 50.7216 18.954 51.3456 18.378C51.9816 17.802 52.8936 17.514 54.0816 17.514C56.3736 17.514 57.5196 18.498 57.5196 20.466V24.894C57.5196 25.302 57.5856 25.59 57.7176 25.758C57.8616 25.926 58.1256 25.968 58.5096 25.884H58.5636V26.946C58.3236 27.042 58.0596 27.09 57.7716 27.09ZM53.3796 26.064C54.2796 26.064 54.9756 25.806 55.4676 25.29C55.9596 24.762 56.2056 24.186 56.2056 23.562V21.978C55.7616 22.254 55.0536 22.482 54.0816 22.662C53.7216 22.734 53.4396 22.794 53.2356 22.842C53.0316 22.878 52.7976 22.95 52.5336 23.058C52.2696 23.154 52.0716 23.262 51.9396 23.382C51.8076 23.502 51.6936 23.664 51.5976 23.868C51.5016 24.06 51.4536 24.288 51.4536 24.552C51.4536 25.56 52.0956 26.064 53.3796 26.064ZM63.1674 27.27C61.8954 27.27 60.9054 26.988 60.1974 26.424C59.5014 25.848 59.1174 25.032 59.0454 23.976H60.5394C60.7074 25.356 61.5954 26.046 63.2034 26.046C63.9354 26.046 64.4754 25.908 64.8234 25.632C65.1834 25.344 65.3634 24.972 65.3634 24.516C65.3634 24.024 65.1894 23.67 64.8414 23.454C64.4934 23.238 63.8574 23.034 62.9334 22.842C62.5494 22.758 62.2434 22.692 62.0154 22.644C61.7994 22.584 61.5354 22.506 61.2234 22.41C60.9114 22.302 60.6654 22.188 60.4854 22.068C60.3174 21.936 60.1434 21.78 59.9634 21.6C59.7834 21.42 59.6514 21.198 59.5674 20.934C59.4954 20.67 59.4594 20.376 59.4594 20.052C59.4594 19.26 59.7474 18.636 60.3234 18.18C60.9114 17.724 61.7394 17.496 62.8074 17.496C65.0154 17.496 66.2334 18.468 66.4614 20.412H64.9674C64.8954 19.8 64.6854 19.356 64.3374 19.08C63.9894 18.792 63.4674 18.648 62.7714 18.648C62.1354 18.648 61.6614 18.774 61.3494 19.026C61.0494 19.266 60.8994 19.584 60.8994 19.98C60.8994 20.436 61.0794 20.76 61.4394 20.952C61.7994 21.132 62.4534 21.318 63.4014 21.51C63.9774 21.63 64.4274 21.744 64.7514 21.852C65.0874 21.948 65.4354 22.104 65.7954 22.32C66.1554 22.524 66.4194 22.8 66.5874 23.148C66.7554 23.496 66.8394 23.928 66.8394 24.444C66.8394 25.356 66.5034 26.058 65.8314 26.55C65.1594 27.03 64.2714 27.27 63.1674 27.27ZM72.3889 27.252C71.0089 27.252 69.9109 26.79 69.0949 25.866C68.2909 24.93 67.8889 23.76 67.8889 22.356C67.8889 20.976 68.2969 19.818 69.1129 18.882C69.9409 17.934 71.0029 17.46 72.2989 17.46C73.6669 17.46 74.7229 17.94 75.4669 18.9C76.2109 19.848 76.5829 21.114 76.5829 22.698H69.3829C69.4429 23.682 69.7309 24.486 70.2469 25.11C70.7749 25.722 71.4889 26.028 72.3889 26.028C73.7809 26.028 74.6389 25.392 74.9629 24.12H76.3849C76.1689 25.116 75.7129 25.89 75.0169 26.442C74.3209 26.982 73.4449 27.252 72.3889 27.252ZM74.2429 19.404C73.7749 18.876 73.1269 18.612 72.2989 18.612C71.4709 18.612 70.8109 18.888 70.3189 19.44C69.8389 19.992 69.5389 20.712 69.4189 21.6H75.0169C74.9689 20.664 74.7109 19.932 74.2429 19.404ZM79.3406 20.862C80.0606 21.57 80.9246 21.924 81.9326 21.924C82.9526 21.924 83.8226 21.57 84.5426 20.862C85.2626 20.142 85.6226 19.272 85.6226 18.252C85.6226 17.232 85.2626 16.368 84.5426 15.66C83.8226 14.94 82.9526 14.58 81.9326 14.58C80.9246 14.58 80.0606 14.94 79.3406 15.66C78.6206 16.368 78.2606 17.232 78.2606 18.252C78.2606 19.272 78.6206 20.142 79.3406 20.862ZM85.0286 21.33C84.1766 22.182 83.1506 22.608 81.9506 22.608C80.7506 22.608 79.7246 22.182 78.8726 21.33C78.0206 20.478 77.5946 19.452 77.5946 18.252C77.5946 17.052 78.0206 16.026 78.8726 15.174C79.7246 14.322 80.7506 13.896 81.9506 13.896C83.1506 13.896 84.1766 14.322 85.0286 15.174C85.8806 16.026 86.3066 17.052 86.3066 18.252C86.3066 19.452 85.8806 20.478 85.0286 21.33ZM83.3546 19.53C83.7986 18.846 84.0206 18.018 84.0206 17.046H84.7046C84.7046 18.162 84.4466 19.116 83.9306 19.908C83.3786 20.748 82.7006 21.168 81.8966 21.168C81.1046 21.168 80.4326 20.748 79.8806 19.908C79.3646 19.116 79.1066 18.162 79.1066 17.046H79.7906C79.7906 18.018 80.0126 18.846 80.4566 19.53C80.8646 20.178 81.3446 20.502 81.8966 20.502C82.4606 20.502 82.9466 20.178 83.3546 19.53ZM81.4466 16.416C81.5306 16.5 81.5726 16.602 81.5726 16.722C81.5726 16.83 81.5306 16.926 81.4466 17.01C81.3626 17.094 81.2606 17.136 81.1406 17.136C81.0326 17.136 80.9366 17.094 80.8526 17.01C80.7686 16.926 80.7266 16.83 80.7266 16.722C80.7266 16.602 80.7686 16.5 80.8526 16.416C80.9366 16.332 81.0326 16.29 81.1406 16.29C81.2606 16.29 81.3626 16.332 81.4466 16.416ZM83.0666 16.416C83.1506 16.5 83.1926 16.602 83.1926 16.722C83.1926 16.83 83.1506 16.926 83.0666 17.01C82.9826 17.094 82.8806 17.136 82.7606 17.136C82.6406 17.136 82.5386 17.094 82.4546 17.01C82.3826 16.926 82.3466 16.83 82.3466 16.722C82.3466 16.602 82.3826 16.5 82.4546 16.416C82.5386 16.332 82.6406 16.29 82.7606 16.29C82.8806 16.29 82.9826 16.332 83.0666 16.416Z" fill="black"/>
</svg>
