<svg width="137" height="42" viewBox="0 0 137 42" fill="none" xmlns="http://www.w3.org/2000/svg">
<rect x="0.5" y="0.5" width="136" height="41" rx="19.5" fill="#E3FF51"/>
<rect x="0.5" y="0.5" width="136" height="41" rx="19.5" stroke="black"/>
<path d="M17.0593 30.096C15.8713 30.096 14.9353 29.868 14.2513 29.412C13.5793 28.968 13.2013 28.338 13.1173 27.522H14.4673C14.5993 28.47 15.4513 28.944 17.0233 28.944C18.7993 28.944 19.6873 28.146 19.6873 26.55V25.236H19.6513C19.2793 25.716 18.8833 26.076 18.4633 26.316C18.0433 26.556 17.5213 26.676 16.8973 26.676C15.6973 26.676 14.7193 26.244 13.9633 25.38C13.2073 24.516 12.8293 23.412 12.8293 22.068C12.8293 20.664 13.2073 19.548 13.9633 18.72C14.7313 17.892 15.6793 17.478 16.8073 17.478C18.0313 17.478 18.9793 17.946 19.6513 18.882H19.6873V17.694H21.1453V26.496C21.1453 27.684 20.7793 28.578 20.0473 29.178C19.3273 29.79 18.3313 30.096 17.0593 30.096ZM16.9693 25.452C18.8533 25.452 19.7953 24.3 19.7953 21.996C19.7953 19.8 18.8473 18.702 16.9513 18.702C16.0993 18.702 15.4453 19.008 14.9893 19.62C14.5453 20.232 14.3233 21.054 14.3233 22.086C14.3233 23.118 14.5513 23.94 15.0073 24.552C15.4633 25.152 16.1173 25.452 16.9693 25.452ZM27.1028 27.252C25.7228 27.252 24.6248 26.79 23.8088 25.866C23.0048 24.93 22.6028 23.76 22.6028 22.356C22.6028 20.976 23.0108 19.818 23.8268 18.882C24.6548 17.934 25.7168 17.46 27.0128 17.46C28.3808 17.46 29.4368 17.94 30.1808 18.9C30.9248 19.848 31.2968 21.114 31.2968 22.698H24.0968C24.1568 23.682 24.4448 24.486 24.9608 25.11C25.4888 25.722 26.2028 26.028 27.1028 26.028C28.4948 26.028 29.3528 25.392 29.6768 24.12H31.0988C30.8828 25.116 30.4268 25.89 29.7308 26.442C29.0348 26.982 28.1588 27.252 27.1028 27.252ZM28.9568 19.404C28.4888 18.876 27.8408 18.612 27.0128 18.612C26.1848 18.612 25.5248 18.888 25.0328 19.44C24.5528 19.992 24.2528 20.712 24.1328 21.6H29.7308C29.6828 20.664 29.4248 19.932 28.9568 19.404ZM31.9526 18.882V17.694H33.3026V14.76H34.7606V17.694H36.5606V18.882H34.7606V24.93C34.7606 25.506 35.0726 25.794 35.6966 25.794C35.9606 25.794 36.2186 25.752 36.4706 25.668H36.5246V26.928C36.1286 27.012 35.7386 27.054 35.3546 27.054C33.9866 27.054 33.3026 26.454 33.3026 25.254V18.882H31.9526ZM42.9654 27L40.0134 17.694H41.5794L43.2174 23.436L43.7214 25.434H43.7574C43.9374 24.618 44.0934 23.964 44.2254 23.472L45.7914 17.694H47.3214L48.8334 23.472L49.2834 25.434H49.3194C49.5114 24.618 49.6854 23.952 49.8414 23.436L51.5694 17.694H53.0814L50.0394 27H48.5454L46.9974 21.366L46.5474 19.422H46.5114C46.3434 20.202 46.1874 20.85 46.0434 21.366L44.4774 27H42.9654ZM61.1945 27.09C60.2705 27.09 59.7365 26.628 59.5925 25.704H59.5745C58.8065 26.688 57.7745 27.18 56.4785 27.18C55.5545 27.18 54.7985 26.958 54.2105 26.514C53.6225 26.07 53.3285 25.428 53.3285 24.588C53.3285 24.156 53.3945 23.784 53.5265 23.472C53.6705 23.148 53.8505 22.89 54.0665 22.698C54.2825 22.494 54.5765 22.32 54.9485 22.176C55.3325 22.02 55.6985 21.906 56.0465 21.834C56.3945 21.75 56.8385 21.666 57.3785 21.582C57.7265 21.534 57.9725 21.498 58.1165 21.474C58.2725 21.438 58.4705 21.39 58.7105 21.33C58.9505 21.258 59.1185 21.18 59.2145 21.096C59.3105 21.012 59.4005 20.898 59.4845 20.754C59.5685 20.61 59.6105 20.442 59.6105 20.25C59.6105 19.722 59.4245 19.32 59.0525 19.044C58.6925 18.756 58.1825 18.612 57.5225 18.612C56.0225 18.612 55.2485 19.296 55.2005 20.664H53.7965C53.8205 19.716 54.1445 18.954 54.7685 18.378C55.4045 17.802 56.3165 17.514 57.5045 17.514C59.7965 17.514 60.9425 18.498 60.9425 20.466V24.894C60.9425 25.302 61.0085 25.59 61.1405 25.758C61.2845 25.926 61.5485 25.968 61.9325 25.884H61.9865V26.946C61.7465 27.042 61.4825 27.09 61.1945 27.09ZM56.8025 26.064C57.7025 26.064 58.3985 25.806 58.8905 25.29C59.3825 24.762 59.6285 24.186 59.6285 23.562V21.978C59.1845 22.254 58.4765 22.482 57.5045 22.662C57.1445 22.734 56.8625 22.794 56.6585 22.842C56.4545 22.878 56.2205 22.95 55.9565 23.058C55.6925 23.154 55.4945 23.262 55.3625 23.382C55.2305 23.502 55.1165 23.664 55.0205 23.868C54.9245 24.06 54.8765 24.288 54.8765 24.552C54.8765 25.56 55.5185 26.064 56.8025 26.064ZM62.2925 18.882V17.694H63.6425V14.76H65.1005V17.694H66.9005V18.882H65.1005V24.93C65.1005 25.506 65.4125 25.794 66.0365 25.794C66.3005 25.794 66.5585 25.752 66.8105 25.668H66.8645V26.928C66.4685 27.012 66.0785 27.054 65.6945 27.054C64.3265 27.054 63.6425 26.454 63.6425 25.254V18.882H62.2925ZM72.2961 27.252C70.9161 27.252 69.8181 26.79 69.0021 25.866C68.1981 24.93 67.7961 23.76 67.7961 22.356C67.7961 20.976 68.2041 19.818 69.0201 18.882C69.8481 17.934 70.9101 17.46 72.2061 17.46C73.5741 17.46 74.6301 17.94 75.3741 18.9C76.1181 19.848 76.4901 21.114 76.4901 22.698H69.2901C69.3501 23.682 69.6381 24.486 70.1541 25.11C70.6821 25.722 71.3961 26.028 72.2961 26.028C73.6881 26.028 74.5461 25.392 74.8701 24.12H76.2921C76.0761 25.116 75.6201 25.89 74.9241 26.442C74.2281 26.982 73.3521 27.252 72.2961 27.252ZM74.1501 19.404C73.6821 18.876 73.0341 18.612 72.2061 18.612C71.3781 18.612 70.7181 18.888 70.2261 19.44C69.7461 19.992 69.4461 20.712 69.3261 21.6H74.9241C74.8761 20.664 74.6181 19.932 74.1501 19.404ZM80.044 27L76.786 17.694H78.352L80.278 23.598L80.89 25.56H80.926C81.154 24.792 81.358 24.138 81.538 23.598L83.5 17.694H85.012L81.664 27H80.044ZM89.8391 27.252C88.4591 27.252 87.3611 26.79 86.5451 25.866C85.7411 24.93 85.3391 23.76 85.3391 22.356C85.3391 20.976 85.7471 19.818 86.5631 18.882C87.3911 17.934 88.4531 17.46 89.7491 17.46C91.1171 17.46 92.1731 17.94 92.9171 18.9C93.6611 19.848 94.0331 21.114 94.0331 22.698H86.8331C86.8931 23.682 87.1811 24.486 87.6971 25.11C88.2251 25.722 88.9391 26.028 89.8391 26.028C91.2311 26.028 92.0891 25.392 92.4131 24.12H93.8351C93.6191 25.116 93.1631 25.89 92.4671 26.442C91.7711 26.982 90.8951 27.252 89.8391 27.252ZM91.6931 19.404C91.2251 18.876 90.5771 18.612 89.7491 18.612C88.9211 18.612 88.2611 18.888 87.7691 19.44C87.2891 19.992 86.9891 20.712 86.8691 21.6H92.4671C92.4191 20.664 92.1611 19.932 91.6931 19.404ZM96.9168 17.694V19.242H96.9528C97.2528 18.75 97.6428 18.354 98.1228 18.054C98.6028 17.742 99.1368 17.586 99.7248 17.586C99.9408 17.586 100.139 17.622 100.319 17.694V19.098H100.265C100.085 19.038 99.8688 19.008 99.6168 19.008C98.8728 19.008 98.2368 19.272 97.7088 19.8C97.1808 20.316 96.9168 20.994 96.9168 21.834V27H95.4588V17.694H96.9168Z" fill="black"/>
<mask id="mask0_5407_1778" style="mask-type:alpha" maskUnits="userSpaceOnUse" x="105" y="11" width="20" height="20">
<rect x="105" y="11" width="20" height="20" rx="1" fill="#D9D9D9"/>
</mask>
<g mask="url(#mask0_5407_1778)">
<path d="M116.771 23.5405C117.401 22.9105 116.955 21.8334 116.064 21.8334H109.165C108.705 21.8334 108.332 21.4603 108.332 21V21C108.332 20.5398 108.705 20.1667 109.165 20.1667H116.064C116.955 20.1667 117.401 19.0896 116.771 18.4596L114.405 16.0938C114.078 15.7667 114.08 15.2357 114.41 14.9115V14.9115C114.736 14.5914 115.259 14.5937 115.582 14.9167L120.958 20.2929C121.349 20.6835 121.349 21.3166 120.958 21.7071L115.582 27.0834C115.259 27.4064 114.736 27.4087 114.41 27.0885V27.0885C114.08 26.7644 114.078 26.2333 114.405 25.9063L116.771 23.5405Z" fill="#1C1B1F"/>
</g>
</svg>
